%TF.GenerationSoftware,KiCad,Pcbnew,7.0.7-7.0.7~ubuntu22.04.1*%
%TF.CreationDate,2023-09-13T17:51:59+02:00*%
%TF.ProjectId,ShotClockProject,53686f74-436c-46f6-936b-50726f6a6563,rev?*%
%TF.SameCoordinates,Original*%
%TF.FileFunction,Copper,L1,Top*%
%TF.FilePolarity,Positive*%
%FSLAX46Y46*%
G04 Gerber Fmt 4.6, Leading zero omitted, Abs format (unit mm)*
G04 Created by KiCad (PCBNEW 7.0.7-7.0.7~ubuntu22.04.1) date 2023-09-13 17:51:59*
%MOMM*%
%LPD*%
G01*
G04 APERTURE LIST*
G04 Aperture macros list*
%AMRoundRect*
0 Rectangle with rounded corners*
0 $1 Rounding radius*
0 $2 $3 $4 $5 $6 $7 $8 $9 X,Y pos of 4 corners*
0 Add a 4 corners polygon primitive as box body*
4,1,4,$2,$3,$4,$5,$6,$7,$8,$9,$2,$3,0*
0 Add four circle primitives for the rounded corners*
1,1,$1+$1,$2,$3*
1,1,$1+$1,$4,$5*
1,1,$1+$1,$6,$7*
1,1,$1+$1,$8,$9*
0 Add four rect primitives between the rounded corners*
20,1,$1+$1,$2,$3,$4,$5,0*
20,1,$1+$1,$4,$5,$6,$7,0*
20,1,$1+$1,$6,$7,$8,$9,0*
20,1,$1+$1,$8,$9,$2,$3,0*%
%AMFreePoly0*
4,1,21,-0.125000,1.200000,0.125000,1.200000,0.125000,1.700000,0.375000,1.700000,0.375000,1.200000,0.825000,1.200000,0.825000,-1.200000,0.375000,-1.200000,0.375000,-1.700000,0.125000,-1.700000,0.125000,-1.200000,-0.125000,-1.200000,-0.125000,-1.700000,-0.375000,-1.700000,-0.375000,-1.200000,-0.825000,-1.200000,-0.825000,1.200000,-0.375000,1.200000,-0.375000,1.700000,-0.125000,1.700000,
-0.125000,1.200000,-0.125000,1.200000,$1*%
G04 Aperture macros list end*
%TA.AperFunction,SMDPad,CuDef*%
%ADD10RoundRect,0.135000X-0.185000X0.135000X-0.185000X-0.135000X0.185000X-0.135000X0.185000X0.135000X0*%
%TD*%
%TA.AperFunction,SMDPad,CuDef*%
%ADD11RoundRect,0.140000X-0.140000X-0.170000X0.140000X-0.170000X0.140000X0.170000X-0.140000X0.170000X0*%
%TD*%
%TA.AperFunction,SMDPad,CuDef*%
%ADD12R,2.550000X1.000000*%
%TD*%
%TA.AperFunction,SMDPad,CuDef*%
%ADD13RoundRect,0.135000X-0.135000X-0.185000X0.135000X-0.185000X0.135000X0.185000X-0.135000X0.185000X0*%
%TD*%
%TA.AperFunction,SMDPad,CuDef*%
%ADD14R,0.300000X1.300000*%
%TD*%
%TA.AperFunction,SMDPad,CuDef*%
%ADD15R,2.000000X1.600000*%
%TD*%
%TA.AperFunction,SMDPad,CuDef*%
%ADD16C,2.000000*%
%TD*%
%TA.AperFunction,SMDPad,CuDef*%
%ADD17RoundRect,0.140000X-0.170000X0.140000X-0.170000X-0.140000X0.170000X-0.140000X0.170000X0.140000X0*%
%TD*%
%TA.AperFunction,SMDPad,CuDef*%
%ADD18R,1.300000X0.300000*%
%TD*%
%TA.AperFunction,SMDPad,CuDef*%
%ADD19R,1.600000X2.000000*%
%TD*%
%TA.AperFunction,SMDPad,CuDef*%
%ADD20RoundRect,0.112500X-0.187500X-0.112500X0.187500X-0.112500X0.187500X0.112500X-0.187500X0.112500X0*%
%TD*%
%TA.AperFunction,SMDPad,CuDef*%
%ADD21RoundRect,0.218750X0.218750X0.256250X-0.218750X0.256250X-0.218750X-0.256250X0.218750X-0.256250X0*%
%TD*%
%TA.AperFunction,SMDPad,CuDef*%
%ADD22C,1.000000*%
%TD*%
%TA.AperFunction,SMDPad,CuDef*%
%ADD23RoundRect,0.225000X0.225000X0.250000X-0.225000X0.250000X-0.225000X-0.250000X0.225000X-0.250000X0*%
%TD*%
%TA.AperFunction,SMDPad,CuDef*%
%ADD24RoundRect,0.135000X0.185000X-0.135000X0.185000X0.135000X-0.185000X0.135000X-0.185000X-0.135000X0*%
%TD*%
%TA.AperFunction,SMDPad,CuDef*%
%ADD25RoundRect,0.135000X0.135000X0.185000X-0.135000X0.185000X-0.135000X-0.185000X0.135000X-0.185000X0*%
%TD*%
%TA.AperFunction,ComponentPad*%
%ADD26R,1.700000X1.700000*%
%TD*%
%TA.AperFunction,ComponentPad*%
%ADD27O,1.700000X1.700000*%
%TD*%
%TA.AperFunction,SMDPad,CuDef*%
%ADD28R,2.700000X0.800000*%
%TD*%
%TA.AperFunction,SMDPad,CuDef*%
%ADD29RoundRect,0.140000X0.170000X-0.140000X0.170000X0.140000X-0.170000X0.140000X-0.170000X-0.140000X0*%
%TD*%
%TA.AperFunction,SMDPad,CuDef*%
%ADD30R,0.740000X2.400000*%
%TD*%
%TA.AperFunction,SMDPad,CuDef*%
%ADD31RoundRect,0.150000X-0.825000X-0.150000X0.825000X-0.150000X0.825000X0.150000X-0.825000X0.150000X0*%
%TD*%
%TA.AperFunction,SMDPad,CuDef*%
%ADD32RoundRect,0.225000X-0.225000X-0.250000X0.225000X-0.250000X0.225000X0.250000X-0.225000X0.250000X0*%
%TD*%
%TA.AperFunction,SMDPad,CuDef*%
%ADD33R,1.550000X0.600000*%
%TD*%
%TA.AperFunction,ComponentPad*%
%ADD34C,0.600000*%
%TD*%
%TA.AperFunction,SMDPad,CuDef*%
%ADD35R,2.950000X4.900000*%
%TD*%
%TA.AperFunction,SMDPad,CuDef*%
%ADD36R,2.000000X1.500000*%
%TD*%
%TA.AperFunction,SMDPad,CuDef*%
%ADD37R,0.600000X0.240000*%
%TD*%
%TA.AperFunction,ComponentPad*%
%ADD38C,0.500000*%
%TD*%
%TA.AperFunction,SMDPad,CuDef*%
%ADD39FreePoly0,0.000000*%
%TD*%
%TA.AperFunction,SMDPad,CuDef*%
%ADD40RoundRect,0.150000X-0.150000X0.587500X-0.150000X-0.587500X0.150000X-0.587500X0.150000X0.587500X0*%
%TD*%
%TA.AperFunction,SMDPad,CuDef*%
%ADD41RoundRect,0.075000X-0.700000X-0.075000X0.700000X-0.075000X0.700000X0.075000X-0.700000X0.075000X0*%
%TD*%
%TA.AperFunction,SMDPad,CuDef*%
%ADD42RoundRect,0.075000X-0.075000X-0.700000X0.075000X-0.700000X0.075000X0.700000X-0.075000X0.700000X0*%
%TD*%
%TA.AperFunction,SMDPad,CuDef*%
%ADD43R,0.870000X0.300000*%
%TD*%
%TA.AperFunction,ComponentPad*%
%ADD44O,1.100000X2.200000*%
%TD*%
%TA.AperFunction,SMDPad,CuDef*%
%ADD45RoundRect,0.218750X0.256250X-0.218750X0.256250X0.218750X-0.256250X0.218750X-0.256250X-0.218750X0*%
%TD*%
%TA.AperFunction,SMDPad,CuDef*%
%ADD46RoundRect,0.225000X-0.250000X0.225000X-0.250000X-0.225000X0.250000X-0.225000X0.250000X0.225000X0*%
%TD*%
%TA.AperFunction,SMDPad,CuDef*%
%ADD47RoundRect,0.225000X0.250000X-0.225000X0.250000X0.225000X-0.250000X0.225000X-0.250000X-0.225000X0*%
%TD*%
%TA.AperFunction,SMDPad,CuDef*%
%ADD48RoundRect,0.218750X-0.256250X0.218750X-0.256250X-0.218750X0.256250X-0.218750X0.256250X0.218750X0*%
%TD*%
%TA.AperFunction,SMDPad,CuDef*%
%ADD49R,1.000000X0.800000*%
%TD*%
%TA.AperFunction,SMDPad,CuDef*%
%ADD50R,0.700000X1.500000*%
%TD*%
%TA.AperFunction,SMDPad,CuDef*%
%ADD51RoundRect,0.140000X0.140000X0.170000X-0.140000X0.170000X-0.140000X-0.170000X0.140000X-0.170000X0*%
%TD*%
%TA.AperFunction,SMDPad,CuDef*%
%ADD52RoundRect,0.250000X0.300000X-2.050000X0.300000X2.050000X-0.300000X2.050000X-0.300000X-2.050000X0*%
%TD*%
%TA.AperFunction,SMDPad,CuDef*%
%ADD53RoundRect,0.250000X2.375000X-2.025000X2.375000X2.025000X-2.375000X2.025000X-2.375000X-2.025000X0*%
%TD*%
%TA.AperFunction,SMDPad,CuDef*%
%ADD54RoundRect,0.250002X5.149998X-4.449998X5.149998X4.449998X-5.149998X4.449998X-5.149998X-4.449998X0*%
%TD*%
%TA.AperFunction,SMDPad,CuDef*%
%ADD55RoundRect,0.218750X-0.218750X-0.256250X0.218750X-0.256250X0.218750X0.256250X-0.218750X0.256250X0*%
%TD*%
%TA.AperFunction,SMDPad,CuDef*%
%ADD56RoundRect,0.150000X0.150000X-0.512500X0.150000X0.512500X-0.150000X0.512500X-0.150000X-0.512500X0*%
%TD*%
%TA.AperFunction,SMDPad,CuDef*%
%ADD57RoundRect,0.150000X0.512500X0.150000X-0.512500X0.150000X-0.512500X-0.150000X0.512500X-0.150000X0*%
%TD*%
%TA.AperFunction,SMDPad,CuDef*%
%ADD58R,1.200000X1.400000*%
%TD*%
%TA.AperFunction,SMDPad,CuDef*%
%ADD59R,1.600000X3.800000*%
%TD*%
%TA.AperFunction,ViaPad*%
%ADD60C,0.800000*%
%TD*%
%TA.AperFunction,Conductor*%
%ADD61C,0.300000*%
%TD*%
%TA.AperFunction,Conductor*%
%ADD62C,0.500000*%
%TD*%
%TA.AperFunction,Conductor*%
%ADD63C,0.250000*%
%TD*%
%TA.AperFunction,Conductor*%
%ADD64C,0.200000*%
%TD*%
G04 APERTURE END LIST*
%TA.AperFunction,EtchedComponent*%
%TO.C,NT1*%
G36*
X132500000Y-128500000D02*
G01*
X128500000Y-128500000D01*
X128500000Y-126500000D01*
X132500000Y-126500000D01*
X132500000Y-128500000D01*
G37*
%TD.AperFunction*%
%TA.AperFunction,EtchedComponent*%
%TO.C,NT2*%
G36*
X159800000Y-119400000D02*
G01*
X157800000Y-119400000D01*
X157800000Y-115400000D01*
X159800000Y-115400000D01*
X159800000Y-119400000D01*
G37*
%TD.AperFunction*%
%TA.AperFunction,EtchedComponent*%
%TO.C,NT3*%
G36*
X130425000Y-70762500D02*
G01*
X126425000Y-70762500D01*
X126425000Y-68762500D01*
X130425000Y-68762500D01*
X130425000Y-70762500D01*
G37*
%TD.AperFunction*%
%TD*%
D10*
%TO.P,R29,1*%
%TO.N,Net-(D5-K)*%
X178500000Y-115465000D03*
%TO.P,R29,2*%
%TO.N,GND*%
X178500000Y-116485000D03*
%TD*%
D11*
%TO.P,C23,1*%
%TO.N,/Voltage regulator 5V/5v_out*%
X133920000Y-72517500D03*
%TO.P,C23,2*%
%TO.N,Net-(U4-FB)*%
X134880000Y-72517500D03*
%TD*%
D12*
%TO.P,SW3,1,1*%
%TO.N,+3.3V*%
X180620000Y-75800000D03*
%TO.P,SW3,2,2*%
%TO.N,Net-(U5-1A)*%
X180620000Y-73800000D03*
%TO.P,SW3,3,3*%
%TO.N,unconnected-(SW3-Pad3)*%
X180620000Y-71800000D03*
%TO.P,SW3,4,4*%
%TO.N,unconnected-(SW3-Pad4)*%
X187380000Y-75800000D03*
%TO.P,SW3,5,5*%
%TO.N,unconnected-(SW3-Pad5)*%
X187380000Y-73800000D03*
%TO.P,SW3,6,6*%
%TO.N,unconnected-(SW3-Pad6)*%
X187380000Y-71800000D03*
%TD*%
D13*
%TO.P,R4,1*%
%TO.N,/Voltage regulator 5V/5v_out*%
X133930000Y-68287500D03*
%TO.P,R4,2*%
%TO.N,+5V*%
X134950000Y-68287500D03*
%TD*%
D14*
%TO.P,FPC3,1,1*%
%TO.N,+5V*%
X169250000Y-128700000D03*
%TO.P,FPC3,2,2*%
%TO.N,GND*%
X168750000Y-128700000D03*
%TO.P,FPC3,3,3*%
%TO.N,/Connectors to segment displays/DISP1_SEG_A*%
X168250000Y-128700000D03*
%TO.P,FPC3,4,4*%
%TO.N,/Connectors to segment displays/DISP1_SEG_B*%
X167750000Y-128700000D03*
%TO.P,FPC3,5,5*%
%TO.N,/Connectors to segment displays/DISP1_SEG_C*%
X167250000Y-128700000D03*
%TO.P,FPC3,6,6*%
%TO.N,/Connectors to segment displays/DISP1_SEG_D*%
X166750000Y-128700000D03*
%TO.P,FPC3,7,7*%
%TO.N,/Connectors to segment displays/DISP1_SEG_E*%
X166250000Y-128700000D03*
%TO.P,FPC3,8,8*%
%TO.N,/Connectors to segment displays/DISP1_SEG_F*%
X165750000Y-128700000D03*
%TO.P,FPC3,9,9*%
%TO.N,/Connectors to segment displays/DISP1_SEG_G*%
X165250000Y-128700000D03*
%TO.P,FPC3,10,10*%
%TO.N,/Connectors to segment displays/DISP1_SEG_DP*%
X164750000Y-128700000D03*
%TO.P,FPC3,11,11*%
%TO.N,/Connectors to segment displays/TIM2_CH1_PWM1_SEG*%
X164250000Y-128700000D03*
%TO.P,FPC3,12,12*%
%TO.N,GND*%
X163750000Y-128700000D03*
%TO.P,FPC3,13,13*%
X163250000Y-128700000D03*
%TO.P,FPC3,14,14*%
X162750000Y-128700000D03*
%TO.P,FPC3,15,15*%
%TO.N,/Connectors to segment displays/DISP2_SEG_A*%
X162250000Y-128700000D03*
%TO.P,FPC3,16,16*%
%TO.N,/Connectors to segment displays/DISP2_SEG_B*%
X161750000Y-128700000D03*
%TO.P,FPC3,17,17*%
%TO.N,/Connectors to segment displays/DISP2_SEG_C*%
X161250000Y-128700000D03*
%TO.P,FPC3,18,18*%
%TO.N,/Connectors to segment displays/DISP2_SEG_D*%
X160750000Y-128700000D03*
%TO.P,FPC3,19,19*%
%TO.N,/Connectors to segment displays/DISP2_SEG_E*%
X160250000Y-128700000D03*
%TO.P,FPC3,20,20*%
%TO.N,/Connectors to segment displays/DISP2_SEG_F*%
X159750000Y-128700000D03*
%TO.P,FPC3,21,21*%
%TO.N,/Connectors to segment displays/DISP2_SEG_G*%
X159250000Y-128700000D03*
%TO.P,FPC3,22,22*%
%TO.N,/Connectors to segment displays/DISP2_SEG_DP*%
X158750000Y-128700000D03*
%TO.P,FPC3,23,23*%
%TO.N,/Connectors to segment displays/TIM2_CH2_PWM2_SEG*%
X158250000Y-128700000D03*
%TO.P,FPC3,24,24*%
%TO.N,GND*%
X157750000Y-128700000D03*
D15*
%TO.P,FPC3,25,25*%
%TO.N,unconnected-(FPC3-Pad25)*%
X156050000Y-131300000D03*
%TO.P,FPC3,26,26*%
%TO.N,unconnected-(FPC3-Pad26)*%
X170950000Y-131300000D03*
%TD*%
D13*
%TO.P,R20,1*%
%TO.N,/Li-Po Battery and charger/Batt_VoltageDivision_out*%
X155740000Y-112000000D03*
%TO.P,R20,2*%
%TO.N,GND*%
X156760000Y-112000000D03*
%TD*%
D16*
%TO.P,NT1,1,1*%
%TO.N,GND*%
X132500000Y-127500000D03*
%TO.P,NT1,2,2*%
%TO.N,-BATT*%
X128500000Y-127500000D03*
%TD*%
D11*
%TO.P,C18,1*%
%TO.N,/Voltage regulator 3v3/3v3_out*%
X170790000Y-114175000D03*
%TO.P,C18,2*%
%TO.N,Net-(U3-FB)*%
X171750000Y-114175000D03*
%TD*%
D17*
%TO.P,C3,1*%
%TO.N,+3.3V*%
X164890000Y-97520000D03*
%TO.P,C3,2*%
%TO.N,GND*%
X164890000Y-98480000D03*
%TD*%
D18*
%TO.P,FPC2,1,1*%
%TO.N,+5V*%
X182700000Y-96250000D03*
%TO.P,FPC2,2,2*%
%TO.N,GND*%
X182700000Y-96750000D03*
%TO.P,FPC2,3,3*%
%TO.N,/Connectors to segment displays/DISP1_SEG_A*%
X182700000Y-97250000D03*
%TO.P,FPC2,4,4*%
%TO.N,/Connectors to segment displays/DISP1_SEG_B*%
X182700000Y-97750000D03*
%TO.P,FPC2,5,5*%
%TO.N,/Connectors to segment displays/DISP1_SEG_C*%
X182700000Y-98250000D03*
%TO.P,FPC2,6,6*%
%TO.N,/Connectors to segment displays/DISP1_SEG_D*%
X182700000Y-98750000D03*
%TO.P,FPC2,7,7*%
%TO.N,/Connectors to segment displays/DISP1_SEG_E*%
X182700000Y-99250000D03*
%TO.P,FPC2,8,8*%
%TO.N,/Connectors to segment displays/DISP1_SEG_F*%
X182700000Y-99750000D03*
%TO.P,FPC2,9,9*%
%TO.N,/Connectors to segment displays/DISP1_SEG_G*%
X182700000Y-100250000D03*
%TO.P,FPC2,10,10*%
%TO.N,/Connectors to segment displays/DISP1_SEG_DP*%
X182700000Y-100750000D03*
%TO.P,FPC2,11,11*%
%TO.N,/Connectors to segment displays/TIM2_CH1_PWM1_SEG*%
X182700000Y-101250000D03*
%TO.P,FPC2,12,12*%
%TO.N,GND*%
X182700000Y-101750000D03*
%TO.P,FPC2,13,13*%
X182700000Y-102250000D03*
%TO.P,FPC2,14,14*%
X182700000Y-102750000D03*
%TO.P,FPC2,15,15*%
%TO.N,/Connectors to segment displays/DISP2_SEG_A*%
X182700000Y-103250000D03*
%TO.P,FPC2,16,16*%
%TO.N,/Connectors to segment displays/DISP2_SEG_B*%
X182700000Y-103750000D03*
%TO.P,FPC2,17,17*%
%TO.N,/Connectors to segment displays/DISP2_SEG_C*%
X182700000Y-104250000D03*
%TO.P,FPC2,18,18*%
%TO.N,/Connectors to segment displays/DISP2_SEG_D*%
X182700000Y-104750000D03*
%TO.P,FPC2,19,19*%
%TO.N,/Connectors to segment displays/DISP2_SEG_E*%
X182700000Y-105250000D03*
%TO.P,FPC2,20,20*%
%TO.N,/Connectors to segment displays/DISP2_SEG_F*%
X182700000Y-105750000D03*
%TO.P,FPC2,21,21*%
%TO.N,/Connectors to segment displays/DISP2_SEG_G*%
X182700000Y-106250000D03*
%TO.P,FPC2,22,22*%
%TO.N,/Connectors to segment displays/DISP2_SEG_DP*%
X182700000Y-106750000D03*
%TO.P,FPC2,23,23*%
%TO.N,/Connectors to segment displays/TIM2_CH2_PWM2_SEG*%
X182700000Y-107250000D03*
%TO.P,FPC2,24,24*%
%TO.N,GND*%
X182700000Y-107750000D03*
D19*
%TO.P,FPC2,25,25*%
%TO.N,unconnected-(FPC2-Pad25)*%
X185300000Y-109450000D03*
%TO.P,FPC2,26,26*%
%TO.N,unconnected-(FPC2-Pad26)*%
X185300000Y-94550000D03*
%TD*%
D10*
%TO.P,R32,1*%
%TO.N,Net-(U4-FB)*%
X138305000Y-75527500D03*
%TO.P,R32,2*%
%TO.N,GND*%
X138305000Y-76547500D03*
%TD*%
D18*
%TO.P,FPC4,1,1*%
%TO.N,+5V*%
X125300000Y-95750000D03*
%TO.P,FPC4,2,2*%
%TO.N,GND*%
X125300000Y-95250000D03*
%TO.P,FPC4,3,3*%
%TO.N,/Connectors to segment displays/DISP1_SEG_A*%
X125300000Y-94750000D03*
%TO.P,FPC4,4,4*%
%TO.N,/Connectors to segment displays/DISP1_SEG_B*%
X125300000Y-94250000D03*
%TO.P,FPC4,5,5*%
%TO.N,/Connectors to segment displays/DISP1_SEG_C*%
X125300000Y-93750000D03*
%TO.P,FPC4,6,6*%
%TO.N,/Connectors to segment displays/DISP1_SEG_D*%
X125300000Y-93250000D03*
%TO.P,FPC4,7,7*%
%TO.N,/Connectors to segment displays/DISP1_SEG_E*%
X125300000Y-92750000D03*
%TO.P,FPC4,8,8*%
%TO.N,/Connectors to segment displays/DISP1_SEG_F*%
X125300000Y-92250000D03*
%TO.P,FPC4,9,9*%
%TO.N,/Connectors to segment displays/DISP1_SEG_G*%
X125300000Y-91750000D03*
%TO.P,FPC4,10,10*%
%TO.N,/Connectors to segment displays/DISP1_SEG_DP*%
X125300000Y-91250000D03*
%TO.P,FPC4,11,11*%
%TO.N,/Connectors to segment displays/TIM2_CH1_PWM1_SEG*%
X125300000Y-90750000D03*
%TO.P,FPC4,12,12*%
%TO.N,GND*%
X125300000Y-90250000D03*
%TO.P,FPC4,13,13*%
X125300000Y-89750000D03*
%TO.P,FPC4,14,14*%
X125300000Y-89250000D03*
%TO.P,FPC4,15,15*%
%TO.N,/Connectors to segment displays/DISP2_SEG_A*%
X125300000Y-88750000D03*
%TO.P,FPC4,16,16*%
%TO.N,/Connectors to segment displays/DISP2_SEG_B*%
X125300000Y-88250000D03*
%TO.P,FPC4,17,17*%
%TO.N,/Connectors to segment displays/DISP2_SEG_C*%
X125300000Y-87750000D03*
%TO.P,FPC4,18,18*%
%TO.N,/Connectors to segment displays/DISP2_SEG_D*%
X125300000Y-87250000D03*
%TO.P,FPC4,19,19*%
%TO.N,/Connectors to segment displays/DISP2_SEG_E*%
X125300000Y-86750000D03*
%TO.P,FPC4,20,20*%
%TO.N,/Connectors to segment displays/DISP2_SEG_F*%
X125300000Y-86250000D03*
%TO.P,FPC4,21,21*%
%TO.N,/Connectors to segment displays/DISP2_SEG_G*%
X125300000Y-85750000D03*
%TO.P,FPC4,22,22*%
%TO.N,/Connectors to segment displays/DISP2_SEG_DP*%
X125300000Y-85250000D03*
%TO.P,FPC4,23,23*%
%TO.N,/Connectors to segment displays/TIM2_CH2_PWM2_SEG*%
X125300000Y-84750000D03*
%TO.P,FPC4,24,24*%
%TO.N,GND*%
X125300000Y-84250000D03*
D19*
%TO.P,FPC4,25,25*%
%TO.N,unconnected-(FPC4-Pad25)*%
X122700000Y-82550000D03*
%TO.P,FPC4,26,26*%
%TO.N,unconnected-(FPC4-Pad26)*%
X122700000Y-97450000D03*
%TD*%
D20*
%TO.P,D2,1,K*%
%TO.N,+3.3V*%
X136035000Y-93265000D03*
%TO.P,D2,2,A*%
%TO.N,Net-(D2-A)*%
X138135000Y-93265000D03*
%TD*%
D21*
%TO.P,D1,1,K*%
%TO.N,Net-(D1-K)*%
X185787500Y-115625000D03*
%TO.P,D1,2,A*%
%TO.N,/STM32F103RCT6/ORANGE_LED*%
X184212500Y-115625000D03*
%TD*%
D22*
%TO.P,TP5,1,1*%
%TO.N,+3.3V*%
X147000000Y-92250000D03*
%TD*%
D11*
%TO.P,C28,1*%
%TO.N,Net-(U5-1A)*%
X170270000Y-81000000D03*
%TO.P,C28,2*%
%TO.N,GND*%
X171230000Y-81000000D03*
%TD*%
D23*
%TO.P,C21,1*%
%TO.N,/Voltage regulator 3v3/batt_in*%
X167525000Y-119750000D03*
%TO.P,C21,2*%
%TO.N,GNDPWR*%
X165975000Y-119750000D03*
%TD*%
D13*
%TO.P,R12,1*%
%TO.N,Net-(J2-GNDDetect)*%
X157490000Y-76750000D03*
%TO.P,R12,2*%
%TO.N,GND*%
X158510000Y-76750000D03*
%TD*%
D24*
%TO.P,R17,1*%
%TO.N,Net-(Q3-B)*%
X150000000Y-129520000D03*
%TO.P,R17,2*%
%TO.N,VBUS*%
X150000000Y-128500000D03*
%TD*%
D22*
%TO.P,TP7,1,1*%
%TO.N,/STM32F103RCT6/HSE_IN*%
X140750000Y-98600000D03*
%TD*%
D25*
%TO.P,R35,1*%
%TO.N,GND*%
X169050000Y-91250000D03*
%TO.P,R35,2*%
%TO.N,Net-(U5-2A)*%
X168030000Y-91250000D03*
%TD*%
%TO.P,R14,1*%
%TO.N,+BATT*%
X156710000Y-110750000D03*
%TO.P,R14,2*%
%TO.N,/Li-Po Battery and charger/Batt_VoltageDivision_out*%
X155690000Y-110750000D03*
%TD*%
D10*
%TO.P,R8,1*%
%TO.N,+3.3V*%
X166372840Y-96757283D03*
%TO.P,R8,2*%
%TO.N,/STM32F103RCT6/USB_D+*%
X166372840Y-97777283D03*
%TD*%
D22*
%TO.P,TP8,1,1*%
%TO.N,/STM32F103RCT6/HSE_OUT*%
X140750000Y-101750000D03*
%TD*%
D23*
%TO.P,C1,1*%
%TO.N,+3.3V*%
X149750000Y-95500000D03*
%TO.P,C1,2*%
%TO.N,GND*%
X148200000Y-95500000D03*
%TD*%
D26*
%TO.P,J3,1,Pin_1*%
%TO.N,GND*%
X164380000Y-75500000D03*
D27*
%TO.P,J3,2,Pin_2*%
%TO.N,unconnected-(J3-Pin_2-Pad2)*%
X166920000Y-75500000D03*
%TO.P,J3,3,Pin_3*%
%TO.N,unconnected-(J3-Pin_3-Pad3)*%
X169460000Y-75500000D03*
%TO.P,J3,4,Pin_4*%
%TO.N,/STM32F103RCT6/UART4_RX*%
X172000000Y-75500000D03*
%TO.P,J3,5,Pin_5*%
%TO.N,/STM32F103RCT6/UART4_TX*%
X174540000Y-75500000D03*
%TO.P,J3,6,Pin_6*%
%TO.N,unconnected-(J3-Pin_6-Pad6)*%
X177080000Y-75500000D03*
%TD*%
D26*
%TO.P,J5,1,Pin_1*%
%TO.N,-BATT*%
X128750000Y-124540000D03*
D27*
%TO.P,J5,2,Pin_2*%
%TO.N,+BATT*%
X128750000Y-122000000D03*
%TD*%
D28*
%TO.P,L1,1,1*%
%TO.N,Net-(U3-L1)*%
X166750000Y-118150000D03*
%TO.P,L1,2,2*%
%TO.N,Net-(U3-L2)*%
X166750000Y-115850000D03*
%TD*%
D29*
%TO.P,C11,1*%
%TO.N,/STM32F103RCT6/HSE_OUT*%
X148250000Y-102000000D03*
%TO.P,C11,2*%
%TO.N,GND*%
X148250000Y-101040000D03*
%TD*%
D30*
%TO.P,J2,1,NC*%
%TO.N,unconnected-(J2-NC-Pad1)*%
X163810000Y-79800000D03*
%TO.P,J2,2,NC*%
%TO.N,unconnected-(J2-NC-Pad2)*%
X163810000Y-83700000D03*
%TO.P,J2,3,VCC*%
%TO.N,+3.3V*%
X162540000Y-79800000D03*
%TO.P,J2,4,JTMS/SWDIO*%
%TO.N,/STM32F103RCT6/SWDIO*%
X162540000Y-83700000D03*
%TO.P,J2,5,GND*%
%TO.N,GND*%
X161270000Y-79800000D03*
%TO.P,J2,6,JCLK/SWCLK*%
%TO.N,/STM32F103RCT6/SWCLK*%
X161270000Y-83700000D03*
%TO.P,J2,7,GND*%
%TO.N,GND*%
X160000000Y-79800000D03*
%TO.P,J2,8,JTDO/SWO*%
%TO.N,unconnected-(J2-JTDO{slash}SWO-Pad8)*%
X160000000Y-83700000D03*
%TO.P,J2,9,JRCLK/NC*%
%TO.N,unconnected-(J2-JRCLK{slash}NC-Pad9)*%
X158730000Y-79800000D03*
%TO.P,J2,10,JTDI/NC*%
%TO.N,unconnected-(J2-JTDI{slash}NC-Pad10)*%
X158730000Y-83700000D03*
%TO.P,J2,11,GNDDetect*%
%TO.N,Net-(J2-GNDDetect)*%
X157460000Y-79800000D03*
%TO.P,J2,12,~{RST}*%
%TO.N,/STM32F103RCT6/NRST*%
X157460000Y-83700000D03*
%TO.P,J2,13,VCP_RX*%
%TO.N,/STM32F103RCT6/UART5_RX*%
X156190000Y-79800000D03*
%TO.P,J2,14,VCP_TX*%
%TO.N,/STM32F103RCT6/UART5_TX*%
X156190000Y-83700000D03*
%TD*%
D31*
%TO.P,U5,1,1A*%
%TO.N,Net-(U5-1A)*%
X171300000Y-82380000D03*
%TO.P,U5,2,1Y*%
%TO.N,/STM32F103RCT6/button3_in*%
X171300000Y-83650000D03*
%TO.P,U5,3,2A*%
%TO.N,Net-(U5-2A)*%
X171300000Y-84920000D03*
%TO.P,U5,4,2Y*%
%TO.N,/STM32F103RCT6/button2_in*%
X171300000Y-86190000D03*
%TO.P,U5,5,3A*%
%TO.N,Net-(U5-3A)*%
X171300000Y-87460000D03*
%TO.P,U5,6,3Y*%
%TO.N,/STM32F103RCT6/button1_in*%
X171300000Y-88730000D03*
%TO.P,U5,7,GND*%
%TO.N,GND*%
X171300000Y-90000000D03*
%TO.P,U5,8,4Y*%
%TO.N,unconnected-(U5-4Y-Pad8)*%
X176250000Y-90000000D03*
%TO.P,U5,9,4A*%
%TO.N,unconnected-(U5-4A-Pad9)*%
X176250000Y-88730000D03*
%TO.P,U5,10,5Y*%
%TO.N,unconnected-(U5-5Y-Pad10)*%
X176250000Y-87460000D03*
%TO.P,U5,11,5A*%
%TO.N,unconnected-(U5-5A-Pad11)*%
X176250000Y-86190000D03*
%TO.P,U5,12,6Y*%
%TO.N,unconnected-(U5-6Y-Pad12)*%
X176250000Y-84920000D03*
%TO.P,U5,13,6A*%
%TO.N,unconnected-(U5-6A-Pad13)*%
X176250000Y-83650000D03*
%TO.P,U5,14,VCC*%
%TO.N,+3.3V*%
X176250000Y-82380000D03*
%TD*%
D25*
%TO.P,R34,1*%
%TO.N,GND*%
X171270000Y-79750000D03*
%TO.P,R34,2*%
%TO.N,Net-(U5-1A)*%
X170250000Y-79750000D03*
%TD*%
D22*
%TO.P,TP11,1,1*%
%TO.N,/STM32F103RCT6/VBAT*%
X127490000Y-106250000D03*
%TD*%
D13*
%TO.P,R30,1*%
%TO.N,/Voltage regulator 5V/batt_in*%
X136290000Y-79200000D03*
%TO.P,R30,2*%
%TO.N,Net-(U4-EN)*%
X137310000Y-79200000D03*
%TD*%
%TO.P,R16,1*%
%TO.N,Net-(D4-K)*%
X125230000Y-116000000D03*
%TO.P,R16,2*%
%TO.N,/Li-Po Battery and charger/IC_CHRG_Red*%
X126250000Y-116000000D03*
%TD*%
D24*
%TO.P,R11,1*%
%TO.N,GND*%
X144000000Y-95525000D03*
%TO.P,R11,2*%
%TO.N,Net-(Q1-B)*%
X144000000Y-94505000D03*
%TD*%
%TO.P,R5,1*%
%TO.N,Net-(J1-CC1)*%
X179500000Y-96685000D03*
%TO.P,R5,2*%
%TO.N,GND*%
X179500000Y-95665000D03*
%TD*%
D32*
%TO.P,C15,1*%
%TO.N,+BATT*%
X127840000Y-111130000D03*
%TO.P,C15,2*%
%TO.N,GND*%
X129390000Y-111130000D03*
%TD*%
D25*
%TO.P,R13,1*%
%TO.N,VBUS*%
X136250000Y-113180000D03*
%TO.P,R13,2*%
%TO.N,Net-(D3-A)*%
X135230000Y-113180000D03*
%TD*%
D33*
%TO.P,IC1,1,TEMP*%
%TO.N,/Li-Po Battery and charger/IC_TEMP*%
X133215000Y-116985000D03*
%TO.P,IC1,2,PROG*%
%TO.N,/Li-Po Battery and charger/IC_PROG*%
X133215000Y-115715000D03*
%TO.P,IC1,3,GND*%
%TO.N,GND*%
X133215000Y-114445000D03*
%TO.P,IC1,4,VCC*%
%TO.N,Net-(D3-A)*%
X133215000Y-113175000D03*
%TO.P,IC1,5,BAT*%
%TO.N,+BATT*%
X127815000Y-113175000D03*
%TO.P,IC1,6,~{STDBY}*%
%TO.N,/Li-Po Battery and charger/IC_STDBY_Green*%
X127815000Y-114445000D03*
%TO.P,IC1,7,~{CHRG}*%
%TO.N,/Li-Po Battery and charger/IC_CHRG_Red*%
X127815000Y-115715000D03*
%TO.P,IC1,8,CE*%
%TO.N,Net-(D3-A)*%
X127815000Y-116985000D03*
D34*
%TO.P,IC1,9,EP*%
%TO.N,GND*%
X131165000Y-117030000D03*
X131165000Y-115730000D03*
X131165000Y-114430000D03*
X131165000Y-113130000D03*
D35*
X130515000Y-115080000D03*
D34*
X129865000Y-117030000D03*
X129865000Y-115730000D03*
X129865000Y-114430000D03*
X129865000Y-113130000D03*
%TD*%
D11*
%TO.P,C16,1*%
%TO.N,/Li-Po Battery and charger/Batt_VoltageDivision_out*%
X155720000Y-109550000D03*
%TO.P,C16,2*%
%TO.N,GND*%
X156680000Y-109550000D03*
%TD*%
D33*
%TO.P,J4,1,1*%
%TO.N,-BATT*%
X123690000Y-115750000D03*
%TO.P,J4,2,2*%
%TO.N,/Li-Po Battery and charger/IC_TEMP*%
X123690000Y-116750000D03*
%TO.P,J4,3,3*%
%TO.N,+BATT*%
X123690000Y-117750000D03*
D36*
%TO.P,J4,4,4*%
%TO.N,unconnected-(J4-Pad4)*%
X119810000Y-119050000D03*
%TO.P,J4,5,5*%
%TO.N,unconnected-(J4-Pad5)*%
X119810000Y-114450000D03*
%TD*%
D13*
%TO.P,R22,1*%
%TO.N,GND*%
X147295000Y-129445000D03*
%TO.P,R22,2*%
%TO.N,Net-(Q3-B)*%
X148315000Y-129445000D03*
%TD*%
D11*
%TO.P,C29,1*%
%TO.N,Net-(U5-2A)*%
X168060000Y-90000000D03*
%TO.P,C29,2*%
%TO.N,GND*%
X169020000Y-90000000D03*
%TD*%
D21*
%TO.P,D5,1,K*%
%TO.N,Net-(D5-K)*%
X178037500Y-112775000D03*
%TO.P,D5,2,A*%
%TO.N,/Voltage regulator 3v3/3v3_out*%
X176462500Y-112775000D03*
%TD*%
D37*
%TO.P,U4,1,VOUT*%
%TO.N,/Voltage regulator 5V/5v_out*%
X133130000Y-75612500D03*
%TO.P,U4,2,L2*%
%TO.N,Net-(U4-L2)*%
X133130000Y-76112500D03*
%TO.P,U4,3,PGND*%
%TO.N,GNDPWR*%
X133130000Y-76612500D03*
%TO.P,U4,4,L1*%
%TO.N,Net-(U4-L1)*%
X133130000Y-77112500D03*
%TO.P,U4,5,VIN*%
%TO.N,/Voltage regulator 5V/batt_in*%
X133130000Y-77612500D03*
%TO.P,U4,6,EN*%
%TO.N,Net-(U4-EN)*%
X135930000Y-77612500D03*
%TO.P,U4,7,PS/SYNC*%
X135930000Y-77112500D03*
%TO.P,U4,8,VINA*%
X135930000Y-76612500D03*
%TO.P,U4,9,GND*%
%TO.N,GND*%
X135930000Y-76112500D03*
%TO.P,U4,10,FB*%
%TO.N,Net-(U4-FB)*%
X135930000Y-75612500D03*
D38*
%TO.P,U4,11,PGND*%
%TO.N,GNDPWR*%
X133955000Y-76612500D03*
X134530000Y-75662500D03*
D39*
X134530000Y-76612500D03*
D38*
X134530000Y-77562500D03*
X135105000Y-76612500D03*
%TD*%
D22*
%TO.P,TP4,1,1*%
%TO.N,+3.3VA*%
X147250000Y-105500000D03*
%TD*%
D26*
%TO.P,J6,1,Pin_1*%
%TO.N,unconnected-(J6-Pin_1-Pad1)*%
X137540000Y-125000000D03*
D27*
%TO.P,J6,2,Pin_2*%
%TO.N,/Li-Po Battery and charger/IC_TEMP*%
X135000000Y-125000000D03*
%TO.P,J6,3,Pin_3*%
%TO.N,GND*%
X132460000Y-125000000D03*
%TD*%
D29*
%TO.P,C10,1*%
%TO.N,/STM32F103RCT6/HSE_IN*%
X148250000Y-100000000D03*
%TO.P,C10,2*%
%TO.N,GND*%
X148250000Y-99040000D03*
%TD*%
D40*
%TO.P,Q4,1,B*%
%TO.N,Net-(Q3-C)*%
X143675000Y-131380000D03*
%TO.P,Q4,2,C*%
%TO.N,Net-(Q2-G)*%
X141775000Y-131380000D03*
%TO.P,Q4,3,E*%
%TO.N,GND*%
X142725000Y-133255000D03*
%TD*%
D41*
%TO.P,U1,1,VBAT*%
%TO.N,/STM32F103RCT6/VBAT*%
X151825000Y-98250000D03*
%TO.P,U1,2,PC13*%
%TO.N,unconnected-(U1-PC13-Pad2)*%
X151825000Y-98750000D03*
%TO.P,U1,3,PC14*%
%TO.N,unconnected-(U1-PC14-Pad3)*%
X151825000Y-99250000D03*
%TO.P,U1,4,PC15*%
%TO.N,unconnected-(U1-PC15-Pad4)*%
X151825000Y-99750000D03*
%TO.P,U1,5,PD0*%
%TO.N,/STM32F103RCT6/HSE_IN*%
X151825000Y-100250000D03*
%TO.P,U1,6,PD1*%
%TO.N,/STM32F103RCT6/HSE_OUT*%
X151825000Y-100750000D03*
%TO.P,U1,7,NRST*%
%TO.N,/STM32F103RCT6/NRST*%
X151825000Y-101250000D03*
%TO.P,U1,8,PC0*%
%TO.N,/STM32F103RCT6/button1_in*%
X151825000Y-101750000D03*
%TO.P,U1,9,PC1*%
%TO.N,/STM32F103RCT6/button2_in*%
X151825000Y-102250000D03*
%TO.P,U1,10,PC2*%
%TO.N,/STM32F103RCT6/button3_in*%
X151825000Y-102750000D03*
%TO.P,U1,11,PC3*%
%TO.N,/STM32F103RCT6/ORANGE_LED*%
X151825000Y-103250000D03*
%TO.P,U1,12,VSSA*%
%TO.N,GND*%
X151825000Y-103750000D03*
%TO.P,U1,13,VDDA*%
%TO.N,+3.3VA*%
X151825000Y-104250000D03*
%TO.P,U1,14,PA0*%
%TO.N,/Connectors to segment displays/DISP1_SEG_A*%
X151825000Y-104750000D03*
%TO.P,U1,15,PA1*%
%TO.N,/Connectors to segment displays/DISP1_SEG_B*%
X151825000Y-105250000D03*
%TO.P,U1,16,PA2*%
%TO.N,/Connectors to segment displays/DISP1_SEG_C*%
X151825000Y-105750000D03*
D42*
%TO.P,U1,17,PA3*%
%TO.N,/Connectors to segment displays/DISP1_SEG_D*%
X153750000Y-107675000D03*
%TO.P,U1,18,VSS*%
%TO.N,GND*%
X154250000Y-107675000D03*
%TO.P,U1,19,VDD*%
%TO.N,+3.3V*%
X154750000Y-107675000D03*
%TO.P,U1,20,PA4*%
%TO.N,/Li-Po Battery and charger/Batt_VoltageDivision_out*%
X155250000Y-107675000D03*
%TO.P,U1,21,PA5*%
%TO.N,/Connectors to segment displays/DISP1_SEG_E*%
X155750000Y-107675000D03*
%TO.P,U1,22,PA6*%
%TO.N,/Connectors to segment displays/DISP1_SEG_F*%
X156250000Y-107675000D03*
%TO.P,U1,23,PA7*%
%TO.N,/Connectors to segment displays/DISP1_SEG_G*%
X156750000Y-107675000D03*
%TO.P,U1,24,PC4*%
%TO.N,unconnected-(U1-PC4-Pad24)*%
X157250000Y-107675000D03*
%TO.P,U1,25,PC5*%
%TO.N,unconnected-(U1-PC5-Pad25)*%
X157750000Y-107675000D03*
%TO.P,U1,26,PB0*%
%TO.N,/Connectors to segment displays/DISP2_SEG_A*%
X158250000Y-107675000D03*
%TO.P,U1,27,PB1*%
%TO.N,/Connectors to segment displays/DISP2_SEG_B*%
X158750000Y-107675000D03*
%TO.P,U1,28,PB2*%
%TO.N,/Connectors to segment displays/DISP2_SEG_C*%
X159250000Y-107675000D03*
%TO.P,U1,29,PB10*%
%TO.N,unconnected-(U1-PB10-Pad29)*%
X159750000Y-107675000D03*
%TO.P,U1,30,PB11*%
%TO.N,unconnected-(U1-PB11-Pad30)*%
X160250000Y-107675000D03*
%TO.P,U1,31,VSS*%
%TO.N,GND*%
X160750000Y-107675000D03*
%TO.P,U1,32,VDD*%
%TO.N,+3.3V*%
X161250000Y-107675000D03*
D41*
%TO.P,U1,33,PB12*%
%TO.N,unconnected-(U1-PB12-Pad33)*%
X163175000Y-105750000D03*
%TO.P,U1,34,PB13*%
%TO.N,unconnected-(U1-PB13-Pad34)*%
X163175000Y-105250000D03*
%TO.P,U1,35,PB14*%
%TO.N,unconnected-(U1-PB14-Pad35)*%
X163175000Y-104750000D03*
%TO.P,U1,36,PB15*%
%TO.N,unconnected-(U1-PB15-Pad36)*%
X163175000Y-104250000D03*
%TO.P,U1,37,PC6*%
%TO.N,/STM32F103RCT6/PWM3_BUZZER*%
X163175000Y-103750000D03*
%TO.P,U1,38,PC7*%
%TO.N,unconnected-(U1-PC7-Pad38)*%
X163175000Y-103250000D03*
%TO.P,U1,39,PC8*%
%TO.N,unconnected-(U1-PC8-Pad39)*%
X163175000Y-102750000D03*
%TO.P,U1,40,PC9*%
%TO.N,unconnected-(U1-PC9-Pad40)*%
X163175000Y-102250000D03*
%TO.P,U1,41,PA8*%
%TO.N,/Connectors to segment displays/DISP1_SEG_DP*%
X163175000Y-101750000D03*
%TO.P,U1,42,PA9*%
%TO.N,unconnected-(U1-PA9-Pad42)*%
X163175000Y-101250000D03*
%TO.P,U1,43,PA10*%
%TO.N,unconnected-(U1-PA10-Pad43)*%
X163175000Y-100750000D03*
%TO.P,U1,44,PA11*%
%TO.N,/STM32F103RCT6/USB_D-*%
X163175000Y-100250000D03*
%TO.P,U1,45,PA12*%
%TO.N,/STM32F103RCT6/USB_D+*%
X163175000Y-99750000D03*
%TO.P,U1,46,PA13*%
%TO.N,/STM32F103RCT6/SWDIO*%
X163175000Y-99250000D03*
%TO.P,U1,47,VSS*%
%TO.N,GND*%
X163175000Y-98750000D03*
%TO.P,U1,48,VDD*%
%TO.N,+3.3V*%
X163175000Y-98250000D03*
D42*
%TO.P,U1,49,PA14*%
%TO.N,/STM32F103RCT6/SWCLK*%
X161250000Y-96325000D03*
%TO.P,U1,50,PA15*%
%TO.N,/Connectors to segment displays/TIM2_CH1_PWM1_SEG*%
X160750000Y-96325000D03*
%TO.P,U1,51,PC10*%
%TO.N,/STM32F103RCT6/UART4_TX*%
X160250000Y-96325000D03*
%TO.P,U1,52,PC11*%
%TO.N,/STM32F103RCT6/UART4_RX*%
X159750000Y-96325000D03*
%TO.P,U1,53,PC12*%
%TO.N,/STM32F103RCT6/UART5_TX*%
X159250000Y-96325000D03*
%TO.P,U1,54,PD2*%
%TO.N,/STM32F103RCT6/UART5_RX*%
X158750000Y-96325000D03*
%TO.P,U1,55,PB3*%
%TO.N,/Connectors to segment displays/TIM2_CH2_PWM2_SEG*%
X158250000Y-96325000D03*
%TO.P,U1,56,PB4*%
%TO.N,/Connectors to segment displays/DISP2_SEG_D*%
X157750000Y-96325000D03*
%TO.P,U1,57,PB5*%
%TO.N,/Connectors to segment displays/DISP2_SEG_E*%
X157250000Y-96325000D03*
%TO.P,U1,58,PB6*%
%TO.N,/Connectors to segment displays/DISP2_SEG_F*%
X156750000Y-96325000D03*
%TO.P,U1,59,PB7*%
%TO.N,/Connectors to segment displays/DISP2_SEG_G*%
X156250000Y-96325000D03*
%TO.P,U1,60,BOOT0*%
%TO.N,/STM32F103RCT6/BOOT0*%
X155750000Y-96325000D03*
%TO.P,U1,61,PB8*%
%TO.N,/Connectors to segment displays/DISP2_SEG_DP*%
X155250000Y-96325000D03*
%TO.P,U1,62,PB9*%
%TO.N,unconnected-(U1-PB9-Pad62)*%
X154750000Y-96325000D03*
%TO.P,U1,63,VSS*%
%TO.N,GND*%
X154250000Y-96325000D03*
%TO.P,U1,64,VDD*%
%TO.N,+3.3V*%
X153750000Y-96325000D03*
%TD*%
D16*
%TO.P,NT2,1,1*%
%TO.N,GNDPWR*%
X158800000Y-119400000D03*
%TO.P,NT2,2,2*%
%TO.N,GND*%
X158800000Y-115400000D03*
%TD*%
D43*
%TO.P,J1,A1,GND_A*%
%TO.N,GND*%
X176865000Y-97250000D03*
%TO.P,J1,A4,VBUS_A*%
%TO.N,VBUS*%
X176865000Y-98750000D03*
%TO.P,J1,A5,CC1*%
%TO.N,Net-(J1-CC1)*%
X176865000Y-99250000D03*
%TO.P,J1,A6,D1+*%
%TO.N,unconnected-(J1-D1+-PadA6)*%
X176865000Y-99750000D03*
%TO.P,J1,A7,D1-*%
%TO.N,unconnected-(J1-D1--PadA7)*%
X176865000Y-100250000D03*
%TO.P,J1,A8,SBU1*%
%TO.N,unconnected-(J1-SBU1-PadA8)*%
X176865000Y-100750000D03*
%TO.P,J1,A9,VBUS_A__1*%
%TO.N,VBUS*%
X176865000Y-101250000D03*
%TO.P,J1,A12,GND_A__1*%
%TO.N,GND*%
X176865000Y-102750000D03*
%TO.P,J1,B1,GND_B*%
X175135000Y-102750000D03*
%TO.P,J1,B4,VBUS_B*%
%TO.N,VBUS*%
X175135000Y-101250000D03*
%TO.P,J1,B5,CC2*%
%TO.N,Net-(J1-CC2)*%
X175135000Y-100750000D03*
%TO.P,J1,B6,D2+*%
%TO.N,/STM32F103RCT6/USB_CONN_D+*%
X175135000Y-100250000D03*
%TO.P,J1,B7,D2-*%
%TO.N,/STM32F103RCT6/USB_CONN_D-*%
X175135000Y-99750000D03*
%TO.P,J1,B8,SBU2*%
%TO.N,unconnected-(J1-SBU2-PadB8)*%
X175135000Y-99250000D03*
%TO.P,J1,B9,VBUS_B__1*%
%TO.N,VBUS*%
X175135000Y-98750000D03*
%TO.P,J1,B12,GND_B__1*%
%TO.N,GND*%
X175135000Y-97250000D03*
D44*
%TO.P,J1,S1,SHIELD*%
X178150000Y-97600000D03*
%TO.P,J1,S2,SHIELD__1*%
X173850000Y-97600000D03*
%TO.P,J1,S3,SHIELD__2*%
X178150000Y-102400000D03*
%TO.P,J1,S4,SHIELD__3*%
X173850000Y-102400000D03*
%TD*%
D12*
%TO.P,SW4,1,1*%
%TO.N,+3.3V*%
X180620000Y-83400000D03*
%TO.P,SW4,2,2*%
%TO.N,Net-(U5-2A)*%
X180620000Y-81400000D03*
%TO.P,SW4,3,3*%
%TO.N,unconnected-(SW4-Pad3)*%
X180620000Y-79400000D03*
%TO.P,SW4,4,4*%
%TO.N,unconnected-(SW4-Pad4)*%
X187380000Y-83400000D03*
%TO.P,SW4,5,5*%
%TO.N,unconnected-(SW4-Pad5)*%
X187380000Y-81400000D03*
%TO.P,SW4,6,6*%
%TO.N,unconnected-(SW4-Pad6)*%
X187380000Y-79400000D03*
%TD*%
D10*
%TO.P,R7,1*%
%TO.N,Net-(J1-CC2)*%
X172500000Y-103265000D03*
%TO.P,R7,2*%
%TO.N,GND*%
X172500000Y-104285000D03*
%TD*%
D29*
%TO.P,C22,1*%
%TO.N,Net-(U3-EN)*%
X174150000Y-117455000D03*
%TO.P,C22,2*%
%TO.N,GND*%
X174150000Y-116495000D03*
%TD*%
D22*
%TO.P,TP12,1,1*%
%TO.N,/Li-Po Battery and charger/Batt_VoltageDivision_out*%
X153000000Y-113600000D03*
%TD*%
D12*
%TO.P,SW1,1,1*%
%TO.N,unconnected-(SW1-Pad1)*%
X187380000Y-124000000D03*
%TO.P,SW1,2,2*%
%TO.N,unconnected-(SW1-Pad2)*%
X187380000Y-126000000D03*
%TO.P,SW1,3,3*%
%TO.N,unconnected-(SW1-Pad3)*%
X187380000Y-128000000D03*
%TO.P,SW1,4,4*%
%TO.N,unconnected-(SW1-Pad4)*%
X180620000Y-124000000D03*
%TO.P,SW1,5,5*%
%TO.N,Net-(R1-Pad1)*%
X180620000Y-126000000D03*
%TO.P,SW1,6,6*%
%TO.N,/Li-Po Battery and charger/charger_out*%
X180620000Y-128000000D03*
%TD*%
D13*
%TO.P,R31,1*%
%TO.N,/Voltage regulator 5V/5v_out*%
X133890000Y-73787500D03*
%TO.P,R31,2*%
%TO.N,Net-(U4-FB)*%
X134910000Y-73787500D03*
%TD*%
D45*
%TO.P,D6,1,K*%
%TO.N,Net-(D6-K)*%
X126675000Y-75175000D03*
%TO.P,D6,2,A*%
%TO.N,/Voltage regulator 5V/5v_out*%
X126675000Y-73600000D03*
%TD*%
D22*
%TO.P,TP3,1,1*%
%TO.N,/Voltage regulator 5V/5v_out*%
X128575000Y-73587500D03*
%TD*%
D11*
%TO.P,C2,1*%
%TO.N,+3.3V*%
X153520000Y-94500000D03*
%TO.P,C2,2*%
%TO.N,GND*%
X154480000Y-94500000D03*
%TD*%
D13*
%TO.P,R9,1*%
%TO.N,GND*%
X184740000Y-113750000D03*
%TO.P,R9,2*%
%TO.N,Net-(D1-K)*%
X185760000Y-113750000D03*
%TD*%
D22*
%TO.P,TP1,1,1*%
%TO.N,/Voltage regulator 3v3/3v3_out*%
X165500000Y-112250000D03*
%TD*%
D46*
%TO.P,C17,1*%
%TO.N,Net-(Q3-B)*%
X152250000Y-131210000D03*
%TO.P,C17,2*%
%TO.N,GND*%
X152250000Y-132760000D03*
%TD*%
D13*
%TO.P,R15,1*%
%TO.N,Net-(D3-K)*%
X125230000Y-114650000D03*
%TO.P,R15,2*%
%TO.N,/Li-Po Battery and charger/IC_STDBY_Green*%
X126250000Y-114650000D03*
%TD*%
D47*
%TO.P,C25,1*%
%TO.N,/Voltage regulator 5V/5v_out*%
X132200000Y-73562500D03*
%TO.P,C25,2*%
%TO.N,GNDPWR*%
X132200000Y-72012500D03*
%TD*%
D32*
%TO.P,C20,1*%
%TO.N,/Voltage regulator 3v3/3v3_out*%
X162475000Y-119800000D03*
%TO.P,C20,2*%
%TO.N,GNDPWR*%
X164025000Y-119800000D03*
%TD*%
D48*
%TO.P,FB1,1*%
%TO.N,+3.3VA*%
X149400000Y-106812500D03*
%TO.P,FB1,2*%
%TO.N,+3.3V*%
X149400000Y-108387500D03*
%TD*%
D32*
%TO.P,C14,1*%
%TO.N,Net-(D3-A)*%
X127840000Y-118750000D03*
%TO.P,C14,2*%
%TO.N,GND*%
X129390000Y-118750000D03*
%TD*%
D49*
%TO.P,SW2,*%
%TO.N,*%
X155650000Y-89530000D03*
X155650000Y-87320000D03*
X148350000Y-89530000D03*
X148350000Y-87320000D03*
D50*
%TO.P,SW2,1,A*%
%TO.N,GND*%
X154250000Y-90180000D03*
%TO.P,SW2,2,B*%
%TO.N,/STM32F103RCT6/SW_BOOT0*%
X151250000Y-90180000D03*
%TO.P,SW2,3,C*%
%TO.N,+3.3V*%
X149750000Y-90180000D03*
%TD*%
D51*
%TO.P,C8,1*%
%TO.N,+3.3V*%
X147680000Y-108400000D03*
%TO.P,C8,2*%
%TO.N,GND*%
X146720000Y-108400000D03*
%TD*%
D29*
%TO.P,C6,1*%
%TO.N,+3.3VA*%
X150000000Y-104480000D03*
%TO.P,C6,2*%
%TO.N,GND*%
X150000000Y-103520000D03*
%TD*%
D52*
%TO.P,Q2,1,S*%
%TO.N,+BATT*%
X142670000Y-124500000D03*
D53*
%TO.P,Q2,2,G*%
%TO.N,Net-(Q2-G)*%
X142435000Y-117775000D03*
X147985000Y-117775000D03*
D54*
X145210000Y-115350000D03*
D53*
X142435000Y-112925000D03*
X147985000Y-112925000D03*
D52*
%TO.P,Q2,3,D*%
%TO.N,/Li-Po Battery and charger/charger_out*%
X147750000Y-124500000D03*
%TD*%
D13*
%TO.P,R27,1*%
%TO.N,/Voltage regulator 3v3/3v3_out*%
X170760000Y-112635000D03*
%TO.P,R27,2*%
%TO.N,Net-(U3-FB)*%
X171780000Y-112635000D03*
%TD*%
D51*
%TO.P,C7,1*%
%TO.N,+3.3VA*%
X147680000Y-107400000D03*
%TO.P,C7,2*%
%TO.N,GND*%
X146720000Y-107400000D03*
%TD*%
%TO.P,C5,1*%
%TO.N,+3.3V*%
X161480000Y-109500000D03*
%TO.P,C5,2*%
%TO.N,GND*%
X160520000Y-109500000D03*
%TD*%
D37*
%TO.P,U3,1,VOUT*%
%TO.N,/Voltage regulator 3v3/3v3_out*%
X169850000Y-116015000D03*
%TO.P,U3,2,L2*%
%TO.N,Net-(U3-L2)*%
X169850000Y-116515000D03*
%TO.P,U3,3,PGND*%
%TO.N,GNDPWR*%
X169850000Y-117015000D03*
%TO.P,U3,4,L1*%
%TO.N,Net-(U3-L1)*%
X169850000Y-117515000D03*
%TO.P,U3,5,VIN*%
%TO.N,/Voltage regulator 3v3/batt_in*%
X169850000Y-118015000D03*
%TO.P,U3,6,EN*%
%TO.N,Net-(U3-EN)*%
X172650000Y-118015000D03*
%TO.P,U3,7,PS/SYNC*%
X172650000Y-117515000D03*
%TO.P,U3,8,VINA*%
X172650000Y-117015000D03*
%TO.P,U3,9,GND*%
%TO.N,GND*%
X172650000Y-116515000D03*
%TO.P,U3,10,FB*%
%TO.N,Net-(U3-FB)*%
X172650000Y-116015000D03*
D38*
%TO.P,U3,11,PGND*%
%TO.N,GNDPWR*%
X170675000Y-117015000D03*
X171250000Y-116065000D03*
D39*
X171250000Y-117015000D03*
D38*
X171250000Y-117965000D03*
X171825000Y-117015000D03*
%TD*%
D40*
%TO.P,Q1,1,B*%
%TO.N,Net-(Q1-B)*%
X142200000Y-93327500D03*
%TO.P,Q1,2,C*%
%TO.N,Net-(D2-A)*%
X140300000Y-93327500D03*
%TO.P,Q1,3,E*%
%TO.N,GND*%
X141250000Y-95202500D03*
%TD*%
D24*
%TO.P,R2,1*%
%TO.N,/Voltage regulator 3v3/3v3_out*%
X161500000Y-112260000D03*
%TO.P,R2,2*%
%TO.N,+3.3V*%
X161500000Y-111240000D03*
%TD*%
D32*
%TO.P,C19,1*%
%TO.N,/Voltage regulator 3v3/3v3_out*%
X162475000Y-118000000D03*
%TO.P,C19,2*%
%TO.N,GNDPWR*%
X164025000Y-118000000D03*
%TD*%
D25*
%TO.P,R1,1*%
%TO.N,Net-(R1-Pad1)*%
X176760000Y-126000000D03*
%TO.P,R1,2*%
%TO.N,/Voltage regulator 3v3/batt_in*%
X175740000Y-126000000D03*
%TD*%
D10*
%TO.P,R21,1*%
%TO.N,GND*%
X135240000Y-114490000D03*
%TO.P,R21,2*%
%TO.N,/Li-Po Battery and charger/IC_PROG*%
X135240000Y-115510000D03*
%TD*%
D55*
%TO.P,D3,1,K*%
%TO.N,Net-(D3-K)*%
X184212500Y-119500000D03*
%TO.P,D3,2,A*%
%TO.N,Net-(D3-A)*%
X185787500Y-119500000D03*
%TD*%
%TO.P,D4,1,K*%
%TO.N,Net-(D4-K)*%
X184212500Y-111750000D03*
%TO.P,D4,2,A*%
%TO.N,Net-(D3-A)*%
X185787500Y-111750000D03*
%TD*%
D56*
%TO.P,U2,1,IN*%
%TO.N,+BATT*%
X131215000Y-107567500D03*
%TO.P,U2,2,GND*%
%TO.N,GND*%
X132165000Y-107567500D03*
%TO.P,U2,3,EN*%
%TO.N,+BATT*%
X133115000Y-107567500D03*
%TO.P,U2,4,NC*%
%TO.N,unconnected-(U2-NC-Pad4)*%
X133115000Y-105292500D03*
%TO.P,U2,5,OUT*%
%TO.N,/STM32F103RCT6/VBAT*%
X131215000Y-105292500D03*
%TD*%
D10*
%TO.P,R6,1*%
%TO.N,/STM32F103RCT6/SW_BOOT0*%
X156200000Y-93090000D03*
%TO.P,R6,2*%
%TO.N,/STM32F103RCT6/BOOT0*%
X156200000Y-94110000D03*
%TD*%
D32*
%TO.P,C26,1*%
%TO.N,/Voltage regulator 5V/batt_in*%
X132990000Y-79537500D03*
%TO.P,C26,2*%
%TO.N,GNDPWR*%
X134540000Y-79537500D03*
%TD*%
D57*
%TO.P,U6,1,I/O1*%
%TO.N,/STM32F103RCT6/USB_CONN_D-*%
X169637500Y-100950000D03*
%TO.P,U6,2,GND*%
%TO.N,GND*%
X169637500Y-100000000D03*
%TO.P,U6,3,I/O2*%
%TO.N,/STM32F103RCT6/USB_CONN_D+*%
X169637500Y-99050000D03*
%TO.P,U6,4,I/O2*%
%TO.N,/STM32F103RCT6/USB_D+*%
X167362500Y-99050000D03*
%TO.P,U6,5,VBUS*%
%TO.N,VBUS*%
X167362500Y-100000000D03*
%TO.P,U6,6,I/O1*%
%TO.N,/STM32F103RCT6/USB_D-*%
X167362500Y-100950000D03*
%TD*%
D24*
%TO.P,R36,1*%
%TO.N,GND*%
X167800000Y-87010000D03*
%TO.P,R36,2*%
%TO.N,Net-(U5-3A)*%
X167800000Y-85990000D03*
%TD*%
D47*
%TO.P,C24,1*%
%TO.N,/Voltage regulator 5V/5v_out*%
X130415000Y-73562500D03*
%TO.P,C24,2*%
%TO.N,GNDPWR*%
X130415000Y-72012500D03*
%TD*%
D17*
%TO.P,C13,1*%
%TO.N,/STM32F103RCT6/VBAT*%
X129415000Y-105900000D03*
%TO.P,C13,2*%
%TO.N,GND*%
X129415000Y-106860000D03*
%TD*%
D22*
%TO.P,TP2,1,1*%
%TO.N,/Li-Po Battery and charger/charger_out*%
X155250000Y-124500000D03*
%TD*%
D58*
%TO.P,Y1,1,1*%
%TO.N,/STM32F103RCT6/HSE_IN*%
X144610000Y-99150000D03*
%TO.P,Y1,2,2*%
%TO.N,GND*%
X144610000Y-101350000D03*
%TO.P,Y1,3,3*%
%TO.N,/STM32F103RCT6/HSE_OUT*%
X146310000Y-101350000D03*
%TO.P,Y1,4,4*%
%TO.N,GND*%
X146310000Y-99150000D03*
%TD*%
D13*
%TO.P,R19,1*%
%TO.N,Net-(Q2-G)*%
X140310000Y-129445000D03*
%TO.P,R19,2*%
%TO.N,+BATT*%
X141330000Y-129445000D03*
%TD*%
%TO.P,R10,1*%
%TO.N,Net-(Q1-B)*%
X143990000Y-93265000D03*
%TO.P,R10,2*%
%TO.N,/STM32F103RCT6/PWM3_BUZZER*%
X145010000Y-93265000D03*
%TD*%
D16*
%TO.P,NT3,1,1*%
%TO.N,GNDPWR*%
X130425000Y-69762500D03*
%TO.P,NT3,2,2*%
%TO.N,GND*%
X126425000Y-69762500D03*
%TD*%
D51*
%TO.P,C4,1*%
%TO.N,+3.3V*%
X154645000Y-109550000D03*
%TO.P,C4,2*%
%TO.N,GND*%
X153685000Y-109550000D03*
%TD*%
%TO.P,C9,1*%
%TO.N,/STM32F103RCT6/NRST*%
X145143431Y-104000000D03*
%TO.P,C9,2*%
%TO.N,GND*%
X144183431Y-104000000D03*
%TD*%
%TO.P,C12,1*%
%TO.N,+BATT*%
X133195000Y-109180000D03*
%TO.P,C12,2*%
%TO.N,GND*%
X132235000Y-109180000D03*
%TD*%
D24*
%TO.P,R33,1*%
%TO.N,Net-(D6-K)*%
X125125000Y-75172500D03*
%TO.P,R33,2*%
%TO.N,GND*%
X125125000Y-74152500D03*
%TD*%
D13*
%TO.P,R3,1*%
%TO.N,Net-(R1-Pad1)*%
X130090000Y-79600000D03*
%TO.P,R3,2*%
%TO.N,/Voltage regulator 5V/batt_in*%
X131110000Y-79600000D03*
%TD*%
D14*
%TO.P,FPC1,1,1*%
%TO.N,+5V*%
X147250000Y-71300000D03*
%TO.P,FPC1,2,2*%
%TO.N,GND*%
X147750000Y-71300000D03*
%TO.P,FPC1,3,3*%
%TO.N,/Connectors to segment displays/DISP1_SEG_A*%
X148250000Y-71300000D03*
%TO.P,FPC1,4,4*%
%TO.N,/Connectors to segment displays/DISP1_SEG_B*%
X148750000Y-71300000D03*
%TO.P,FPC1,5,5*%
%TO.N,/Connectors to segment displays/DISP1_SEG_C*%
X149250000Y-71300000D03*
%TO.P,FPC1,6,6*%
%TO.N,/Connectors to segment displays/DISP1_SEG_D*%
X149750000Y-71300000D03*
%TO.P,FPC1,7,7*%
%TO.N,/Connectors to segment displays/DISP1_SEG_E*%
X150250000Y-71300000D03*
%TO.P,FPC1,8,8*%
%TO.N,/Connectors to segment displays/DISP1_SEG_F*%
X150750000Y-71300000D03*
%TO.P,FPC1,9,9*%
%TO.N,/Connectors to segment displays/DISP1_SEG_G*%
X151250000Y-71300000D03*
%TO.P,FPC1,10,10*%
%TO.N,/Connectors to segment displays/DISP1_SEG_DP*%
X151750000Y-71300000D03*
%TO.P,FPC1,11,11*%
%TO.N,/Connectors to segment displays/TIM2_CH1_PWM1_SEG*%
X152250000Y-71300000D03*
%TO.P,FPC1,12,12*%
%TO.N,GND*%
X152750000Y-71300000D03*
%TO.P,FPC1,13,13*%
X153250000Y-71300000D03*
%TO.P,FPC1,14,14*%
X153750000Y-71300000D03*
%TO.P,FPC1,15,15*%
%TO.N,/Connectors to segment displays/DISP2_SEG_A*%
X154250000Y-71300000D03*
%TO.P,FPC1,16,16*%
%TO.N,/Connectors to segment displays/DISP2_SEG_B*%
X154750000Y-71300000D03*
%TO.P,FPC1,17,17*%
%TO.N,/Connectors to segment displays/DISP2_SEG_C*%
X155250000Y-71300000D03*
%TO.P,FPC1,18,18*%
%TO.N,/Connectors to segment displays/DISP2_SEG_D*%
X155750000Y-71300000D03*
%TO.P,FPC1,19,19*%
%TO.N,/Connectors to segment displays/DISP2_SEG_E*%
X156250000Y-71300000D03*
%TO.P,FPC1,20,20*%
%TO.N,/Connectors to segment displays/DISP2_SEG_F*%
X156750000Y-71300000D03*
%TO.P,FPC1,21,21*%
%TO.N,/Connectors to segment displays/DISP2_SEG_G*%
X157250000Y-71300000D03*
%TO.P,FPC1,22,22*%
%TO.N,/Connectors to segment displays/DISP2_SEG_DP*%
X157750000Y-71300000D03*
%TO.P,FPC1,23,23*%
%TO.N,/Connectors to segment displays/TIM2_CH2_PWM2_SEG*%
X158250000Y-71300000D03*
%TO.P,FPC1,24,24*%
%TO.N,GND*%
X158750000Y-71300000D03*
D15*
%TO.P,FPC1,25,25*%
%TO.N,unconnected-(FPC1-Pad25)*%
X160450000Y-68700000D03*
%TO.P,FPC1,26,26*%
%TO.N,unconnected-(FPC1-Pad26)*%
X145550000Y-68700000D03*
%TD*%
D40*
%TO.P,Q3,1,B*%
%TO.N,Net-(Q3-B)*%
X150025000Y-131380000D03*
%TO.P,Q3,2,C*%
%TO.N,Net-(Q3-C)*%
X148125000Y-131380000D03*
%TO.P,Q3,3,E*%
%TO.N,GND*%
X149075000Y-133255000D03*
%TD*%
D13*
%TO.P,R25,1*%
%TO.N,GND*%
X131655000Y-118750000D03*
%TO.P,R25,2*%
%TO.N,/Li-Po Battery and charger/IC_TEMP*%
X132675000Y-118750000D03*
%TD*%
D10*
%TO.P,R28,1*%
%TO.N,Net-(U3-FB)*%
X175750000Y-115415000D03*
%TO.P,R28,2*%
%TO.N,GND*%
X175750000Y-116435000D03*
%TD*%
D13*
%TO.P,R26,1*%
%TO.N,/Voltage regulator 3v3/batt_in*%
X170740000Y-119815000D03*
%TO.P,R26,2*%
%TO.N,Net-(U3-EN)*%
X171760000Y-119815000D03*
%TD*%
D25*
%TO.P,R18,1*%
%TO.N,Net-(Q3-C)*%
X144505000Y-129445000D03*
%TO.P,R18,2*%
%TO.N,+BATT*%
X143485000Y-129445000D03*
%TD*%
D11*
%TO.P,C27,1*%
%TO.N,Net-(U4-EN)*%
X137325000Y-77747500D03*
%TO.P,C27,2*%
%TO.N,GND*%
X138285000Y-77747500D03*
%TD*%
D10*
%TO.P,R23,1*%
%TO.N,GND*%
X145900000Y-130205000D03*
%TO.P,R23,2*%
%TO.N,Net-(Q3-C)*%
X145900000Y-131225000D03*
%TD*%
D17*
%TO.P,C30,1*%
%TO.N,Net-(U5-3A)*%
X169050000Y-86020000D03*
%TO.P,C30,2*%
%TO.N,GND*%
X169050000Y-86980000D03*
%TD*%
D59*
%TO.P,BUZZER1,1,1*%
%TO.N,+3.3V*%
X136000000Y-86400000D03*
%TO.P,BUZZER1,2,2*%
%TO.N,Net-(D2-A)*%
X144000000Y-86400000D03*
%TD*%
D13*
%TO.P,R24,1*%
%TO.N,/Li-Po Battery and charger/IC_TEMP*%
X135230000Y-117000000D03*
%TO.P,R24,2*%
%TO.N,VBUS*%
X136250000Y-117000000D03*
%TD*%
D28*
%TO.P,L2,1,1*%
%TO.N,Net-(U4-L1)*%
X130450000Y-77937500D03*
%TO.P,L2,2,2*%
%TO.N,Net-(U4-L2)*%
X130450000Y-75637500D03*
%TD*%
D12*
%TO.P,SW5,1,1*%
%TO.N,+3.3V*%
X180620000Y-91000000D03*
%TO.P,SW5,2,2*%
%TO.N,Net-(U5-3A)*%
X180620000Y-89000000D03*
%TO.P,SW5,3,3*%
%TO.N,unconnected-(SW5-Pad3)*%
X180620000Y-87000000D03*
%TO.P,SW5,4,4*%
%TO.N,unconnected-(SW5-Pad4)*%
X187380000Y-91000000D03*
%TO.P,SW5,5,5*%
%TO.N,unconnected-(SW5-Pad5)*%
X187380000Y-89000000D03*
%TO.P,SW5,6,6*%
%TO.N,unconnected-(SW5-Pad6)*%
X187380000Y-87000000D03*
%TD*%
D60*
%TO.N,+3.3V*%
X162225000Y-111250000D03*
X178950000Y-91050000D03*
X153250000Y-93800000D03*
X134808173Y-86400913D03*
X150296051Y-108414924D03*
X136017798Y-92620674D03*
X164900000Y-96800000D03*
X178950000Y-83400000D03*
X162525000Y-78200000D03*
X176275000Y-81650000D03*
X162175000Y-109525000D03*
X179525000Y-76700000D03*
X154650000Y-110250000D03*
X147893484Y-92264607D03*
X150594503Y-95605498D03*
X137200000Y-86400000D03*
%TO.N,GND*%
X163100000Y-75550000D03*
X126425000Y-71162500D03*
X142000000Y-133275000D03*
X168500000Y-97750000D03*
X144000000Y-96200000D03*
X131200000Y-125000000D03*
X179125000Y-102375000D03*
X165597386Y-98512485D03*
X145900000Y-129525000D03*
X154475000Y-93775000D03*
X172000000Y-79750000D03*
X149000000Y-99075000D03*
X169025000Y-89275000D03*
X163200000Y-123000000D03*
X126352687Y-89764456D03*
X148975000Y-101050000D03*
X151375000Y-132775000D03*
X125325000Y-83675000D03*
X141950000Y-95200000D03*
X147350000Y-95525000D03*
X125125000Y-73412500D03*
X157375000Y-109600000D03*
X126425000Y-68337500D03*
X157200000Y-128400000D03*
X153125000Y-132775000D03*
X173875000Y-96075000D03*
X160000000Y-73553053D03*
X140550000Y-95225000D03*
X158200000Y-111920500D03*
X141250000Y-96325000D03*
X144175000Y-103275000D03*
X153256569Y-72352372D03*
X146025000Y-106500000D03*
X143600000Y-101375000D03*
X143425000Y-133250000D03*
X129425000Y-107550000D03*
X147749509Y-72800000D03*
X150000000Y-102825000D03*
X126949500Y-95250000D03*
X147300000Y-130175000D03*
X153025000Y-109150000D03*
X160525000Y-110225000D03*
X169050000Y-87675000D03*
X149775000Y-133250000D03*
X125050000Y-69762500D03*
X148375000Y-133250000D03*
X160183007Y-115395414D03*
X138975000Y-77762500D03*
X146800000Y-97800000D03*
X132226756Y-109899500D03*
X178450000Y-117200000D03*
X132475000Y-123750000D03*
X137575000Y-76562500D03*
X184750000Y-113025000D03*
X154250000Y-91325000D03*
%TO.N,/STM32F103RCT6/NRST*%
X158000000Y-88000000D03*
X146200000Y-95600000D03*
X158000000Y-85750500D03*
X150000000Y-93000000D03*
%TO.N,+BATT*%
X151909500Y-118550500D03*
X144400000Y-123600000D03*
%TO.N,Net-(D3-A)*%
X186975000Y-121300000D03*
X130900000Y-119500500D03*
X137150500Y-117000000D03*
%TO.N,/Li-Po Battery and charger/Batt_VoltageDivision_out*%
X159043227Y-112650500D03*
X154400000Y-113600000D03*
%TO.N,GNDPWR*%
X138200000Y-102800000D03*
X133739500Y-82650500D03*
X133170500Y-70200000D03*
%TO.N,Net-(D3-K)*%
X122125000Y-112800000D03*
X183624500Y-123449500D03*
%TO.N,Net-(D4-K)*%
X122275000Y-113800000D03*
X183932210Y-114229693D03*
%TO.N,/Li-Po Battery and charger/IC_TEMP*%
X135000000Y-121150500D03*
X135000000Y-123250000D03*
%TO.N,VBUS*%
X176000000Y-102000000D03*
X170850500Y-102200000D03*
X147400000Y-128000000D03*
X137000000Y-119400000D03*
X170400000Y-105200000D03*
X156600000Y-125800000D03*
X171200000Y-96400000D03*
%TO.N,/STM32F103RCT6/SWDIO*%
X162000000Y-86000000D03*
X162000000Y-87999500D03*
%TO.N,/STM32F103RCT6/SWCLK*%
X161051788Y-85683930D03*
X160999500Y-87999500D03*
%TO.N,/STM32F103RCT6/SW_BOOT0*%
X155451178Y-92173236D03*
X152022756Y-91662802D03*
%TO.N,/STM32F103RCT6/button1_in*%
X160600250Y-98600250D03*
X168000000Y-88600000D03*
%TO.N,/STM32F103RCT6/button2_in*%
X160216863Y-99876053D03*
X172750500Y-86800000D03*
%TO.N,/STM32F103RCT6/button3_in*%
X160640442Y-100989942D03*
X164200000Y-94800000D03*
%TO.N,Net-(U5-3A)*%
X174250000Y-91669570D03*
X174250000Y-89500000D03*
%TO.N,/Connectors to segment displays/TIM2_CH2_PWM2_SEG*%
X154000000Y-77800000D03*
X152129977Y-84670023D03*
X160000000Y-75200000D03*
X158816470Y-126416470D03*
X177200000Y-107583258D03*
X160000000Y-97800000D03*
%TO.N,/Connectors to segment displays/TIM2_CH1_PWM1_SEG*%
X176949500Y-118800000D03*
X162756086Y-131291778D03*
X120530089Y-89251783D03*
X124200000Y-112149000D03*
X124450500Y-104408910D03*
X184750500Y-103794641D03*
X161300500Y-102450500D03*
X172200000Y-110400000D03*
X167650500Y-109400000D03*
X155271279Y-69096054D03*
%TO.N,/Connectors to segment displays/DISP2_SEG_DP*%
X172200500Y-98200000D03*
X158798654Y-75002330D03*
X160749055Y-126106310D03*
X134200000Y-84899500D03*
X176000000Y-108332758D03*
X155258108Y-93153914D03*
%TO.N,/Connectors to segment displays/DISP2_SEG_G*%
X158042119Y-75845283D03*
X124099502Y-83400000D03*
X151400000Y-93600000D03*
X161455810Y-126855810D03*
X156000500Y-97743122D03*
X177417792Y-106048044D03*
%TO.N,/Connectors to segment displays/DISP2_SEG_F*%
X123349500Y-84308428D03*
X177933627Y-105066373D03*
X157044351Y-75786416D03*
X142415383Y-81184617D03*
X156471593Y-98624642D03*
X158751000Y-130610857D03*
%TO.N,/Connectors to segment displays/DISP2_SEG_E*%
X122749500Y-85268809D03*
X143682082Y-80549500D03*
X159051758Y-131564036D03*
X157725634Y-98608342D03*
X156549500Y-74815854D03*
X179137144Y-104748765D03*
%TO.N,/Connectors to segment displays/DISP2_SEG_D*%
X160250500Y-131000000D03*
X154800000Y-78800000D03*
X122230192Y-86169730D03*
X158718906Y-98496915D03*
X179400000Y-103784446D03*
X156049500Y-75690103D03*
%TO.N,/Connectors to segment displays/DISP2_SEG_C*%
X180472541Y-103771860D03*
X161625500Y-116000000D03*
X160750075Y-132196549D03*
X125600000Y-110649000D03*
X126449500Y-103200000D03*
X120200000Y-86800000D03*
X175488967Y-120849115D03*
X159552123Y-106200000D03*
X155748211Y-76683930D03*
%TO.N,/Connectors to segment displays/DISP2_SEG_B*%
X161633179Y-132664664D03*
X154800000Y-77000000D03*
X159046229Y-105337981D03*
X167650500Y-111400500D03*
X121390243Y-87450395D03*
X181399500Y-102800000D03*
X176314442Y-120285557D03*
%TO.N,Net-(Q2-G)*%
X140750000Y-125750000D03*
X140750000Y-122500000D03*
%TO.N,/Connectors to segment displays/DISP2_SEG_A*%
X162558347Y-132286419D03*
X141400000Y-83200000D03*
X156200000Y-69549500D03*
X128400000Y-88800000D03*
X120912502Y-88328330D03*
X158000000Y-105400000D03*
X184250500Y-104660291D03*
%TO.N,/Connectors to segment displays/DISP1_SEG_DP*%
X160199999Y-102800000D03*
X173600000Y-109800000D03*
X123400000Y-111399500D03*
X121133099Y-90068184D03*
X185149522Y-102798642D03*
X163505586Y-131967447D03*
X178125000Y-119222830D03*
X123400000Y-104400000D03*
X154434449Y-68549500D03*
%TO.N,/Connectors to segment displays/DISP1_SEG_G*%
X153447576Y-68079235D03*
X164321024Y-131236365D03*
X119999500Y-90916566D03*
X185750500Y-102000000D03*
X122200000Y-109899500D03*
X127800000Y-91000000D03*
X122400000Y-104550500D03*
X156999500Y-105768584D03*
X137600000Y-83000000D03*
%TO.N,/Connectors to segment displays/DISP1_SEG_F*%
X157704395Y-103702295D03*
X120000066Y-91916068D03*
X128450500Y-91976538D03*
X185800000Y-101000000D03*
X152600000Y-67549500D03*
X164450500Y-132293245D03*
%TO.N,/Connectors to segment displays/DISP1_SEG_E*%
X151675946Y-66999500D03*
X165200000Y-133000000D03*
X129200000Y-88000000D03*
X186850500Y-100600000D03*
X121312969Y-92370078D03*
X156723302Y-103893248D03*
%TO.N,/Connectors to segment displays/DISP1_SEG_D*%
X166116095Y-132317314D03*
X186974166Y-99302889D03*
X163800000Y-133200000D03*
X119999500Y-92915760D03*
X155743970Y-104093029D03*
X152400000Y-116600000D03*
X150749500Y-66499500D03*
%TO.N,/Connectors to segment displays/DISP1_SEG_C*%
X120149293Y-93941133D03*
X120002558Y-74802558D03*
X188000499Y-99131607D03*
X154994470Y-103352092D03*
X166400497Y-133275500D03*
X149562118Y-66962118D03*
%TO.N,/Connectors to segment displays/DISP1_SEG_B*%
X187740892Y-97949500D03*
X120800000Y-94800000D03*
X149173789Y-65774743D03*
X167400000Y-133275500D03*
X154148212Y-103883930D03*
%TO.N,/Connectors to segment displays/DISP1_SEG_A*%
X153200000Y-104200000D03*
X188500500Y-97200000D03*
X148200000Y-66000000D03*
X119870023Y-95470023D03*
X168600000Y-133200000D03*
%TO.N,Net-(R1-Pad1)*%
X130000000Y-86400000D03*
X161400000Y-123600000D03*
X168600000Y-121400000D03*
X130000000Y-83400000D03*
%TO.N,/STM32F103RCT6/PWM3_BUZZER*%
X158506018Y-101553009D03*
X154400000Y-98000000D03*
%TO.N,/STM32F103RCT6/USB_CONN_D+*%
X172000000Y-100525000D03*
X167427013Y-96767848D03*
%TO.N,/STM32F103RCT6/USB_CONN_D-*%
X168169477Y-96025384D03*
X172000000Y-99475000D03*
%TD*%
D61*
%TO.N,+3.3V*%
X153250000Y-93800000D02*
X153250000Y-94230000D01*
X153750000Y-96325000D02*
X153750000Y-95500000D01*
X134809086Y-86400000D02*
X134808173Y-86400913D01*
X180425000Y-75800000D02*
X179525000Y-76700000D01*
X180620000Y-91000000D02*
X179000000Y-91000000D01*
X179000000Y-91000000D02*
X178950000Y-91050000D01*
X164890000Y-97520000D02*
X164890000Y-96810000D01*
X150489005Y-95500000D02*
X149750000Y-95500000D01*
X162540000Y-79800000D02*
X162540000Y-78215000D01*
X163175000Y-98250000D02*
X163905000Y-97520000D01*
X136000000Y-86400000D02*
X134809086Y-86400000D01*
X153750000Y-95500000D02*
X153500000Y-95250000D01*
X153520000Y-95230000D02*
X153520000Y-94500000D01*
X161500000Y-111240000D02*
X162215000Y-111240000D01*
X161480000Y-109500000D02*
X162150000Y-109500000D01*
X180620000Y-83400000D02*
X178950000Y-83400000D01*
X161480000Y-111220000D02*
X161500000Y-111240000D01*
X147000000Y-92250000D02*
X147878877Y-92250000D01*
X163905000Y-97520000D02*
X164890000Y-97520000D01*
X162150000Y-109500000D02*
X162175000Y-109525000D01*
X149387500Y-108400000D02*
X149400000Y-108387500D01*
X147893484Y-92036516D02*
X149750000Y-90180000D01*
X162215000Y-111240000D02*
X162225000Y-111250000D01*
X154750000Y-109445000D02*
X154750000Y-107675000D01*
X150296051Y-108414924D02*
X149427424Y-108414924D01*
X154645000Y-110245000D02*
X154650000Y-110250000D01*
X153500000Y-95250000D02*
X153520000Y-95230000D01*
X161250000Y-107675000D02*
X161250000Y-109270000D01*
X180620000Y-75800000D02*
X180425000Y-75800000D01*
X161250000Y-109270000D02*
X161480000Y-109500000D01*
X154645000Y-109550000D02*
X154645000Y-110245000D01*
X136035000Y-93265000D02*
X136000000Y-93230000D01*
X147893484Y-92264607D02*
X147893484Y-92036516D01*
X136035000Y-93265000D02*
X136035000Y-92637876D01*
X154645000Y-109550000D02*
X154750000Y-109445000D01*
X153250000Y-94230000D02*
X153520000Y-94500000D01*
X164890000Y-96810000D02*
X164900000Y-96800000D01*
X166372840Y-96757283D02*
X164942717Y-96757283D01*
X147878877Y-92250000D02*
X147893484Y-92264607D01*
X162540000Y-78215000D02*
X162525000Y-78200000D01*
X136035000Y-92637876D02*
X136017798Y-92620674D01*
X176250000Y-81675000D02*
X176275000Y-81650000D01*
X176250000Y-82380000D02*
X176250000Y-81675000D01*
X164942717Y-96757283D02*
X164900000Y-96800000D01*
X161480000Y-109500000D02*
X161480000Y-111220000D01*
X136000000Y-86400000D02*
X137200000Y-86400000D01*
X147680000Y-108400000D02*
X149387500Y-108400000D01*
X150594503Y-95605498D02*
X150489005Y-95500000D01*
X149427424Y-108414924D02*
X149400000Y-108387500D01*
%TO.N,Net-(D2-A)*%
X138135000Y-93265000D02*
X140237500Y-93265000D01*
X144000000Y-86400000D02*
X144000000Y-89627500D01*
X140237500Y-93265000D02*
X140300000Y-93327500D01*
X144000000Y-89627500D02*
X140300000Y-93327500D01*
%TO.N,GND*%
X182700000Y-96750000D02*
X180585000Y-96750000D01*
X169020000Y-90000000D02*
X171300000Y-90000000D01*
X141950000Y-95200000D02*
X140575000Y-95200000D01*
X154250000Y-96325000D02*
X154250000Y-95350000D01*
X160520000Y-110220000D02*
X160525000Y-110225000D01*
X178500000Y-116485000D02*
X178500000Y-117150000D01*
D62*
X126425000Y-68337500D02*
X126425000Y-71162500D01*
D61*
X182700000Y-109866834D02*
X183758166Y-110925000D01*
X160750000Y-107675000D02*
X160750000Y-109270000D01*
D62*
X178150000Y-96000000D02*
X178485000Y-95665000D01*
D61*
X154250000Y-108942035D02*
X153685000Y-109507035D01*
X147750000Y-72799509D02*
X147750000Y-71300000D01*
X175690000Y-116495000D02*
X175750000Y-116435000D01*
X179450000Y-102050000D02*
X179125000Y-102375000D01*
X144183431Y-103283431D02*
X144175000Y-103275000D01*
D62*
X126425000Y-69762500D02*
X125050000Y-69762500D01*
D61*
X157600000Y-112000000D02*
X158120500Y-112000000D01*
X156760000Y-112000000D02*
X157600000Y-112000000D01*
X158510000Y-76750000D02*
X160000000Y-78240000D01*
X163175000Y-98750000D02*
X164620000Y-98750000D01*
X132235000Y-109891256D02*
X132235000Y-109180000D01*
D62*
X173875000Y-96075000D02*
X173875000Y-97575000D01*
D61*
X173850000Y-102400000D02*
X173850000Y-102935000D01*
X168750000Y-128700000D02*
X168750000Y-127750000D01*
X160000000Y-78240000D02*
X160000000Y-79800000D01*
X157450000Y-128400000D02*
X157750000Y-128700000D01*
X174200000Y-102750000D02*
X173850000Y-102400000D01*
D62*
X132475000Y-124985000D02*
X132460000Y-125000000D01*
D61*
X156680000Y-109550000D02*
X157325000Y-109550000D01*
X179100000Y-102400000D02*
X179125000Y-102375000D01*
X180585000Y-96750000D02*
X179500000Y-95665000D01*
X157200000Y-128400000D02*
X157450000Y-128400000D01*
X178450000Y-116435000D02*
X178500000Y-116485000D01*
X137125000Y-76112500D02*
X137575000Y-76562500D01*
X147350000Y-95525000D02*
X148175000Y-95525000D01*
X160410000Y-78240000D02*
X163100000Y-75550000D01*
X164620000Y-98750000D02*
X164890000Y-98480000D01*
X168500000Y-99282107D02*
X168500000Y-98000000D01*
D62*
X176865000Y-97250000D02*
X176790000Y-97175000D01*
X173875000Y-97575000D02*
X173850000Y-97600000D01*
D61*
X132226756Y-109899500D02*
X132235000Y-109891256D01*
X165564901Y-98480000D02*
X165597386Y-98512485D01*
X125300000Y-89750000D02*
X125300000Y-90250000D01*
D62*
X167800000Y-87010000D02*
X169020000Y-87010000D01*
D61*
X133215000Y-114445000D02*
X131180000Y-114445000D01*
X151825000Y-103750000D02*
X150230000Y-103750000D01*
X164890000Y-98480000D02*
X165564901Y-98480000D01*
X131165000Y-117030000D02*
X131165000Y-115730000D01*
D62*
X143400000Y-133275000D02*
X143425000Y-133250000D01*
D61*
X146720000Y-107195000D02*
X146025000Y-106500000D01*
X168600000Y-127600000D02*
X163250000Y-127600000D01*
D62*
X142000000Y-133275000D02*
X143400000Y-133275000D01*
D61*
X153250000Y-71300000D02*
X153250000Y-72345803D01*
X146720000Y-107400000D02*
X146720000Y-107195000D01*
X146310000Y-98290000D02*
X146800000Y-97800000D01*
X169637500Y-100000000D02*
X169217893Y-100000000D01*
D62*
X176790000Y-97175000D02*
X175210000Y-97175000D01*
X147295000Y-130170000D02*
X147300000Y-130175000D01*
D61*
X131340000Y-109180000D02*
X132235000Y-109180000D01*
D62*
X129865000Y-114430000D02*
X131165000Y-114430000D01*
X129425000Y-106870000D02*
X129415000Y-106860000D01*
X137590000Y-76547500D02*
X137575000Y-76562500D01*
X149775000Y-133250000D02*
X148375000Y-133250000D01*
D61*
X158750000Y-72303053D02*
X160000000Y-73553053D01*
D62*
X178150000Y-97600000D02*
X178150000Y-96000000D01*
D61*
X148175000Y-95525000D02*
X148200000Y-95500000D01*
D62*
X138285000Y-77747500D02*
X138960000Y-77747500D01*
X132500000Y-125040000D02*
X132460000Y-125000000D01*
D61*
X163250000Y-128700000D02*
X163250000Y-127600000D01*
X178150000Y-102400000D02*
X179100000Y-102400000D01*
X131165000Y-117030000D02*
X131165000Y-113130000D01*
D62*
X147295000Y-129445000D02*
X147295000Y-130170000D01*
D61*
X174150000Y-116495000D02*
X175690000Y-116495000D01*
D62*
X125325000Y-83675000D02*
X125325000Y-84150000D01*
D61*
X160750000Y-109270000D02*
X160520000Y-109500000D01*
X132235000Y-109180000D02*
X132235000Y-107637500D01*
D62*
X131250000Y-125050000D02*
X131200000Y-125000000D01*
D61*
X164380000Y-75500000D02*
X163150000Y-75500000D01*
X158750000Y-71300000D02*
X158750000Y-72303053D01*
X146310000Y-99150000D02*
X146310000Y-98290000D01*
X157325000Y-109550000D02*
X157375000Y-109600000D01*
D62*
X138305000Y-76547500D02*
X137590000Y-76547500D01*
X129865000Y-113130000D02*
X129865000Y-117030000D01*
X169020000Y-87010000D02*
X169050000Y-86980000D01*
X173850000Y-97600000D02*
X174785000Y-97600000D01*
D61*
X152750000Y-71300000D02*
X153750000Y-71300000D01*
X125125000Y-74152500D02*
X125125000Y-73412500D01*
X163150000Y-75500000D02*
X163100000Y-75550000D01*
D62*
X132475000Y-123750000D02*
X132475000Y-124985000D01*
D61*
X175135000Y-102750000D02*
X174200000Y-102750000D01*
D62*
X129865000Y-113130000D02*
X129865000Y-111605000D01*
D61*
X143625000Y-101350000D02*
X143600000Y-101375000D01*
X144183431Y-104000000D02*
X144183431Y-103283431D01*
D62*
X169025000Y-89275000D02*
X169025000Y-89995000D01*
D61*
X184740000Y-113750000D02*
X184740000Y-113035000D01*
X160000000Y-79800000D02*
X161270000Y-79800000D01*
D62*
X138285000Y-77747500D02*
X138285000Y-76567500D01*
D61*
X183758166Y-110925000D02*
X184666834Y-110925000D01*
X125300000Y-89750000D02*
X126338231Y-89750000D01*
X135930000Y-76112500D02*
X137125000Y-76112500D01*
X154250000Y-91325000D02*
X154250000Y-90180000D01*
D62*
X129865000Y-111605000D02*
X129390000Y-111130000D01*
D61*
X154480000Y-93780000D02*
X154475000Y-93775000D01*
D62*
X171270000Y-80960000D02*
X171230000Y-81000000D01*
D61*
X125300000Y-89750000D02*
X125300000Y-89250000D01*
D62*
X131165000Y-115730000D02*
X129865000Y-115730000D01*
D61*
X129390000Y-111130000D02*
X131340000Y-109180000D01*
X131180000Y-114445000D02*
X131165000Y-114430000D01*
D62*
X131200000Y-125000000D02*
X132460000Y-125000000D01*
D61*
X146720000Y-108400000D02*
X146720000Y-107400000D01*
D62*
X177215000Y-97600000D02*
X176865000Y-97250000D01*
D61*
X184666834Y-110925000D02*
X185000000Y-111258166D01*
D62*
X129425000Y-107550000D02*
X129425000Y-106870000D01*
D61*
X182500000Y-102050000D02*
X179450000Y-102050000D01*
X135240000Y-114490000D02*
X133260000Y-114490000D01*
X131165000Y-118260000D02*
X131655000Y-118750000D01*
D62*
X153110000Y-132760000D02*
X153125000Y-132775000D01*
D61*
X131165000Y-117030000D02*
X131165000Y-118260000D01*
X153685000Y-109550000D02*
X153425000Y-109550000D01*
X162750000Y-128700000D02*
X163750000Y-128700000D01*
D62*
X171270000Y-79750000D02*
X171270000Y-80960000D01*
D61*
X140575000Y-95200000D02*
X140550000Y-95225000D01*
D62*
X178150000Y-97600000D02*
X177215000Y-97600000D01*
D61*
X132235000Y-107637500D02*
X132165000Y-107567500D01*
D62*
X125325000Y-84150000D02*
X125300000Y-84150000D01*
D61*
X172650000Y-116515000D02*
X174130000Y-116515000D01*
X163250000Y-127600000D02*
X163250000Y-123050000D01*
X182700000Y-101750000D02*
X182700000Y-102750000D01*
X147749509Y-72800000D02*
X147750000Y-72799509D01*
X176865000Y-102750000D02*
X177800000Y-102750000D01*
D62*
X169050000Y-86980000D02*
X169050000Y-87675000D01*
X152250000Y-132760000D02*
X153110000Y-132760000D01*
D61*
X154480000Y-94500000D02*
X154480000Y-93780000D01*
X175750000Y-116435000D02*
X178450000Y-116435000D01*
X133260000Y-114490000D02*
X133215000Y-114445000D01*
X169217893Y-100000000D02*
X168500000Y-99282107D01*
X154480000Y-95120000D02*
X154480000Y-94500000D01*
X154250000Y-95350000D02*
X154480000Y-95120000D01*
X158120500Y-112000000D02*
X158200000Y-111920500D01*
X148965000Y-101040000D02*
X148975000Y-101050000D01*
D62*
X138960000Y-77747500D02*
X138975000Y-77762500D01*
D61*
X126338231Y-89750000D02*
X126352687Y-89764456D01*
D62*
X151390000Y-132760000D02*
X151375000Y-132775000D01*
D61*
X174130000Y-116515000D02*
X174150000Y-116495000D01*
X185000000Y-112775000D02*
X184750000Y-113025000D01*
D62*
X152250000Y-132760000D02*
X151390000Y-132760000D01*
D61*
X153685000Y-109507035D02*
X153685000Y-109550000D01*
X158800000Y-115400000D02*
X160178421Y-115400000D01*
D62*
X169025000Y-89995000D02*
X169020000Y-90000000D01*
D61*
X168750000Y-127750000D02*
X168600000Y-127600000D01*
X141947500Y-95202500D02*
X141950000Y-95200000D01*
D62*
X138285000Y-76567500D02*
X138305000Y-76547500D01*
D61*
X150000000Y-103520000D02*
X150000000Y-102825000D01*
D62*
X132500000Y-127500000D02*
X132500000Y-125040000D01*
D61*
X182700000Y-102250000D02*
X182500000Y-102050000D01*
X148965000Y-99040000D02*
X149000000Y-99075000D01*
D62*
X169050000Y-91250000D02*
X169050000Y-90030000D01*
D61*
X184740000Y-113035000D02*
X184750000Y-113025000D01*
X177800000Y-102750000D02*
X178150000Y-102400000D01*
X126949500Y-95250000D02*
X125300000Y-95250000D01*
X182700000Y-107750000D02*
X182700000Y-109866834D01*
X144610000Y-101350000D02*
X143625000Y-101350000D01*
D62*
X175210000Y-97175000D02*
X175135000Y-97250000D01*
X171270000Y-79750000D02*
X172000000Y-79750000D01*
D61*
X141250000Y-95202500D02*
X141947500Y-95202500D01*
X153425000Y-109550000D02*
X153025000Y-109150000D01*
D62*
X145900000Y-129525000D02*
X145900000Y-130205000D01*
X129865000Y-118275000D02*
X129390000Y-118750000D01*
X169050000Y-90030000D02*
X169020000Y-90000000D01*
X178485000Y-95665000D02*
X179500000Y-95665000D01*
D61*
X154250000Y-107675000D02*
X154250000Y-108942035D01*
X163250000Y-123050000D02*
X163200000Y-123000000D01*
D62*
X174785000Y-97600000D02*
X175135000Y-97250000D01*
D61*
X160178421Y-115400000D02*
X160183007Y-115395414D01*
X150230000Y-103750000D02*
X150000000Y-103520000D01*
X185000000Y-111258166D02*
X185000000Y-112775000D01*
X160520000Y-109500000D02*
X160520000Y-110220000D01*
X160000000Y-78240000D02*
X160410000Y-78240000D01*
X173850000Y-102935000D02*
X172500000Y-104285000D01*
D62*
X129865000Y-117030000D02*
X129865000Y-118275000D01*
D61*
X148250000Y-99040000D02*
X148965000Y-99040000D01*
X148250000Y-101040000D02*
X148965000Y-101040000D01*
X178500000Y-117150000D02*
X178450000Y-117200000D01*
X126429188Y-68333312D02*
X126425000Y-68337500D01*
X144000000Y-96200000D02*
X144000000Y-95525000D01*
X153250000Y-72345803D02*
X153256569Y-72352372D01*
%TO.N,+3.3VA*%
X148812500Y-107400000D02*
X149400000Y-106812500D01*
X151825000Y-104250000D02*
X150850000Y-104250000D01*
X147680000Y-107400000D02*
X148812500Y-107400000D01*
X149400000Y-106812500D02*
X149400000Y-106000000D01*
X149400000Y-106000000D02*
X148900000Y-105500000D01*
X148900000Y-105500000D02*
X147250000Y-105500000D01*
X150850000Y-104250000D02*
X150620000Y-104480000D01*
X150620000Y-104480000D02*
X150000000Y-104480000D01*
X148980000Y-105500000D02*
X148900000Y-105500000D01*
X150000000Y-104480000D02*
X148980000Y-105500000D01*
D63*
%TO.N,/STM32F103RCT6/NRST*%
X153200000Y-100715685D02*
X153200000Y-98200000D01*
X153200000Y-92400000D02*
X153749848Y-91850152D01*
X153200000Y-98200000D02*
X151330498Y-96330498D01*
X149699695Y-102100000D02*
X149275000Y-102524695D01*
X153158274Y-87595000D02*
X153841726Y-87595000D01*
X148000000Y-104000000D02*
X145143431Y-104000000D01*
X151825000Y-101250000D02*
X152665685Y-101250000D01*
X150000000Y-93000000D02*
X150600000Y-92400000D01*
D61*
X157460000Y-85210500D02*
X158000000Y-85750500D01*
D63*
X149900000Y-102100000D02*
X149699695Y-102100000D01*
D61*
X157460000Y-83700000D02*
X157460000Y-85210500D01*
D63*
X149275000Y-102524695D02*
X149275000Y-102725000D01*
X153749848Y-91850152D02*
X152675000Y-90775304D01*
X152675000Y-88078274D02*
X153158274Y-87595000D01*
X146930498Y-96330498D02*
X146200000Y-95600000D01*
X154325000Y-88078274D02*
X157921726Y-88078274D01*
X151330498Y-96330498D02*
X146930498Y-96330498D01*
X150750000Y-101250000D02*
X149900000Y-102100000D01*
X152665685Y-101250000D02*
X153200000Y-100715685D01*
X157921726Y-88078274D02*
X158000000Y-88000000D01*
X150600000Y-92400000D02*
X153200000Y-92400000D01*
X152675000Y-90775304D02*
X152675000Y-88078274D01*
X149275000Y-102725000D02*
X148000000Y-104000000D01*
X153841726Y-87595000D02*
X154325000Y-88078274D01*
X151825000Y-101250000D02*
X150750000Y-101250000D01*
D61*
%TO.N,/STM32F103RCT6/HSE_IN*%
X144060000Y-98600000D02*
X144610000Y-99150000D01*
X145610000Y-100250000D02*
X144610000Y-99250000D01*
X150750000Y-100250000D02*
X150500000Y-100000000D01*
X151825000Y-100250000D02*
X150750000Y-100250000D01*
X148250000Y-100000000D02*
X147500000Y-100000000D01*
X147250000Y-100250000D02*
X145610000Y-100250000D01*
X144610000Y-99250000D02*
X144610000Y-99150000D01*
X150500000Y-100000000D02*
X148250000Y-100000000D01*
X140750000Y-98600000D02*
X144060000Y-98600000D01*
X147500000Y-100000000D02*
X147250000Y-100250000D01*
%TO.N,/STM32F103RCT6/HSE_OUT*%
X141400000Y-102400000D02*
X140750000Y-101750000D01*
X149703248Y-101625000D02*
X149502943Y-101625000D01*
X148250000Y-102000000D02*
X146960000Y-102000000D01*
X149502943Y-101625000D02*
X149127943Y-102000000D01*
X146310000Y-101350000D02*
X146310000Y-101450000D01*
X150578248Y-100750000D02*
X149703248Y-101625000D01*
X149127943Y-102000000D02*
X148250000Y-102000000D01*
X151825000Y-100750000D02*
X150578248Y-100750000D01*
X146310000Y-101450000D02*
X145360000Y-102400000D01*
X146960000Y-102000000D02*
X146310000Y-101350000D01*
X145360000Y-102400000D02*
X141400000Y-102400000D01*
D62*
%TO.N,+BATT*%
X137875000Y-122375000D02*
X137500000Y-122000000D01*
X137500000Y-122000000D02*
X128750000Y-122000000D01*
X151909500Y-118550500D02*
X156960000Y-113500000D01*
X131215000Y-107755000D02*
X127840000Y-111130000D01*
X143485000Y-125315000D02*
X142670000Y-124500000D01*
X142670000Y-124500000D02*
X143000000Y-124830000D01*
X140000000Y-124500000D02*
X137875000Y-122375000D01*
X127815000Y-111155000D02*
X127840000Y-111130000D01*
X160200000Y-112400000D02*
X158550000Y-110750000D01*
X143570000Y-123600000D02*
X142670000Y-124500000D01*
X142670000Y-129365000D02*
X142750000Y-129445000D01*
X156960000Y-113500000D02*
X159867315Y-113500000D01*
X131215000Y-107567500D02*
X131215000Y-107755000D01*
X143000000Y-124830000D02*
X143000000Y-129445000D01*
X142500000Y-129445000D02*
X142500000Y-124670000D01*
X124500000Y-117750000D02*
X128750000Y-122000000D01*
X144400000Y-123600000D02*
X143570000Y-123600000D01*
X133195000Y-107647500D02*
X133115000Y-107567500D01*
X127815000Y-113175000D02*
X127815000Y-111155000D01*
X142000000Y-125170000D02*
X142670000Y-124500000D01*
X133265000Y-109250000D02*
X133195000Y-109180000D01*
X138000000Y-122250000D02*
X138000000Y-109250000D01*
X131215000Y-106785000D02*
X131215000Y-107567500D01*
X141330000Y-129445000D02*
X142000000Y-129445000D01*
X133115000Y-107567500D02*
X133115000Y-107006472D01*
X123690000Y-117750000D02*
X124500000Y-117750000D01*
X160200000Y-113167315D02*
X160200000Y-112400000D01*
X159867315Y-113500000D02*
X160200000Y-113167315D01*
X143000000Y-129445000D02*
X143485000Y-129445000D01*
X142750000Y-129445000D02*
X143000000Y-129445000D01*
X142670000Y-124500000D02*
X142670000Y-129365000D01*
X138000000Y-109250000D02*
X133265000Y-109250000D01*
X132563528Y-106455000D02*
X131545000Y-106455000D01*
X137875000Y-122375000D02*
X138000000Y-122250000D01*
X142000000Y-129445000D02*
X142500000Y-129445000D01*
X131545000Y-106455000D02*
X131215000Y-106785000D01*
X143485000Y-129445000D02*
X143485000Y-125315000D01*
X133115000Y-107006472D02*
X132563528Y-106455000D01*
X142500000Y-129445000D02*
X142750000Y-129445000D01*
X142500000Y-124670000D02*
X142670000Y-124500000D01*
X142000000Y-129445000D02*
X142000000Y-125170000D01*
X158550000Y-110750000D02*
X156710000Y-110750000D01*
X133195000Y-109180000D02*
X133195000Y-107647500D01*
X142670000Y-124500000D02*
X140000000Y-124500000D01*
%TO.N,/STM32F103RCT6/VBAT*%
X146197918Y-97200000D02*
X146447918Y-96950000D01*
X127840000Y-105900000D02*
X127490000Y-106250000D01*
X147500000Y-96950000D02*
X148700000Y-98150000D01*
X130607500Y-105900000D02*
X131215000Y-105292500D01*
X146447918Y-96950000D02*
X147500000Y-96950000D01*
X129415000Y-105900000D02*
X127840000Y-105900000D01*
X129415000Y-105900000D02*
X130607500Y-105900000D01*
X148700000Y-98150000D02*
X151825000Y-98150000D01*
X131215000Y-105191497D02*
X139206497Y-97200000D01*
X139206497Y-97200000D02*
X146197918Y-97200000D01*
X131215000Y-105292500D02*
X131215000Y-105191497D01*
D61*
%TO.N,Net-(D3-A)*%
X133215000Y-113175000D02*
X135225000Y-113175000D01*
X136210000Y-112200000D02*
X135230000Y-113180000D01*
X135225000Y-113175000D02*
X135230000Y-113180000D01*
X127840000Y-118750000D02*
X128665000Y-119575000D01*
X186975000Y-121300000D02*
X186100000Y-121300000D01*
X187750000Y-113712500D02*
X187750000Y-117537500D01*
X185787500Y-120987500D02*
X185787500Y-119500000D01*
X185787500Y-111750000D02*
X187750000Y-113712500D01*
X130825500Y-119575000D02*
X130900000Y-119500500D01*
X137200000Y-112200000D02*
X136210000Y-112200000D01*
X128665000Y-119575000D02*
X130825500Y-119575000D01*
X186100000Y-121300000D02*
X185787500Y-120987500D01*
X187750000Y-117537500D02*
X185787500Y-119500000D01*
X137150500Y-117000000D02*
X137150500Y-112950500D01*
X127840000Y-119000000D02*
X127840000Y-117010000D01*
X127840000Y-117010000D02*
X127815000Y-116985000D01*
X137150500Y-112950500D02*
X137200000Y-112901000D01*
X137200000Y-112901000D02*
X137200000Y-112200000D01*
%TO.N,/Li-Po Battery and charger/Batt_VoltageDivision_out*%
X155250000Y-107675000D02*
X155250000Y-109080000D01*
X155690000Y-111950000D02*
X155740000Y-112000000D01*
X155720000Y-109550000D02*
X155720000Y-110720000D01*
X155690000Y-110750000D02*
X155690000Y-111950000D01*
X159023727Y-112670000D02*
X159043227Y-112650500D01*
X156270000Y-112670000D02*
X159023727Y-112670000D01*
X155740000Y-112140000D02*
X156270000Y-112670000D01*
X154400000Y-113600000D02*
X153000000Y-113600000D01*
X155720000Y-110720000D02*
X155690000Y-110750000D01*
X155250000Y-109080000D02*
X155720000Y-109550000D01*
X155740000Y-112000000D02*
X155740000Y-112140000D01*
%TO.N,/Voltage regulator 3v3/3v3_out*%
X170760000Y-114145000D02*
X170790000Y-114175000D01*
X171430000Y-111965000D02*
X170760000Y-112635000D01*
X170790000Y-114175000D02*
X169850000Y-115115000D01*
D62*
X170375000Y-112250000D02*
X170760000Y-112635000D01*
D61*
X176462500Y-112775000D02*
X175652500Y-111965000D01*
D62*
X165500000Y-112250000D02*
X170375000Y-112250000D01*
D61*
X170760000Y-112635000D02*
X170760000Y-114145000D01*
D62*
X165490000Y-112260000D02*
X165500000Y-112250000D01*
X161500000Y-112260000D02*
X165490000Y-112260000D01*
D61*
X169850000Y-115115000D02*
X169850000Y-116015000D01*
D62*
X162475000Y-113235000D02*
X161500000Y-112260000D01*
D61*
X175652500Y-111965000D02*
X171430000Y-111965000D01*
D62*
X162475000Y-118000000D02*
X162475000Y-119800000D01*
X162475000Y-118000000D02*
X162475000Y-113235000D01*
D61*
%TO.N,Net-(U3-FB)*%
X172650000Y-115075000D02*
X171750000Y-114175000D01*
X172650000Y-116015000D02*
X173250000Y-115415000D01*
X171750000Y-114175000D02*
X171750000Y-112665000D01*
X171750000Y-112665000D02*
X171780000Y-112635000D01*
X173250000Y-115415000D02*
X175750000Y-115415000D01*
X172650000Y-116015000D02*
X172650000Y-115075000D01*
D62*
%TO.N,GNDPWR*%
X130415000Y-72012500D02*
X132200000Y-72012500D01*
D61*
X169850000Y-117015000D02*
X165010000Y-117015000D01*
X133130000Y-76612500D02*
X133955000Y-76612500D01*
X158800000Y-119400000D02*
X160025000Y-120625000D01*
D62*
X134540000Y-81850000D02*
X134540000Y-79537500D01*
D61*
X160025000Y-120625000D02*
X163200000Y-120625000D01*
D62*
X138200000Y-102800000D02*
X145600000Y-110200000D01*
X151060000Y-110610052D02*
X151060000Y-119400000D01*
X150649948Y-110200000D02*
X151060000Y-110610052D01*
X134540000Y-79537500D02*
X134540000Y-77572500D01*
X164025000Y-119800000D02*
X165925000Y-119800000D01*
X134540000Y-77572500D02*
X134530000Y-77562500D01*
D61*
X169850000Y-117015000D02*
X171825000Y-117015000D01*
X165010000Y-117015000D02*
X164025000Y-118000000D01*
D62*
X151060000Y-119400000D02*
X158800000Y-119400000D01*
X165925000Y-119800000D02*
X165975000Y-119750000D01*
X132200000Y-72012500D02*
X132200000Y-71170500D01*
X133739500Y-82650500D02*
X134540000Y-81850000D01*
X132200000Y-71170500D02*
X133170500Y-70200000D01*
X145600000Y-110200000D02*
X150649948Y-110200000D01*
X130425000Y-69762500D02*
X130425000Y-72002500D01*
D61*
X163200000Y-120625000D02*
X164025000Y-119800000D01*
D62*
X130425000Y-72002500D02*
X130415000Y-72012500D01*
X164025000Y-118000000D02*
X164025000Y-119800000D01*
D61*
%TO.N,/Voltage regulator 3v3/batt_in*%
X168115000Y-119750000D02*
X169850000Y-118015000D01*
X169850000Y-118015000D02*
X169850000Y-118925000D01*
X175740000Y-126000000D02*
X170740000Y-121000000D01*
X167525000Y-119750000D02*
X168115000Y-119750000D01*
X170740000Y-121000000D02*
X170740000Y-119815000D01*
X169850000Y-118925000D02*
X170740000Y-119815000D01*
%TO.N,Net-(U3-EN)*%
X172650000Y-117015000D02*
X172650000Y-118015000D01*
X174150000Y-117455000D02*
X172710000Y-117455000D01*
X172650000Y-118015000D02*
X172650000Y-118925000D01*
X172710000Y-117455000D02*
X172650000Y-117515000D01*
X172650000Y-118925000D02*
X171760000Y-119815000D01*
%TO.N,Net-(D3-K)*%
X183624500Y-123449500D02*
X183624500Y-120088000D01*
X125230000Y-114650000D02*
X123380000Y-112800000D01*
X183624500Y-120088000D02*
X184212500Y-119500000D01*
X123380000Y-112800000D02*
X122125000Y-112800000D01*
%TO.N,Net-(D4-K)*%
X123374106Y-113800000D02*
X122275000Y-113800000D01*
X125230000Y-116000000D02*
X125230000Y-115655894D01*
X125230000Y-115655894D02*
X123374106Y-113800000D01*
X183932210Y-112030290D02*
X184212500Y-111750000D01*
X183932210Y-114229693D02*
X183932210Y-112030290D01*
%TO.N,/Li-Po Battery and charger/IC_TEMP*%
X128051827Y-120250000D02*
X132500000Y-120250000D01*
X133215000Y-116985000D02*
X133215000Y-118210000D01*
X132675000Y-120075000D02*
X132675000Y-118750000D01*
X135215000Y-116985000D02*
X135230000Y-117000000D01*
X135000000Y-121150500D02*
X133924500Y-120075000D01*
X133215000Y-116985000D02*
X135215000Y-116985000D01*
X132500000Y-120250000D02*
X132675000Y-120075000D01*
X133924500Y-120075000D02*
X132675000Y-120075000D01*
X123690000Y-116750000D02*
X124551827Y-116750000D01*
X135000000Y-125000000D02*
X135000000Y-123250000D01*
X133215000Y-118210000D02*
X132675000Y-118750000D01*
X124551827Y-116750000D02*
X128051827Y-120250000D01*
%TO.N,/Li-Po Battery and charger/IC_PROG*%
X135240000Y-115510000D02*
X133420000Y-115510000D01*
X133420000Y-115510000D02*
X133215000Y-115715000D01*
D62*
%TO.N,/Li-Po Battery and charger/IC_STDBY_Green*%
X126455000Y-114445000D02*
X126250000Y-114650000D01*
X127815000Y-114445000D02*
X126455000Y-114445000D01*
%TO.N,/Li-Po Battery and charger/IC_CHRG_Red*%
X126535000Y-115715000D02*
X126250000Y-116000000D01*
X127815000Y-115715000D02*
X126535000Y-115715000D01*
D61*
%TO.N,VBUS*%
X147400000Y-128000000D02*
X149500000Y-128000000D01*
X136250000Y-118650000D02*
X137000000Y-119400000D01*
X156600000Y-125800000D02*
X155152082Y-125800000D01*
X149500000Y-128000000D02*
X150000000Y-128500000D01*
X175135000Y-101250000D02*
X176000000Y-101250000D01*
X176000000Y-98750000D02*
X176865000Y-98750000D01*
X176000000Y-101250000D02*
X176865000Y-101250000D01*
X167362500Y-100000000D02*
X168000000Y-100000000D01*
X171200000Y-96400000D02*
X171461161Y-96400000D01*
X155152082Y-125800000D02*
X152452082Y-128500000D01*
X172950000Y-98522792D02*
X173477208Y-99050000D01*
X136250000Y-117000000D02*
X136250000Y-113180000D01*
X168000000Y-100000000D02*
X168625000Y-100625000D01*
X170400000Y-105200000D02*
X170400000Y-102650500D01*
X175135000Y-98750000D02*
X176000000Y-98750000D01*
X170400000Y-102650500D02*
X170850500Y-102200000D01*
X168625000Y-100625000D02*
X168625000Y-101307107D01*
X152452082Y-128500000D02*
X150000000Y-128500000D01*
X136250000Y-117000000D02*
X136250000Y-118650000D01*
X169517893Y-102200000D02*
X170850500Y-102200000D01*
X172950000Y-97888839D02*
X172950000Y-98522792D01*
X168625000Y-101307107D02*
X169517893Y-102200000D01*
X174222792Y-99050000D02*
X174522792Y-98750000D01*
X171461161Y-96400000D02*
X172950000Y-97888839D01*
X173477208Y-99050000D02*
X174222792Y-99050000D01*
X174522792Y-98750000D02*
X175135000Y-98750000D01*
X176000000Y-101250000D02*
X176000000Y-102000000D01*
X176000000Y-98750000D02*
X176000000Y-101250000D01*
D64*
%TO.N,/STM32F103RCT6/USB_D+*%
X163175000Y-99750000D02*
X164337501Y-99750000D01*
X164362501Y-99775000D02*
X165643749Y-99775000D01*
D61*
X166372840Y-97777283D02*
X166372840Y-99045909D01*
X166372840Y-99045909D02*
X166368749Y-99050000D01*
D64*
X164337501Y-99750000D02*
X164362501Y-99775000D01*
X165643749Y-99775000D02*
X166368749Y-99050000D01*
X166368749Y-99050000D02*
X167362500Y-99050000D01*
%TO.N,/STM32F103RCT6/USB_D-*%
X164362501Y-100225000D02*
X165643749Y-100225000D01*
X166368749Y-100950000D02*
X167362500Y-100950000D01*
X164337501Y-100250000D02*
X164362501Y-100225000D01*
X165643749Y-100225000D02*
X166368749Y-100950000D01*
X163175000Y-100250000D02*
X164337501Y-100250000D01*
D61*
%TO.N,/STM32F103RCT6/SWDIO*%
X162500000Y-85500000D02*
X162500000Y-85250000D01*
X162000000Y-86000000D02*
X162500000Y-85500000D01*
X162249500Y-96032607D02*
X162249500Y-88249000D01*
X163175000Y-99250000D02*
X162298959Y-99250000D01*
X162249500Y-88249000D02*
X162000000Y-87999500D01*
X162540000Y-85210000D02*
X162540000Y-83700000D01*
X162000000Y-98951041D02*
X162000000Y-96282107D01*
X162500000Y-85250000D02*
X162540000Y-85210000D01*
X162000000Y-96282107D02*
X162249500Y-96032607D01*
X162000000Y-88250000D02*
X162000000Y-87999500D01*
X162298959Y-99250000D02*
X162000000Y-98951041D01*
%TO.N,/STM32F103RCT6/SWCLK*%
X161051788Y-83918212D02*
X161270000Y-83700000D01*
X161051788Y-85683930D02*
X161051788Y-83918212D01*
X161749500Y-89249500D02*
X160999500Y-88499500D01*
X161749500Y-95825500D02*
X161749500Y-89249500D01*
X161250000Y-96325000D02*
X161749500Y-95825500D01*
X160999500Y-88499500D02*
X160999500Y-87999500D01*
%TO.N,Net-(J2-GNDDetect)*%
X157460000Y-79800000D02*
X157460000Y-76780000D01*
X157460000Y-76780000D02*
X157490000Y-76750000D01*
D62*
%TO.N,-BATT*%
X128500000Y-124790000D02*
X128750000Y-124540000D01*
X122375000Y-118165000D02*
X128750000Y-124540000D01*
X122715000Y-115750000D02*
X122375000Y-116090000D01*
X122375000Y-116090000D02*
X122375000Y-118165000D01*
X123690000Y-115750000D02*
X122715000Y-115750000D01*
X128500000Y-127500000D02*
X128500000Y-124790000D01*
D61*
%TO.N,Net-(U3-L1)*%
X167385000Y-117515000D02*
X169850000Y-117515000D01*
X166750000Y-118150000D02*
X167385000Y-117515000D01*
%TO.N,Net-(U3-L2)*%
X169850000Y-116515000D02*
X167415000Y-116515000D01*
X167415000Y-116515000D02*
X166750000Y-115850000D01*
%TO.N,Net-(Q1-B)*%
X144000000Y-93275000D02*
X143990000Y-93265000D01*
X144000000Y-94505000D02*
X144000000Y-93275000D01*
X143990000Y-93265000D02*
X142262500Y-93265000D01*
X142262500Y-93265000D02*
X142200000Y-93327500D01*
D62*
%TO.N,/Li-Po Battery and charger/charger_out*%
X163802082Y-122400000D02*
X169900000Y-122400000D01*
X163552082Y-122150000D02*
X163802082Y-122400000D01*
X157600000Y-122150000D02*
X163552082Y-122150000D01*
X175500000Y-128000000D02*
X180620000Y-128000000D01*
X169900000Y-122400000D02*
X175500000Y-128000000D01*
X147750000Y-124500000D02*
X155250000Y-124500000D01*
X155250000Y-124500000D02*
X157600000Y-122150000D01*
D61*
%TO.N,/STM32F103RCT6/SW_BOOT0*%
X151250000Y-90890046D02*
X152022756Y-91662802D01*
X151250000Y-90180000D02*
X151250000Y-90890046D01*
X156200000Y-93090000D02*
X156200000Y-92922058D01*
X156200000Y-92922058D02*
X155451178Y-92173236D01*
%TO.N,/STM32F103RCT6/BOOT0*%
X155750000Y-94560000D02*
X155750000Y-96325000D01*
X156200000Y-94110000D02*
X155750000Y-94560000D01*
%TO.N,/STM32F103RCT6/ORANGE_LED*%
X180025000Y-115625000D02*
X184212500Y-115625000D01*
X151825000Y-103250000D02*
X153721481Y-103250000D01*
X179400000Y-112858166D02*
X179400000Y-115000000D01*
X169265000Y-111465000D02*
X178006834Y-111465000D01*
X166198959Y-110150000D02*
X167950000Y-110150000D01*
X154369389Y-102602092D02*
X158234323Y-102602092D01*
X179400000Y-115000000D02*
X180025000Y-115625000D01*
X153721481Y-103250000D02*
X154369389Y-102602092D01*
X158234323Y-102602092D02*
X159882232Y-104250000D01*
X167950000Y-110150000D02*
X169265000Y-111465000D01*
X178006834Y-111465000D02*
X179400000Y-112858166D01*
X162050000Y-104250000D02*
X162050000Y-106001041D01*
X159882232Y-104250000D02*
X162050000Y-104250000D01*
X162050000Y-106001041D02*
X166198959Y-110150000D01*
%TO.N,/STM32F103RCT6/button1_in*%
X160399750Y-98600250D02*
X159400000Y-99600000D01*
X154987436Y-99600000D02*
X152837436Y-101750000D01*
X170995000Y-88425000D02*
X168175000Y-88425000D01*
X159400000Y-99600000D02*
X154987436Y-99600000D01*
X160600250Y-98600250D02*
X160399750Y-98600250D01*
X168175000Y-88425000D02*
X168000000Y-88600000D01*
X171300000Y-88730000D02*
X170995000Y-88425000D01*
X152837436Y-101750000D02*
X151825000Y-101750000D01*
%TO.N,/STM32F103RCT6/button2_in*%
X155094542Y-100200000D02*
X153044542Y-102250000D01*
X160216863Y-99876053D02*
X159892916Y-100200000D01*
X153044542Y-102250000D02*
X151825000Y-102250000D01*
X172140500Y-86190000D02*
X172750500Y-86800000D01*
X159892916Y-100200000D02*
X155094542Y-100200000D01*
X171300000Y-86190000D02*
X172140500Y-86190000D01*
%TO.N,/STM32F103RCT6/button3_in*%
X168427000Y-83650000D02*
X164000000Y-88077000D01*
X164200000Y-94800000D02*
X164200000Y-90200000D01*
X159383924Y-100989942D02*
X159196991Y-100803009D01*
X155396991Y-100803009D02*
X153450000Y-102750000D01*
X160640442Y-100989942D02*
X159383924Y-100989942D01*
X159196991Y-100803009D02*
X155396991Y-100803009D01*
X153450000Y-102750000D02*
X151825000Y-102750000D01*
X171300000Y-83650000D02*
X168427000Y-83650000D01*
X164200000Y-90200000D02*
X164000000Y-90000000D01*
X164000000Y-88077000D02*
X164000000Y-90000000D01*
D62*
%TO.N,Net-(Q3-B)*%
X150025000Y-129545000D02*
X150000000Y-129520000D01*
X150025000Y-131380000D02*
X152080000Y-131380000D01*
X150000000Y-129520000D02*
X148390000Y-129520000D01*
X148390000Y-129520000D02*
X148315000Y-129445000D01*
X150025000Y-131380000D02*
X150025000Y-129545000D01*
X152080000Y-131380000D02*
X152250000Y-131210000D01*
D61*
%TO.N,/Voltage regulator 5V/5v_out*%
X132200000Y-73562500D02*
X133665000Y-73562500D01*
X130415000Y-73562500D02*
X132200000Y-73562500D01*
X133665000Y-73562500D02*
X133890000Y-73787500D01*
D62*
X130390000Y-73587500D02*
X130415000Y-73562500D01*
D61*
X133890000Y-73787500D02*
X133890000Y-72547500D01*
D62*
X128562500Y-73600000D02*
X128575000Y-73587500D01*
D61*
X133130000Y-75612500D02*
X133130000Y-74547500D01*
D62*
X128575000Y-73587500D02*
X130390000Y-73587500D01*
D61*
X133890000Y-72547500D02*
X133920000Y-72517500D01*
X133130000Y-74547500D02*
X133890000Y-73787500D01*
X133920000Y-72517500D02*
X133920000Y-68297500D01*
X133920000Y-68297500D02*
X133930000Y-68287500D01*
D62*
X126675000Y-73600000D02*
X128562500Y-73600000D01*
D61*
%TO.N,Net-(U4-FB)*%
X134910000Y-73787500D02*
X134910000Y-72547500D01*
X135930000Y-75612500D02*
X135930000Y-74807500D01*
X138220000Y-75612500D02*
X138305000Y-75527500D01*
X134910000Y-72547500D02*
X134880000Y-72517500D01*
X135930000Y-74807500D02*
X134910000Y-73787500D01*
X135930000Y-75612500D02*
X138220000Y-75612500D01*
%TO.N,/Voltage regulator 5V/batt_in*%
X132950000Y-79577500D02*
X132990000Y-79537500D01*
X133130000Y-77612500D02*
X133130000Y-79397500D01*
X136290000Y-83400000D02*
X132990000Y-83400000D01*
X131172500Y-79537500D02*
X131110000Y-79600000D01*
X136290000Y-79200000D02*
X136290000Y-83400000D01*
X132990000Y-79537500D02*
X131172500Y-79537500D01*
X132990000Y-83400000D02*
X132990000Y-79537500D01*
X133130000Y-79397500D02*
X132990000Y-79537500D01*
%TO.N,Net-(U4-EN)*%
X137325000Y-77747500D02*
X137325000Y-79185000D01*
X137190000Y-77612500D02*
X137325000Y-77747500D01*
X137325000Y-79185000D02*
X137310000Y-79200000D01*
X135930000Y-77612500D02*
X137190000Y-77612500D01*
X135930000Y-76612500D02*
X135930000Y-77612500D01*
%TO.N,Net-(U5-1A)*%
X170270000Y-81350000D02*
X170270000Y-81000000D01*
X179845000Y-73800000D02*
X180620000Y-73800000D01*
X170250000Y-80980000D02*
X170270000Y-81000000D01*
X178750000Y-75527057D02*
X178750000Y-74895000D01*
X171897057Y-82380000D02*
X178750000Y-75527057D01*
X170250000Y-79750000D02*
X170250000Y-80980000D01*
X171300000Y-82380000D02*
X171897057Y-82380000D01*
X171300000Y-82380000D02*
X170270000Y-81350000D01*
X178750000Y-74895000D02*
X179845000Y-73800000D01*
%TO.N,Net-(J1-CC1)*%
X179500000Y-98072792D02*
X179500000Y-96685000D01*
X176865000Y-99250000D02*
X178322792Y-99250000D01*
X178322792Y-99250000D02*
X179500000Y-98072792D01*
%TO.N,Net-(J1-CC2)*%
X172500000Y-103265000D02*
X172500000Y-101927208D01*
X173677208Y-100750000D02*
X175135000Y-100750000D01*
X172500000Y-101927208D02*
X173677208Y-100750000D01*
%TO.N,Net-(U5-2A)*%
X171840140Y-92500000D02*
X173420070Y-90920070D01*
X168030000Y-91250000D02*
X168030000Y-91530000D01*
X177850000Y-81400000D02*
X180620000Y-81400000D01*
X171300000Y-84920000D02*
X167864106Y-84920000D01*
X177750000Y-90182107D02*
X177750000Y-81500000D01*
X167130000Y-85654106D02*
X167130000Y-89070000D01*
X167130000Y-89070000D02*
X168060000Y-90000000D01*
X167864106Y-84920000D02*
X167130000Y-85654106D01*
X177750000Y-81500000D02*
X177850000Y-81400000D01*
X173420070Y-90920070D02*
X177012037Y-90920070D01*
X169000000Y-92500000D02*
X171840140Y-92500000D01*
X177012037Y-90920070D02*
X177750000Y-90182107D01*
X168060000Y-90000000D02*
X168060000Y-91220000D01*
X168060000Y-91220000D02*
X168030000Y-91250000D01*
X168030000Y-91530000D02*
X169000000Y-92500000D01*
%TO.N,Net-(U5-3A)*%
X180620000Y-89000000D02*
X179845000Y-89000000D01*
X172210000Y-87460000D02*
X171300000Y-87460000D01*
X169020000Y-85990000D02*
X169050000Y-86020000D01*
X177175430Y-91669570D02*
X174250000Y-91669570D01*
X169092965Y-86020000D02*
X169050000Y-86020000D01*
X174250000Y-89500000D02*
X172210000Y-87460000D01*
X179845000Y-89000000D02*
X177175430Y-91669570D01*
X171300000Y-87460000D02*
X170532965Y-87460000D01*
X170532965Y-87460000D02*
X169092965Y-86020000D01*
X167800000Y-85990000D02*
X169020000Y-85990000D01*
%TO.N,Net-(D5-K)*%
X178500000Y-115465000D02*
X178500000Y-113237500D01*
X178500000Y-113237500D02*
X178037500Y-112775000D01*
%TO.N,Net-(D6-K)*%
X126672500Y-75172500D02*
X126675000Y-75175000D01*
X125125000Y-75172500D02*
X126672500Y-75172500D01*
%TO.N,/Connectors to segment displays/TIM2_CH2_PWM2_SEG*%
X154000000Y-82800000D02*
X152129977Y-84670023D01*
X177200000Y-107583258D02*
X181366742Y-107583258D01*
X158250000Y-97201041D02*
X158250000Y-96325000D01*
X154000000Y-77800000D02*
X154000000Y-82800000D01*
X158795874Y-97746915D02*
X158250000Y-97201041D01*
X158250000Y-71300000D02*
X158250000Y-73142894D01*
X160000000Y-74892894D02*
X160000000Y-75200000D01*
X181700000Y-107250000D02*
X182700000Y-107250000D01*
X158816470Y-126416470D02*
X158250000Y-126982940D01*
X181366742Y-107583258D02*
X181700000Y-107250000D01*
X158250000Y-126982940D02*
X158250000Y-128700000D01*
X151609954Y-84150000D02*
X127050000Y-84150000D01*
X159946915Y-97746915D02*
X158795874Y-97746915D01*
X126450000Y-84750000D02*
X125300000Y-84750000D01*
X152129977Y-84670023D02*
X151609954Y-84150000D01*
X160000000Y-97800000D02*
X159946915Y-97746915D01*
X127050000Y-84150000D02*
X126450000Y-84750000D01*
X158250000Y-73142894D02*
X160000000Y-74892894D01*
%TO.N,/Connectors to segment displays/TIM2_CH1_PWM1_SEG*%
X184750500Y-103794641D02*
X184000000Y-103044141D01*
X160750000Y-97350000D02*
X160750000Y-96325000D01*
X152400000Y-69329235D02*
X155038098Y-69329235D01*
X184000000Y-103044141D02*
X184000000Y-101260661D01*
X183989339Y-101250000D02*
X182700000Y-101250000D01*
X172000000Y-110400000D02*
X172200000Y-110400000D01*
X122372622Y-89251783D02*
X123870839Y-90750000D01*
X167650500Y-109400000D02*
X171000000Y-109400000D01*
X152250000Y-71300000D02*
X152250000Y-70079235D01*
X162756086Y-131033536D02*
X164250000Y-129539622D01*
X161400000Y-98000000D02*
X160750000Y-97350000D01*
X124200000Y-104659410D02*
X124200000Y-112149000D01*
X155038098Y-69329235D02*
X155271279Y-69096054D01*
X123870839Y-90750000D02*
X125300000Y-90750000D01*
X171000000Y-109400000D02*
X172000000Y-110400000D01*
X161400000Y-102351000D02*
X161400000Y-98000000D01*
X120530089Y-89251783D02*
X122372622Y-89251783D01*
X162756086Y-131291778D02*
X162756086Y-131033536D01*
X184000000Y-101260661D02*
X183989339Y-101250000D01*
X161300500Y-102450500D02*
X161400000Y-102351000D01*
X124450500Y-104408910D02*
X124200000Y-104659410D01*
X152250000Y-70079235D02*
X152400000Y-69929235D01*
X164250000Y-129539622D02*
X164250000Y-128700000D01*
X152400000Y-69929235D02*
X152400000Y-69329235D01*
%TO.N,/Connectors to segment displays/DISP2_SEG_DP*%
X133849500Y-85250000D02*
X125300000Y-85250000D01*
X171600000Y-101185661D02*
X171600000Y-104390894D01*
X158548500Y-74148500D02*
X157750000Y-73350000D01*
X171600000Y-104390894D02*
X174042864Y-106833758D01*
X158750000Y-127542894D02*
X158750000Y-128700000D01*
X176450000Y-107882758D02*
X176450000Y-107183758D01*
X176000000Y-108332758D02*
X176450000Y-107882758D01*
X134200000Y-84899500D02*
X133849500Y-85250000D01*
X179200000Y-106833758D02*
X179283758Y-106750000D01*
X155258108Y-93153914D02*
X155258108Y-94344785D01*
X176800000Y-106833758D02*
X179200000Y-106833758D01*
X176450000Y-107183758D02*
X176800000Y-106833758D01*
X155250000Y-94352893D02*
X155250000Y-96325000D01*
X160186584Y-126106310D02*
X158750000Y-127542894D01*
X172200500Y-98200000D02*
X171250000Y-99150500D01*
X155258108Y-94344785D02*
X155250000Y-94352893D01*
X160749055Y-126106310D02*
X160186584Y-126106310D01*
X174042864Y-106833758D02*
X176800000Y-106833758D01*
X158798654Y-75002330D02*
X158798654Y-74697605D01*
X158798654Y-74697605D02*
X158548500Y-74447451D01*
X179283758Y-106750000D02*
X182700000Y-106750000D01*
X171250000Y-99150500D02*
X171250000Y-100835661D01*
X158548500Y-74447451D02*
X158548500Y-74148500D01*
X171250000Y-100835661D02*
X171600000Y-101185661D01*
X157750000Y-73350000D02*
X157750000Y-71300000D01*
%TO.N,/Connectors to segment displays/DISP2_SEG_G*%
X124099502Y-83400000D02*
X124200000Y-83299502D01*
X177417792Y-106048044D02*
X177619748Y-106250000D01*
X124200000Y-83299502D02*
X124200000Y-85750000D01*
X160144190Y-126855810D02*
X159250000Y-127750000D01*
X157996836Y-75800000D02*
X158042119Y-75845283D01*
X159250000Y-127750000D02*
X159250000Y-128700000D01*
X161455810Y-126855810D02*
X160144190Y-126855810D01*
X157800000Y-75800000D02*
X157996836Y-75800000D01*
X157250000Y-71300000D02*
X157250000Y-73748587D01*
X157800000Y-74298587D02*
X157800000Y-75800000D01*
X157250000Y-73748587D02*
X157800000Y-74298587D01*
X177619748Y-106250000D02*
X182700000Y-106250000D01*
X156000500Y-97743122D02*
X156250000Y-97493622D01*
X124200000Y-85750000D02*
X125300000Y-85750000D01*
X156250000Y-97493622D02*
X156250000Y-96325000D01*
%TO.N,/Connectors to segment displays/DISP2_SEG_F*%
X158751000Y-130610857D02*
X158789143Y-130610857D01*
X156750000Y-98346235D02*
X156750000Y-96325000D01*
X178687792Y-105600000D02*
X178837792Y-105750000D01*
X178467254Y-105600000D02*
X178687792Y-105600000D01*
X156750000Y-73955693D02*
X157299500Y-74505193D01*
X156471593Y-98624642D02*
X156750000Y-98346235D01*
X159750000Y-129650000D02*
X159750000Y-128700000D01*
X158789143Y-130610857D02*
X159750000Y-129650000D01*
X178837792Y-105750000D02*
X182700000Y-105750000D01*
X157299500Y-75531267D02*
X157044351Y-75786416D01*
X157299500Y-74505193D02*
X157299500Y-75531267D01*
X123653553Y-84612481D02*
X123653553Y-86146447D01*
X123653553Y-86146447D02*
X123757106Y-86250000D01*
X156750000Y-71300000D02*
X156750000Y-73955693D01*
X123349500Y-84308428D02*
X123653553Y-84612481D01*
X177933627Y-105066373D02*
X178467254Y-105600000D01*
X123757106Y-86250000D02*
X125300000Y-86250000D01*
%TO.N,/Connectors to segment displays/DISP2_SEG_E*%
X123000000Y-86200000D02*
X123550000Y-86750000D01*
X123550000Y-86750000D02*
X125300000Y-86750000D01*
X156250000Y-74516354D02*
X156549500Y-74815854D01*
X179638379Y-105250000D02*
X182700000Y-105250000D01*
X123000000Y-85519309D02*
X123000000Y-86200000D01*
X122749500Y-85268809D02*
X123000000Y-85519309D01*
X156250000Y-71300000D02*
X156250000Y-74516354D01*
X179137144Y-104748765D02*
X179638379Y-105250000D01*
X159051758Y-131564036D02*
X159500500Y-131115294D01*
X157250000Y-98132708D02*
X157250000Y-96325000D01*
X159500500Y-131115294D02*
X159500500Y-130658278D01*
X157725634Y-98608342D02*
X157250000Y-98132708D01*
X159500500Y-130658278D02*
X160250000Y-129908778D01*
X160250000Y-129908778D02*
X160250000Y-128700000D01*
%TO.N,/Connectors to segment displays/DISP2_SEG_D*%
X158718906Y-98496915D02*
X157750000Y-97528009D01*
X157750000Y-97528009D02*
X157750000Y-96325000D01*
X160250500Y-131000000D02*
X160250500Y-130615384D01*
X156498211Y-77101789D02*
X154800000Y-78800000D01*
X179400000Y-103784446D02*
X180365554Y-104750000D01*
X156049500Y-75924558D02*
X156498211Y-76373269D01*
X160750000Y-130115884D02*
X160750000Y-128700000D01*
X160250500Y-130615384D02*
X160750000Y-130115884D01*
X156049500Y-75690103D02*
X155750000Y-75390603D01*
X156049500Y-75690103D02*
X156049500Y-75924558D01*
X123310462Y-87250000D02*
X125300000Y-87250000D01*
X122230192Y-86169730D02*
X123310462Y-87250000D01*
X180365554Y-104750000D02*
X182700000Y-104750000D01*
X156498211Y-76373269D02*
X156498211Y-77101789D01*
X155750000Y-75390603D02*
X155750000Y-71300000D01*
%TO.N,/Connectors to segment displays/DISP2_SEG_C*%
X180950681Y-104250000D02*
X182700000Y-104250000D01*
X155250000Y-76185719D02*
X155250000Y-71300000D01*
X159250000Y-107675000D02*
X159250000Y-106502123D01*
X159250000Y-110601472D02*
X160800000Y-112151472D01*
X122257106Y-87750000D02*
X125300000Y-87750000D01*
X160800000Y-114774500D02*
X161625500Y-115600000D01*
X161006086Y-131940538D02*
X161006086Y-130566904D01*
X160800000Y-112151472D02*
X160800000Y-114774500D01*
X125600000Y-110649000D02*
X126300000Y-109949000D01*
X120299605Y-86700395D02*
X121700904Y-86700395D01*
X161625500Y-115600000D02*
X161625500Y-116000000D01*
X122253553Y-87253044D02*
X122253553Y-87746447D01*
X126300000Y-103349500D02*
X126449500Y-103200000D01*
X161250000Y-130322990D02*
X161250000Y-128700000D01*
X126300000Y-109949000D02*
X126300000Y-103349500D01*
X120200000Y-86800000D02*
X120299605Y-86700395D01*
X161006086Y-130566904D02*
X161250000Y-130322990D01*
X159250000Y-107675000D02*
X159250000Y-110601472D01*
X159250000Y-106502123D02*
X159552123Y-106200000D01*
X160750075Y-132196549D02*
X161006086Y-131940538D01*
X180472541Y-103771860D02*
X180950681Y-104250000D01*
X121700904Y-86700395D02*
X122253553Y-87253044D01*
X122253553Y-87746447D02*
X122257106Y-87750000D01*
X155748211Y-76683930D02*
X155250000Y-76185719D01*
%TO.N,/Connectors to segment displays/DISP2_SEG_B*%
X181399500Y-102800000D02*
X181399500Y-103449500D01*
X154750000Y-76950000D02*
X154750000Y-71300000D01*
X166800000Y-111600000D02*
X167451000Y-111600000D01*
X154800000Y-77000000D02*
X154750000Y-76950000D01*
X159046229Y-105337981D02*
X158750000Y-105634210D01*
X161506086Y-132537571D02*
X161633179Y-132664664D01*
X121390243Y-87450395D02*
X121390243Y-87590243D01*
X167451000Y-111600000D02*
X167650500Y-111400500D01*
X121390243Y-87590243D02*
X122050000Y-88250000D01*
X161750000Y-130530096D02*
X161506086Y-130774011D01*
X159046229Y-105337981D02*
X160537981Y-105337981D01*
X181700000Y-103750000D02*
X182700000Y-103750000D01*
X122050000Y-88250000D02*
X125300000Y-88250000D01*
X161750000Y-128700000D02*
X161750000Y-130530096D01*
X160537981Y-105337981D02*
X166800000Y-111600000D01*
X158750000Y-105634210D02*
X158750000Y-107675000D01*
X161506086Y-130774011D02*
X161506086Y-132537571D01*
X181399500Y-103449500D02*
X181700000Y-103750000D01*
D62*
%TO.N,Net-(Q2-G)*%
X141775000Y-131380000D02*
X140630000Y-131380000D01*
X140250000Y-129505000D02*
X140310000Y-129445000D01*
X140750000Y-119460000D02*
X140750000Y-122500000D01*
X140310000Y-126190000D02*
X140310000Y-129445000D01*
X142435000Y-117775000D02*
X140750000Y-119460000D01*
X140750000Y-125750000D02*
X140310000Y-126190000D01*
X140250000Y-131000000D02*
X140250000Y-129505000D01*
X140630000Y-131380000D02*
X140250000Y-131000000D01*
D61*
%TO.N,/Connectors to segment displays/DISP2_SEG_A*%
X158250000Y-105650000D02*
X158250000Y-107675000D01*
X154250000Y-71300000D02*
X154250000Y-70443865D01*
X154847811Y-69846054D02*
X155903446Y-69846054D01*
X184000500Y-103751747D02*
X183498753Y-103250000D01*
X162006086Y-130981117D02*
X162250000Y-130737202D01*
X162006086Y-131734158D02*
X162006086Y-130981117D01*
X143800000Y-83200000D02*
X141400000Y-83200000D01*
X162250000Y-130737202D02*
X162250000Y-128700000D01*
X183498753Y-103250000D02*
X182700000Y-103250000D01*
X158000000Y-105400000D02*
X158250000Y-105650000D01*
X184250500Y-104660291D02*
X184000500Y-104410291D01*
X154250000Y-70443865D02*
X154847811Y-69846054D01*
X121334172Y-88750000D02*
X125300000Y-88750000D01*
X154250000Y-71300000D02*
X154250000Y-72750000D01*
X120912502Y-88328330D02*
X121334172Y-88750000D01*
D63*
X128400000Y-88800000D02*
X128350000Y-88750000D01*
D61*
X154250000Y-72750000D02*
X143800000Y-83200000D01*
X184000500Y-104410291D02*
X184000500Y-103751747D01*
X155903446Y-69846054D02*
X156200000Y-69549500D01*
D63*
X128350000Y-88750000D02*
X125300000Y-88750000D01*
D61*
X162558347Y-132286419D02*
X162006086Y-131734158D01*
%TO.N,/Connectors to segment displays/DISP1_SEG_DP*%
X152229735Y-68829235D02*
X154154714Y-68829235D01*
X184196445Y-100750000D02*
X182700000Y-100750000D01*
X121668184Y-90068184D02*
X122850000Y-91250000D01*
X123400000Y-111399500D02*
X123400000Y-104400000D01*
X162298959Y-101750000D02*
X163175000Y-101750000D01*
X122850000Y-91250000D02*
X125300000Y-91250000D01*
X160599999Y-103200000D02*
X162050000Y-103200000D01*
X184500000Y-102149120D02*
X184500000Y-101053555D01*
X163175000Y-101750000D02*
X165550000Y-101750000D01*
X163505586Y-131967447D02*
X163505586Y-130991142D01*
X152200000Y-68799500D02*
X152229735Y-68829235D01*
X151750000Y-71300000D02*
X151750000Y-69249500D01*
X151750000Y-69249500D02*
X152200000Y-68799500D01*
X163505586Y-130991142D02*
X164750000Y-129746728D01*
X162050000Y-101998959D02*
X162298959Y-101750000D01*
X154154714Y-68829235D02*
X154434449Y-68549500D01*
X185149522Y-102798642D02*
X184500000Y-102149120D01*
X121133099Y-90068184D02*
X121668184Y-90068184D01*
X184500000Y-101053555D02*
X184196445Y-100750000D01*
X160199999Y-102800000D02*
X160599999Y-103200000D01*
X165550000Y-101750000D02*
X173600000Y-109800000D01*
X162050000Y-103200000D02*
X162050000Y-101998959D01*
X164750000Y-129746728D02*
X164750000Y-128700000D01*
%TO.N,/Connectors to segment displays/DISP1_SEG_G*%
X122200000Y-109899500D02*
X122400000Y-109699500D01*
X151250000Y-71300000D02*
X151250000Y-72250000D01*
X120351005Y-90916566D02*
X120416170Y-90981731D01*
X156750000Y-107675000D02*
X156750000Y-106018084D01*
X121766566Y-90916566D02*
X122600000Y-91750000D01*
X151250000Y-72250000D02*
X149950000Y-73550000D01*
X122600000Y-91750000D02*
X125300000Y-91750000D01*
X153130926Y-68079235D02*
X153447576Y-68079235D01*
X164321024Y-131236365D02*
X164563635Y-131236365D01*
X121102657Y-90916566D02*
X121766566Y-90916566D01*
X156750000Y-106018084D02*
X156999500Y-105768584D01*
X185000000Y-101260661D02*
X185000000Y-100250000D01*
X164563635Y-131236365D02*
X165250000Y-130550000D01*
X151250000Y-68839658D02*
X151800000Y-68289658D01*
X185750500Y-102000000D02*
X185739339Y-102000000D01*
X147050000Y-73550000D02*
X137600000Y-83000000D01*
X151250000Y-71300000D02*
X151250000Y-68839658D01*
X119999500Y-90916566D02*
X120351005Y-90916566D01*
X149950000Y-73550000D02*
X147050000Y-73550000D01*
X121037492Y-90981731D02*
X121102657Y-90916566D01*
X127050000Y-91750000D02*
X125300000Y-91750000D01*
X127800000Y-91000000D02*
X127050000Y-91750000D01*
X120416170Y-90981731D02*
X121037492Y-90981731D01*
X151809842Y-68299500D02*
X152910661Y-68299500D01*
X152910661Y-68299500D02*
X153130926Y-68079235D01*
X122400000Y-109699500D02*
X122400000Y-104550500D01*
X165250000Y-130550000D02*
X165250000Y-128700000D01*
X185000000Y-100250000D02*
X182700000Y-100250000D01*
X151800000Y-68289658D02*
X151809842Y-68299500D01*
X185739339Y-102000000D02*
X185000000Y-101260661D01*
%TO.N,/Connectors to segment displays/DISP1_SEG_F*%
X185442894Y-99750000D02*
X182700000Y-99750000D01*
X157704395Y-103972816D02*
X156250000Y-105427211D01*
X185800000Y-101000000D02*
X185800000Y-100903055D01*
X128177038Y-92250000D02*
X128450500Y-91976538D01*
X150750000Y-68632552D02*
X150750000Y-71300000D01*
X121623630Y-91620078D02*
X122253552Y-92250000D01*
X122253552Y-92250000D02*
X125300000Y-92250000D01*
X151633052Y-67749500D02*
X150750000Y-68632552D01*
X152186607Y-67549500D02*
X151986607Y-67749500D01*
X164450500Y-132293245D02*
X164506755Y-132293245D01*
X125300000Y-92250000D02*
X128177038Y-92250000D01*
X152600000Y-67549500D02*
X152186607Y-67549500D01*
X185946447Y-100253553D02*
X185442894Y-99750000D01*
X157704395Y-103702295D02*
X157704395Y-103972816D01*
X164700000Y-131965641D02*
X165750000Y-130915641D01*
X165750000Y-130915641D02*
X165750000Y-128700000D01*
X120000066Y-91916068D02*
X120296056Y-91620078D01*
X151986607Y-67749500D02*
X151633052Y-67749500D01*
X156250000Y-105427211D02*
X156250000Y-107675000D01*
X185800000Y-100903055D02*
X185946447Y-100756608D01*
X164700000Y-132100000D02*
X164700000Y-131965641D01*
X185946447Y-100756608D02*
X185946447Y-100253553D01*
X120296056Y-91620078D02*
X121623630Y-91620078D01*
X164506755Y-132293245D02*
X164700000Y-132100000D01*
%TO.N,/Connectors to segment displays/DISP1_SEG_E*%
X165200000Y-133000000D02*
X165200000Y-132172748D01*
X166172748Y-131200000D02*
X166200000Y-131200000D01*
X165200000Y-132172748D02*
X166172748Y-131200000D01*
X150250000Y-71300000D02*
X150250000Y-68425446D01*
X186850500Y-100450500D02*
X185650000Y-99250000D01*
X156723302Y-104174358D02*
X156723302Y-103893248D01*
X166200000Y-131200000D02*
X166250000Y-131150000D01*
X129200000Y-92600000D02*
X129200000Y-88000000D01*
X150250000Y-68425446D02*
X151675946Y-66999500D01*
X121550000Y-92750000D02*
X125300000Y-92750000D01*
X166250000Y-131150000D02*
X166250000Y-128700000D01*
X185650000Y-99250000D02*
X182700000Y-99250000D01*
X125300000Y-92750000D02*
X129050000Y-92750000D01*
X129050000Y-92750000D02*
X129200000Y-92600000D01*
X121312969Y-92512969D02*
X121550000Y-92750000D01*
X155750000Y-107675000D02*
X155750000Y-105147660D01*
X121312969Y-92370078D02*
X121312969Y-92512969D01*
X186850500Y-100600000D02*
X186850500Y-100450500D01*
X155750000Y-105147660D02*
X156723302Y-104174358D01*
%TO.N,/Connectors to segment displays/DISP1_SEG_D*%
X166116095Y-132317314D02*
X166282686Y-132317314D01*
X120184581Y-92915760D02*
X120518821Y-93250000D01*
X150749500Y-66835397D02*
X150749500Y-66499500D01*
X149750000Y-71300000D02*
X149750000Y-67834897D01*
X166750000Y-131850000D02*
X166750000Y-128700000D01*
X152150000Y-116350000D02*
X152400000Y-116600000D01*
X166282686Y-132317314D02*
X166750000Y-131850000D01*
X152150000Y-108964339D02*
X152150000Y-116350000D01*
X186974166Y-99302889D02*
X186902889Y-99302889D01*
X155743970Y-104130904D02*
X155743970Y-104093029D01*
X153750000Y-107675000D02*
X153750000Y-106124874D01*
X186902889Y-99302889D02*
X186350000Y-98750000D01*
X153439339Y-107675000D02*
X152150000Y-108964339D01*
X149750000Y-67834897D02*
X150749500Y-66835397D01*
X119999500Y-92915760D02*
X120184581Y-92915760D01*
X186350000Y-98750000D02*
X182700000Y-98750000D01*
X153750000Y-106124874D02*
X155743970Y-104130904D01*
X120518821Y-93250000D02*
X125300000Y-93250000D01*
X153750000Y-107675000D02*
X153439339Y-107675000D01*
%TO.N,/Connectors to segment displays/DISP1_SEG_C*%
X154994470Y-104173297D02*
X154994470Y-103352092D01*
X188000499Y-99131607D02*
X187862838Y-99131607D01*
X186981231Y-98250000D02*
X182700000Y-98250000D01*
X119964212Y-93941133D02*
X119250000Y-93226921D01*
X149250000Y-67274236D02*
X149250000Y-71300000D01*
X153417767Y-105750000D02*
X154994470Y-104173297D01*
X166400497Y-133214342D02*
X167214839Y-132400000D01*
X120149293Y-93941133D02*
X119964212Y-93941133D01*
X119250000Y-80207107D02*
X120002558Y-79454549D01*
X167250000Y-132400000D02*
X167250000Y-128700000D01*
X149562118Y-66962118D02*
X149250000Y-67274236D01*
X120340426Y-93750000D02*
X125300000Y-93750000D01*
X119250000Y-93226921D02*
X119250000Y-80207107D01*
X167214839Y-132400000D02*
X167250000Y-132400000D01*
X187862838Y-99131607D02*
X186981231Y-98250000D01*
X151825000Y-105750000D02*
X153417767Y-105750000D01*
X166400497Y-133275500D02*
X166400497Y-133214342D01*
X120002558Y-79454549D02*
X120002558Y-74802558D01*
X120149293Y-93941133D02*
X120340426Y-93750000D01*
%TO.N,/Connectors to segment displays/DISP1_SEG_B*%
X167400000Y-133275500D02*
X167750000Y-132925500D01*
X187740892Y-97949500D02*
X187541392Y-97750000D01*
X121350000Y-94250000D02*
X125300000Y-94250000D01*
X187541392Y-97750000D02*
X182700000Y-97750000D01*
X154148212Y-104312449D02*
X154148212Y-103883930D01*
X149173789Y-65774743D02*
X148950000Y-65998532D01*
X167750000Y-132925500D02*
X167750000Y-128700000D01*
X148950000Y-65998532D02*
X148950000Y-66310661D01*
X153210661Y-105250000D02*
X154148212Y-104312449D01*
X148750000Y-66510661D02*
X148750000Y-71300000D01*
X120800000Y-94800000D02*
X121350000Y-94250000D01*
X151825000Y-105250000D02*
X153210661Y-105250000D01*
X148950000Y-66310661D02*
X148750000Y-66510661D01*
%TO.N,/Connectors to segment displays/DISP1_SEG_A*%
X184000000Y-97200000D02*
X183950000Y-97250000D01*
X148200000Y-66000000D02*
X148250000Y-66050000D01*
X124250000Y-94750000D02*
X125300000Y-94750000D01*
X119870023Y-95470023D02*
X119950000Y-95550000D01*
X148250000Y-66050000D02*
X148250000Y-71300000D01*
X153200000Y-104251041D02*
X153200000Y-104200000D01*
X183950000Y-97250000D02*
X182700000Y-97250000D01*
X151825000Y-104750000D02*
X152701041Y-104750000D01*
X123450000Y-95550000D02*
X124250000Y-94750000D01*
X168250000Y-132850000D02*
X168600000Y-133200000D01*
X168250000Y-128700000D02*
X168250000Y-132850000D01*
X152701041Y-104750000D02*
X153200000Y-104251041D01*
X119950000Y-95550000D02*
X123450000Y-95550000D01*
X188500500Y-97200000D02*
X184000000Y-97200000D01*
%TO.N,+5V*%
X147250000Y-64800000D02*
X147200000Y-64750000D01*
X118800000Y-71200000D02*
X121838056Y-71200000D01*
X179714379Y-135251264D02*
X185322974Y-129642669D01*
X184200000Y-96400000D02*
X184050000Y-96250000D01*
X188200000Y-129800000D02*
X189200000Y-129800000D01*
X147200000Y-64750000D02*
X183200000Y-64750000D01*
X183505000Y-70400000D02*
X189200000Y-70400000D01*
X169400000Y-135251264D02*
X179714379Y-135251264D01*
X135000000Y-64750000D02*
X147200000Y-64750000D01*
X134950000Y-64800000D02*
X135000000Y-64750000D01*
X125300000Y-95750000D02*
X125300000Y-97350000D01*
X183200000Y-64750000D02*
X183200000Y-70095000D01*
X184050000Y-96250000D02*
X182700000Y-96250000D01*
X147250000Y-71300000D02*
X147250000Y-64800000D01*
X189200000Y-70400000D02*
X189250000Y-70450000D01*
X125300000Y-97350000D02*
X121250000Y-101400000D01*
X121250000Y-101400000D02*
X118750000Y-101400000D01*
X169250000Y-128700000D02*
X169250000Y-132100000D01*
X118800000Y-79950000D02*
X118800000Y-71200000D01*
X185322974Y-129642669D02*
X188042669Y-129642669D01*
X169250000Y-132100000D02*
X169400000Y-132250000D01*
X183200000Y-70095000D02*
X183505000Y-70400000D01*
X189250000Y-96400000D02*
X184200000Y-96400000D01*
X189200000Y-129800000D02*
X189249999Y-129750001D01*
X125450000Y-64750000D02*
X135000000Y-64750000D01*
X124359438Y-68678618D02*
X124359438Y-65840562D01*
X169400000Y-132250000D02*
X169400000Y-135251264D01*
X124359438Y-65840562D02*
X125450000Y-64750000D01*
X118750000Y-80000000D02*
X118800000Y-79950000D01*
X121838056Y-71200000D02*
X124359438Y-68678618D01*
X189249999Y-129750001D02*
X189250000Y-96400000D01*
X188042669Y-129642669D02*
X188200000Y-129800000D01*
X134950000Y-68287500D02*
X134950000Y-64800000D01*
X189250000Y-70450000D02*
X189250000Y-96400000D01*
X118750000Y-101400000D02*
X118750000Y-80000000D01*
%TO.N,Net-(U4-L1)*%
X130450000Y-77937500D02*
X131275000Y-77112500D01*
X131275000Y-77112500D02*
X133130000Y-77112500D01*
%TO.N,Net-(U4-L2)*%
X130450000Y-75637500D02*
X130925000Y-76112500D01*
X130925000Y-76112500D02*
X133130000Y-76112500D01*
D62*
%TO.N,Net-(Q3-C)*%
X143675000Y-131380000D02*
X144500000Y-131380000D01*
X144505000Y-130550000D02*
X144505000Y-131375000D01*
X144505000Y-131375000D02*
X144500000Y-131380000D01*
X147970000Y-131225000D02*
X148125000Y-131380000D01*
X145745000Y-131380000D02*
X145900000Y-131225000D01*
X143675000Y-131380000D02*
X144505000Y-130550000D01*
X144500000Y-131380000D02*
X145745000Y-131380000D01*
X144505000Y-130550000D02*
X144505000Y-129445000D01*
X145900000Y-131225000D02*
X147970000Y-131225000D01*
D61*
%TO.N,Net-(R1-Pad1)*%
X121200000Y-122400000D02*
X133200000Y-134400000D01*
X175920000Y-127200000D02*
X177000000Y-127200000D01*
X160400000Y-123600000D02*
X161400000Y-123600000D01*
X130090000Y-79600000D02*
X130090000Y-83310000D01*
X130090000Y-83310000D02*
X130000000Y-83400000D01*
X130000000Y-86400000D02*
X130000000Y-95889839D01*
X168600000Y-121400000D02*
X170120000Y-121400000D01*
X154600000Y-129400000D02*
X160400000Y-123600000D01*
X154600000Y-132360661D02*
X154600000Y-129400000D01*
X121200000Y-104689839D02*
X121200000Y-122400000D01*
X133200000Y-134400000D02*
X152560661Y-134400000D01*
X152560661Y-134400000D02*
X154600000Y-132360661D01*
X170120000Y-121400000D02*
X175920000Y-127200000D01*
X177000000Y-126240000D02*
X176760000Y-126000000D01*
X176760000Y-126000000D02*
X180620000Y-126000000D01*
X130000000Y-95889839D02*
X121200000Y-104689839D01*
X177000000Y-127200000D02*
X177000000Y-126240000D01*
%TO.N,/STM32F103RCT6/PWM3_BUZZER*%
X163175000Y-103750000D02*
X160089338Y-103750000D01*
X158506018Y-102166680D02*
X158506018Y-101553009D01*
X154048959Y-98000000D02*
X152675000Y-96626041D01*
X152675000Y-96626041D02*
X152675000Y-94675000D01*
X154400000Y-98000000D02*
X154048959Y-98000000D01*
X160089338Y-103750000D02*
X158506018Y-102166680D01*
X146420000Y-94675000D02*
X145010000Y-93265000D01*
X152675000Y-94675000D02*
X146420000Y-94675000D01*
%TO.N,Net-(D1-K)*%
X185787500Y-115625000D02*
X185787500Y-113777500D01*
X185787500Y-113777500D02*
X185760000Y-113750000D01*
%TO.N,/STM32F103RCT6/UART5_TX*%
X156190000Y-85552894D02*
X156190000Y-83700000D01*
X156190000Y-83700000D02*
X156190000Y-84530000D01*
X159250000Y-96325000D02*
X159250000Y-86542893D01*
X159250000Y-86542893D02*
X159207107Y-86500000D01*
X159207107Y-86500000D02*
X157137106Y-86500000D01*
X157137106Y-86500000D02*
X156190000Y-85552894D01*
X156190000Y-84530000D02*
X156250000Y-84590000D01*
%TO.N,/STM32F103RCT6/UART5_RX*%
X158750000Y-87000000D02*
X156930000Y-87000000D01*
X158750000Y-96325000D02*
X158750000Y-87000000D01*
X154750000Y-86500000D02*
X154750000Y-81240000D01*
X156430000Y-86500000D02*
X154750000Y-86500000D01*
X156930000Y-87000000D02*
X156430000Y-86500000D01*
X154750000Y-81240000D02*
X156190000Y-79800000D01*
%TO.N,/STM32F103RCT6/UART4_RX*%
X172000000Y-75500000D02*
X171554106Y-75500000D01*
X164530000Y-81350000D02*
X164530000Y-85220000D01*
X171554106Y-75500000D02*
X169054106Y-78000000D01*
X169054106Y-78000000D02*
X164750000Y-78000000D01*
X164530000Y-85220000D02*
X163000000Y-86750000D01*
X163000000Y-86750000D02*
X159750000Y-86750000D01*
X159750000Y-86750000D02*
X159750000Y-96325000D01*
X164750000Y-78000000D02*
X164750000Y-81130000D01*
X164750000Y-81130000D02*
X164530000Y-81350000D01*
%TO.N,/STM32F103RCT6/UART4_TX*%
X160250000Y-87500000D02*
X160250000Y-96325000D01*
X165750000Y-84750000D02*
X163250000Y-87250000D01*
X163250000Y-87250000D02*
X160500000Y-87250000D01*
X160500000Y-87250000D02*
X160250000Y-87500000D01*
X171290000Y-78750000D02*
X165750000Y-78750000D01*
X174540000Y-75500000D02*
X171290000Y-78750000D01*
X165750000Y-78750000D02*
X165750000Y-84750000D01*
D64*
%TO.N,/STM32F103RCT6/USB_CONN_D+*%
X167851278Y-96767848D02*
X167427013Y-96767848D01*
X172000000Y-100525000D02*
X172300000Y-100225000D01*
X169637500Y-97897550D02*
X168789950Y-97050000D01*
X174457499Y-100225000D02*
X174482499Y-100250000D01*
X168133430Y-97050000D02*
X167851278Y-96767848D01*
X174482499Y-100250000D02*
X175135000Y-100250000D01*
X169637500Y-99050000D02*
X169637500Y-97897550D01*
X168789950Y-97050000D02*
X168133430Y-97050000D01*
X172300000Y-100225000D02*
X174457499Y-100225000D01*
%TO.N,/STM32F103RCT6/USB_CONN_D-*%
X174482499Y-99750000D02*
X175135000Y-99750000D01*
X170087500Y-97711182D02*
X168976338Y-96600020D01*
X168976338Y-96600020D02*
X168319848Y-96600020D01*
X172000000Y-99475000D02*
X172300000Y-99775000D01*
X169987500Y-100600000D02*
X170336396Y-100600000D01*
X170600000Y-98713604D02*
X170336396Y-98450000D01*
X170336396Y-100600000D02*
X170600000Y-100336396D01*
X168319848Y-96600020D02*
X168169477Y-96449649D01*
X168169477Y-96449649D02*
X168169477Y-96025384D01*
X170600000Y-100336396D02*
X170600000Y-98713604D01*
X170087500Y-98450000D02*
X170087500Y-97711182D01*
X172300000Y-99775000D02*
X174457499Y-99775000D01*
X170336396Y-98450000D02*
X170087500Y-98450000D01*
X169637500Y-100950000D02*
X169987500Y-100600000D01*
X174457499Y-99775000D02*
X174482499Y-99750000D01*
%TD*%
M02*
