M48
; DRILL file {KiCad 7.0.7-7.0.7~ubuntu22.04.1} date wo 13 sep 2023 17:51:22 CEST
; FORMAT={-:-/ absolute / metric / decimal}
; #@! TF.CreationDate,2023-09-13T17:51:22+02:00
; #@! TF.GenerationSoftware,Kicad,Pcbnew,7.0.7-7.0.7~ubuntu22.04.1
; #@! TF.FileFunction,Plated,1,4,PTH
FMAT,2
METRIC
; #@! TA.AperFunction,Plated,PTH,ComponentDrill
T1C0.200
; #@! TA.AperFunction,Plated,PTH,ComponentDrill
T2C0.300
; #@! TA.AperFunction,Plated,PTH,ViaDrill
T3C0.400
; #@! TA.AperFunction,Plated,PTH,ComponentDrill
T4C0.600
; #@! TA.AperFunction,Plated,PTH,ComponentDrill
T5C1.000
%
G90
G05
T1
X133.955Y-76.612
X134.53Y-75.662
X134.53Y-77.562
X135.105Y-76.612
X170.675Y-117.015
X171.25Y-116.065
X171.25Y-117.965
X171.825Y-117.015
T2
X129.865Y-113.13
X129.865Y-114.43
X129.865Y-115.73
X129.865Y-117.03
X131.165Y-113.13
X131.165Y-114.43
X131.165Y-115.73
X131.165Y-117.03
T3
X119.87Y-95.47
X119.999Y-90.917
X119.999Y-92.916
X120.0Y-91.916
X120.003Y-74.803
X120.149Y-93.941
X120.2Y-86.8
X120.53Y-89.252
X120.8Y-94.8
X120.913Y-88.328
X121.133Y-90.068
X121.313Y-92.37
X121.39Y-87.45
X122.125Y-112.8
X122.2Y-109.899
X122.23Y-86.17
X122.275Y-113.8
X122.4Y-104.55
X122.749Y-85.269
X123.349Y-84.308
X123.4Y-104.4
X123.4Y-111.399
X124.1Y-83.4
X124.2Y-112.149
X124.45Y-104.409
X125.05Y-69.763
X125.125Y-73.412
X125.325Y-83.675
X125.6Y-110.649
X126.353Y-89.764
X126.425Y-68.337
X126.425Y-71.162
X126.45Y-103.2
X126.95Y-95.25
X127.8Y-91.0
X128.4Y-88.8
X128.451Y-91.977
X129.2Y-88.0
X129.425Y-107.55
X130.0Y-83.4
X130.0Y-86.4
X130.9Y-119.5
X131.2Y-125.0
X132.227Y-109.899
X132.475Y-123.75
X133.171Y-70.2
X133.739Y-82.65
X134.2Y-84.899
X134.808Y-86.401
X135.0Y-121.15
X135.0Y-123.25
X136.018Y-92.621
X137.0Y-119.4
X137.15Y-117.0
X137.2Y-86.4
X137.575Y-76.562
X137.6Y-83.0
X138.2Y-102.8
X138.975Y-77.763
X140.55Y-95.225
X140.75Y-122.5
X140.75Y-125.75
X141.25Y-96.325
X141.4Y-83.2
X141.95Y-95.2
X142.0Y-133.275
X142.415Y-81.185
X143.425Y-133.25
X143.6Y-101.375
X143.682Y-80.549
X144.0Y-96.2
X144.175Y-103.275
X144.4Y-123.6
X145.9Y-129.525
X146.025Y-106.5
X146.2Y-95.6
X146.8Y-97.8
X147.3Y-130.175
X147.35Y-95.525
X147.4Y-128.0
X147.75Y-72.8
X147.893Y-92.265
X148.2Y-66.0
X148.375Y-133.25
X148.975Y-101.05
X149.0Y-99.075
X149.174Y-65.775
X149.562Y-66.962
X149.775Y-133.25
X150.0Y-93.0
X150.0Y-102.825
X150.296Y-108.415
X150.595Y-95.605
X150.749Y-66.499
X151.375Y-132.775
X151.4Y-93.6
X151.676Y-66.999
X151.909Y-118.55
X152.023Y-91.663
X152.13Y-84.67
X152.4Y-116.6
X152.6Y-67.549
X153.025Y-109.15
X153.125Y-132.775
X153.2Y-104.2
X153.25Y-93.8
X153.257Y-72.352
X153.448Y-68.079
X154.0Y-77.8
X154.148Y-103.884
X154.25Y-91.325
X154.4Y-98.0
X154.4Y-113.6
X154.434Y-68.549
X154.475Y-93.775
X154.65Y-110.25
X154.8Y-77.0
X154.8Y-78.8
X154.994Y-103.352
X155.258Y-93.154
X155.271Y-69.096
X155.451Y-92.173
X155.744Y-104.093
X155.748Y-76.684
X156.0Y-97.743
X156.049Y-75.69
X156.2Y-69.549
X156.472Y-98.625
X156.549Y-74.816
X156.6Y-125.8
X156.723Y-103.893
X156.999Y-105.769
X157.044Y-75.786
X157.2Y-128.4
X157.375Y-109.6
X157.704Y-103.702
X157.726Y-98.608
X158.0Y-85.751
X158.0Y-88.0
X158.0Y-105.4
X158.042Y-75.845
X158.2Y-111.92
X158.506Y-101.553
X158.719Y-98.497
X158.751Y-130.611
X158.799Y-75.002
X158.816Y-126.416
X159.043Y-112.65
X159.046Y-105.338
X159.052Y-131.564
X159.552Y-106.2
X160.0Y-73.553
X160.0Y-75.2
X160.0Y-97.8
X160.183Y-115.395
X160.2Y-102.8
X160.217Y-99.876
X160.25Y-131.0
X160.525Y-110.225
X160.6Y-98.6
X160.64Y-100.99
X160.749Y-126.106
X160.75Y-132.197
X160.999Y-87.999
X161.052Y-85.684
X161.3Y-102.45
X161.4Y-123.6
X161.456Y-126.856
X161.625Y-116.0
X161.633Y-132.665
X162.0Y-86.0
X162.0Y-87.999
X162.175Y-109.525
X162.225Y-111.25
X162.525Y-78.2
X162.558Y-132.286
X162.756Y-131.292
X163.1Y-75.55
X163.2Y-123.0
X163.506Y-131.967
X163.8Y-133.2
X164.2Y-94.8
X164.321Y-131.236
X164.451Y-132.293
X164.9Y-96.8
X165.2Y-133.0
X165.597Y-98.512
X166.116Y-132.317
X166.4Y-133.275
X167.4Y-133.275
X167.427Y-96.768
X167.65Y-109.4
X167.65Y-111.4
X168.0Y-88.6
X168.169Y-96.025
X168.5Y-97.75
X168.6Y-121.4
X168.6Y-133.2
X169.025Y-89.275
X169.05Y-87.675
X170.4Y-105.2
X170.85Y-102.2
X171.2Y-96.4
X172.0Y-79.75
X172.0Y-99.475
X172.0Y-100.525
X172.2Y-110.4
X172.201Y-98.2
X172.75Y-86.8
X173.6Y-109.8
X173.875Y-96.075
X174.25Y-89.5
X174.25Y-91.67
X175.489Y-120.849
X176.0Y-102.0
X176.0Y-108.333
X176.275Y-81.65
X176.314Y-120.286
X176.95Y-118.8
X177.2Y-107.583
X177.418Y-106.048
X177.934Y-105.066
X178.125Y-119.223
X178.45Y-117.2
X178.95Y-83.4
X178.95Y-91.05
X179.125Y-102.375
X179.137Y-104.749
X179.4Y-103.784
X179.525Y-76.7
X180.473Y-103.772
X181.399Y-102.8
X183.624Y-123.45
X183.932Y-114.23
X184.25Y-104.66
X184.75Y-113.025
X184.75Y-103.795
X185.15Y-102.799
X185.75Y-102.0
X185.8Y-101.0
X186.85Y-100.6
X186.974Y-99.303
X186.975Y-121.3
X187.741Y-97.95
X188.0Y-99.132
X188.5Y-97.2
T5
X128.75Y-122.0
X128.75Y-124.54
X132.46Y-125.0
X135.0Y-125.0
X137.54Y-125.0
X164.38Y-75.5
X166.92Y-75.5
X169.46Y-75.5
X172.0Y-75.5
X174.54Y-75.5
X177.08Y-75.5
T4
G00X173.85Y-97.475
M15
G01X173.85Y-97.725
M16
G05
G00X173.85Y-102.275
M15
G01X173.85Y-102.525
M16
G05
G00X178.15Y-97.475
M15
G01X178.15Y-97.725
M16
G05
G00X178.15Y-102.275
M15
G01X178.15Y-102.525
M16
G05
T0
M30
