%TF.GenerationSoftware,KiCad,Pcbnew,7.0.7-7.0.7~ubuntu22.04.1*%
%TF.CreationDate,2023-09-13T17:51:59+02:00*%
%TF.ProjectId,ShotClockProject,53686f74-436c-46f6-936b-50726f6a6563,rev?*%
%TF.SameCoordinates,Original*%
%TF.FileFunction,Paste,Top*%
%TF.FilePolarity,Positive*%
%FSLAX46Y46*%
G04 Gerber Fmt 4.6, Leading zero omitted, Abs format (unit mm)*
G04 Created by KiCad (PCBNEW 7.0.7-7.0.7~ubuntu22.04.1) date 2023-09-13 17:51:59*
%MOMM*%
%LPD*%
G01*
G04 APERTURE LIST*
G04 Aperture macros list*
%AMRoundRect*
0 Rectangle with rounded corners*
0 $1 Rounding radius*
0 $2 $3 $4 $5 $6 $7 $8 $9 X,Y pos of 4 corners*
0 Add a 4 corners polygon primitive as box body*
4,1,4,$2,$3,$4,$5,$6,$7,$8,$9,$2,$3,0*
0 Add four circle primitives for the rounded corners*
1,1,$1+$1,$2,$3*
1,1,$1+$1,$4,$5*
1,1,$1+$1,$6,$7*
1,1,$1+$1,$8,$9*
0 Add four rect primitives between the rounded corners*
20,1,$1+$1,$2,$3,$4,$5,0*
20,1,$1+$1,$4,$5,$6,$7,0*
20,1,$1+$1,$6,$7,$8,$9,0*
20,1,$1+$1,$8,$9,$2,$3,0*%
G04 Aperture macros list end*
%ADD10RoundRect,0.135000X-0.185000X0.135000X-0.185000X-0.135000X0.185000X-0.135000X0.185000X0.135000X0*%
%ADD11RoundRect,0.140000X-0.140000X-0.170000X0.140000X-0.170000X0.140000X0.170000X-0.140000X0.170000X0*%
%ADD12R,2.550000X1.000000*%
%ADD13RoundRect,0.135000X-0.135000X-0.185000X0.135000X-0.185000X0.135000X0.185000X-0.135000X0.185000X0*%
%ADD14R,0.300000X1.300000*%
%ADD15R,2.000000X1.600000*%
%ADD16RoundRect,0.140000X-0.170000X0.140000X-0.170000X-0.140000X0.170000X-0.140000X0.170000X0.140000X0*%
%ADD17R,1.300000X0.300000*%
%ADD18R,1.600000X2.000000*%
%ADD19RoundRect,0.112500X-0.187500X-0.112500X0.187500X-0.112500X0.187500X0.112500X-0.187500X0.112500X0*%
%ADD20RoundRect,0.218750X0.218750X0.256250X-0.218750X0.256250X-0.218750X-0.256250X0.218750X-0.256250X0*%
%ADD21RoundRect,0.225000X0.225000X0.250000X-0.225000X0.250000X-0.225000X-0.250000X0.225000X-0.250000X0*%
%ADD22RoundRect,0.135000X0.185000X-0.135000X0.185000X0.135000X-0.185000X0.135000X-0.185000X-0.135000X0*%
%ADD23RoundRect,0.135000X0.135000X0.185000X-0.135000X0.185000X-0.135000X-0.185000X0.135000X-0.185000X0*%
%ADD24R,2.700000X0.800000*%
%ADD25RoundRect,0.140000X0.170000X-0.140000X0.170000X0.140000X-0.170000X0.140000X-0.170000X-0.140000X0*%
%ADD26R,0.740000X2.400000*%
%ADD27RoundRect,0.150000X-0.825000X-0.150000X0.825000X-0.150000X0.825000X0.150000X-0.825000X0.150000X0*%
%ADD28RoundRect,0.225000X-0.225000X-0.250000X0.225000X-0.250000X0.225000X0.250000X-0.225000X0.250000X0*%
%ADD29R,2.600000X3.100000*%
%ADD30R,1.550000X0.600000*%
%ADD31R,2.000000X1.500000*%
%ADD32RoundRect,0.025000X-0.100000X-0.145000X0.100000X-0.145000X0.100000X0.145000X-0.100000X0.145000X0*%
%ADD33RoundRect,0.106000X-0.644000X-0.424000X0.644000X-0.424000X0.644000X0.424000X-0.644000X0.424000X0*%
%ADD34R,0.600000X0.240000*%
%ADD35RoundRect,0.150000X-0.150000X0.587500X-0.150000X-0.587500X0.150000X-0.587500X0.150000X0.587500X0*%
%ADD36RoundRect,0.075000X-0.700000X-0.075000X0.700000X-0.075000X0.700000X0.075000X-0.700000X0.075000X0*%
%ADD37RoundRect,0.075000X-0.075000X-0.700000X0.075000X-0.700000X0.075000X0.700000X-0.075000X0.700000X0*%
%ADD38R,0.870000X0.300000*%
%ADD39RoundRect,0.218750X0.256250X-0.218750X0.256250X0.218750X-0.256250X0.218750X-0.256250X-0.218750X0*%
%ADD40RoundRect,0.225000X-0.250000X0.225000X-0.250000X-0.225000X0.250000X-0.225000X0.250000X0.225000X0*%
%ADD41RoundRect,0.225000X0.250000X-0.225000X0.250000X0.225000X-0.250000X0.225000X-0.250000X-0.225000X0*%
%ADD42RoundRect,0.218750X-0.256250X0.218750X-0.256250X-0.218750X0.256250X-0.218750X0.256250X0.218750X0*%
%ADD43R,1.000000X0.800000*%
%ADD44R,0.700000X1.500000*%
%ADD45RoundRect,0.140000X0.140000X0.170000X-0.140000X0.170000X-0.140000X-0.170000X0.140000X-0.170000X0*%
%ADD46RoundRect,0.250000X0.300000X-2.050000X0.300000X2.050000X-0.300000X2.050000X-0.300000X-2.050000X0*%
%ADD47RoundRect,0.250000X2.375000X-2.025000X2.375000X2.025000X-2.375000X2.025000X-2.375000X-2.025000X0*%
%ADD48RoundRect,0.218750X-0.218750X-0.256250X0.218750X-0.256250X0.218750X0.256250X-0.218750X0.256250X0*%
%ADD49RoundRect,0.150000X0.150000X-0.512500X0.150000X0.512500X-0.150000X0.512500X-0.150000X-0.512500X0*%
%ADD50RoundRect,0.150000X0.512500X0.150000X-0.512500X0.150000X-0.512500X-0.150000X0.512500X-0.150000X0*%
%ADD51R,1.200000X1.400000*%
%ADD52R,1.600000X3.800000*%
G04 APERTURE END LIST*
D10*
%TO.C,R29*%
X178500000Y-115465000D03*
X178500000Y-116485000D03*
%TD*%
D11*
%TO.C,C23*%
X133920000Y-72517500D03*
X134880000Y-72517500D03*
%TD*%
D12*
%TO.C,SW3*%
X180620000Y-75800000D03*
X180620000Y-73800000D03*
X180620000Y-71800000D03*
X187380000Y-75800000D03*
X187380000Y-73800000D03*
X187380000Y-71800000D03*
%TD*%
D13*
%TO.C,R4*%
X133930000Y-68287500D03*
X134950000Y-68287500D03*
%TD*%
D14*
%TO.C,FPC3*%
X169250000Y-128700000D03*
X168750000Y-128700000D03*
X168250000Y-128700000D03*
X167750000Y-128700000D03*
X167250000Y-128700000D03*
X166750000Y-128700000D03*
X166250000Y-128700000D03*
X165750000Y-128700000D03*
X165250000Y-128700000D03*
X164750000Y-128700000D03*
X164250000Y-128700000D03*
X163750000Y-128700000D03*
X163250000Y-128700000D03*
X162750000Y-128700000D03*
X162250000Y-128700000D03*
X161750000Y-128700000D03*
X161250000Y-128700000D03*
X160750000Y-128700000D03*
X160250000Y-128700000D03*
X159750000Y-128700000D03*
X159250000Y-128700000D03*
X158750000Y-128700000D03*
X158250000Y-128700000D03*
X157750000Y-128700000D03*
D15*
X156050000Y-131300000D03*
X170950000Y-131300000D03*
%TD*%
D13*
%TO.C,R20*%
X155740000Y-112000000D03*
X156760000Y-112000000D03*
%TD*%
D11*
%TO.C,C18*%
X170790000Y-114175000D03*
X171750000Y-114175000D03*
%TD*%
D16*
%TO.C,C3*%
X164890000Y-97520000D03*
X164890000Y-98480000D03*
%TD*%
D17*
%TO.C,FPC2*%
X182700000Y-96250000D03*
X182700000Y-96750000D03*
X182700000Y-97250000D03*
X182700000Y-97750000D03*
X182700000Y-98250000D03*
X182700000Y-98750000D03*
X182700000Y-99250000D03*
X182700000Y-99750000D03*
X182700000Y-100250000D03*
X182700000Y-100750000D03*
X182700000Y-101250000D03*
X182700000Y-101750000D03*
X182700000Y-102250000D03*
X182700000Y-102750000D03*
X182700000Y-103250000D03*
X182700000Y-103750000D03*
X182700000Y-104250000D03*
X182700000Y-104750000D03*
X182700000Y-105250000D03*
X182700000Y-105750000D03*
X182700000Y-106250000D03*
X182700000Y-106750000D03*
X182700000Y-107250000D03*
X182700000Y-107750000D03*
D18*
X185300000Y-109450000D03*
X185300000Y-94550000D03*
%TD*%
D10*
%TO.C,R32*%
X138305000Y-75527500D03*
X138305000Y-76547500D03*
%TD*%
D17*
%TO.C,FPC4*%
X125300000Y-95750000D03*
X125300000Y-95250000D03*
X125300000Y-94750000D03*
X125300000Y-94250000D03*
X125300000Y-93750000D03*
X125300000Y-93250000D03*
X125300000Y-92750000D03*
X125300000Y-92250000D03*
X125300000Y-91750000D03*
X125300000Y-91250000D03*
X125300000Y-90750000D03*
X125300000Y-90250000D03*
X125300000Y-89750000D03*
X125300000Y-89250000D03*
X125300000Y-88750000D03*
X125300000Y-88250000D03*
X125300000Y-87750000D03*
X125300000Y-87250000D03*
X125300000Y-86750000D03*
X125300000Y-86250000D03*
X125300000Y-85750000D03*
X125300000Y-85250000D03*
X125300000Y-84750000D03*
X125300000Y-84250000D03*
D18*
X122700000Y-82550000D03*
X122700000Y-97450000D03*
%TD*%
D19*
%TO.C,D2*%
X136035000Y-93265000D03*
X138135000Y-93265000D03*
%TD*%
D20*
%TO.C,D1*%
X185787500Y-115625000D03*
X184212500Y-115625000D03*
%TD*%
D11*
%TO.C,C28*%
X170270000Y-81000000D03*
X171230000Y-81000000D03*
%TD*%
D21*
%TO.C,C21*%
X167525000Y-119750000D03*
X165975000Y-119750000D03*
%TD*%
D13*
%TO.C,R12*%
X157490000Y-76750000D03*
X158510000Y-76750000D03*
%TD*%
D22*
%TO.C,R17*%
X150000000Y-129520000D03*
X150000000Y-128500000D03*
%TD*%
D23*
%TO.C,R35*%
X169050000Y-91250000D03*
X168030000Y-91250000D03*
%TD*%
%TO.C,R14*%
X156710000Y-110750000D03*
X155690000Y-110750000D03*
%TD*%
D10*
%TO.C,R8*%
X166372840Y-96757283D03*
X166372840Y-97777283D03*
%TD*%
D21*
%TO.C,C1*%
X149750000Y-95500000D03*
X148200000Y-95500000D03*
%TD*%
D24*
%TO.C,L1*%
X166750000Y-118150000D03*
X166750000Y-115850000D03*
%TD*%
D25*
%TO.C,C11*%
X148250000Y-102000000D03*
X148250000Y-101040000D03*
%TD*%
D26*
%TO.C,J2*%
X163810000Y-79800000D03*
X163810000Y-83700000D03*
X162540000Y-79800000D03*
X162540000Y-83700000D03*
X161270000Y-79800000D03*
X161270000Y-83700000D03*
X160000000Y-79800000D03*
X160000000Y-83700000D03*
X158730000Y-79800000D03*
X158730000Y-83700000D03*
X157460000Y-79800000D03*
X157460000Y-83700000D03*
X156190000Y-79800000D03*
X156190000Y-83700000D03*
%TD*%
D27*
%TO.C,U5*%
X171300000Y-82380000D03*
X171300000Y-83650000D03*
X171300000Y-84920000D03*
X171300000Y-86190000D03*
X171300000Y-87460000D03*
X171300000Y-88730000D03*
X171300000Y-90000000D03*
X176250000Y-90000000D03*
X176250000Y-88730000D03*
X176250000Y-87460000D03*
X176250000Y-86190000D03*
X176250000Y-84920000D03*
X176250000Y-83650000D03*
X176250000Y-82380000D03*
%TD*%
D23*
%TO.C,R34*%
X171270000Y-79750000D03*
X170250000Y-79750000D03*
%TD*%
D13*
%TO.C,R30*%
X136290000Y-79200000D03*
X137310000Y-79200000D03*
%TD*%
%TO.C,R16*%
X125230000Y-116000000D03*
X126250000Y-116000000D03*
%TD*%
D22*
%TO.C,R11*%
X144000000Y-95525000D03*
X144000000Y-94505000D03*
%TD*%
%TO.C,R5*%
X179500000Y-96685000D03*
X179500000Y-95665000D03*
%TD*%
D28*
%TO.C,C15*%
X127840000Y-111130000D03*
X129390000Y-111130000D03*
%TD*%
D23*
%TO.C,R13*%
X136250000Y-113180000D03*
X135230000Y-113180000D03*
%TD*%
D29*
%TO.C,IC1*%
X130515000Y-115080000D03*
D30*
X133215000Y-116985000D03*
X133215000Y-115715000D03*
X133215000Y-114445000D03*
X133215000Y-113175000D03*
X127815000Y-113175000D03*
X127815000Y-114445000D03*
X127815000Y-115715000D03*
X127815000Y-116985000D03*
%TD*%
D11*
%TO.C,C16*%
X155720000Y-109550000D03*
X156680000Y-109550000D03*
%TD*%
D30*
%TO.C,J4*%
X123690000Y-115750000D03*
X123690000Y-116750000D03*
X123690000Y-117750000D03*
D31*
X119810000Y-119050000D03*
X119810000Y-114450000D03*
%TD*%
D13*
%TO.C,R22*%
X147295000Y-129445000D03*
X148315000Y-129445000D03*
%TD*%
D11*
%TO.C,C29*%
X168060000Y-90000000D03*
X169020000Y-90000000D03*
%TD*%
D20*
%TO.C,D5*%
X178037500Y-112775000D03*
X176462500Y-112775000D03*
%TD*%
D32*
%TO.C,U4*%
X134280000Y-75082500D03*
X134280000Y-78142500D03*
D33*
X134530000Y-75982500D03*
X134530000Y-77242500D03*
D32*
X134780000Y-75082500D03*
X134780000Y-78142500D03*
D34*
X133130000Y-75612500D03*
X133130000Y-76112500D03*
X133130000Y-76612500D03*
X133130000Y-77112500D03*
X133130000Y-77612500D03*
X135930000Y-77612500D03*
X135930000Y-77112500D03*
X135930000Y-76612500D03*
X135930000Y-76112500D03*
X135930000Y-75612500D03*
%TD*%
D25*
%TO.C,C10*%
X148250000Y-100000000D03*
X148250000Y-99040000D03*
%TD*%
D35*
%TO.C,Q4*%
X143675000Y-131380000D03*
X141775000Y-131380000D03*
X142725000Y-133255000D03*
%TD*%
D36*
%TO.C,U1*%
X151825000Y-98250000D03*
X151825000Y-98750000D03*
X151825000Y-99250000D03*
X151825000Y-99750000D03*
X151825000Y-100250000D03*
X151825000Y-100750000D03*
X151825000Y-101250000D03*
X151825000Y-101750000D03*
X151825000Y-102250000D03*
X151825000Y-102750000D03*
X151825000Y-103250000D03*
X151825000Y-103750000D03*
X151825000Y-104250000D03*
X151825000Y-104750000D03*
X151825000Y-105250000D03*
X151825000Y-105750000D03*
D37*
X153750000Y-107675000D03*
X154250000Y-107675000D03*
X154750000Y-107675000D03*
X155250000Y-107675000D03*
X155750000Y-107675000D03*
X156250000Y-107675000D03*
X156750000Y-107675000D03*
X157250000Y-107675000D03*
X157750000Y-107675000D03*
X158250000Y-107675000D03*
X158750000Y-107675000D03*
X159250000Y-107675000D03*
X159750000Y-107675000D03*
X160250000Y-107675000D03*
X160750000Y-107675000D03*
X161250000Y-107675000D03*
D36*
X163175000Y-105750000D03*
X163175000Y-105250000D03*
X163175000Y-104750000D03*
X163175000Y-104250000D03*
X163175000Y-103750000D03*
X163175000Y-103250000D03*
X163175000Y-102750000D03*
X163175000Y-102250000D03*
X163175000Y-101750000D03*
X163175000Y-101250000D03*
X163175000Y-100750000D03*
X163175000Y-100250000D03*
X163175000Y-99750000D03*
X163175000Y-99250000D03*
X163175000Y-98750000D03*
X163175000Y-98250000D03*
D37*
X161250000Y-96325000D03*
X160750000Y-96325000D03*
X160250000Y-96325000D03*
X159750000Y-96325000D03*
X159250000Y-96325000D03*
X158750000Y-96325000D03*
X158250000Y-96325000D03*
X157750000Y-96325000D03*
X157250000Y-96325000D03*
X156750000Y-96325000D03*
X156250000Y-96325000D03*
X155750000Y-96325000D03*
X155250000Y-96325000D03*
X154750000Y-96325000D03*
X154250000Y-96325000D03*
X153750000Y-96325000D03*
%TD*%
D38*
%TO.C,J1*%
X176865000Y-97250000D03*
X176865000Y-98750000D03*
X176865000Y-99250000D03*
X176865000Y-99750000D03*
X176865000Y-100250000D03*
X176865000Y-100750000D03*
X176865000Y-101250000D03*
X176865000Y-102750000D03*
X175135000Y-102750000D03*
X175135000Y-101250000D03*
X175135000Y-100750000D03*
X175135000Y-100250000D03*
X175135000Y-99750000D03*
X175135000Y-99250000D03*
X175135000Y-98750000D03*
X175135000Y-97250000D03*
%TD*%
D12*
%TO.C,SW4*%
X180620000Y-83400000D03*
X180620000Y-81400000D03*
X180620000Y-79400000D03*
X187380000Y-83400000D03*
X187380000Y-81400000D03*
X187380000Y-79400000D03*
%TD*%
D10*
%TO.C,R7*%
X172500000Y-103265000D03*
X172500000Y-104285000D03*
%TD*%
D25*
%TO.C,C22*%
X174150000Y-117455000D03*
X174150000Y-116495000D03*
%TD*%
D12*
%TO.C,SW1*%
X187380000Y-124000000D03*
X187380000Y-126000000D03*
X187380000Y-128000000D03*
X180620000Y-124000000D03*
X180620000Y-126000000D03*
X180620000Y-128000000D03*
%TD*%
D13*
%TO.C,R31*%
X133890000Y-73787500D03*
X134910000Y-73787500D03*
%TD*%
D39*
%TO.C,D6*%
X126675000Y-75175000D03*
X126675000Y-73600000D03*
%TD*%
D11*
%TO.C,C2*%
X153520000Y-94500000D03*
X154480000Y-94500000D03*
%TD*%
D13*
%TO.C,R9*%
X184740000Y-113750000D03*
X185760000Y-113750000D03*
%TD*%
D40*
%TO.C,C17*%
X152250000Y-131210000D03*
X152250000Y-132760000D03*
%TD*%
D13*
%TO.C,R15*%
X125230000Y-114650000D03*
X126250000Y-114650000D03*
%TD*%
D41*
%TO.C,C25*%
X132200000Y-73562500D03*
X132200000Y-72012500D03*
%TD*%
D28*
%TO.C,C20*%
X162475000Y-119800000D03*
X164025000Y-119800000D03*
%TD*%
D42*
%TO.C,FB1*%
X149400000Y-106812500D03*
X149400000Y-108387500D03*
%TD*%
D28*
%TO.C,C14*%
X127840000Y-118750000D03*
X129390000Y-118750000D03*
%TD*%
D43*
%TO.C,SW2*%
X155650000Y-89530000D03*
X155650000Y-87320000D03*
X148350000Y-89530000D03*
X148350000Y-87320000D03*
D44*
X154250000Y-90180000D03*
X151250000Y-90180000D03*
X149750000Y-90180000D03*
%TD*%
D45*
%TO.C,C8*%
X147680000Y-108400000D03*
X146720000Y-108400000D03*
%TD*%
D25*
%TO.C,C6*%
X150000000Y-104480000D03*
X150000000Y-103520000D03*
%TD*%
D46*
%TO.C,Q2*%
X142670000Y-124500000D03*
D47*
X142435000Y-117775000D03*
X147985000Y-117775000D03*
X142435000Y-112925000D03*
X147985000Y-112925000D03*
D46*
X147750000Y-124500000D03*
%TD*%
D13*
%TO.C,R27*%
X170760000Y-112635000D03*
X171780000Y-112635000D03*
%TD*%
D45*
%TO.C,C7*%
X147680000Y-107400000D03*
X146720000Y-107400000D03*
%TD*%
%TO.C,C5*%
X161480000Y-109500000D03*
X160520000Y-109500000D03*
%TD*%
D32*
%TO.C,U3*%
X171000000Y-115485000D03*
X171000000Y-118545000D03*
D33*
X171250000Y-116385000D03*
X171250000Y-117645000D03*
D32*
X171500000Y-115485000D03*
X171500000Y-118545000D03*
D34*
X169850000Y-116015000D03*
X169850000Y-116515000D03*
X169850000Y-117015000D03*
X169850000Y-117515000D03*
X169850000Y-118015000D03*
X172650000Y-118015000D03*
X172650000Y-117515000D03*
X172650000Y-117015000D03*
X172650000Y-116515000D03*
X172650000Y-116015000D03*
%TD*%
D35*
%TO.C,Q1*%
X142200000Y-93327500D03*
X140300000Y-93327500D03*
X141250000Y-95202500D03*
%TD*%
D22*
%TO.C,R2*%
X161500000Y-112260000D03*
X161500000Y-111240000D03*
%TD*%
D28*
%TO.C,C19*%
X162475000Y-118000000D03*
X164025000Y-118000000D03*
%TD*%
D23*
%TO.C,R1*%
X176760000Y-126000000D03*
X175740000Y-126000000D03*
%TD*%
D10*
%TO.C,R21*%
X135240000Y-114490000D03*
X135240000Y-115510000D03*
%TD*%
D48*
%TO.C,D3*%
X184212500Y-119500000D03*
X185787500Y-119500000D03*
%TD*%
%TO.C,D4*%
X184212500Y-111750000D03*
X185787500Y-111750000D03*
%TD*%
D49*
%TO.C,U2*%
X131215000Y-107567500D03*
X132165000Y-107567500D03*
X133115000Y-107567500D03*
X133115000Y-105292500D03*
X131215000Y-105292500D03*
%TD*%
D10*
%TO.C,R6*%
X156200000Y-93090000D03*
X156200000Y-94110000D03*
%TD*%
D28*
%TO.C,C26*%
X132990000Y-79537500D03*
X134540000Y-79537500D03*
%TD*%
D50*
%TO.C,U6*%
X169637500Y-100950000D03*
X169637500Y-100000000D03*
X169637500Y-99050000D03*
X167362500Y-99050000D03*
X167362500Y-100000000D03*
X167362500Y-100950000D03*
%TD*%
D22*
%TO.C,R36*%
X167800000Y-87010000D03*
X167800000Y-85990000D03*
%TD*%
D41*
%TO.C,C24*%
X130415000Y-73562500D03*
X130415000Y-72012500D03*
%TD*%
D16*
%TO.C,C13*%
X129415000Y-105900000D03*
X129415000Y-106860000D03*
%TD*%
D51*
%TO.C,Y1*%
X144610000Y-99150000D03*
X144610000Y-101350000D03*
X146310000Y-101350000D03*
X146310000Y-99150000D03*
%TD*%
D13*
%TO.C,R19*%
X140310000Y-129445000D03*
X141330000Y-129445000D03*
%TD*%
%TO.C,R10*%
X143990000Y-93265000D03*
X145010000Y-93265000D03*
%TD*%
D45*
%TO.C,C4*%
X154645000Y-109550000D03*
X153685000Y-109550000D03*
%TD*%
%TO.C,C9*%
X145143431Y-104000000D03*
X144183431Y-104000000D03*
%TD*%
%TO.C,C12*%
X133195000Y-109180000D03*
X132235000Y-109180000D03*
%TD*%
D22*
%TO.C,R33*%
X125125000Y-75172500D03*
X125125000Y-74152500D03*
%TD*%
D13*
%TO.C,R3*%
X130090000Y-79600000D03*
X131110000Y-79600000D03*
%TD*%
D14*
%TO.C,FPC1*%
X147250000Y-71300000D03*
X147750000Y-71300000D03*
X148250000Y-71300000D03*
X148750000Y-71300000D03*
X149250000Y-71300000D03*
X149750000Y-71300000D03*
X150250000Y-71300000D03*
X150750000Y-71300000D03*
X151250000Y-71300000D03*
X151750000Y-71300000D03*
X152250000Y-71300000D03*
X152750000Y-71300000D03*
X153250000Y-71300000D03*
X153750000Y-71300000D03*
X154250000Y-71300000D03*
X154750000Y-71300000D03*
X155250000Y-71300000D03*
X155750000Y-71300000D03*
X156250000Y-71300000D03*
X156750000Y-71300000D03*
X157250000Y-71300000D03*
X157750000Y-71300000D03*
X158250000Y-71300000D03*
X158750000Y-71300000D03*
D15*
X160450000Y-68700000D03*
X145550000Y-68700000D03*
%TD*%
D35*
%TO.C,Q3*%
X150025000Y-131380000D03*
X148125000Y-131380000D03*
X149075000Y-133255000D03*
%TD*%
D13*
%TO.C,R25*%
X131655000Y-118750000D03*
X132675000Y-118750000D03*
%TD*%
D10*
%TO.C,R28*%
X175750000Y-115415000D03*
X175750000Y-116435000D03*
%TD*%
D13*
%TO.C,R26*%
X170740000Y-119815000D03*
X171760000Y-119815000D03*
%TD*%
D23*
%TO.C,R18*%
X144505000Y-129445000D03*
X143485000Y-129445000D03*
%TD*%
D11*
%TO.C,C27*%
X137325000Y-77747500D03*
X138285000Y-77747500D03*
%TD*%
D10*
%TO.C,R23*%
X145900000Y-130205000D03*
X145900000Y-131225000D03*
%TD*%
D16*
%TO.C,C30*%
X169050000Y-86020000D03*
X169050000Y-86980000D03*
%TD*%
D52*
%TO.C,BUZZER1*%
X136000000Y-86400000D03*
X144000000Y-86400000D03*
%TD*%
D13*
%TO.C,R24*%
X135230000Y-117000000D03*
X136250000Y-117000000D03*
%TD*%
D24*
%TO.C,L2*%
X130450000Y-77937500D03*
X130450000Y-75637500D03*
%TD*%
D12*
%TO.C,SW5*%
X180620000Y-91000000D03*
X180620000Y-89000000D03*
X180620000Y-87000000D03*
X187380000Y-91000000D03*
X187380000Y-89000000D03*
X187380000Y-87000000D03*
%TD*%
M02*
