%TF.GenerationSoftware,KiCad,Pcbnew,7.0.7-7.0.7~ubuntu22.04.1*%
%TF.CreationDate,2023-10-06T15:12:16+02:00*%
%TF.ProjectId,ShotClockDisplayPCB,53686f74-436c-46f6-936b-446973706c61,rev?*%
%TF.SameCoordinates,Original*%
%TF.FileFunction,Copper,L1,Top*%
%TF.FilePolarity,Positive*%
%FSLAX46Y46*%
G04 Gerber Fmt 4.6, Leading zero omitted, Abs format (unit mm)*
G04 Created by KiCad (PCBNEW 7.0.7-7.0.7~ubuntu22.04.1) date 2023-10-06 15:12:16*
%MOMM*%
%LPD*%
G01*
G04 APERTURE LIST*
G04 Aperture macros list*
%AMRoundRect*
0 Rectangle with rounded corners*
0 $1 Rounding radius*
0 $2 $3 $4 $5 $6 $7 $8 $9 X,Y pos of 4 corners*
0 Add a 4 corners polygon primitive as box body*
4,1,4,$2,$3,$4,$5,$6,$7,$8,$9,$2,$3,0*
0 Add four circle primitives for the rounded corners*
1,1,$1+$1,$2,$3*
1,1,$1+$1,$4,$5*
1,1,$1+$1,$6,$7*
1,1,$1+$1,$8,$9*
0 Add four rect primitives between the rounded corners*
20,1,$1+$1,$2,$3,$4,$5,0*
20,1,$1+$1,$4,$5,$6,$7,0*
20,1,$1+$1,$6,$7,$8,$9,0*
20,1,$1+$1,$8,$9,$2,$3,0*%
G04 Aperture macros list end*
%TA.AperFunction,SMDPad,CuDef*%
%ADD10RoundRect,0.135000X0.185000X-0.135000X0.185000X0.135000X-0.185000X0.135000X-0.185000X-0.135000X0*%
%TD*%
%TA.AperFunction,SMDPad,CuDef*%
%ADD11RoundRect,0.140000X0.140000X0.170000X-0.140000X0.170000X-0.140000X-0.170000X0.140000X-0.170000X0*%
%TD*%
%TA.AperFunction,ComponentPad*%
%ADD12R,1.700000X1.700000*%
%TD*%
%TA.AperFunction,ComponentPad*%
%ADD13O,1.700000X1.700000*%
%TD*%
%TA.AperFunction,SMDPad,CuDef*%
%ADD14O,0.800000X0.280000*%
%TD*%
%TA.AperFunction,SMDPad,CuDef*%
%ADD15O,0.280000X0.800000*%
%TD*%
%TA.AperFunction,SMDPad,CuDef*%
%ADD16R,3.600000X3.600000*%
%TD*%
%TA.AperFunction,SMDPad,CuDef*%
%ADD17RoundRect,0.250000X-1.075000X0.312500X-1.075000X-0.312500X1.075000X-0.312500X1.075000X0.312500X0*%
%TD*%
%TA.AperFunction,ComponentPad*%
%ADD18C,1.500000*%
%TD*%
%TA.AperFunction,ViaPad*%
%ADD19C,0.800000*%
%TD*%
%TA.AperFunction,Conductor*%
%ADD20C,0.300000*%
%TD*%
%TA.AperFunction,Conductor*%
%ADD21C,0.500000*%
%TD*%
%TA.AperFunction,Conductor*%
%ADD22C,0.250000*%
%TD*%
%TA.AperFunction,Conductor*%
%ADD23C,2.000000*%
%TD*%
G04 APERTURE END LIST*
D10*
%TO.P,R1,1*%
%TO.N,/I2C PWM IO Expander/A0*%
X44250000Y-32510000D03*
%TO.P,R1,2*%
%TO.N,GND*%
X44250000Y-31490000D03*
%TD*%
%TO.P,R2,1*%
%TO.N,/I2C PWM IO Expander/A1*%
X44250000Y-39010000D03*
%TO.P,R2,2*%
%TO.N,GND*%
X44250000Y-37990000D03*
%TD*%
%TO.P,R7,1*%
%TO.N,/I2C PWM IO Expander/REXT*%
X51000000Y-48010000D03*
%TO.P,R7,2*%
%TO.N,GND*%
X51000000Y-46990000D03*
%TD*%
D11*
%TO.P,C1,1*%
%TO.N,+3.3V*%
X53230000Y-45750000D03*
%TO.P,C1,2*%
%TO.N,GND*%
X52270000Y-45750000D03*
%TD*%
D12*
%TO.P,J2,1,Pin_1*%
%TO.N,+3.3V*%
X41750000Y-41525000D03*
D13*
%TO.P,J2,2,Pin_2*%
%TO.N,/I2C PWM IO Expander/A1*%
X41750000Y-38985000D03*
%TD*%
D12*
%TO.P,J5,1,Pin_1*%
%TO.N,/Segment Display Connectors/5V_CONN1*%
X28250000Y-76000000D03*
D13*
%TO.P,J5,2,Pin_2*%
%TO.N,SEG1_E*%
X30790000Y-76000000D03*
%TO.P,J5,3,Pin_3*%
%TO.N,SEG1_D*%
X33330000Y-76000000D03*
%TO.P,J5,4,Pin_4*%
%TO.N,SEG1_C*%
X35870000Y-76000000D03*
%TO.P,J5,5,Pin_5*%
%TO.N,/Segment Display Connectors/5V_CONN1*%
X38410000Y-76000000D03*
%TD*%
D14*
%TO.P,U2,1,A2*%
%TO.N,/I2C PWM IO Expander/A2*%
X49930000Y-50250000D03*
%TO.P,U2,2,A3*%
%TO.N,/I2C PWM IO Expander/A3*%
X49930000Y-50750000D03*
%TO.P,U2,3,~{OUT0}*%
%TO.N,SEG1_A*%
X49930000Y-51250000D03*
%TO.P,U2,4,~{OUT1}*%
%TO.N,SEG1_B*%
X49930000Y-51750000D03*
%TO.P,U2,5,~{OUT2}*%
%TO.N,SEG1_C*%
X49930000Y-52250000D03*
%TO.P,U2,6,~{OUT3}*%
%TO.N,SEG1_D*%
X49930000Y-52750000D03*
%TO.P,U2,7,GND*%
%TO.N,GND*%
X49930000Y-53250000D03*
%TO.P,U2,8,~{OUT4}*%
%TO.N,SEG1_E*%
X49930000Y-53750000D03*
D15*
%TO.P,U2,9,~{OUT5}*%
%TO.N,SEG1_F*%
X50750000Y-54570000D03*
%TO.P,U2,10,~{OUT6}*%
%TO.N,SEG1_G*%
X51250000Y-54570000D03*
%TO.P,U2,11,~{OUT7}*%
%TO.N,SEG1_DP*%
X51750000Y-54570000D03*
%TO.P,U2,12,NC*%
%TO.N,unconnected-(U2-NC-Pad12)*%
X52250000Y-54570000D03*
%TO.P,U2,13,NC*%
%TO.N,unconnected-(U2-NC-Pad13)*%
X52750000Y-54570000D03*
%TO.P,U2,14,~{OUT8}*%
%TO.N,SEG2_A*%
X53250000Y-54570000D03*
%TO.P,U2,15,~{OUT9}*%
%TO.N,SEG2_B*%
X53750000Y-54570000D03*
%TO.P,U2,16,~{OUT10}*%
%TO.N,SEG2_C*%
X54250000Y-54570000D03*
D14*
%TO.P,U2,17,~{OUT11}*%
%TO.N,SEG2_D*%
X55070000Y-53750000D03*
%TO.P,U2,18,GND*%
%TO.N,GND*%
X55070000Y-53250000D03*
%TO.P,U2,19,~{OUT12}*%
%TO.N,SEG2_E*%
X55070000Y-52750000D03*
%TO.P,U2,20,~{OUT13}*%
%TO.N,SEG2_F*%
X55070000Y-52250000D03*
%TO.P,U2,21,~{OUT14}*%
%TO.N,SEG2_G*%
X55070000Y-51750000D03*
%TO.P,U2,22,~{OUT15}*%
%TO.N,SEG2_DP*%
X55070000Y-51250000D03*
%TO.P,U2,23,GND*%
%TO.N,GND*%
X55070000Y-50750000D03*
%TO.P,U2,24,RESET*%
%TO.N,/I2C PWM IO Expander/TLC59116_RESETn*%
X55070000Y-50250000D03*
D15*
%TO.P,U2,25,SCL*%
%TO.N,/I2C PWM IO Expander/I2C1_SCL*%
X54250000Y-49430000D03*
%TO.P,U2,26,SDA*%
%TO.N,/I2C PWM IO Expander/I2C1_SDA*%
X53750000Y-49430000D03*
%TO.P,U2,27,VCC*%
%TO.N,+3.3V*%
X53250000Y-49430000D03*
%TO.P,U2,28,NC*%
%TO.N,unconnected-(U2-NC-Pad28)*%
X52750000Y-49430000D03*
%TO.P,U2,29,NC*%
%TO.N,unconnected-(U2-NC-Pad29)*%
X52250000Y-49430000D03*
%TO.P,U2,30,REXT*%
%TO.N,/I2C PWM IO Expander/REXT*%
X51750000Y-49430000D03*
%TO.P,U2,31,A0*%
%TO.N,/I2C PWM IO Expander/A0*%
X51250000Y-49430000D03*
%TO.P,U2,32,A1*%
%TO.N,/I2C PWM IO Expander/A1*%
X50750000Y-49430000D03*
D16*
%TO.P,U2,33,ep*%
%TO.N,GND*%
X52500000Y-52000000D03*
%TD*%
D12*
%TO.P,J4,1,Pin_1*%
%TO.N,+3.3V*%
X41750000Y-54525000D03*
D13*
%TO.P,J4,2,Pin_2*%
%TO.N,/I2C PWM IO Expander/A3*%
X41750000Y-51985000D03*
%TD*%
D10*
%TO.P,R4,1*%
%TO.N,/I2C PWM IO Expander/A3*%
X44250000Y-52010000D03*
%TO.P,R4,2*%
%TO.N,GND*%
X44250000Y-50990000D03*
%TD*%
D12*
%TO.P,J7,1,Pin_1*%
%TO.N,SEG1_B*%
X38410000Y-28000000D03*
D13*
%TO.P,J7,2,Pin_2*%
%TO.N,SEG1_A*%
X35870000Y-28000000D03*
%TO.P,J7,3,Pin_3*%
%TO.N,SEG1_DP*%
X33330000Y-28000000D03*
%TO.P,J7,4,Pin_4*%
%TO.N,SEG1_F*%
X30790000Y-28000000D03*
%TO.P,J7,5,Pin_5*%
%TO.N,SEG1_G*%
X28250000Y-28000000D03*
%TD*%
D17*
%TO.P,R6,1*%
%TO.N,+5V*%
X66500000Y-69787500D03*
%TO.P,R6,2*%
%TO.N,/Segment Display Connectors/5V_CONN2*%
X66500000Y-72712500D03*
%TD*%
D18*
%TO.P,U1,1,1*%
%TO.N,/I2C PWM IO Expander/TLC59116_RESETn*%
X57500000Y-37250000D03*
%TO.P,U1,2,2*%
%TO.N,+3.3V*%
X55500000Y-37250000D03*
%TO.P,U1,3,3*%
%TO.N,+5V*%
X53500000Y-37250000D03*
%TO.P,U1,4,4*%
%TO.N,/I2C PWM IO Expander/I2C1_SCL*%
X51500000Y-37250000D03*
%TO.P,U1,5,5*%
%TO.N,/I2C PWM IO Expander/I2C1_SDA*%
X49500000Y-37250000D03*
%TO.P,U1,6,6*%
%TO.N,GND*%
X47500000Y-37250000D03*
%TD*%
D12*
%TO.P,J1,1,Pin_1*%
%TO.N,+3.3V*%
X41750000Y-35025000D03*
D13*
%TO.P,J1,2,Pin_2*%
%TO.N,/I2C PWM IO Expander/A0*%
X41750000Y-32485000D03*
%TD*%
D11*
%TO.P,C2,1*%
%TO.N,+3.3V*%
X53230000Y-47000000D03*
%TO.P,C2,2*%
%TO.N,GND*%
X52270000Y-47000000D03*
%TD*%
D12*
%TO.P,J3,1,Pin_1*%
%TO.N,+3.3V*%
X41750000Y-48025000D03*
D13*
%TO.P,J3,2,Pin_2*%
%TO.N,/I2C PWM IO Expander/A2*%
X41750000Y-45485000D03*
%TD*%
D17*
%TO.P,R5,1*%
%TO.N,+5V*%
X28250000Y-70037500D03*
%TO.P,R5,2*%
%TO.N,/Segment Display Connectors/5V_CONN1*%
X28250000Y-72962500D03*
%TD*%
D12*
%TO.P,J6,1,Pin_1*%
%TO.N,/Segment Display Connectors/5V_CONN2*%
X66590000Y-76000000D03*
D13*
%TO.P,J6,2,Pin_2*%
%TO.N,SEG2_E*%
X69130000Y-76000000D03*
%TO.P,J6,3,Pin_3*%
%TO.N,SEG2_D*%
X71670000Y-76000000D03*
%TO.P,J6,4,Pin_4*%
%TO.N,SEG2_C*%
X74210000Y-76000000D03*
%TO.P,J6,5,Pin_5*%
%TO.N,/Segment Display Connectors/5V_CONN2*%
X76750000Y-76000000D03*
%TD*%
D10*
%TO.P,R3,1*%
%TO.N,/I2C PWM IO Expander/A2*%
X44250000Y-45510000D03*
%TO.P,R3,2*%
%TO.N,GND*%
X44250000Y-44490000D03*
%TD*%
D12*
%TO.P,J8,1,Pin_1*%
%TO.N,SEG2_B*%
X76750000Y-28000000D03*
D13*
%TO.P,J8,2,Pin_2*%
%TO.N,SEG2_A*%
X74210000Y-28000000D03*
%TO.P,J8,3,Pin_3*%
%TO.N,SEG2_DP*%
X71670000Y-28000000D03*
%TO.P,J8,4,Pin_4*%
%TO.N,SEG2_F*%
X69130000Y-28000000D03*
%TO.P,J8,5,Pin_5*%
%TO.N,SEG2_G*%
X66590000Y-28000000D03*
%TD*%
D19*
%TO.N,+5V*%
X62750000Y-67500000D03*
X34000000Y-69250000D03*
X64250000Y-69000000D03*
X34000000Y-70750000D03*
X61250000Y-67500000D03*
X34000000Y-67750000D03*
X31000000Y-69250000D03*
X53500000Y-32750000D03*
X32500000Y-67750000D03*
X61250000Y-70500000D03*
X64250000Y-70500000D03*
X62750000Y-69000000D03*
X64250000Y-67500000D03*
X32500000Y-70750000D03*
X53500000Y-34000000D03*
X31000000Y-67750000D03*
X61250000Y-69000000D03*
X53500000Y-39000000D03*
X31000000Y-70750000D03*
X53500000Y-35500000D03*
X62750000Y-70500000D03*
X32500000Y-69250000D03*
%TO.N,GND*%
X34250000Y-60000000D03*
X39250000Y-32250000D03*
X51250000Y-53250000D03*
X39250000Y-35000000D03*
X52750000Y-63750000D03*
X35750000Y-39000000D03*
X51250000Y-63750000D03*
X32000000Y-41500000D03*
X52500000Y-50750000D03*
X51250000Y-62250000D03*
X73250000Y-51500000D03*
X44250000Y-27750000D03*
X71750000Y-50000000D03*
X47500000Y-34000000D03*
X53750000Y-52000000D03*
X32750000Y-60000000D03*
X52750000Y-60750000D03*
X52500000Y-52000000D03*
X71750000Y-51500000D03*
X35750000Y-61500000D03*
X32750000Y-63000000D03*
X32000000Y-39000000D03*
X54250000Y-63750000D03*
X71750000Y-53000000D03*
X34250000Y-63000000D03*
X51250000Y-52000000D03*
X73250000Y-50000000D03*
X54250000Y-60750000D03*
X51250000Y-50750000D03*
X35750000Y-48000000D03*
X44250000Y-37250000D03*
X51250000Y-60750000D03*
X52500000Y-53250000D03*
X54250000Y-62250000D03*
X32000000Y-48000000D03*
X70250000Y-51500000D03*
X32000000Y-35000000D03*
X47500000Y-39000000D03*
X44250000Y-30750000D03*
X35750000Y-63000000D03*
X53750000Y-53250000D03*
X44250000Y-50250000D03*
X68250000Y-31500000D03*
X44250000Y-43750000D03*
X69250000Y-70500000D03*
X58750000Y-27500000D03*
X32000000Y-32250000D03*
X35750000Y-60000000D03*
X51000000Y-45000000D03*
X47500000Y-32500000D03*
X73250000Y-53000000D03*
X70250000Y-53000000D03*
X32000000Y-45500000D03*
X52750000Y-62250000D03*
X32750000Y-61500000D03*
X35750000Y-45500000D03*
X35750000Y-41500000D03*
X35750000Y-32250000D03*
X34250000Y-61500000D03*
X47500000Y-35500000D03*
X35750000Y-35000000D03*
X70250000Y-50000000D03*
X53750000Y-50750000D03*
X64250000Y-35250000D03*
X51000000Y-46000000D03*
X52000000Y-44000000D03*
X51000000Y-44000000D03*
%TO.N,+3.3V*%
X55500000Y-32750000D03*
X53500000Y-42750000D03*
X55500000Y-34000000D03*
X55500000Y-39000000D03*
X53500000Y-44750000D03*
X53500000Y-43750000D03*
X55500000Y-35250000D03*
%TO.N,SEG1_DP*%
X51000000Y-56750000D03*
X46772332Y-56107760D03*
%TO.N,SEG1_F*%
X46720023Y-57220023D03*
X49750000Y-55750000D03*
%TO.N,SEG1_G*%
X46750000Y-58250000D03*
X49750000Y-56750000D03*
%TO.N,SEG2_B*%
X59250000Y-53750000D03*
X55500000Y-56250000D03*
%TO.N,SEG2_A*%
X59041460Y-55208540D03*
X55500000Y-57500000D03*
%TD*%
D20*
%TO.N,GND*%
X55070000Y-50750000D02*
X53750000Y-50750000D01*
X55070000Y-53250000D02*
X53750000Y-53250000D01*
X49930000Y-53250000D02*
X51250000Y-53250000D01*
D21*
X44250000Y-31490000D02*
X44250000Y-30750000D01*
X44250000Y-50990000D02*
X44250000Y-50250000D01*
X44250000Y-37990000D02*
X44250000Y-37250000D01*
X44250000Y-44490000D02*
X44250000Y-43750000D01*
D20*
%TO.N,/I2C PWM IO Expander/TLC59116_RESETn*%
X55070000Y-50250000D02*
X57500000Y-47820000D01*
X57500000Y-47820000D02*
X57500000Y-37250000D01*
%TO.N,+3.3V*%
X53250000Y-49430000D02*
X53250000Y-47020000D01*
X53250000Y-47020000D02*
X53230000Y-47000000D01*
%TO.N,/I2C PWM IO Expander/I2C1_SCL*%
X55250000Y-42542894D02*
X55250000Y-48430000D01*
X51500000Y-38792894D02*
X55250000Y-42542894D01*
X51500000Y-37250000D02*
X51500000Y-38792894D01*
X55250000Y-48430000D02*
X54250000Y-49430000D01*
%TO.N,/I2C PWM IO Expander/I2C1_SDA*%
X54750000Y-47977035D02*
X54750000Y-42750000D01*
X49500000Y-37500000D02*
X49500000Y-37250000D01*
X54750000Y-42750000D02*
X49500000Y-37500000D01*
X53750000Y-49430000D02*
X53750000Y-48977035D01*
X53750000Y-48977035D02*
X54750000Y-47977035D01*
%TO.N,SEG1_E*%
X49000000Y-71000000D02*
X41750000Y-78250000D01*
X41750000Y-78250000D02*
X33040000Y-78250000D01*
X33040000Y-78250000D02*
X30790000Y-76000000D01*
X49930000Y-53750000D02*
X49000000Y-54680000D01*
X49000000Y-54680000D02*
X49000000Y-71000000D01*
%TO.N,SEG1_D*%
X48500000Y-70792894D02*
X41542894Y-77750000D01*
X49477035Y-52750000D02*
X48500000Y-53727035D01*
X41542894Y-77750000D02*
X35080000Y-77750000D01*
X49930000Y-52750000D02*
X49477035Y-52750000D01*
X48500000Y-53727035D02*
X48500000Y-70792894D01*
X35080000Y-77750000D02*
X33330000Y-76000000D01*
%TO.N,SEG1_C*%
X48000000Y-70585788D02*
X41335788Y-77250000D01*
X49269929Y-52250000D02*
X48000000Y-53519929D01*
X48000000Y-53519929D02*
X48000000Y-70585788D01*
X49930000Y-52250000D02*
X49269929Y-52250000D01*
X41335788Y-77250000D02*
X37120000Y-77250000D01*
X37120000Y-77250000D02*
X35870000Y-76000000D01*
%TO.N,SEG2_E*%
X69130000Y-76000000D02*
X70830000Y-77700000D01*
X70830000Y-77700000D02*
X76747057Y-77700000D01*
X55522965Y-52750000D02*
X55070000Y-52750000D01*
X78000000Y-76447057D02*
X78000000Y-75227035D01*
X78000000Y-75227035D02*
X55522965Y-52750000D01*
X76747057Y-77700000D02*
X78000000Y-76447057D01*
%TO.N,SEG2_D*%
X74707057Y-77200000D02*
X75410000Y-76497057D01*
X75410000Y-73660000D02*
X55500000Y-53750000D01*
X75410000Y-76497057D02*
X75410000Y-73660000D01*
X72870000Y-77200000D02*
X74707057Y-77200000D01*
X71670000Y-76000000D02*
X72870000Y-77200000D01*
X55500000Y-53750000D02*
X55070000Y-53750000D01*
%TO.N,SEG2_C*%
X74210000Y-73167106D02*
X74210000Y-76000000D01*
X54250000Y-54570000D02*
X55612894Y-54570000D01*
X55612894Y-54570000D02*
X74210000Y-73167106D01*
%TO.N,SEG1_B*%
X38250000Y-54628682D02*
X40621318Y-57000000D01*
X42950000Y-57000000D02*
X48200000Y-51750000D01*
X38410000Y-28000000D02*
X38250000Y-28160000D01*
X48200000Y-51750000D02*
X49930000Y-51750000D01*
X40621318Y-57000000D02*
X42950000Y-57000000D01*
X38250000Y-28160000D02*
X38250000Y-54628682D01*
%TO.N,SEG1_A*%
X40250000Y-27440000D02*
X40250000Y-55250000D01*
X39060000Y-26250000D02*
X40250000Y-27440000D01*
X37620000Y-26250000D02*
X39060000Y-26250000D01*
X42742894Y-56500000D02*
X47992894Y-51250000D01*
X40250000Y-55250000D02*
X41500000Y-56500000D01*
X41500000Y-56500000D02*
X42742894Y-56500000D01*
X47992894Y-51250000D02*
X49930000Y-51250000D01*
X35870000Y-28000000D02*
X37620000Y-26250000D01*
%TO.N,SEG1_DP*%
X51000000Y-56750000D02*
X51750000Y-56000000D01*
X46772332Y-56107760D02*
X44633413Y-56107760D01*
X44633413Y-56107760D02*
X43241173Y-57500000D01*
X33330000Y-50415788D02*
X33330000Y-28000000D01*
X40414212Y-57500000D02*
X33330000Y-50415788D01*
X51750000Y-56000000D02*
X51750000Y-54570000D01*
X43241173Y-57500000D02*
X40414212Y-57500000D01*
%TO.N,SEG1_F*%
X50750000Y-54750000D02*
X49750000Y-55750000D01*
X30750000Y-48542894D02*
X30750000Y-28040000D01*
X44529977Y-57220023D02*
X43750000Y-58000000D01*
X46720023Y-57220023D02*
X44529977Y-57220023D01*
X50750000Y-54570000D02*
X50750000Y-54750000D01*
X30750000Y-28040000D02*
X30790000Y-28000000D01*
X43750000Y-58000000D02*
X40207106Y-58000000D01*
X40207106Y-58000000D02*
X30750000Y-48542894D01*
%TO.N,SEG1_G*%
X46500000Y-58500000D02*
X40000000Y-58500000D01*
X51250000Y-54570000D02*
X51250000Y-55310661D01*
X30000000Y-29750000D02*
X28250000Y-28000000D01*
X40000000Y-58500000D02*
X30000000Y-48500000D01*
X49810661Y-56750000D02*
X49750000Y-56750000D01*
X30000000Y-48500000D02*
X30000000Y-29750000D01*
X46750000Y-58250000D02*
X46500000Y-58500000D01*
X51250000Y-55310661D02*
X49810661Y-56750000D01*
%TO.N,SEG2_B*%
X63000000Y-41750000D02*
X76750000Y-28000000D01*
X55500000Y-56250000D02*
X54937106Y-56250000D01*
X63000000Y-46601389D02*
X63000000Y-41750000D01*
X59250000Y-50351389D02*
X63000000Y-46601389D01*
X54937106Y-56250000D02*
X53750000Y-55062894D01*
X59250000Y-53750000D02*
X59250000Y-50351389D01*
X53750000Y-55062894D02*
X53750000Y-54570000D01*
%TO.N,SEG2_A*%
X53250000Y-55270000D02*
X53250000Y-54570000D01*
X74210000Y-28000000D02*
X62500000Y-39710000D01*
X57750000Y-53917080D02*
X59041460Y-55208540D01*
X55480000Y-57500000D02*
X53250000Y-55270000D01*
X55500000Y-57500000D02*
X55480000Y-57500000D01*
X62500000Y-39710000D02*
X62500000Y-46394283D01*
X57750000Y-51144284D02*
X57750000Y-53917080D01*
X62500000Y-46394283D02*
X57750000Y-51144284D01*
%TO.N,SEG2_DP*%
X64000000Y-26250000D02*
X61000000Y-29250000D01*
X71670000Y-28000000D02*
X69920000Y-26250000D01*
X61000000Y-29250000D02*
X61000000Y-45772965D01*
X69920000Y-26250000D02*
X64000000Y-26250000D01*
X55522965Y-51250000D02*
X55070000Y-51250000D01*
X61000000Y-45772965D02*
X55522965Y-51250000D01*
%TO.N,SEG2_F*%
X55070000Y-52250000D02*
X55937178Y-52250000D01*
X62000000Y-46187177D02*
X62000000Y-35130000D01*
X62000000Y-35130000D02*
X69130000Y-28000000D01*
X55937178Y-52250000D02*
X62000000Y-46187177D01*
%TO.N,SEG2_G*%
X61500000Y-45980071D02*
X55730071Y-51750000D01*
X66590000Y-28000000D02*
X61500000Y-33090000D01*
X55730071Y-51750000D02*
X55070000Y-51750000D01*
X61500000Y-33090000D02*
X61500000Y-45980071D01*
%TO.N,/I2C PWM IO Expander/REXT*%
X51750000Y-48760000D02*
X51000000Y-48010000D01*
X51750000Y-49430000D02*
X51750000Y-48760000D01*
D22*
%TO.N,/I2C PWM IO Expander/A0*%
X45750000Y-34010000D02*
X44250000Y-32510000D01*
X51250000Y-49430000D02*
X51250000Y-49012391D01*
X51250000Y-49012391D02*
X50942609Y-48705000D01*
X44225000Y-32485000D02*
X41750000Y-32485000D01*
X50942609Y-48705000D02*
X50455000Y-48705000D01*
X50455000Y-48705000D02*
X45750000Y-44000000D01*
X44250000Y-32510000D02*
X44225000Y-32485000D01*
X45750000Y-44000000D02*
X45750000Y-34010000D01*
%TO.N,/I2C PWM IO Expander/A1*%
X48806396Y-49430000D02*
X45250000Y-45873604D01*
X50750000Y-49430000D02*
X48806396Y-49430000D01*
X45250000Y-45873604D02*
X45250000Y-40010000D01*
X45250000Y-40010000D02*
X44250000Y-39010000D01*
D20*
X41775000Y-39010000D02*
X41750000Y-38985000D01*
X44250000Y-39010000D02*
X41775000Y-39010000D01*
D22*
%TO.N,/I2C PWM IO Expander/A3*%
X44225000Y-51985000D02*
X41750000Y-51985000D01*
X49930000Y-50750000D02*
X45510000Y-50750000D01*
X45510000Y-50750000D02*
X44250000Y-52010000D01*
X44250000Y-52010000D02*
X44225000Y-51985000D01*
%TO.N,/I2C PWM IO Expander/A2*%
X44225000Y-45485000D02*
X41750000Y-45485000D01*
X44250000Y-45510000D02*
X44225000Y-45485000D01*
X48990000Y-50250000D02*
X44250000Y-45510000D01*
X49930000Y-50250000D02*
X48990000Y-50250000D01*
D23*
%TO.N,/Segment Display Connectors/5V_CONN1*%
X28250000Y-72962500D02*
X28250000Y-76000000D01*
D21*
X28500000Y-75750000D02*
X28250000Y-76000000D01*
D23*
%TO.N,/Segment Display Connectors/5V_CONN2*%
X66500000Y-75910000D02*
X66590000Y-76000000D01*
X66500000Y-72712500D02*
X66500000Y-75910000D01*
X66750000Y-75840000D02*
X66590000Y-76000000D01*
%TD*%
%TA.AperFunction,Conductor*%
%TO.N,+5V*%
G36*
X54437539Y-31019685D02*
G01*
X54483294Y-31072489D01*
X54494500Y-31124000D01*
X54494500Y-36466724D01*
X54474815Y-36533763D01*
X54472076Y-36537846D01*
X54412897Y-36622363D01*
X54320426Y-36820668D01*
X54320422Y-36820677D01*
X54263793Y-37032020D01*
X54263793Y-37032024D01*
X54244723Y-37249997D01*
X54244723Y-37250002D01*
X54263793Y-37467975D01*
X54263793Y-37467979D01*
X54320422Y-37679322D01*
X54320424Y-37679326D01*
X54320425Y-37679330D01*
X54344383Y-37730708D01*
X54412897Y-37877638D01*
X54412898Y-37877639D01*
X54472075Y-37962152D01*
X54494402Y-38028357D01*
X54494500Y-38033275D01*
X54494500Y-39876000D01*
X54474815Y-39943039D01*
X54422011Y-39988794D01*
X54370500Y-40000000D01*
X53678414Y-40000000D01*
X53611375Y-39980315D01*
X53590733Y-39963681D01*
X52186819Y-38559767D01*
X52153334Y-38498444D01*
X52150500Y-38472086D01*
X52150500Y-38385644D01*
X52170185Y-38318605D01*
X52203377Y-38284069D01*
X52297264Y-38218329D01*
X52306877Y-38211598D01*
X52461598Y-38056877D01*
X52587102Y-37877639D01*
X52679575Y-37679330D01*
X52736207Y-37467977D01*
X52752836Y-37277900D01*
X52755277Y-37250002D01*
X52755277Y-37249997D01*
X52743915Y-37120131D01*
X52736207Y-37032023D01*
X52679575Y-36820670D01*
X52587102Y-36622362D01*
X52587100Y-36622359D01*
X52587099Y-36622357D01*
X52461599Y-36443124D01*
X52411959Y-36393484D01*
X52306877Y-36288402D01*
X52168978Y-36191844D01*
X52127638Y-36162897D01*
X51929330Y-36070425D01*
X51841904Y-36046998D01*
X51782245Y-36010632D01*
X51751717Y-35947785D01*
X51750000Y-35927224D01*
X51750000Y-31124000D01*
X51769685Y-31056961D01*
X51822489Y-31011206D01*
X51874000Y-31000000D01*
X54370500Y-31000000D01*
X54437539Y-31019685D01*
G37*
%TD.AperFunction*%
%TD*%
%TA.AperFunction,Conductor*%
%TO.N,+3.3V*%
G36*
X53378574Y-42019685D02*
G01*
X53399216Y-42036319D01*
X54213681Y-42850784D01*
X54247166Y-42912107D01*
X54250000Y-42938465D01*
X54250000Y-47376000D01*
X54230315Y-47443039D01*
X54177511Y-47488794D01*
X54126000Y-47500000D01*
X53500000Y-47500000D01*
X53500000Y-48538568D01*
X53480315Y-48605607D01*
X53463681Y-48626249D01*
X53451804Y-48638127D01*
X53446617Y-48642762D01*
X53416033Y-48667152D01*
X53416029Y-48667156D01*
X53382519Y-48716306D01*
X53347206Y-48764153D01*
X53343216Y-48771702D01*
X53339527Y-48779361D01*
X53321991Y-48836214D01*
X53313066Y-48861719D01*
X53272343Y-48918495D01*
X53207390Y-48944241D01*
X53138829Y-48930784D01*
X53105127Y-48905105D01*
X53033102Y-48827481D01*
X53001933Y-48764948D01*
X53000000Y-48743139D01*
X53000000Y-48000000D01*
X52999861Y-47999861D01*
X52933295Y-47980315D01*
X52887540Y-47927511D01*
X52877596Y-47858353D01*
X52906620Y-47794799D01*
X52917892Y-47781788D01*
X52925258Y-47773288D01*
X52985026Y-47642409D01*
X53005500Y-47499993D01*
X53005499Y-47430605D01*
X52991529Y-47318670D01*
X52992115Y-47315070D01*
X52991502Y-47312099D01*
X52989996Y-47306383D01*
X52989995Y-47306381D01*
X52989995Y-47306378D01*
X52988039Y-47301634D01*
X52985821Y-47295303D01*
X52982932Y-47285360D01*
X52982933Y-47285360D01*
X52959924Y-47206164D01*
X52955000Y-47171569D01*
X52955000Y-46828429D01*
X52959923Y-46793835D01*
X52980094Y-46724406D01*
X52982764Y-46717004D01*
X52985024Y-46711802D01*
X53005500Y-46569386D01*
X53005500Y-46180612D01*
X52991521Y-46068696D01*
X52992110Y-46065076D01*
X52991462Y-46061935D01*
X52989971Y-46056279D01*
X52989970Y-46056276D01*
X52988008Y-46051521D01*
X52985785Y-46045176D01*
X52982933Y-46035361D01*
X52982934Y-46035361D01*
X52959924Y-45956163D01*
X52955000Y-45921567D01*
X52955000Y-45578427D01*
X52959922Y-45543839D01*
X52980097Y-45474396D01*
X52982762Y-45467008D01*
X52985024Y-45461803D01*
X53005500Y-45319387D01*
X53005500Y-43500000D01*
X53000355Y-43428060D01*
X52959819Y-43290008D01*
X52882031Y-43168968D01*
X52823176Y-43117969D01*
X52792797Y-43091645D01*
X52755023Y-43032867D01*
X52750000Y-42997933D01*
X52750000Y-42124000D01*
X52769685Y-42056961D01*
X52822489Y-42011206D01*
X52874000Y-42000000D01*
X53311535Y-42000000D01*
X53378574Y-42019685D01*
G37*
%TD.AperFunction*%
%TD*%
%TA.AperFunction,Conductor*%
%TO.N,GND*%
G36*
X52500000Y-45319387D02*
G01*
X52497505Y-45323606D01*
X52497504Y-45323609D01*
X52452357Y-45479002D01*
X52452356Y-45479008D01*
X52449500Y-45515308D01*
X52449500Y-45984692D01*
X52452356Y-46020991D01*
X52452357Y-46020997D01*
X52497504Y-46176390D01*
X52497507Y-46176397D01*
X52500000Y-46180612D01*
X52500000Y-46569386D01*
X52497507Y-46573602D01*
X52497504Y-46573609D01*
X52452357Y-46729002D01*
X52452356Y-46729008D01*
X52449500Y-46765308D01*
X52449500Y-47234692D01*
X52452356Y-47270991D01*
X52452357Y-47270997D01*
X52497504Y-47426390D01*
X52497505Y-47426393D01*
X52497506Y-47426395D01*
X52499999Y-47430612D01*
X52500000Y-47500000D01*
X51701542Y-47500000D01*
X51691135Y-47482402D01*
X51691133Y-47482400D01*
X51691130Y-47482396D01*
X51577603Y-47368869D01*
X51577595Y-47368863D01*
X51439393Y-47287131D01*
X51439388Y-47287129D01*
X51285208Y-47242335D01*
X51285202Y-47242334D01*
X51249183Y-47239500D01*
X51249181Y-47239500D01*
X50916693Y-47239500D01*
X50750819Y-47239501D01*
X50714794Y-47242335D01*
X50560611Y-47287129D01*
X50560606Y-47287131D01*
X50422404Y-47368863D01*
X50422396Y-47368869D01*
X50303348Y-47487918D01*
X50301673Y-47486243D01*
X50282618Y-47500000D01*
X50250000Y-47500000D01*
X50250000Y-43500000D01*
X52500000Y-43500000D01*
X52500000Y-45319387D01*
G37*
%TD.AperFunction*%
%TD*%
%TA.AperFunction,Conductor*%
%TO.N,+5V*%
G36*
X34693039Y-67019685D02*
G01*
X34738794Y-67072489D01*
X34750000Y-67124000D01*
X34750000Y-71376000D01*
X34730315Y-71443039D01*
X34677511Y-71488794D01*
X34626000Y-71500000D01*
X28612336Y-71500000D01*
X28591927Y-71498309D01*
X28374335Y-71462000D01*
X28125665Y-71462000D01*
X27908073Y-71498309D01*
X27887664Y-71500000D01*
X26874000Y-71500000D01*
X26806961Y-71480315D01*
X26761206Y-71427511D01*
X26750000Y-71376000D01*
X26750000Y-67124000D01*
X26769685Y-67056961D01*
X26822489Y-67011206D01*
X26874000Y-67000000D01*
X34626000Y-67000000D01*
X34693039Y-67019685D01*
G37*
%TD.AperFunction*%
%TD*%
%TA.AperFunction,Conductor*%
%TO.N,GND*%
G36*
X48750000Y-36248575D02*
G01*
X48693121Y-36288402D01*
X48538402Y-36443121D01*
X48412900Y-36622357D01*
X48412898Y-36622361D01*
X48320426Y-36820668D01*
X48320422Y-36820677D01*
X48263793Y-37032020D01*
X48263793Y-37032024D01*
X48244723Y-37249997D01*
X48244723Y-37250002D01*
X48263793Y-37467975D01*
X48263793Y-37467979D01*
X48320422Y-37679322D01*
X48320424Y-37679326D01*
X48320425Y-37679330D01*
X48366661Y-37778484D01*
X48412897Y-37877638D01*
X48412898Y-37877639D01*
X48538402Y-38056877D01*
X48693123Y-38211598D01*
X48750000Y-38251423D01*
X48750000Y-40000000D01*
X46375500Y-40000000D01*
X46375500Y-34092737D01*
X46377224Y-34077123D01*
X46376938Y-34077096D01*
X46377672Y-34069333D01*
X46375500Y-34000203D01*
X46375500Y-33970651D01*
X46375500Y-33970650D01*
X46374629Y-33963759D01*
X46374172Y-33957945D01*
X46372709Y-33911373D01*
X46367121Y-33892139D01*
X46363174Y-33873081D01*
X46360664Y-33853208D01*
X46343507Y-33809875D01*
X46341614Y-33804346D01*
X46328618Y-33759614D01*
X46328617Y-33759610D01*
X46318420Y-33742368D01*
X46309863Y-33724902D01*
X46302486Y-33706268D01*
X46275083Y-33668550D01*
X46271900Y-33663705D01*
X46250000Y-33626673D01*
X46250000Y-31000000D01*
X48750000Y-31000000D01*
X48750000Y-36248575D01*
G37*
%TD.AperFunction*%
%TD*%
%TA.AperFunction,Conductor*%
%TO.N,+3.3V*%
G36*
X56693039Y-31019685D02*
G01*
X56738794Y-31072489D01*
X56750000Y-31124000D01*
X56750000Y-36184025D01*
X56730315Y-36251064D01*
X56697132Y-36285594D01*
X56693129Y-36288397D01*
X56693125Y-36288400D01*
X56538400Y-36443124D01*
X56412900Y-36622357D01*
X56412898Y-36622361D01*
X56320426Y-36820668D01*
X56320422Y-36820677D01*
X56263793Y-37032020D01*
X56263793Y-37032024D01*
X56244723Y-37249997D01*
X56244723Y-37250002D01*
X56263793Y-37467975D01*
X56263793Y-37467979D01*
X56320422Y-37679322D01*
X56320424Y-37679326D01*
X56320425Y-37679330D01*
X56358228Y-37760398D01*
X56412897Y-37877638D01*
X56412898Y-37877639D01*
X56538402Y-38056877D01*
X56619072Y-38137547D01*
X56693125Y-38211600D01*
X56697121Y-38214398D01*
X56740747Y-38268974D01*
X56750000Y-38315974D01*
X56750000Y-39876000D01*
X56730315Y-39943039D01*
X56677511Y-39988794D01*
X56626000Y-40000000D01*
X55124000Y-40000000D01*
X55056961Y-39980315D01*
X55011206Y-39927511D01*
X55000000Y-39876000D01*
X55000000Y-31124000D01*
X55019685Y-31056961D01*
X55072489Y-31011206D01*
X55124000Y-31000000D01*
X56626000Y-31000000D01*
X56693039Y-31019685D01*
G37*
%TD.AperFunction*%
%TD*%
%TA.AperFunction,Conductor*%
%TO.N,+5V*%
G36*
X66888625Y-66769685D02*
G01*
X66909267Y-66786319D01*
X67963681Y-67840733D01*
X67997166Y-67902056D01*
X68000000Y-67928414D01*
X68000000Y-71126000D01*
X67980315Y-71193039D01*
X67927511Y-71238794D01*
X67876000Y-71250000D01*
X66862336Y-71250000D01*
X66841927Y-71248309D01*
X66624335Y-71212000D01*
X66375665Y-71212000D01*
X66158073Y-71248309D01*
X66137664Y-71250000D01*
X60624000Y-71250000D01*
X60556961Y-71230315D01*
X60511206Y-71177511D01*
X60500000Y-71126000D01*
X60500000Y-66874000D01*
X60519685Y-66806961D01*
X60572489Y-66761206D01*
X60624000Y-66750000D01*
X66821586Y-66750000D01*
X66888625Y-66769685D01*
G37*
%TD.AperFunction*%
%TD*%
%TA.AperFunction,Conductor*%
%TO.N,GND*%
G36*
X37223214Y-25520185D02*
G01*
X37268969Y-25572989D01*
X37278913Y-25642147D01*
X37249888Y-25705703D01*
X37224262Y-25727087D01*
X37224300Y-25727136D01*
X37222952Y-25728181D01*
X37219298Y-25731231D01*
X37218136Y-25731917D01*
X37203124Y-25746929D01*
X37188336Y-25759558D01*
X37171167Y-25772032D01*
X37171165Y-25772034D01*
X37140194Y-25809470D01*
X37136262Y-25813791D01*
X36297762Y-26652290D01*
X36236439Y-26685775D01*
X36177989Y-26684384D01*
X36105416Y-26664939D01*
X36105412Y-26664938D01*
X36105408Y-26664937D01*
X36105406Y-26664936D01*
X36105403Y-26664936D01*
X35870001Y-26644341D01*
X35869999Y-26644341D01*
X35634596Y-26664936D01*
X35634586Y-26664938D01*
X35406344Y-26726094D01*
X35406335Y-26726098D01*
X35192171Y-26825964D01*
X35192169Y-26825965D01*
X34998597Y-26961505D01*
X34831505Y-27128597D01*
X34701575Y-27314158D01*
X34646998Y-27357783D01*
X34577500Y-27364977D01*
X34515145Y-27333454D01*
X34498425Y-27314158D01*
X34368494Y-27128597D01*
X34201402Y-26961506D01*
X34201395Y-26961501D01*
X34199528Y-26960194D01*
X34124518Y-26907671D01*
X34007834Y-26825967D01*
X34007830Y-26825965D01*
X33955043Y-26801350D01*
X33793663Y-26726097D01*
X33793659Y-26726096D01*
X33793655Y-26726094D01*
X33565413Y-26664938D01*
X33565403Y-26664936D01*
X33330001Y-26644341D01*
X33329999Y-26644341D01*
X33094596Y-26664936D01*
X33094586Y-26664938D01*
X32866344Y-26726094D01*
X32866335Y-26726098D01*
X32652171Y-26825964D01*
X32652169Y-26825965D01*
X32458597Y-26961505D01*
X32291508Y-27128594D01*
X32161574Y-27314159D01*
X32106997Y-27357784D01*
X32037498Y-27364976D01*
X31975144Y-27333454D01*
X31958424Y-27314158D01*
X31953889Y-27307682D01*
X31898836Y-27229057D01*
X31828494Y-27128597D01*
X31661402Y-26961506D01*
X31661395Y-26961501D01*
X31659528Y-26960194D01*
X31584518Y-26907671D01*
X31467834Y-26825967D01*
X31467830Y-26825965D01*
X31415043Y-26801350D01*
X31253663Y-26726097D01*
X31253659Y-26726096D01*
X31253655Y-26726094D01*
X31025413Y-26664938D01*
X31025403Y-26664936D01*
X30790001Y-26644341D01*
X30789999Y-26644341D01*
X30554596Y-26664936D01*
X30554586Y-26664938D01*
X30326344Y-26726094D01*
X30326335Y-26726098D01*
X30112171Y-26825964D01*
X30112169Y-26825965D01*
X29918597Y-26961505D01*
X29751505Y-27128597D01*
X29621575Y-27314158D01*
X29566998Y-27357783D01*
X29497500Y-27364977D01*
X29435145Y-27333454D01*
X29418425Y-27314158D01*
X29288494Y-27128597D01*
X29121402Y-26961506D01*
X29121395Y-26961501D01*
X29119528Y-26960194D01*
X29044518Y-26907671D01*
X28927834Y-26825967D01*
X28927830Y-26825965D01*
X28875043Y-26801350D01*
X28713663Y-26726097D01*
X28713659Y-26726096D01*
X28713655Y-26726094D01*
X28485413Y-26664938D01*
X28485403Y-26664936D01*
X28250001Y-26644341D01*
X28249999Y-26644341D01*
X28014596Y-26664936D01*
X28014586Y-26664938D01*
X27786344Y-26726094D01*
X27786335Y-26726098D01*
X27572171Y-26825964D01*
X27572169Y-26825965D01*
X27378597Y-26961505D01*
X27211505Y-27128597D01*
X27075965Y-27322169D01*
X27075964Y-27322171D01*
X26976098Y-27536335D01*
X26976094Y-27536344D01*
X26914938Y-27764586D01*
X26914936Y-27764596D01*
X26894341Y-27999999D01*
X26894341Y-28000000D01*
X26914936Y-28235403D01*
X26914938Y-28235413D01*
X26976094Y-28463655D01*
X26976096Y-28463659D01*
X26976097Y-28463663D01*
X26980000Y-28472032D01*
X27075965Y-28677830D01*
X27075967Y-28677834D01*
X27174789Y-28818965D01*
X27211505Y-28871401D01*
X27378599Y-29038495D01*
X27475384Y-29106264D01*
X27572165Y-29174032D01*
X27572167Y-29174033D01*
X27572170Y-29174035D01*
X27786337Y-29273903D01*
X27786343Y-29273904D01*
X27786344Y-29273905D01*
X27841285Y-29288626D01*
X28014592Y-29335063D01*
X28191034Y-29350500D01*
X28249999Y-29355659D01*
X28250000Y-29355659D01*
X28250001Y-29355659D01*
X28308966Y-29350500D01*
X28485408Y-29335063D01*
X28557989Y-29315615D01*
X28627839Y-29317278D01*
X28677763Y-29347709D01*
X29313181Y-29983126D01*
X29346666Y-30044449D01*
X29349500Y-30070807D01*
X29349500Y-48414494D01*
X29347732Y-48430505D01*
X29347974Y-48430528D01*
X29347240Y-48438294D01*
X29349500Y-48510203D01*
X29349500Y-48540920D01*
X29349501Y-48540940D01*
X29350418Y-48548206D01*
X29350876Y-48554024D01*
X29352402Y-48602567D01*
X29352403Y-48602570D01*
X29358323Y-48622948D01*
X29362268Y-48641996D01*
X29364928Y-48663054D01*
X29364931Y-48663064D01*
X29382813Y-48708230D01*
X29384705Y-48713758D01*
X29398254Y-48760395D01*
X29398255Y-48760397D01*
X29409060Y-48778666D01*
X29417617Y-48796134D01*
X29420805Y-48804184D01*
X29425432Y-48815872D01*
X29453983Y-48855170D01*
X29457188Y-48860049D01*
X29481919Y-48901865D01*
X29481923Y-48901869D01*
X29496925Y-48916871D01*
X29509563Y-48931669D01*
X29522033Y-48948833D01*
X29522036Y-48948836D01*
X29522037Y-48948837D01*
X29559476Y-48979809D01*
X29563776Y-48983722D01*
X34698331Y-54118277D01*
X39479564Y-58899510D01*
X39489635Y-58912080D01*
X39489822Y-58911926D01*
X39494796Y-58917937D01*
X39494798Y-58917940D01*
X39523345Y-58944748D01*
X39547243Y-58967190D01*
X39568966Y-58988912D01*
X39574758Y-58993405D01*
X39579198Y-58997198D01*
X39595260Y-59012280D01*
X39614607Y-59030448D01*
X39633198Y-59040668D01*
X39649463Y-59051352D01*
X39666234Y-59064361D01*
X39666237Y-59064363D01*
X39710827Y-59083658D01*
X39716056Y-59086220D01*
X39758632Y-59109627D01*
X39779193Y-59114905D01*
X39797597Y-59121207D01*
X39817074Y-59129636D01*
X39854927Y-59135630D01*
X39865054Y-59137235D01*
X39870764Y-59138417D01*
X39917823Y-59150500D01*
X39939045Y-59150500D01*
X39958442Y-59152026D01*
X39979405Y-59155347D01*
X40027772Y-59150774D01*
X40033609Y-59150500D01*
X46414495Y-59150500D01*
X46430505Y-59152267D01*
X46430528Y-59152026D01*
X46438289Y-59152758D01*
X46438296Y-59152760D01*
X46510203Y-59150500D01*
X46540925Y-59150500D01*
X46548190Y-59149581D01*
X46554016Y-59149122D01*
X46602569Y-59147597D01*
X46602569Y-59147596D01*
X46610368Y-59147352D01*
X46610383Y-59147853D01*
X46647468Y-59148823D01*
X46655354Y-59150500D01*
X46655357Y-59150500D01*
X46844644Y-59150500D01*
X46844646Y-59150500D01*
X47029803Y-59111144D01*
X47175067Y-59046467D01*
X47244313Y-59037182D01*
X47307590Y-59066810D01*
X47344804Y-59125945D01*
X47349500Y-59159747D01*
X47349500Y-70264979D01*
X47329815Y-70332018D01*
X47313181Y-70352660D01*
X41102661Y-76563181D01*
X41041338Y-76596666D01*
X41014980Y-76599500D01*
X39809106Y-76599500D01*
X39742067Y-76579815D01*
X39696312Y-76527011D01*
X39686368Y-76457853D01*
X39689331Y-76443407D01*
X39726423Y-76304973D01*
X39745063Y-76235408D01*
X39765659Y-76000000D01*
X39745063Y-75764592D01*
X39683903Y-75536337D01*
X39584035Y-75322171D01*
X39578425Y-75314158D01*
X39448494Y-75128597D01*
X39281402Y-74961506D01*
X39281395Y-74961501D01*
X39262626Y-74948359D01*
X39209507Y-74911164D01*
X39087834Y-74825967D01*
X39087830Y-74825965D01*
X39022208Y-74795365D01*
X38873663Y-74726097D01*
X38873659Y-74726096D01*
X38873655Y-74726094D01*
X38645413Y-74664938D01*
X38645403Y-74664936D01*
X38410001Y-74644341D01*
X38409999Y-74644341D01*
X38174596Y-74664936D01*
X38174586Y-74664938D01*
X37946344Y-74726094D01*
X37946335Y-74726098D01*
X37732171Y-74825964D01*
X37732169Y-74825965D01*
X37538597Y-74961505D01*
X37371505Y-75128597D01*
X37241575Y-75314158D01*
X37186998Y-75357783D01*
X37117500Y-75364977D01*
X37055145Y-75333454D01*
X37038425Y-75314158D01*
X36908494Y-75128597D01*
X36741402Y-74961506D01*
X36741395Y-74961501D01*
X36722626Y-74948359D01*
X36669507Y-74911164D01*
X36547834Y-74825967D01*
X36547830Y-74825965D01*
X36482208Y-74795365D01*
X36333663Y-74726097D01*
X36333659Y-74726096D01*
X36333655Y-74726094D01*
X36105413Y-74664938D01*
X36105403Y-74664936D01*
X35870001Y-74644341D01*
X35869999Y-74644341D01*
X35634596Y-74664936D01*
X35634586Y-74664938D01*
X35406344Y-74726094D01*
X35406335Y-74726098D01*
X35192171Y-74825964D01*
X35192169Y-74825965D01*
X34998597Y-74961505D01*
X34831505Y-75128597D01*
X34701575Y-75314158D01*
X34646998Y-75357783D01*
X34577500Y-75364977D01*
X34515145Y-75333454D01*
X34498425Y-75314158D01*
X34368494Y-75128597D01*
X34201402Y-74961506D01*
X34201395Y-74961501D01*
X34182626Y-74948359D01*
X34129507Y-74911164D01*
X34007834Y-74825967D01*
X34007830Y-74825965D01*
X33942208Y-74795365D01*
X33793663Y-74726097D01*
X33793659Y-74726096D01*
X33793655Y-74726094D01*
X33565413Y-74664938D01*
X33565403Y-74664936D01*
X33330001Y-74644341D01*
X33329999Y-74644341D01*
X33094596Y-74664936D01*
X33094586Y-74664938D01*
X32866344Y-74726094D01*
X32866335Y-74726098D01*
X32652171Y-74825964D01*
X32652169Y-74825965D01*
X32458597Y-74961505D01*
X32291508Y-75128594D01*
X32161574Y-75314159D01*
X32106997Y-75357784D01*
X32037498Y-75364976D01*
X31975144Y-75333454D01*
X31958424Y-75314158D01*
X31828494Y-75128597D01*
X31661402Y-74961506D01*
X31661395Y-74961501D01*
X31642626Y-74948359D01*
X31589507Y-74911164D01*
X31467834Y-74825967D01*
X31467830Y-74825965D01*
X31402208Y-74795365D01*
X31253663Y-74726097D01*
X31253659Y-74726096D01*
X31253655Y-74726094D01*
X31025413Y-74664938D01*
X31025403Y-74664936D01*
X30790001Y-74644341D01*
X30789999Y-74644341D01*
X30554596Y-74664936D01*
X30554586Y-74664938D01*
X30326344Y-74726094D01*
X30326335Y-74726098D01*
X30112171Y-74825964D01*
X30112169Y-74825965D01*
X29945623Y-74942582D01*
X29879417Y-74964909D01*
X29811650Y-74947899D01*
X29763837Y-74896951D01*
X29750500Y-74841007D01*
X29750500Y-74413129D01*
X29750500Y-73961863D01*
X29770183Y-73894828D01*
X29789388Y-73873658D01*
X29788549Y-73872819D01*
X29793656Y-73867712D01*
X29917712Y-73743656D01*
X30009814Y-73594334D01*
X30064999Y-73427797D01*
X30075500Y-73325009D01*
X30075499Y-72599992D01*
X30064999Y-72497203D01*
X30009814Y-72330666D01*
X29925886Y-72194596D01*
X29907446Y-72127204D01*
X29928369Y-72060541D01*
X29982011Y-72015771D01*
X30031425Y-72005500D01*
X34625990Y-72005500D01*
X34626000Y-72005500D01*
X34733456Y-71993947D01*
X34784967Y-71982741D01*
X34819197Y-71971347D01*
X34887497Y-71948616D01*
X34887501Y-71948613D01*
X34887504Y-71948613D01*
X35008543Y-71870825D01*
X35061347Y-71825070D01*
X35155567Y-71716336D01*
X35215338Y-71585459D01*
X35235023Y-71518420D01*
X35235024Y-71518416D01*
X35255500Y-71376000D01*
X35255500Y-67124000D01*
X35243947Y-67016544D01*
X35240348Y-66999999D01*
X39794564Y-66999999D01*
X39814289Y-67326099D01*
X39873178Y-67647452D01*
X39970366Y-67959342D01*
X39970370Y-67959354D01*
X39970373Y-67959361D01*
X40104455Y-68257279D01*
X40199934Y-68415220D01*
X40273473Y-68536868D01*
X40474954Y-68794039D01*
X40705960Y-69025045D01*
X40963131Y-69226526D01*
X40963134Y-69226528D01*
X40963137Y-69226530D01*
X41242721Y-69395545D01*
X41540639Y-69529627D01*
X41540652Y-69529631D01*
X41540657Y-69529633D01*
X41852546Y-69626821D01*
X41852547Y-69626821D01*
X42173896Y-69685710D01*
X42500000Y-69705436D01*
X42826104Y-69685710D01*
X43147453Y-69626821D01*
X43459361Y-69529627D01*
X43757279Y-69395545D01*
X44036863Y-69226530D01*
X44294036Y-69025048D01*
X44525048Y-68794036D01*
X44726530Y-68536863D01*
X44895545Y-68257279D01*
X45029627Y-67959361D01*
X45126821Y-67647453D01*
X45185710Y-67326104D01*
X45205436Y-67000000D01*
X45185710Y-66673896D01*
X45126821Y-66352547D01*
X45096753Y-66256054D01*
X45029633Y-66040657D01*
X45029631Y-66040652D01*
X45029627Y-66040639D01*
X44895545Y-65742721D01*
X44726530Y-65463137D01*
X44726528Y-65463134D01*
X44726526Y-65463131D01*
X44525045Y-65205960D01*
X44294039Y-64974954D01*
X44036868Y-64773473D01*
X44029306Y-64768901D01*
X43757279Y-64604455D01*
X43459361Y-64470373D01*
X43459354Y-64470370D01*
X43459342Y-64470366D01*
X43147452Y-64373178D01*
X42826099Y-64314289D01*
X42500000Y-64294564D01*
X42173900Y-64314289D01*
X41852547Y-64373178D01*
X41540657Y-64470366D01*
X41540641Y-64470372D01*
X41540639Y-64470373D01*
X41350933Y-64555752D01*
X41242725Y-64604453D01*
X41242723Y-64604454D01*
X40963131Y-64773473D01*
X40705960Y-64974954D01*
X40474954Y-65205960D01*
X40273473Y-65463131D01*
X40234144Y-65528190D01*
X40104455Y-65742721D01*
X39973893Y-66032819D01*
X39970372Y-66040642D01*
X39970366Y-66040657D01*
X39873178Y-66352547D01*
X39814289Y-66673900D01*
X39794564Y-66999999D01*
X35240348Y-66999999D01*
X35232741Y-66965033D01*
X35232637Y-66964722D01*
X35198616Y-66862502D01*
X35198613Y-66862496D01*
X35120828Y-66741462D01*
X35120825Y-66741457D01*
X35120820Y-66741451D01*
X35075076Y-66688659D01*
X35075072Y-66688656D01*
X35075070Y-66688653D01*
X34966336Y-66594433D01*
X34966333Y-66594431D01*
X34966331Y-66594430D01*
X34835465Y-66534664D01*
X34835460Y-66534662D01*
X34835459Y-66534662D01*
X34812858Y-66528025D01*
X34768425Y-66514978D01*
X34768419Y-66514976D01*
X34682966Y-66502690D01*
X34626000Y-66494500D01*
X26874000Y-66494500D01*
X26873991Y-66494500D01*
X26873990Y-66494501D01*
X26766549Y-66506052D01*
X26766537Y-66506054D01*
X26715027Y-66517260D01*
X26612502Y-66551383D01*
X26612496Y-66551386D01*
X26491462Y-66629171D01*
X26491451Y-66629179D01*
X26438659Y-66674923D01*
X26344433Y-66783664D01*
X26344430Y-66783668D01*
X26284664Y-66914534D01*
X26264978Y-66981575D01*
X26264976Y-66981580D01*
X26248595Y-67095516D01*
X26244500Y-67124000D01*
X26244500Y-71376000D01*
X26244501Y-71376009D01*
X26256052Y-71483450D01*
X26256054Y-71483462D01*
X26267260Y-71534972D01*
X26301383Y-71637497D01*
X26301386Y-71637503D01*
X26379171Y-71758537D01*
X26379179Y-71758548D01*
X26424923Y-71811340D01*
X26424926Y-71811343D01*
X26424930Y-71811347D01*
X26533664Y-71905567D01*
X26533667Y-71905568D01*
X26533668Y-71905569D01*
X26593907Y-71933080D01*
X26646711Y-71978835D01*
X26666395Y-72045875D01*
X26646710Y-72112914D01*
X26630077Y-72133554D01*
X26582289Y-72181342D01*
X26490187Y-72330663D01*
X26490185Y-72330666D01*
X26490186Y-72330666D01*
X26435001Y-72497203D01*
X26435001Y-72497204D01*
X26435000Y-72497204D01*
X26424500Y-72599983D01*
X26424500Y-73325001D01*
X26424501Y-73325019D01*
X26435000Y-73427796D01*
X26435001Y-73427799D01*
X26490185Y-73594331D01*
X26490187Y-73594336D01*
X26582289Y-73743657D01*
X26711451Y-73872819D01*
X26709563Y-73874706D01*
X26742784Y-73921616D01*
X26749499Y-73961867D01*
X26749500Y-76062065D01*
X26764890Y-76247813D01*
X26764892Y-76247824D01*
X26825936Y-76488879D01*
X26889056Y-76632779D01*
X26899500Y-76682588D01*
X26899500Y-76897869D01*
X26899501Y-76897876D01*
X26905908Y-76957483D01*
X26956202Y-77092328D01*
X26956206Y-77092335D01*
X27042452Y-77207544D01*
X27042455Y-77207547D01*
X27157664Y-77293793D01*
X27157671Y-77293797D01*
X27202618Y-77310560D01*
X27292517Y-77344091D01*
X27352127Y-77350500D01*
X27561441Y-77350499D01*
X27620458Y-77365443D01*
X27645190Y-77378828D01*
X27645193Y-77378829D01*
X27645195Y-77378830D01*
X27871609Y-77456558D01*
X27880386Y-77459571D01*
X28125665Y-77500500D01*
X28374335Y-77500500D01*
X28619614Y-77459571D01*
X28854810Y-77378828D01*
X28879541Y-77365443D01*
X28938559Y-77350499D01*
X29147871Y-77350499D01*
X29147872Y-77350499D01*
X29207483Y-77344091D01*
X29342331Y-77293796D01*
X29457546Y-77207546D01*
X29543796Y-77092331D01*
X29592810Y-76960916D01*
X29634681Y-76904984D01*
X29700145Y-76880566D01*
X29768418Y-76895417D01*
X29796672Y-76916569D01*
X29918599Y-77038495D01*
X30015384Y-77106264D01*
X30112165Y-77174032D01*
X30112167Y-77174033D01*
X30112170Y-77174035D01*
X30326337Y-77273903D01*
X30554592Y-77335063D01*
X30731034Y-77350500D01*
X30789999Y-77355659D01*
X30790000Y-77355659D01*
X30790001Y-77355659D01*
X30848966Y-77350500D01*
X31025408Y-77335063D01*
X31097989Y-77315615D01*
X31167839Y-77317278D01*
X31217763Y-77347709D01*
X32157873Y-78287819D01*
X32191358Y-78349142D01*
X32186374Y-78418834D01*
X32144502Y-78474767D01*
X32079038Y-78499184D01*
X32070192Y-78499500D01*
X28251878Y-78499500D01*
X28248133Y-78499387D01*
X27952465Y-78481502D01*
X27945026Y-78480598D01*
X27655516Y-78427543D01*
X27648240Y-78425750D01*
X27554858Y-78396651D01*
X27367244Y-78338188D01*
X27360248Y-78335534D01*
X27091846Y-78214737D01*
X27085211Y-78211254D01*
X26833334Y-78058989D01*
X26827175Y-78054739D01*
X26595475Y-77873214D01*
X26589875Y-77868253D01*
X26381745Y-77660123D01*
X26376784Y-77654523D01*
X26195257Y-77422821D01*
X26191010Y-77416665D01*
X26038745Y-77164788D01*
X26035262Y-77158153D01*
X25914465Y-76889751D01*
X25911814Y-76882764D01*
X25824247Y-76601753D01*
X25822456Y-76594483D01*
X25769401Y-76304973D01*
X25768497Y-76297534D01*
X25765518Y-76248288D01*
X25750613Y-76001866D01*
X25750500Y-75998122D01*
X25750500Y-75934107D01*
X25750499Y-28001876D01*
X25750612Y-27998131D01*
X25752664Y-27964201D01*
X25768497Y-27702458D01*
X25769401Y-27695026D01*
X25822456Y-27405516D01*
X25824246Y-27398250D01*
X25911816Y-27117230D01*
X25914465Y-27110248D01*
X25941194Y-27050858D01*
X26035268Y-26841834D01*
X26038745Y-26835211D01*
X26044334Y-26825967D01*
X26191012Y-26583330D01*
X26195252Y-26577186D01*
X26376793Y-26345465D01*
X26381737Y-26339884D01*
X26589884Y-26131737D01*
X26595465Y-26126793D01*
X26827186Y-25945252D01*
X26833334Y-25941010D01*
X27085215Y-25788742D01*
X27091834Y-25785268D01*
X27360246Y-25664465D01*
X27367230Y-25661816D01*
X27648250Y-25574246D01*
X27655516Y-25572456D01*
X27945026Y-25519401D01*
X27952458Y-25518497D01*
X28177572Y-25504880D01*
X28248134Y-25500613D01*
X28251878Y-25500500D01*
X28315892Y-25500500D01*
X37156175Y-25500500D01*
X37223214Y-25520185D01*
G37*
%TD.AperFunction*%
%TA.AperFunction,Conductor*%
G36*
X52547730Y-55443465D02*
G01*
X52550499Y-55443993D01*
X52550501Y-55443994D01*
X52552770Y-55444426D01*
X52614934Y-55476321D01*
X52643846Y-55523804D01*
X52645157Y-55523237D01*
X52648255Y-55530397D01*
X52659060Y-55548666D01*
X52667617Y-55566134D01*
X52671850Y-55576824D01*
X52675432Y-55585872D01*
X52703983Y-55625170D01*
X52707188Y-55630049D01*
X52731919Y-55671865D01*
X52731923Y-55671869D01*
X52746925Y-55686871D01*
X52759563Y-55701669D01*
X52772033Y-55718833D01*
X52772036Y-55718836D01*
X52772037Y-55718837D01*
X52809476Y-55749809D01*
X52813776Y-55753722D01*
X53795190Y-56735136D01*
X54567540Y-57507486D01*
X54601025Y-57568809D01*
X54603179Y-57582200D01*
X54614326Y-57688256D01*
X54614327Y-57688259D01*
X54672818Y-57868277D01*
X54672821Y-57868284D01*
X54767467Y-58032216D01*
X54894129Y-58172888D01*
X55047265Y-58284148D01*
X55047270Y-58284151D01*
X55220192Y-58361142D01*
X55220197Y-58361144D01*
X55405354Y-58400500D01*
X55405355Y-58400500D01*
X55594644Y-58400500D01*
X55594646Y-58400500D01*
X55779803Y-58361144D01*
X55952730Y-58284151D01*
X56105871Y-58172888D01*
X56232533Y-58032216D01*
X56327179Y-57868284D01*
X56385674Y-57688256D01*
X56405460Y-57500000D01*
X56385674Y-57311744D01*
X56327179Y-57131716D01*
X56232533Y-56967784D01*
X56223698Y-56957972D01*
X56193469Y-56894981D01*
X56202093Y-56825646D01*
X56223699Y-56792027D01*
X56232533Y-56782216D01*
X56327179Y-56618284D01*
X56366191Y-56498217D01*
X56405628Y-56440543D01*
X56469987Y-56413344D01*
X56538833Y-56425259D01*
X56571803Y-56448855D01*
X66155767Y-66032819D01*
X66189252Y-66094142D01*
X66184268Y-66163834D01*
X66142396Y-66219767D01*
X66076932Y-66244184D01*
X66068086Y-66244500D01*
X60624000Y-66244500D01*
X60623991Y-66244500D01*
X60623990Y-66244501D01*
X60516549Y-66256052D01*
X60516537Y-66256054D01*
X60465027Y-66267260D01*
X60362502Y-66301383D01*
X60362498Y-66301385D01*
X60289842Y-66348079D01*
X60222803Y-66367763D01*
X60155763Y-66348078D01*
X60110009Y-66295274D01*
X60104422Y-66280667D01*
X60029627Y-66040639D01*
X59895545Y-65742721D01*
X59726530Y-65463137D01*
X59726528Y-65463134D01*
X59726526Y-65463131D01*
X59525045Y-65205960D01*
X59294039Y-64974954D01*
X59036868Y-64773473D01*
X59029306Y-64768901D01*
X58757279Y-64604455D01*
X58459361Y-64470373D01*
X58459354Y-64470370D01*
X58459342Y-64470366D01*
X58147452Y-64373178D01*
X57826099Y-64314289D01*
X57500000Y-64294564D01*
X57173900Y-64314289D01*
X56852547Y-64373178D01*
X56540657Y-64470366D01*
X56540641Y-64470372D01*
X56540639Y-64470373D01*
X56350933Y-64555752D01*
X56242725Y-64604453D01*
X56242723Y-64604454D01*
X55963131Y-64773473D01*
X55705960Y-64974954D01*
X55474954Y-65205960D01*
X55273473Y-65463131D01*
X55234144Y-65528190D01*
X55104455Y-65742721D01*
X54973893Y-66032819D01*
X54970372Y-66040642D01*
X54970366Y-66040657D01*
X54873178Y-66352547D01*
X54814289Y-66673900D01*
X54794564Y-67000000D01*
X54814289Y-67326099D01*
X54873178Y-67647452D01*
X54970366Y-67959342D01*
X54970370Y-67959354D01*
X54970373Y-67959361D01*
X55104455Y-68257279D01*
X55199934Y-68415220D01*
X55273473Y-68536868D01*
X55474954Y-68794039D01*
X55705960Y-69025045D01*
X55963131Y-69226526D01*
X55963134Y-69226528D01*
X55963137Y-69226530D01*
X56242721Y-69395545D01*
X56540639Y-69529627D01*
X56540652Y-69529631D01*
X56540657Y-69529633D01*
X56852546Y-69626821D01*
X56852547Y-69626821D01*
X57173896Y-69685710D01*
X57500000Y-69705436D01*
X57826104Y-69685710D01*
X58147453Y-69626821D01*
X58459361Y-69529627D01*
X58757279Y-69395545D01*
X59036863Y-69226530D01*
X59294036Y-69025048D01*
X59525048Y-68794036D01*
X59726530Y-68536863D01*
X59764383Y-68474245D01*
X59815911Y-68427059D01*
X59884770Y-68415220D01*
X59949099Y-68442489D01*
X59988473Y-68500207D01*
X59994500Y-68538396D01*
X59994500Y-71126000D01*
X59994501Y-71126009D01*
X60006052Y-71233450D01*
X60006054Y-71233462D01*
X60017260Y-71284972D01*
X60051383Y-71387497D01*
X60051386Y-71387503D01*
X60129171Y-71508537D01*
X60129179Y-71508548D01*
X60174923Y-71561340D01*
X60174926Y-71561343D01*
X60174930Y-71561347D01*
X60283664Y-71655567D01*
X60283667Y-71655568D01*
X60283668Y-71655569D01*
X60369254Y-71694656D01*
X60414541Y-71715338D01*
X60459357Y-71728497D01*
X60481575Y-71735022D01*
X60481580Y-71735023D01*
X60481584Y-71735024D01*
X60624000Y-71755500D01*
X64718575Y-71755500D01*
X64785614Y-71775185D01*
X64831369Y-71827989D01*
X64841313Y-71897147D01*
X64824114Y-71944596D01*
X64740189Y-72080659D01*
X64740185Y-72080668D01*
X64712349Y-72164670D01*
X64685001Y-72247203D01*
X64685001Y-72247204D01*
X64685000Y-72247204D01*
X64674500Y-72349983D01*
X64674500Y-73075001D01*
X64674501Y-73075019D01*
X64685000Y-73177796D01*
X64685001Y-73177799D01*
X64733780Y-73325001D01*
X64740186Y-73344334D01*
X64828746Y-73487914D01*
X64832289Y-73493657D01*
X64961451Y-73622819D01*
X64959559Y-73624710D01*
X64992774Y-73671583D01*
X64999500Y-73711867D01*
X64999500Y-75812981D01*
X64999024Y-75820656D01*
X64995643Y-75847779D01*
X64999500Y-75941035D01*
X64999500Y-75972064D01*
X65002062Y-76002990D01*
X65005918Y-76096233D01*
X65011526Y-76122983D01*
X65012635Y-76130590D01*
X65014891Y-76157818D01*
X65014891Y-76157819D01*
X65037800Y-76248287D01*
X65037801Y-76248288D01*
X65056951Y-76339614D01*
X65056952Y-76339616D01*
X65066882Y-76365067D01*
X65069227Y-76372387D01*
X65075937Y-76398881D01*
X65089968Y-76430868D01*
X65113420Y-76484335D01*
X65147344Y-76571275D01*
X65161332Y-76594750D01*
X65164852Y-76601588D01*
X65175825Y-76626604D01*
X65175827Y-76626607D01*
X65216213Y-76688424D01*
X65219309Y-76693162D01*
X65239497Y-76760051D01*
X65239500Y-76760982D01*
X65239500Y-76897869D01*
X65239501Y-76897876D01*
X65245908Y-76957483D01*
X65296202Y-77092328D01*
X65296206Y-77092335D01*
X65382452Y-77207544D01*
X65382455Y-77207547D01*
X65497664Y-77293793D01*
X65497671Y-77293797D01*
X65542618Y-77310560D01*
X65632517Y-77344091D01*
X65692127Y-77350500D01*
X65899862Y-77350499D01*
X65944939Y-77358982D01*
X65984350Y-77374361D01*
X65989045Y-77376420D01*
X66042689Y-77402645D01*
X66061661Y-77408293D01*
X66099943Y-77419690D01*
X66104751Y-77421340D01*
X66160386Y-77443049D01*
X66218818Y-77455300D01*
X66223775Y-77456556D01*
X66281019Y-77473599D01*
X66281024Y-77473599D01*
X66281024Y-77473600D01*
X66322011Y-77478708D01*
X66340282Y-77480985D01*
X66345337Y-77481829D01*
X66365174Y-77485988D01*
X66403763Y-77494080D01*
X66463423Y-77496547D01*
X66468497Y-77496967D01*
X66527779Y-77504357D01*
X66587441Y-77501889D01*
X66592565Y-77501889D01*
X66652221Y-77504357D01*
X66711490Y-77496968D01*
X66716565Y-77496548D01*
X66776237Y-77494081D01*
X66834681Y-77481825D01*
X66839726Y-77480983D01*
X66898981Y-77473598D01*
X66956213Y-77456558D01*
X66961180Y-77455300D01*
X67019614Y-77443049D01*
X67075247Y-77421340D01*
X67080073Y-77419684D01*
X67137313Y-77402644D01*
X67190969Y-77376412D01*
X67195647Y-77374360D01*
X67235063Y-77358981D01*
X67280136Y-77350499D01*
X67487871Y-77350499D01*
X67487872Y-77350499D01*
X67547483Y-77344091D01*
X67682331Y-77293796D01*
X67797546Y-77207546D01*
X67883796Y-77092331D01*
X67932810Y-76960916D01*
X67974681Y-76904984D01*
X68040145Y-76880566D01*
X68108418Y-76895417D01*
X68136673Y-76916569D01*
X68258599Y-77038495D01*
X68355384Y-77106265D01*
X68452165Y-77174032D01*
X68452167Y-77174033D01*
X68452170Y-77174035D01*
X68666337Y-77273903D01*
X68894592Y-77335063D01*
X69071034Y-77350500D01*
X69129999Y-77355659D01*
X69130000Y-77355659D01*
X69130001Y-77355659D01*
X69188966Y-77350500D01*
X69365408Y-77335063D01*
X69437989Y-77315615D01*
X69507839Y-77317278D01*
X69557763Y-77347709D01*
X70309564Y-78099510D01*
X70319635Y-78112080D01*
X70319822Y-78111926D01*
X70324796Y-78117937D01*
X70324798Y-78117940D01*
X70344254Y-78136210D01*
X70377243Y-78167190D01*
X70398967Y-78188913D01*
X70404757Y-78193405D01*
X70409197Y-78197197D01*
X70424167Y-78211254D01*
X70444607Y-78230448D01*
X70444610Y-78230450D01*
X70444612Y-78230451D01*
X70463207Y-78240674D01*
X70479468Y-78251356D01*
X70494725Y-78263190D01*
X70496236Y-78264362D01*
X70496239Y-78264363D01*
X70502951Y-78268333D01*
X70501337Y-78271061D01*
X70543795Y-78306397D01*
X70564810Y-78373031D01*
X70546464Y-78440449D01*
X70494582Y-78487246D01*
X70440835Y-78499500D01*
X42719808Y-78499500D01*
X42652769Y-78479815D01*
X42607014Y-78427011D01*
X42597070Y-78357853D01*
X42626095Y-78294297D01*
X42632127Y-78287819D01*
X43425866Y-77494080D01*
X44227419Y-76692526D01*
X44288741Y-76659042D01*
X44358433Y-76664026D01*
X44414366Y-76705898D01*
X44438783Y-76771362D01*
X44437408Y-76795598D01*
X44437825Y-76795637D01*
X44418888Y-76999999D01*
X44418888Y-77000000D01*
X44437295Y-77198649D01*
X44437295Y-77198651D01*
X44437296Y-77198654D01*
X44491118Y-77387819D01*
X44491894Y-77390546D01*
X44580816Y-77569126D01*
X44580821Y-77569134D01*
X44647534Y-77657475D01*
X44701049Y-77728340D01*
X44848484Y-77862746D01*
X45018107Y-77967772D01*
X45204140Y-78039841D01*
X45400248Y-78076500D01*
X45400250Y-78076500D01*
X45599750Y-78076500D01*
X45599752Y-78076500D01*
X45795860Y-78039841D01*
X45981893Y-77967772D01*
X46151516Y-77862746D01*
X46298951Y-77728340D01*
X46419180Y-77569132D01*
X46508107Y-77390543D01*
X46562704Y-77198654D01*
X46581112Y-77000000D01*
X58418888Y-77000000D01*
X58437295Y-77198649D01*
X58437295Y-77198651D01*
X58437296Y-77198654D01*
X58491118Y-77387819D01*
X58491894Y-77390546D01*
X58580816Y-77569126D01*
X58580821Y-77569134D01*
X58647534Y-77657475D01*
X58701049Y-77728340D01*
X58848484Y-77862746D01*
X59018107Y-77967772D01*
X59204140Y-78039841D01*
X59400248Y-78076500D01*
X59400250Y-78076500D01*
X59599750Y-78076500D01*
X59599752Y-78076500D01*
X59795860Y-78039841D01*
X59981893Y-77967772D01*
X60151516Y-77862746D01*
X60298951Y-77728340D01*
X60419180Y-77569132D01*
X60508107Y-77390543D01*
X60562704Y-77198654D01*
X60581112Y-77000000D01*
X60562704Y-76801346D01*
X60508107Y-76609457D01*
X60467054Y-76527011D01*
X60419183Y-76430873D01*
X60419178Y-76430865D01*
X60298951Y-76271660D01*
X60189596Y-76171969D01*
X60151516Y-76137254D01*
X60151513Y-76137252D01*
X60151512Y-76137251D01*
X59981898Y-76032231D01*
X59981891Y-76032227D01*
X59826598Y-75972067D01*
X59795860Y-75960159D01*
X59599752Y-75923500D01*
X59400248Y-75923500D01*
X59204140Y-75960159D01*
X59204137Y-75960159D01*
X59204137Y-75960160D01*
X59018108Y-76032227D01*
X59018101Y-76032231D01*
X58848487Y-76137251D01*
X58701048Y-76271660D01*
X58580821Y-76430865D01*
X58580816Y-76430873D01*
X58491894Y-76609453D01*
X58491892Y-76609457D01*
X58491893Y-76609457D01*
X58438932Y-76795598D01*
X58437295Y-76801350D01*
X58418888Y-76999999D01*
X58418888Y-77000000D01*
X46581112Y-77000000D01*
X46562704Y-76801346D01*
X46508107Y-76609457D01*
X46467054Y-76527011D01*
X46419183Y-76430873D01*
X46419178Y-76430865D01*
X46298951Y-76271660D01*
X46189596Y-76171969D01*
X46151516Y-76137254D01*
X46151513Y-76137252D01*
X46151512Y-76137251D01*
X45981898Y-76032231D01*
X45981891Y-76032227D01*
X45826598Y-75972067D01*
X45795860Y-75960159D01*
X45599752Y-75923500D01*
X45400248Y-75923500D01*
X45297222Y-75942759D01*
X45227707Y-75935728D01*
X45173028Y-75892230D01*
X45150546Y-75826076D01*
X45167399Y-75758269D01*
X45186753Y-75733191D01*
X49399513Y-71520431D01*
X49412079Y-71510365D01*
X49411925Y-71510178D01*
X49417937Y-71505204D01*
X49417937Y-71505203D01*
X49417940Y-71505202D01*
X49467190Y-71452755D01*
X49488911Y-71431035D01*
X49493401Y-71425245D01*
X49497183Y-71420815D01*
X49530448Y-71385393D01*
X49540674Y-71366790D01*
X49551353Y-71350533D01*
X49564362Y-71333764D01*
X49583656Y-71289175D01*
X49586212Y-71283956D01*
X49609627Y-71241368D01*
X49614905Y-71220806D01*
X49621207Y-71202399D01*
X49629635Y-71182927D01*
X49637233Y-71134953D01*
X49638414Y-71129247D01*
X49650500Y-71082177D01*
X49650500Y-71060949D01*
X49652027Y-71041549D01*
X49655346Y-71020595D01*
X49650775Y-70972238D01*
X49650500Y-70966400D01*
X49650500Y-57774500D01*
X49670185Y-57707461D01*
X49722989Y-57661706D01*
X49774500Y-57650500D01*
X49844644Y-57650500D01*
X49844646Y-57650500D01*
X50029803Y-57611144D01*
X50202730Y-57534151D01*
X50302114Y-57461944D01*
X50367921Y-57438464D01*
X50435975Y-57454289D01*
X50447885Y-57461944D01*
X50547265Y-57534148D01*
X50547270Y-57534151D01*
X50720192Y-57611142D01*
X50720197Y-57611144D01*
X50905354Y-57650500D01*
X50905355Y-57650500D01*
X51094644Y-57650500D01*
X51094646Y-57650500D01*
X51279803Y-57611144D01*
X51452730Y-57534151D01*
X51605871Y-57422888D01*
X51732533Y-57282216D01*
X51827179Y-57118284D01*
X51885674Y-56938256D01*
X51899168Y-56809855D01*
X51925752Y-56745242D01*
X51934799Y-56735145D01*
X52149513Y-56520431D01*
X52162079Y-56510365D01*
X52161925Y-56510178D01*
X52167937Y-56505204D01*
X52167937Y-56505203D01*
X52167940Y-56505202D01*
X52217190Y-56452755D01*
X52238911Y-56431035D01*
X52243401Y-56425245D01*
X52247183Y-56420815D01*
X52280448Y-56385393D01*
X52290674Y-56366790D01*
X52301353Y-56350533D01*
X52314362Y-56333764D01*
X52333656Y-56289175D01*
X52336212Y-56283956D01*
X52359627Y-56241368D01*
X52364905Y-56220806D01*
X52371207Y-56202399D01*
X52379635Y-56182927D01*
X52387233Y-56134953D01*
X52388414Y-56129247D01*
X52400500Y-56082177D01*
X52400500Y-56060949D01*
X52402027Y-56041549D01*
X52405346Y-56020595D01*
X52400775Y-55972238D01*
X52400500Y-55966400D01*
X52400500Y-55565270D01*
X52420185Y-55498231D01*
X52472989Y-55452476D01*
X52542147Y-55442532D01*
X52547730Y-55443465D01*
G37*
%TD.AperFunction*%
%TA.AperFunction,Conductor*%
G36*
X76751866Y-25500613D02*
G01*
X76831342Y-25505420D01*
X77047539Y-25518497D01*
X77054973Y-25519401D01*
X77344483Y-25572456D01*
X77351753Y-25574247D01*
X77632764Y-25661814D01*
X77639751Y-25664465D01*
X77779001Y-25727136D01*
X77908158Y-25785265D01*
X77914788Y-25788745D01*
X78166665Y-25941010D01*
X78172821Y-25945257D01*
X78404523Y-26126784D01*
X78410123Y-26131745D01*
X78618253Y-26339875D01*
X78623214Y-26345475D01*
X78804739Y-26577175D01*
X78808989Y-26583334D01*
X78961254Y-26835211D01*
X78964737Y-26841846D01*
X79085534Y-27110248D01*
X79088188Y-27117244D01*
X79137952Y-27276941D01*
X79175750Y-27398240D01*
X79177543Y-27405516D01*
X79230598Y-27695026D01*
X79231502Y-27702465D01*
X79249387Y-27998132D01*
X79249500Y-28001877D01*
X79249500Y-75998122D01*
X79249387Y-76001867D01*
X79231502Y-76297534D01*
X79230598Y-76304973D01*
X79177543Y-76594483D01*
X79175750Y-76601759D01*
X79142071Y-76709839D01*
X79091444Y-76872310D01*
X79088192Y-76882745D01*
X79085534Y-76889751D01*
X78964737Y-77158153D01*
X78961254Y-77164788D01*
X78808989Y-77416665D01*
X78804733Y-77422832D01*
X78788895Y-77443049D01*
X78623215Y-77654523D01*
X78618246Y-77660132D01*
X78410132Y-77868246D01*
X78404523Y-77873215D01*
X78172833Y-78054733D01*
X78166665Y-78058989D01*
X77914788Y-78211254D01*
X77908153Y-78214737D01*
X77639751Y-78335534D01*
X77632749Y-78338190D01*
X77577692Y-78355347D01*
X77351759Y-78425750D01*
X77344483Y-78427543D01*
X77232099Y-78448139D01*
X77162609Y-78440861D01*
X77108086Y-78397170D01*
X77085839Y-78330936D01*
X77102932Y-78263190D01*
X77142950Y-78223120D01*
X77142753Y-78222866D01*
X77144761Y-78221308D01*
X77146631Y-78219435D01*
X77148922Y-78218081D01*
X77163927Y-78203075D01*
X77178725Y-78190436D01*
X77195894Y-78177963D01*
X77226866Y-78140522D01*
X77230780Y-78136221D01*
X78399513Y-76967488D01*
X78412079Y-76957422D01*
X78411925Y-76957235D01*
X78417937Y-76952261D01*
X78417937Y-76952260D01*
X78417940Y-76952259D01*
X78467190Y-76899812D01*
X78488911Y-76878092D01*
X78493401Y-76872302D01*
X78497183Y-76867872D01*
X78530448Y-76832450D01*
X78540674Y-76813847D01*
X78551353Y-76797590D01*
X78564362Y-76780821D01*
X78583663Y-76736216D01*
X78586207Y-76731022D01*
X78609627Y-76688425D01*
X78614907Y-76667859D01*
X78621209Y-76649452D01*
X78629635Y-76629983D01*
X78637233Y-76582005D01*
X78638411Y-76576310D01*
X78650500Y-76529234D01*
X78650500Y-76508011D01*
X78652027Y-76488612D01*
X78655347Y-76467652D01*
X78650775Y-76419287D01*
X78650500Y-76413449D01*
X78650500Y-75312538D01*
X78652268Y-75296526D01*
X78652026Y-75296504D01*
X78652760Y-75288741D01*
X78650500Y-75216817D01*
X78650500Y-75186112D01*
X78650500Y-75186110D01*
X78649579Y-75178827D01*
X78649123Y-75173022D01*
X78647598Y-75124466D01*
X78641676Y-75104085D01*
X78637731Y-75085030D01*
X78635072Y-75063984D01*
X78635071Y-75063983D01*
X78635071Y-75063977D01*
X78617189Y-75018814D01*
X78615300Y-75013294D01*
X78613044Y-75005529D01*
X78601745Y-74966637D01*
X78600723Y-74964909D01*
X78590936Y-74948359D01*
X78582378Y-74930890D01*
X78574568Y-74911164D01*
X78546006Y-74871853D01*
X78542818Y-74866999D01*
X78518081Y-74825170D01*
X78503075Y-74810164D01*
X78490435Y-74795365D01*
X78477961Y-74778195D01*
X78440528Y-74747229D01*
X78436206Y-74743295D01*
X59695954Y-56003043D01*
X59662469Y-55941720D01*
X59667453Y-55872028D01*
X59691485Y-55832390D01*
X59773993Y-55740756D01*
X59868639Y-55576824D01*
X59927134Y-55396796D01*
X59946920Y-55208540D01*
X59927134Y-55020284D01*
X59868639Y-54840256D01*
X59773993Y-54676324D01*
X59760572Y-54661419D01*
X59730343Y-54598429D01*
X59738967Y-54529094D01*
X59779836Y-54478130D01*
X59855871Y-54422888D01*
X59982533Y-54282216D01*
X60077179Y-54118284D01*
X60135674Y-53938256D01*
X60155460Y-53750000D01*
X60135674Y-53561744D01*
X60077179Y-53381716D01*
X59982533Y-53217784D01*
X59932349Y-53162048D01*
X59902120Y-53099060D01*
X59900500Y-53079090D01*
X59900500Y-50672195D01*
X59920185Y-50605156D01*
X59936819Y-50584515D01*
X61666164Y-48855170D01*
X63399513Y-47121820D01*
X63412079Y-47111754D01*
X63411925Y-47111567D01*
X63417937Y-47106593D01*
X63417937Y-47106592D01*
X63417940Y-47106591D01*
X63467190Y-47054144D01*
X63488911Y-47032424D01*
X63493401Y-47026634D01*
X63497183Y-47022204D01*
X63530448Y-46986782D01*
X63540674Y-46968178D01*
X63551347Y-46951930D01*
X63564363Y-46935152D01*
X63583651Y-46890576D01*
X63586224Y-46885325D01*
X63586561Y-46884710D01*
X63609627Y-46842757D01*
X63614904Y-46822197D01*
X63621206Y-46803792D01*
X63629636Y-46784315D01*
X63637235Y-46736334D01*
X63638417Y-46730623D01*
X63650500Y-46683566D01*
X63650500Y-46662344D01*
X63652027Y-46642944D01*
X63652443Y-46640318D01*
X63655347Y-46621984D01*
X63650775Y-46573619D01*
X63650500Y-46567781D01*
X63650500Y-42070807D01*
X63670185Y-42003768D01*
X63686814Y-41983131D01*
X76283127Y-29386817D01*
X76344450Y-29353333D01*
X76370808Y-29350499D01*
X77647871Y-29350499D01*
X77647872Y-29350499D01*
X77707483Y-29344091D01*
X77842331Y-29293796D01*
X77957546Y-29207546D01*
X78043796Y-29092331D01*
X78094091Y-28957483D01*
X78100500Y-28897873D01*
X78100499Y-27102128D01*
X78094091Y-27042517D01*
X78092810Y-27039083D01*
X78043797Y-26907671D01*
X78043793Y-26907664D01*
X77957547Y-26792455D01*
X77957544Y-26792452D01*
X77842335Y-26706206D01*
X77842328Y-26706202D01*
X77707482Y-26655908D01*
X77707483Y-26655908D01*
X77647883Y-26649501D01*
X77647881Y-26649500D01*
X77647873Y-26649500D01*
X77647864Y-26649500D01*
X75852129Y-26649500D01*
X75852123Y-26649501D01*
X75792516Y-26655908D01*
X75657671Y-26706202D01*
X75657664Y-26706206D01*
X75542455Y-26792452D01*
X75542452Y-26792455D01*
X75456206Y-26907664D01*
X75456203Y-26907669D01*
X75407189Y-27039083D01*
X75365317Y-27095016D01*
X75299853Y-27119433D01*
X75231580Y-27104581D01*
X75203326Y-27083430D01*
X75081402Y-26961506D01*
X75081395Y-26961501D01*
X75079528Y-26960194D01*
X75004518Y-26907671D01*
X74887834Y-26825967D01*
X74887830Y-26825965D01*
X74835043Y-26801350D01*
X74673663Y-26726097D01*
X74673659Y-26726096D01*
X74673655Y-26726094D01*
X74445413Y-26664938D01*
X74445403Y-26664936D01*
X74210001Y-26644341D01*
X74209999Y-26644341D01*
X73974596Y-26664936D01*
X73974586Y-26664938D01*
X73746344Y-26726094D01*
X73746335Y-26726098D01*
X73532171Y-26825964D01*
X73532169Y-26825965D01*
X73338597Y-26961505D01*
X73171505Y-27128597D01*
X73041575Y-27314158D01*
X72986998Y-27357783D01*
X72917500Y-27364977D01*
X72855145Y-27333454D01*
X72838425Y-27314158D01*
X72708494Y-27128597D01*
X72541402Y-26961506D01*
X72541395Y-26961501D01*
X72539528Y-26960194D01*
X72464518Y-26907671D01*
X72347834Y-26825967D01*
X72347830Y-26825965D01*
X72295043Y-26801350D01*
X72133663Y-26726097D01*
X72133659Y-26726096D01*
X72133655Y-26726094D01*
X71905413Y-26664938D01*
X71905403Y-26664936D01*
X71670001Y-26644341D01*
X71669999Y-26644341D01*
X71434590Y-26664937D01*
X71434589Y-26664937D01*
X71362008Y-26684384D01*
X71292158Y-26682720D01*
X71242236Y-26652290D01*
X70440434Y-25850488D01*
X70430361Y-25837914D01*
X70430174Y-25838070D01*
X70425201Y-25832059D01*
X70372756Y-25782810D01*
X70351035Y-25761089D01*
X70345240Y-25756594D01*
X70340808Y-25752808D01*
X70305393Y-25719552D01*
X70300431Y-25714892D01*
X70265036Y-25654651D01*
X70267829Y-25584837D01*
X70307923Y-25527616D01*
X70372589Y-25501155D01*
X70385315Y-25500500D01*
X76684108Y-25500500D01*
X76748122Y-25500500D01*
X76751866Y-25500613D01*
G37*
%TD.AperFunction*%
%TA.AperFunction,Conductor*%
G36*
X68710703Y-68588201D02*
G01*
X68717181Y-68594233D01*
X73523181Y-73400233D01*
X73556666Y-73461556D01*
X73559500Y-73487914D01*
X73559500Y-74742278D01*
X73539815Y-74809317D01*
X73506623Y-74843853D01*
X73338597Y-74961505D01*
X73171505Y-75128597D01*
X73041575Y-75314158D01*
X72986998Y-75357783D01*
X72917500Y-75364977D01*
X72855145Y-75333454D01*
X72838425Y-75314158D01*
X72708494Y-75128597D01*
X72541402Y-74961506D01*
X72541395Y-74961501D01*
X72522626Y-74948359D01*
X72469507Y-74911164D01*
X72347834Y-74825967D01*
X72347830Y-74825965D01*
X72282208Y-74795365D01*
X72133663Y-74726097D01*
X72133659Y-74726096D01*
X72133655Y-74726094D01*
X71905413Y-74664938D01*
X71905403Y-74664936D01*
X71670001Y-74644341D01*
X71669999Y-74644341D01*
X71434596Y-74664936D01*
X71434586Y-74664938D01*
X71206344Y-74726094D01*
X71206335Y-74726098D01*
X70992171Y-74825964D01*
X70992169Y-74825965D01*
X70798597Y-74961505D01*
X70631505Y-75128597D01*
X70501575Y-75314158D01*
X70446998Y-75357783D01*
X70377500Y-75364977D01*
X70315145Y-75333454D01*
X70298425Y-75314158D01*
X70168494Y-75128597D01*
X70001402Y-74961506D01*
X70001395Y-74961501D01*
X69982626Y-74948359D01*
X69929507Y-74911164D01*
X69807834Y-74825967D01*
X69807830Y-74825965D01*
X69742208Y-74795365D01*
X69593663Y-74726097D01*
X69593659Y-74726096D01*
X69593655Y-74726094D01*
X69365413Y-74664938D01*
X69365403Y-74664936D01*
X69130001Y-74644341D01*
X69129999Y-74644341D01*
X68894596Y-74664936D01*
X68894586Y-74664938D01*
X68666344Y-74726094D01*
X68666335Y-74726098D01*
X68452171Y-74825964D01*
X68452169Y-74825965D01*
X68258597Y-74961505D01*
X68212181Y-75007922D01*
X68150858Y-75041407D01*
X68081166Y-75036423D01*
X68025233Y-74994551D01*
X68000816Y-74929087D01*
X68000500Y-74920241D01*
X68000500Y-73711867D01*
X68020185Y-73644828D01*
X68039386Y-73623656D01*
X68038549Y-73622819D01*
X68067037Y-73594331D01*
X68167712Y-73493656D01*
X68259814Y-73344334D01*
X68314999Y-73177797D01*
X68325500Y-73075009D01*
X68325499Y-72349992D01*
X68314999Y-72247203D01*
X68259814Y-72080666D01*
X68167712Y-71931344D01*
X68123020Y-71886652D01*
X68089535Y-71825329D01*
X68094519Y-71755637D01*
X68136391Y-71699704D01*
X68143661Y-71694656D01*
X68258543Y-71620825D01*
X68311347Y-71575070D01*
X68405567Y-71466336D01*
X68465338Y-71335459D01*
X68485023Y-71268420D01*
X68485024Y-71268416D01*
X68505500Y-71126000D01*
X68505500Y-68681913D01*
X68525185Y-68614875D01*
X68577989Y-68569120D01*
X68647147Y-68559176D01*
X68710703Y-68588201D01*
G37*
%TD.AperFunction*%
%TA.AperFunction,Conductor*%
G36*
X39563181Y-29348465D02*
G01*
X39596666Y-29409788D01*
X39599500Y-29436147D01*
X39599500Y-54758874D01*
X39579815Y-54825913D01*
X39527011Y-54871668D01*
X39457853Y-54881612D01*
X39394297Y-54852587D01*
X39387819Y-54846555D01*
X38936819Y-54395555D01*
X38903334Y-54334232D01*
X38900500Y-54307874D01*
X38900500Y-29474499D01*
X38920185Y-29407460D01*
X38972989Y-29361705D01*
X39024500Y-29350499D01*
X39307871Y-29350499D01*
X39307872Y-29350499D01*
X39367483Y-29344091D01*
X39432168Y-29319964D01*
X39501858Y-29314981D01*
X39563181Y-29348465D01*
G37*
%TD.AperFunction*%
%TA.AperFunction,Conductor*%
G36*
X54046933Y-50302315D02*
G01*
X54050501Y-50303994D01*
X54088889Y-50311316D01*
X54151052Y-50343213D01*
X54183586Y-50394801D01*
X54225852Y-50524880D01*
X54225854Y-50524883D01*
X54238098Y-50544176D01*
X54305216Y-50649937D01*
X54312565Y-50661516D01*
X54312567Y-50661519D01*
X54313793Y-50662670D01*
X54314463Y-50663811D01*
X54317542Y-50667533D01*
X54316941Y-50668029D01*
X54349186Y-50722912D01*
X54346392Y-50792726D01*
X54324451Y-50832100D01*
X54264908Y-50904075D01*
X54196006Y-51050500D01*
X54196005Y-51050502D01*
X54181027Y-51129025D01*
X54166882Y-51203181D01*
X54165683Y-51209465D01*
X54175844Y-51370972D01*
X54203414Y-51455824D01*
X54205409Y-51525665D01*
X54197685Y-51546932D01*
X54196006Y-51550501D01*
X54181027Y-51629028D01*
X54165683Y-51709465D01*
X54175844Y-51870972D01*
X54203414Y-51955824D01*
X54205409Y-52025665D01*
X54197685Y-52046932D01*
X54196006Y-52050501D01*
X54165737Y-52209184D01*
X54165683Y-52209465D01*
X54167932Y-52245208D01*
X54175844Y-52370972D01*
X54185078Y-52399393D01*
X54203414Y-52455824D01*
X54205409Y-52525665D01*
X54197685Y-52546932D01*
X54196006Y-52550501D01*
X54165794Y-52708885D01*
X54165683Y-52709465D01*
X54175844Y-52870971D01*
X54175844Y-52870974D01*
X54200372Y-52946461D01*
X54225852Y-53024879D01*
X54225853Y-53024880D01*
X54225854Y-53024883D01*
X54312565Y-53161516D01*
X54312567Y-53161519D01*
X54313793Y-53162670D01*
X54314463Y-53163811D01*
X54317542Y-53167533D01*
X54316941Y-53168029D01*
X54349186Y-53222912D01*
X54346392Y-53292726D01*
X54324451Y-53332100D01*
X54264908Y-53404075D01*
X54196006Y-53550500D01*
X54196004Y-53550506D01*
X54188681Y-53588893D01*
X54156782Y-53651056D01*
X54105196Y-53683586D01*
X54044175Y-53703413D01*
X53974334Y-53705408D01*
X53953068Y-53697684D01*
X53949504Y-53696007D01*
X53949501Y-53696006D01*
X53884390Y-53683586D01*
X53790537Y-53665683D01*
X53790534Y-53665683D01*
X53680289Y-53672619D01*
X53629028Y-53675844D01*
X53589566Y-53688665D01*
X53544174Y-53703414D01*
X53474332Y-53705408D01*
X53453068Y-53697684D01*
X53449504Y-53696007D01*
X53449501Y-53696006D01*
X53384390Y-53683586D01*
X53290537Y-53665683D01*
X53290534Y-53665683D01*
X53180289Y-53672619D01*
X53129028Y-53675844D01*
X53089566Y-53688665D01*
X53044174Y-53703414D01*
X52974332Y-53705408D01*
X52953068Y-53697684D01*
X52949504Y-53696007D01*
X52949501Y-53696006D01*
X52884390Y-53683586D01*
X52790537Y-53665683D01*
X52790534Y-53665683D01*
X52680289Y-53672619D01*
X52629028Y-53675844D01*
X52589566Y-53688665D01*
X52544174Y-53703414D01*
X52474332Y-53705408D01*
X52453068Y-53697684D01*
X52449504Y-53696007D01*
X52449501Y-53696006D01*
X52384390Y-53683586D01*
X52290537Y-53665683D01*
X52290534Y-53665683D01*
X52180289Y-53672619D01*
X52129028Y-53675844D01*
X52089566Y-53688665D01*
X52044174Y-53703414D01*
X51974332Y-53705408D01*
X51953068Y-53697684D01*
X51949504Y-53696007D01*
X51949501Y-53696006D01*
X51884390Y-53683586D01*
X51790537Y-53665683D01*
X51790534Y-53665683D01*
X51680289Y-53672619D01*
X51629028Y-53675844D01*
X51589566Y-53688665D01*
X51544174Y-53703414D01*
X51474332Y-53705408D01*
X51453068Y-53697684D01*
X51449504Y-53696007D01*
X51449501Y-53696006D01*
X51384390Y-53683586D01*
X51290537Y-53665683D01*
X51290534Y-53665683D01*
X51180289Y-53672619D01*
X51129028Y-53675844D01*
X51089566Y-53688665D01*
X51044174Y-53703414D01*
X50974332Y-53705408D01*
X50953068Y-53697684D01*
X50949504Y-53696007D01*
X50949497Y-53696005D01*
X50911106Y-53688681D01*
X50848943Y-53656782D01*
X50816412Y-53605196D01*
X50807827Y-53578774D01*
X50774148Y-53475121D01*
X50687436Y-53338485D01*
X50686209Y-53337332D01*
X50685537Y-53336189D01*
X50682462Y-53332472D01*
X50683061Y-53331976D01*
X50650814Y-53277096D01*
X50653604Y-53207282D01*
X50675546Y-53167901D01*
X50735091Y-53095925D01*
X50803994Y-52949499D01*
X50834317Y-52790537D01*
X50824156Y-52629028D01*
X50796584Y-52544173D01*
X50794589Y-52474335D01*
X50802317Y-52453060D01*
X50803994Y-52449499D01*
X50834317Y-52290537D01*
X50824156Y-52129028D01*
X50796584Y-52044173D01*
X50794589Y-51974335D01*
X50802317Y-51953060D01*
X50803994Y-51949499D01*
X50834317Y-51790537D01*
X50824156Y-51629028D01*
X50796584Y-51544173D01*
X50794589Y-51474335D01*
X50802317Y-51453060D01*
X50803994Y-51449499D01*
X50834317Y-51290537D01*
X50824156Y-51129028D01*
X50796584Y-51044173D01*
X50794589Y-50974335D01*
X50802317Y-50953060D01*
X50803994Y-50949499D01*
X50834317Y-50790537D01*
X50824156Y-50629028D01*
X50796584Y-50544173D01*
X50794589Y-50474335D01*
X50802317Y-50453060D01*
X50803994Y-50449499D01*
X50811316Y-50411109D01*
X50843212Y-50348947D01*
X50894799Y-50316413D01*
X50955825Y-50296584D01*
X51025664Y-50294589D01*
X51046936Y-50302316D01*
X51050501Y-50303994D01*
X51209463Y-50334317D01*
X51370972Y-50324156D01*
X51455825Y-50296584D01*
X51525664Y-50294589D01*
X51546936Y-50302316D01*
X51550501Y-50303994D01*
X51709463Y-50334317D01*
X51870972Y-50324156D01*
X51955825Y-50296584D01*
X52025664Y-50294589D01*
X52046936Y-50302316D01*
X52050501Y-50303994D01*
X52209463Y-50334317D01*
X52370972Y-50324156D01*
X52455825Y-50296584D01*
X52525664Y-50294589D01*
X52546936Y-50302316D01*
X52550501Y-50303994D01*
X52709463Y-50334317D01*
X52870972Y-50324156D01*
X52955825Y-50296584D01*
X53025664Y-50294589D01*
X53046936Y-50302316D01*
X53050501Y-50303994D01*
X53209463Y-50334317D01*
X53370972Y-50324156D01*
X53455825Y-50296584D01*
X53525664Y-50294589D01*
X53546936Y-50302316D01*
X53550501Y-50303994D01*
X53709463Y-50334317D01*
X53870972Y-50324156D01*
X53955825Y-50296584D01*
X54025665Y-50294589D01*
X54046933Y-50302315D01*
G37*
%TD.AperFunction*%
%TA.AperFunction,Conductor*%
G36*
X34684855Y-28666546D02*
G01*
X34701575Y-28685842D01*
X34831500Y-28871395D01*
X34831505Y-28871401D01*
X34998599Y-29038495D01*
X35095384Y-29106265D01*
X35192165Y-29174032D01*
X35192167Y-29174033D01*
X35192170Y-29174035D01*
X35406337Y-29273903D01*
X35406343Y-29273904D01*
X35406344Y-29273905D01*
X35461285Y-29288626D01*
X35634592Y-29335063D01*
X35811034Y-29350500D01*
X35869999Y-29355659D01*
X35870000Y-29355659D01*
X35870001Y-29355659D01*
X35928966Y-29350500D01*
X36105408Y-29335063D01*
X36333663Y-29273903D01*
X36547830Y-29174035D01*
X36741401Y-29038495D01*
X36863329Y-28916566D01*
X36924648Y-28883084D01*
X36994340Y-28888068D01*
X37050274Y-28929939D01*
X37067189Y-28960917D01*
X37116202Y-29092328D01*
X37116206Y-29092335D01*
X37202452Y-29207544D01*
X37202455Y-29207547D01*
X37317664Y-29293793D01*
X37317671Y-29293797D01*
X37362618Y-29310561D01*
X37452517Y-29344091D01*
X37488757Y-29347987D01*
X37553306Y-29374724D01*
X37593154Y-29432116D01*
X37599500Y-29471276D01*
X37599500Y-53465980D01*
X37579815Y-53533019D01*
X37527011Y-53578774D01*
X37457853Y-53588718D01*
X37394297Y-53559693D01*
X37387819Y-53553661D01*
X34016819Y-50182661D01*
X33983334Y-50121338D01*
X33980500Y-50094980D01*
X33980500Y-29257722D01*
X34000185Y-29190683D01*
X34033377Y-29156147D01*
X34087950Y-29117934D01*
X34201401Y-29038495D01*
X34368495Y-28871401D01*
X34498424Y-28685842D01*
X34553002Y-28642217D01*
X34622500Y-28635023D01*
X34684855Y-28666546D01*
G37*
%TD.AperFunction*%
%TA.AperFunction,Conductor*%
G36*
X43647443Y-46130185D02*
G01*
X43668085Y-46146819D01*
X43672396Y-46151130D01*
X43672400Y-46151133D01*
X43672402Y-46151135D01*
X43810607Y-46232869D01*
X43851268Y-46244682D01*
X43964791Y-46277664D01*
X43964794Y-46277664D01*
X43964796Y-46277665D01*
X43973801Y-46278373D01*
X44000816Y-46280500D01*
X44000818Y-46280499D01*
X44000819Y-46280500D01*
X44084547Y-46280499D01*
X44151585Y-46300183D01*
X44172228Y-46316818D01*
X47768228Y-49912819D01*
X47801713Y-49974142D01*
X47796729Y-50043834D01*
X47754857Y-50099767D01*
X47689393Y-50124184D01*
X47680547Y-50124500D01*
X45592738Y-50124500D01*
X45577121Y-50122776D01*
X45577094Y-50123062D01*
X45569332Y-50122327D01*
X45500204Y-50124500D01*
X45470650Y-50124500D01*
X45469929Y-50124590D01*
X45463757Y-50125369D01*
X45457945Y-50125826D01*
X45411373Y-50127290D01*
X45411372Y-50127290D01*
X45392129Y-50132881D01*
X45373079Y-50136825D01*
X45353211Y-50139334D01*
X45309884Y-50156488D01*
X45304358Y-50158379D01*
X45259614Y-50171379D01*
X45259610Y-50171381D01*
X45242366Y-50181579D01*
X45224905Y-50190133D01*
X45206274Y-50197510D01*
X45206262Y-50197517D01*
X45168570Y-50224902D01*
X45163687Y-50228109D01*
X45123580Y-50251829D01*
X45109414Y-50265995D01*
X45094624Y-50278627D01*
X45078414Y-50290404D01*
X45078411Y-50290407D01*
X45048710Y-50326309D01*
X45044777Y-50330631D01*
X44172226Y-51203181D01*
X44110903Y-51236666D01*
X44084546Y-51239500D01*
X44000819Y-51239501D01*
X43964794Y-51242335D01*
X43810611Y-51287129D01*
X43810606Y-51287131D01*
X43717436Y-51342232D01*
X43654315Y-51359500D01*
X43025227Y-51359500D01*
X42958188Y-51339815D01*
X42923652Y-51306623D01*
X42788494Y-51113597D01*
X42621402Y-50946506D01*
X42621395Y-50946501D01*
X42427834Y-50810967D01*
X42427830Y-50810965D01*
X42384022Y-50790537D01*
X42213663Y-50711097D01*
X42213659Y-50711096D01*
X42213655Y-50711094D01*
X41985413Y-50649938D01*
X41985403Y-50649936D01*
X41750001Y-50629341D01*
X41749999Y-50629341D01*
X41514596Y-50649936D01*
X41514586Y-50649938D01*
X41286344Y-50711094D01*
X41286335Y-50711098D01*
X41076905Y-50808757D01*
X41007827Y-50819249D01*
X40944043Y-50790729D01*
X40905804Y-50732253D01*
X40900500Y-50696375D01*
X40900500Y-49499499D01*
X40920185Y-49432460D01*
X40972989Y-49386705D01*
X41024500Y-49375499D01*
X42647871Y-49375499D01*
X42647872Y-49375499D01*
X42707483Y-49369091D01*
X42842331Y-49318796D01*
X42957546Y-49232546D01*
X43043796Y-49117331D01*
X43094091Y-48982483D01*
X43100500Y-48922873D01*
X43100499Y-47127128D01*
X43094091Y-47067517D01*
X43089103Y-47054144D01*
X43043797Y-46932671D01*
X43043793Y-46932664D01*
X42957547Y-46817455D01*
X42957544Y-46817452D01*
X42842335Y-46731206D01*
X42842328Y-46731202D01*
X42710917Y-46682189D01*
X42654983Y-46640318D01*
X42630566Y-46574853D01*
X42645418Y-46506580D01*
X42666563Y-46478332D01*
X42788495Y-46356401D01*
X42923651Y-46163377D01*
X42978229Y-46119752D01*
X43025227Y-46110500D01*
X43580404Y-46110500D01*
X43647443Y-46130185D01*
G37*
%TD.AperFunction*%
%TA.AperFunction,Conductor*%
G36*
X32144855Y-28666546D02*
G01*
X32161575Y-28685842D01*
X32291501Y-28871396D01*
X32291506Y-28871402D01*
X32458597Y-29038493D01*
X32458603Y-29038498D01*
X32626623Y-29156147D01*
X32670248Y-29210724D01*
X32679500Y-29257722D01*
X32679500Y-49253086D01*
X32659815Y-49320125D01*
X32607011Y-49365880D01*
X32537853Y-49375824D01*
X32474297Y-49346799D01*
X32467819Y-49340767D01*
X31436818Y-48309766D01*
X31403333Y-48248443D01*
X31400499Y-48222085D01*
X31400499Y-38774796D01*
X31400499Y-29284423D01*
X31420184Y-29217388D01*
X31464368Y-29178861D01*
X31463144Y-29176740D01*
X31467823Y-29174037D01*
X31467830Y-29174035D01*
X31661401Y-29038495D01*
X31828495Y-28871401D01*
X31958424Y-28685842D01*
X32013002Y-28642217D01*
X32082500Y-28635023D01*
X32144855Y-28666546D01*
G37*
%TD.AperFunction*%
%TA.AperFunction,Conductor*%
G36*
X52487606Y-47514754D02*
G01*
X52480945Y-47529340D01*
X52472469Y-47544864D01*
X52446801Y-47584808D01*
X52419165Y-47645320D01*
X52418033Y-47647483D01*
X52377241Y-47786417D01*
X52377241Y-47930293D01*
X52377242Y-47930297D01*
X52387186Y-47999455D01*
X52427721Y-48137504D01*
X52474815Y-48210783D01*
X52494500Y-48277821D01*
X52494500Y-48277834D01*
X52494499Y-48287870D01*
X52474808Y-48354908D01*
X52421999Y-48400657D01*
X52352840Y-48410594D01*
X52289287Y-48381563D01*
X52272515Y-48363852D01*
X52268078Y-48358131D01*
X52253075Y-48343129D01*
X52240435Y-48328330D01*
X52227961Y-48311160D01*
X52190528Y-48280194D01*
X52186206Y-48276260D01*
X51856818Y-47946872D01*
X51823333Y-47885549D01*
X51820499Y-47859191D01*
X51820499Y-47810820D01*
X51818579Y-47786417D01*
X51817665Y-47774796D01*
X51772869Y-47620607D01*
X51701542Y-47500000D01*
X52491937Y-47500000D01*
X52487606Y-47514754D01*
G37*
%TD.AperFunction*%
%TA.AperFunction,Conductor*%
G36*
X63603214Y-25520185D02*
G01*
X63648969Y-25572989D01*
X63658913Y-25642147D01*
X63629888Y-25705703D01*
X63604262Y-25727087D01*
X63604300Y-25727136D01*
X63602952Y-25728181D01*
X63599298Y-25731231D01*
X63598136Y-25731917D01*
X63583124Y-25746929D01*
X63568336Y-25759558D01*
X63551167Y-25772032D01*
X63551165Y-25772034D01*
X63520194Y-25809470D01*
X63516262Y-25813791D01*
X60600483Y-28729569D01*
X60587910Y-28739643D01*
X60588065Y-28739830D01*
X60582059Y-28744798D01*
X60557434Y-28771020D01*
X60532809Y-28797244D01*
X60521948Y-28808104D01*
X60511088Y-28818965D01*
X60511078Y-28818977D01*
X60506587Y-28824765D01*
X60502801Y-28829197D01*
X60469552Y-28864606D01*
X60459322Y-28883213D01*
X60448646Y-28899464D01*
X60435640Y-28916232D01*
X60435636Y-28916238D01*
X60416348Y-28960811D01*
X60413777Y-28966058D01*
X60390372Y-29008630D01*
X60390372Y-29008631D01*
X60385091Y-29029199D01*
X60378791Y-29047601D01*
X60370364Y-29067073D01*
X60362766Y-29115047D01*
X60361581Y-29120770D01*
X60349500Y-29167818D01*
X60349500Y-29189044D01*
X60347973Y-29208444D01*
X60345976Y-29221055D01*
X60344653Y-29229405D01*
X60348860Y-29273903D01*
X60349225Y-29277767D01*
X60349500Y-29283606D01*
X60349500Y-45452156D01*
X60329815Y-45519195D01*
X60313181Y-45539837D01*
X58362180Y-47490838D01*
X58300857Y-47524323D01*
X58231165Y-47519339D01*
X58175232Y-47477467D01*
X58150815Y-47412003D01*
X58150499Y-47403184D01*
X58150499Y-38385643D01*
X58170184Y-38318605D01*
X58203374Y-38284070D01*
X58306877Y-38211598D01*
X58461598Y-38056877D01*
X58587102Y-37877639D01*
X58679575Y-37679330D01*
X58736207Y-37467977D01*
X58755277Y-37250000D01*
X58736207Y-37032023D01*
X58679575Y-36820670D01*
X58587102Y-36622362D01*
X58587100Y-36622359D01*
X58587099Y-36622357D01*
X58461599Y-36443124D01*
X58387566Y-36369091D01*
X58306877Y-36288402D01*
X58127639Y-36162898D01*
X58127640Y-36162898D01*
X58127638Y-36162897D01*
X58028484Y-36116661D01*
X57929330Y-36070425D01*
X57929326Y-36070424D01*
X57929322Y-36070422D01*
X57717977Y-36013793D01*
X57500002Y-35994723D01*
X57499998Y-35994723D01*
X57390307Y-36004319D01*
X57321807Y-35990552D01*
X57271624Y-35941936D01*
X57255500Y-35880791D01*
X57255500Y-31124010D01*
X57255500Y-31124000D01*
X57243947Y-31016544D01*
X57232741Y-30965033D01*
X57232637Y-30964722D01*
X57198616Y-30862502D01*
X57198613Y-30862496D01*
X57120828Y-30741462D01*
X57120825Y-30741457D01*
X57120820Y-30741451D01*
X57075076Y-30688659D01*
X57075072Y-30688656D01*
X57075070Y-30688653D01*
X56966336Y-30594433D01*
X56966333Y-30594431D01*
X56966331Y-30594430D01*
X56835465Y-30534664D01*
X56835460Y-30534662D01*
X56835459Y-30534662D01*
X56812858Y-30528025D01*
X56768425Y-30514978D01*
X56768419Y-30514976D01*
X56682966Y-30502690D01*
X56626000Y-30494500D01*
X55124000Y-30494500D01*
X55123991Y-30494500D01*
X55123990Y-30494501D01*
X55016549Y-30506052D01*
X55016537Y-30506054D01*
X54965027Y-30517260D01*
X54862499Y-30551385D01*
X54817297Y-30580434D01*
X54750257Y-30600117D01*
X54698747Y-30588911D01*
X54579965Y-30534664D01*
X54579960Y-30534662D01*
X54579959Y-30534662D01*
X54557358Y-30528025D01*
X54512925Y-30514978D01*
X54512919Y-30514976D01*
X54427466Y-30502690D01*
X54370500Y-30494500D01*
X51874000Y-30494500D01*
X51873991Y-30494500D01*
X51873990Y-30494501D01*
X51766549Y-30506052D01*
X51766537Y-30506054D01*
X51715027Y-30517260D01*
X51612502Y-30551383D01*
X51612496Y-30551386D01*
X51491462Y-30629171D01*
X51491451Y-30629179D01*
X51438659Y-30674923D01*
X51344433Y-30783664D01*
X51344430Y-30783668D01*
X51284664Y-30914534D01*
X51264978Y-30981575D01*
X51264976Y-30981580D01*
X51248595Y-31095516D01*
X51244502Y-31123990D01*
X51244500Y-31124001D01*
X51244500Y-35928698D01*
X51224815Y-35995737D01*
X51172011Y-36041492D01*
X51152595Y-36048472D01*
X51070673Y-36070423D01*
X51070670Y-36070424D01*
X50872361Y-36162898D01*
X50872357Y-36162900D01*
X50693124Y-36288400D01*
X50587680Y-36393844D01*
X50526357Y-36427328D01*
X50456665Y-36422344D01*
X50412318Y-36393843D01*
X50306881Y-36288406D01*
X50306880Y-36288406D01*
X50306877Y-36288402D01*
X50127639Y-36162898D01*
X50127640Y-36162898D01*
X50127638Y-36162897D01*
X50028484Y-36116661D01*
X49929330Y-36070425D01*
X49929326Y-36070424D01*
X49929322Y-36070422D01*
X49717977Y-36013793D01*
X49500002Y-35994723D01*
X49499998Y-35994723D01*
X49390314Y-36004319D01*
X49282023Y-36013793D01*
X49282020Y-36013793D01*
X49070677Y-36070422D01*
X49070668Y-36070426D01*
X48872361Y-36162898D01*
X48872357Y-36162900D01*
X48750000Y-36248575D01*
X48750000Y-31000000D01*
X46250000Y-31000000D01*
X46250000Y-33626673D01*
X46248170Y-33623579D01*
X46248165Y-33623573D01*
X46234005Y-33609413D01*
X46221370Y-33594620D01*
X46209593Y-33578412D01*
X46173693Y-33548713D01*
X46169381Y-33544790D01*
X45106818Y-32482226D01*
X45073333Y-32420904D01*
X45070499Y-32394546D01*
X45070499Y-32310820D01*
X45067665Y-32274796D01*
X45022869Y-32120607D01*
X44941135Y-31982402D01*
X44941133Y-31982400D01*
X44941130Y-31982396D01*
X44827603Y-31868869D01*
X44827595Y-31868863D01*
X44689393Y-31787131D01*
X44689388Y-31787129D01*
X44535208Y-31742335D01*
X44535202Y-31742334D01*
X44499183Y-31739500D01*
X44499181Y-31739500D01*
X44166826Y-31739500D01*
X44000819Y-31739501D01*
X43964794Y-31742335D01*
X43810611Y-31787129D01*
X43810606Y-31787131D01*
X43735387Y-31831615D01*
X43718916Y-31841357D01*
X43717436Y-31842232D01*
X43654315Y-31859500D01*
X43025227Y-31859500D01*
X42958188Y-31839815D01*
X42923652Y-31806623D01*
X42788494Y-31613597D01*
X42621402Y-31446506D01*
X42621395Y-31446501D01*
X42427834Y-31310967D01*
X42427830Y-31310965D01*
X42384434Y-31290729D01*
X42213663Y-31211097D01*
X42213659Y-31211096D01*
X42213655Y-31211094D01*
X41985413Y-31149938D01*
X41985403Y-31149936D01*
X41750001Y-31129341D01*
X41749999Y-31129341D01*
X41514596Y-31149936D01*
X41514586Y-31149938D01*
X41286344Y-31211094D01*
X41286335Y-31211098D01*
X41076905Y-31308757D01*
X41007827Y-31319249D01*
X40944043Y-31290729D01*
X40905804Y-31232253D01*
X40900500Y-31196375D01*
X40900500Y-27525501D01*
X40902268Y-27509488D01*
X40902026Y-27509466D01*
X40902758Y-27501710D01*
X40902760Y-27501703D01*
X40900500Y-27429796D01*
X40900500Y-27399075D01*
X40899579Y-27391788D01*
X40899122Y-27385979D01*
X40898159Y-27355335D01*
X40897597Y-27337431D01*
X40891676Y-27317053D01*
X40887731Y-27298004D01*
X40885071Y-27276942D01*
X40867186Y-27231771D01*
X40865298Y-27226254D01*
X40851744Y-27179602D01*
X40851744Y-27179601D01*
X40840939Y-27161332D01*
X40832379Y-27143858D01*
X40831351Y-27141262D01*
X40824568Y-27124129D01*
X40796014Y-27084828D01*
X40792810Y-27079950D01*
X40770672Y-27042517D01*
X40768081Y-27038135D01*
X40753075Y-27023129D01*
X40740435Y-27008330D01*
X40734383Y-27000000D01*
X51418888Y-27000000D01*
X51437295Y-27198649D01*
X51437295Y-27198651D01*
X51437296Y-27198654D01*
X51491426Y-27388900D01*
X51491894Y-27390546D01*
X51580816Y-27569126D01*
X51580821Y-27569134D01*
X51675891Y-27695026D01*
X51701049Y-27728340D01*
X51848484Y-27862746D01*
X52018107Y-27967772D01*
X52204140Y-28039841D01*
X52400248Y-28076500D01*
X52400250Y-28076500D01*
X52599750Y-28076500D01*
X52599752Y-28076500D01*
X52795860Y-28039841D01*
X52981893Y-27967772D01*
X53151516Y-27862746D01*
X53298951Y-27728340D01*
X53419180Y-27569132D01*
X53508107Y-27390543D01*
X53562704Y-27198654D01*
X53581112Y-27000000D01*
X53562704Y-26801346D01*
X53508107Y-26609457D01*
X53454370Y-26501538D01*
X53419183Y-26430873D01*
X53419178Y-26430865D01*
X53298951Y-26271660D01*
X53218384Y-26198213D01*
X53151516Y-26137254D01*
X53151513Y-26137252D01*
X53151512Y-26137251D01*
X52981898Y-26032231D01*
X52981891Y-26032227D01*
X52888876Y-25996193D01*
X52795860Y-25960159D01*
X52599752Y-25923500D01*
X52400248Y-25923500D01*
X52204140Y-25960159D01*
X52204137Y-25960159D01*
X52204137Y-25960160D01*
X52018108Y-26032227D01*
X52018101Y-26032231D01*
X51848487Y-26137251D01*
X51701048Y-26271660D01*
X51580821Y-26430865D01*
X51580816Y-26430873D01*
X51491894Y-26609453D01*
X51437295Y-26801350D01*
X51418888Y-26999999D01*
X51418888Y-27000000D01*
X40734383Y-27000000D01*
X40727961Y-26991160D01*
X40690528Y-26960194D01*
X40686206Y-26956260D01*
X39580434Y-25850488D01*
X39570361Y-25837914D01*
X39570174Y-25838070D01*
X39565201Y-25832059D01*
X39512756Y-25782810D01*
X39491035Y-25761089D01*
X39485240Y-25756594D01*
X39480808Y-25752808D01*
X39445393Y-25719552D01*
X39440431Y-25714892D01*
X39405036Y-25654651D01*
X39407829Y-25584837D01*
X39447923Y-25527616D01*
X39512589Y-25501155D01*
X39525315Y-25500500D01*
X63536175Y-25500500D01*
X63603214Y-25520185D01*
G37*
%TD.AperFunction*%
%TA.AperFunction,Conductor*%
G36*
X48872361Y-38337102D02*
G01*
X49070670Y-38429575D01*
X49070676Y-38429576D01*
X49070677Y-38429577D01*
X49101364Y-38437799D01*
X49282023Y-38486207D01*
X49500000Y-38505277D01*
X49520863Y-38503451D01*
X49589360Y-38517216D01*
X49619352Y-38539298D01*
X52515223Y-41435169D01*
X52548708Y-41496492D01*
X52543724Y-41566184D01*
X52501852Y-41622117D01*
X52494594Y-41627158D01*
X52491461Y-41629171D01*
X52491451Y-41629179D01*
X52438659Y-41674923D01*
X52344433Y-41783664D01*
X52344430Y-41783668D01*
X52284664Y-41914534D01*
X52264978Y-41981575D01*
X52264976Y-41981580D01*
X52244500Y-42124001D01*
X52244500Y-42997934D01*
X52249646Y-43069881D01*
X52254669Y-43104813D01*
X52254669Y-43104812D01*
X52269999Y-43175281D01*
X52329768Y-43306159D01*
X52367542Y-43364937D01*
X52367544Y-43364940D01*
X52367550Y-43364948D01*
X52461760Y-43473672D01*
X52463681Y-43475593D01*
X52464117Y-43476392D01*
X52464662Y-43477021D01*
X52464525Y-43477139D01*
X52477008Y-43500000D01*
X50250000Y-43500000D01*
X50250000Y-47500000D01*
X50282621Y-47500000D01*
X50254610Y-47520229D01*
X50184843Y-47524019D01*
X50125593Y-47491003D01*
X48285421Y-45650831D01*
X46411819Y-43777228D01*
X46378334Y-43715905D01*
X46375500Y-43689547D01*
X46375500Y-40000000D01*
X48750000Y-40000000D01*
X48750000Y-38251423D01*
X48872361Y-38337102D01*
G37*
%TD.AperFunction*%
%TA.AperFunction,Conductor*%
G36*
X43717435Y-39677767D02*
G01*
X43810607Y-39732869D01*
X43851268Y-39744682D01*
X43964791Y-39777664D01*
X43964794Y-39777664D01*
X43964796Y-39777665D01*
X43973801Y-39778373D01*
X44000816Y-39780500D01*
X44000818Y-39780499D01*
X44000819Y-39780500D01*
X44084547Y-39780499D01*
X44151585Y-39800183D01*
X44172228Y-39816818D01*
X44588181Y-40232771D01*
X44621666Y-40294094D01*
X44624500Y-40320452D01*
X44624500Y-44615500D01*
X44604815Y-44682539D01*
X44552011Y-44728294D01*
X44500500Y-44739500D01*
X44499181Y-44739500D01*
X44001197Y-44739500D01*
X44000819Y-44739501D01*
X43964794Y-44742335D01*
X43810611Y-44787129D01*
X43810606Y-44787131D01*
X43717436Y-44842232D01*
X43654315Y-44859500D01*
X43025227Y-44859500D01*
X42958188Y-44839815D01*
X42923652Y-44806623D01*
X42788494Y-44613597D01*
X42621402Y-44446506D01*
X42621395Y-44446501D01*
X42427834Y-44310967D01*
X42427830Y-44310965D01*
X42384434Y-44290729D01*
X42213663Y-44211097D01*
X42213659Y-44211096D01*
X42213655Y-44211094D01*
X41985413Y-44149938D01*
X41985403Y-44149936D01*
X41750001Y-44129341D01*
X41749999Y-44129341D01*
X41514596Y-44149936D01*
X41514586Y-44149938D01*
X41286344Y-44211094D01*
X41286335Y-44211098D01*
X41076905Y-44308757D01*
X41007827Y-44319249D01*
X40944043Y-44290729D01*
X40905804Y-44232253D01*
X40900500Y-44196375D01*
X40900500Y-42999499D01*
X40920185Y-42932460D01*
X40972989Y-42886705D01*
X41024500Y-42875499D01*
X42647871Y-42875499D01*
X42647872Y-42875499D01*
X42707483Y-42869091D01*
X42842331Y-42818796D01*
X42957546Y-42732546D01*
X43043796Y-42617331D01*
X43094091Y-42482483D01*
X43100500Y-42422873D01*
X43100499Y-40627128D01*
X43094091Y-40567517D01*
X43078201Y-40524915D01*
X43043797Y-40432671D01*
X43043793Y-40432664D01*
X42957547Y-40317455D01*
X42957544Y-40317452D01*
X42842335Y-40231206D01*
X42842328Y-40231202D01*
X42710917Y-40182189D01*
X42654983Y-40140318D01*
X42630566Y-40074853D01*
X42645418Y-40006580D01*
X42666563Y-39978332D01*
X42788495Y-39856401D01*
X42888642Y-39713375D01*
X42943219Y-39669752D01*
X42990217Y-39660500D01*
X43654315Y-39660500D01*
X43717435Y-39677767D01*
G37*
%TD.AperFunction*%
%TA.AperFunction,Conductor*%
G36*
X43647443Y-33130185D02*
G01*
X43668085Y-33146819D01*
X43672396Y-33151130D01*
X43672400Y-33151133D01*
X43672402Y-33151135D01*
X43810607Y-33232869D01*
X43851268Y-33244682D01*
X43964791Y-33277664D01*
X43964794Y-33277664D01*
X43964796Y-33277665D01*
X43973801Y-33278373D01*
X44000816Y-33280500D01*
X44000818Y-33280499D01*
X44000819Y-33280500D01*
X44084547Y-33280499D01*
X44151585Y-33300183D01*
X44172228Y-33316818D01*
X45088181Y-34232771D01*
X45121666Y-34294094D01*
X45124500Y-34320452D01*
X45124500Y-38366404D01*
X45104815Y-38433443D01*
X45052011Y-38479198D01*
X44982853Y-38489142D01*
X44919297Y-38460117D01*
X44912819Y-38454085D01*
X44827603Y-38368869D01*
X44827595Y-38368863D01*
X44689393Y-38287131D01*
X44689388Y-38287129D01*
X44535208Y-38242335D01*
X44535202Y-38242334D01*
X44499183Y-38239500D01*
X44499181Y-38239500D01*
X44166485Y-38239500D01*
X44000819Y-38239501D01*
X43964794Y-38242335D01*
X43810611Y-38287129D01*
X43810606Y-38287131D01*
X43717436Y-38342232D01*
X43654315Y-38359500D01*
X43025227Y-38359500D01*
X42958188Y-38339815D01*
X42923652Y-38306623D01*
X42788494Y-38113597D01*
X42621402Y-37946506D01*
X42621395Y-37946501D01*
X42427834Y-37810967D01*
X42427830Y-37810965D01*
X42384434Y-37790729D01*
X42213663Y-37711097D01*
X42213659Y-37711096D01*
X42213655Y-37711094D01*
X41985413Y-37649938D01*
X41985403Y-37649936D01*
X41750001Y-37629341D01*
X41749999Y-37629341D01*
X41514596Y-37649936D01*
X41514586Y-37649938D01*
X41286344Y-37711094D01*
X41286335Y-37711098D01*
X41076905Y-37808757D01*
X41007827Y-37819249D01*
X40944043Y-37790729D01*
X40905804Y-37732253D01*
X40900500Y-37696375D01*
X40900500Y-36499499D01*
X40920185Y-36432460D01*
X40972989Y-36386705D01*
X41024500Y-36375499D01*
X42647871Y-36375499D01*
X42647872Y-36375499D01*
X42707483Y-36369091D01*
X42842331Y-36318796D01*
X42957546Y-36232546D01*
X43043796Y-36117331D01*
X43094091Y-35982483D01*
X43100500Y-35922873D01*
X43100499Y-34127128D01*
X43094091Y-34067517D01*
X43057962Y-33970651D01*
X43043797Y-33932671D01*
X43043793Y-33932664D01*
X42957547Y-33817455D01*
X42957544Y-33817452D01*
X42842335Y-33731206D01*
X42842328Y-33731202D01*
X42710917Y-33682189D01*
X42654983Y-33640318D01*
X42630566Y-33574853D01*
X42645418Y-33506580D01*
X42666563Y-33478332D01*
X42788495Y-33356401D01*
X42923651Y-33163377D01*
X42978229Y-33119752D01*
X43025227Y-33110500D01*
X43580404Y-33110500D01*
X43647443Y-33130185D01*
G37*
%TD.AperFunction*%
%TA.AperFunction,Conductor*%
G36*
X70484855Y-28666546D02*
G01*
X70501575Y-28685842D01*
X70631500Y-28871395D01*
X70631505Y-28871401D01*
X70798599Y-29038495D01*
X70895384Y-29106264D01*
X70992165Y-29174032D01*
X70992167Y-29174033D01*
X70992170Y-29174035D01*
X71206337Y-29273903D01*
X71206343Y-29273904D01*
X71206344Y-29273905D01*
X71261285Y-29288626D01*
X71434592Y-29335063D01*
X71648217Y-29353753D01*
X71713285Y-29379206D01*
X71754264Y-29435796D01*
X71758142Y-29505558D01*
X71725090Y-29564962D01*
X62862181Y-38427872D01*
X62800858Y-38461357D01*
X62731166Y-38456373D01*
X62675233Y-38414501D01*
X62650816Y-38349037D01*
X62650500Y-38340191D01*
X62650500Y-35450807D01*
X62670185Y-35383768D01*
X62686819Y-35363126D01*
X65655399Y-32394546D01*
X68702238Y-29347706D01*
X68763559Y-29314223D01*
X68822006Y-29315613D01*
X68894592Y-29335063D01*
X69071034Y-29350500D01*
X69129999Y-29355659D01*
X69130000Y-29355659D01*
X69130001Y-29355659D01*
X69188966Y-29350500D01*
X69365408Y-29335063D01*
X69593663Y-29273903D01*
X69807830Y-29174035D01*
X70001401Y-29038495D01*
X70168495Y-28871401D01*
X70298424Y-28685842D01*
X70353002Y-28642217D01*
X70422500Y-28635023D01*
X70484855Y-28666546D01*
G37*
%TD.AperFunction*%
%TD*%
M02*
