M48
; DRILL file {KiCad 7.0.7-7.0.7~ubuntu22.04.1} date vr 06 okt 2023 15:12:11 CEST
; FORMAT={-:-/ absolute / metric / decimal}
; #@! TF.CreationDate,2023-10-06T15:12:11+02:00
; #@! TF.GenerationSoftware,Kicad,Pcbnew,7.0.7-7.0.7~ubuntu22.04.1
; #@! TF.FileFunction,Plated,1,4,PTH
FMAT,2
METRIC
; #@! TA.AperFunction,Plated,PTH,ViaDrill
T1C0.400
; #@! TA.AperFunction,Plated,PTH,ComponentDrill
T2C0.800
; #@! TA.AperFunction,Plated,PTH,ComponentDrill
T3C1.000
%
G90
G05
T1
X31.0Y-67.75
X31.0Y-69.25
X31.0Y-70.75
X32.0Y-32.25
X32.0Y-35.0
X32.0Y-39.0
X32.0Y-41.5
X32.0Y-45.5
X32.0Y-48.0
X32.5Y-67.75
X32.5Y-69.25
X32.5Y-70.75
X32.75Y-60.0
X32.75Y-61.5
X32.75Y-63.0
X34.0Y-67.75
X34.0Y-69.25
X34.0Y-70.75
X34.25Y-60.0
X34.25Y-61.5
X34.25Y-63.0
X35.75Y-32.25
X35.75Y-35.0
X35.75Y-39.0
X35.75Y-41.5
X35.75Y-45.5
X35.75Y-48.0
X35.75Y-60.0
X35.75Y-61.5
X35.75Y-63.0
X39.25Y-32.25
X39.25Y-35.0
X44.25Y-27.75
X44.25Y-30.75
X44.25Y-37.25
X44.25Y-43.75
X44.25Y-50.25
X46.72Y-57.22
X46.75Y-58.25
X46.772Y-56.108
X47.5Y-32.5
X47.5Y-34.0
X47.5Y-35.5
X47.5Y-39.0
X49.75Y-55.75
X49.75Y-56.75
X51.0Y-44.0
X51.0Y-45.0
X51.0Y-46.0
X51.0Y-56.75
X51.25Y-50.75
X51.25Y-52.0
X51.25Y-53.25
X51.25Y-60.75
X51.25Y-62.25
X51.25Y-63.75
X52.0Y-44.0
X52.5Y-50.75
X52.5Y-52.0
X52.5Y-53.25
X52.75Y-60.75
X52.75Y-62.25
X52.75Y-63.75
X53.5Y-32.75
X53.5Y-34.0
X53.5Y-35.5
X53.5Y-39.0
X53.5Y-42.75
X53.5Y-43.75
X53.5Y-44.75
X53.75Y-50.75
X53.75Y-52.0
X53.75Y-53.25
X54.25Y-60.75
X54.25Y-62.25
X54.25Y-63.75
X55.5Y-32.75
X55.5Y-34.0
X55.5Y-35.25
X55.5Y-39.0
X55.5Y-56.25
X55.5Y-57.5
X58.75Y-27.5
X59.041Y-55.209
X59.25Y-53.75
X61.25Y-67.5
X61.25Y-69.0
X61.25Y-70.5
X62.75Y-67.5
X62.75Y-69.0
X62.75Y-70.5
X64.25Y-35.25
X64.25Y-67.5
X64.25Y-69.0
X64.25Y-70.5
X68.25Y-31.5
X69.25Y-70.5
X70.25Y-50.0
X70.25Y-51.5
X70.25Y-53.0
X71.75Y-50.0
X71.75Y-51.5
X71.75Y-53.0
X73.25Y-50.0
X73.25Y-51.5
X73.25Y-53.0
T2
X47.5Y-37.25
X49.5Y-37.25
X51.5Y-37.25
X53.5Y-37.25
X55.5Y-37.25
X57.5Y-37.25
T3
X28.25Y-28.0
X28.25Y-76.0
X30.79Y-28.0
X30.79Y-76.0
X33.33Y-28.0
X33.33Y-76.0
X35.87Y-28.0
X35.87Y-76.0
X38.41Y-28.0
X38.41Y-76.0
X41.75Y-32.485
X41.75Y-35.025
X41.75Y-38.985
X41.75Y-41.525
X41.75Y-45.485
X41.75Y-48.025
X41.75Y-51.985
X41.75Y-54.525
X66.59Y-28.0
X66.59Y-76.0
X69.13Y-28.0
X69.13Y-76.0
X71.67Y-28.0
X71.67Y-76.0
X74.21Y-28.0
X74.21Y-76.0
X76.75Y-28.0
X76.75Y-76.0
T0
M30
