%TF.GenerationSoftware,KiCad,Pcbnew,7.0.7-7.0.7~ubuntu22.04.1*%
%TF.CreationDate,2023-10-06T14:41:20+02:00*%
%TF.ProjectId,ShotClockProject,53686f74-436c-46f6-936b-50726f6a6563,rev?*%
%TF.SameCoordinates,Original*%
%TF.FileFunction,Soldermask,Bot*%
%TF.FilePolarity,Negative*%
%FSLAX46Y46*%
G04 Gerber Fmt 4.6, Leading zero omitted, Abs format (unit mm)*
G04 Created by KiCad (PCBNEW 7.0.7-7.0.7~ubuntu22.04.1) date 2023-10-06 14:41:20*
%MOMM*%
%LPD*%
G01*
G04 APERTURE LIST*
%ADD10R,1.700000X1.700000*%
%ADD11O,1.700000X1.700000*%
%ADD12C,0.520000*%
%ADD13O,1.100000X2.200000*%
%ADD14C,1.500000*%
%ADD15C,0.900000*%
G04 APERTURE END LIST*
D10*
%TO.C,J4*%
X130575000Y-91225000D03*
D11*
X130575000Y-88685000D03*
%TD*%
D12*
%TO.C,J6*%
X124000000Y-128250000D03*
X124000000Y-120750000D03*
D13*
X121850000Y-126900000D03*
X126150000Y-126900000D03*
X121850000Y-122100000D03*
X126150000Y-122100000D03*
%TD*%
D14*
%TO.C,U9*%
X132175000Y-95000000D03*
X132175000Y-97000000D03*
X132175000Y-99000000D03*
X132175000Y-101000000D03*
X132175000Y-103000000D03*
X132175000Y-105000000D03*
%TD*%
D15*
%TO.C,SW2*%
X153150000Y-113400000D03*
X153150000Y-110400000D03*
%TD*%
D14*
%TO.C,U6*%
X159000000Y-78175000D03*
X157000000Y-78175000D03*
X155000000Y-78175000D03*
X153000000Y-78175000D03*
X151000000Y-78175000D03*
X149000000Y-78175000D03*
%TD*%
D10*
%TO.C,J7*%
X138500000Y-82250000D03*
D11*
X138500000Y-84790000D03*
%TD*%
D14*
%TO.C,U8*%
X149000000Y-121825000D03*
X151000000Y-121825000D03*
X153000000Y-121825000D03*
X155000000Y-121825000D03*
X157000000Y-121825000D03*
X159000000Y-121825000D03*
%TD*%
D10*
%TO.C,J1*%
X164904106Y-78500000D03*
D11*
X167444106Y-78500000D03*
X169984106Y-78500000D03*
X172524106Y-78500000D03*
X175064106Y-78500000D03*
X177604106Y-78500000D03*
%TD*%
D14*
%TO.C,U7*%
X175825000Y-105000000D03*
X175825000Y-103000000D03*
X175825000Y-101000000D03*
X175825000Y-99000000D03*
X175825000Y-97000000D03*
X175825000Y-95000000D03*
%TD*%
M02*
