%TF.GenerationSoftware,KiCad,Pcbnew,7.0.7-7.0.7~ubuntu22.04.1*%
%TF.CreationDate,2023-10-06T14:41:20+02:00*%
%TF.ProjectId,ShotClockProject,53686f74-436c-46f6-936b-50726f6a6563,rev?*%
%TF.SameCoordinates,Original*%
%TF.FileFunction,Soldermask,Top*%
%TF.FilePolarity,Negative*%
%FSLAX46Y46*%
G04 Gerber Fmt 4.6, Leading zero omitted, Abs format (unit mm)*
G04 Created by KiCad (PCBNEW 7.0.7-7.0.7~ubuntu22.04.1) date 2023-10-06 14:41:20*
%MOMM*%
%LPD*%
G01*
G04 APERTURE LIST*
G04 Aperture macros list*
%AMRoundRect*
0 Rectangle with rounded corners*
0 $1 Rounding radius*
0 $2 $3 $4 $5 $6 $7 $8 $9 X,Y pos of 4 corners*
0 Add a 4 corners polygon primitive as box body*
4,1,4,$2,$3,$4,$5,$6,$7,$8,$9,$2,$3,0*
0 Add four circle primitives for the rounded corners*
1,1,$1+$1,$2,$3*
1,1,$1+$1,$4,$5*
1,1,$1+$1,$6,$7*
1,1,$1+$1,$8,$9*
0 Add four rect primitives between the rounded corners*
20,1,$1+$1,$2,$3,$4,$5,0*
20,1,$1+$1,$4,$5,$6,$7,0*
20,1,$1+$1,$6,$7,$8,$9,0*
20,1,$1+$1,$8,$9,$2,$3,0*%
%AMFreePoly0*
4,1,21,-0.125000,1.200000,0.125000,1.200000,0.125000,1.700000,0.375000,1.700000,0.375000,1.200000,0.825000,1.200000,0.825000,-1.200000,0.375000,-1.200000,0.375000,-1.700000,0.125000,-1.700000,0.125000,-1.200000,-0.125000,-1.200000,-0.125000,-1.700000,-0.375000,-1.700000,-0.375000,-1.200000,-0.825000,-1.200000,-0.825000,1.200000,-0.375000,1.200000,-0.375000,1.700000,-0.125000,1.700000,
-0.125000,1.200000,-0.125000,1.200000,$1*%
G04 Aperture macros list end*
%ADD10RoundRect,0.150000X-0.150000X0.512500X-0.150000X-0.512500X0.150000X-0.512500X0.150000X0.512500X0*%
%ADD11RoundRect,0.135000X0.185000X-0.135000X0.185000X0.135000X-0.185000X0.135000X-0.185000X-0.135000X0*%
%ADD12RoundRect,0.135000X0.135000X0.185000X-0.135000X0.185000X-0.135000X-0.185000X0.135000X-0.185000X0*%
%ADD13R,1.700000X1.700000*%
%ADD14O,1.700000X1.700000*%
%ADD15RoundRect,0.140000X0.170000X-0.140000X0.170000X0.140000X-0.170000X0.140000X-0.170000X-0.140000X0*%
%ADD16RoundRect,0.140000X0.140000X0.170000X-0.140000X0.170000X-0.140000X-0.170000X0.140000X-0.170000X0*%
%ADD17RoundRect,0.140000X-0.170000X0.140000X-0.170000X-0.140000X0.170000X-0.140000X0.170000X0.140000X0*%
%ADD18RoundRect,0.135000X-0.185000X0.135000X-0.185000X-0.135000X0.185000X-0.135000X0.185000X0.135000X0*%
%ADD19RoundRect,0.218750X-0.218750X-0.256250X0.218750X-0.256250X0.218750X0.256250X-0.218750X0.256250X0*%
%ADD20C,0.520000*%
%ADD21R,0.870000X0.300000*%
%ADD22O,1.100000X2.200000*%
%ADD23RoundRect,0.225000X-0.250000X0.225000X-0.250000X-0.225000X0.250000X-0.225000X0.250000X0.225000X0*%
%ADD24C,1.500000*%
%ADD25R,1.000000X2.550000*%
%ADD26RoundRect,0.135000X-0.135000X-0.185000X0.135000X-0.185000X0.135000X0.185000X-0.135000X0.185000X0*%
%ADD27C,1.000000*%
%ADD28RoundRect,0.218750X-0.256250X0.218750X-0.256250X-0.218750X0.256250X-0.218750X0.256250X0.218750X0*%
%ADD29R,1.550000X0.600000*%
%ADD30R,2.000000X1.500000*%
%ADD31R,1.600000X3.800000*%
%ADD32R,2.550000X1.000000*%
%ADD33RoundRect,0.150000X0.150000X-0.825000X0.150000X0.825000X-0.150000X0.825000X-0.150000X-0.825000X0*%
%ADD34RoundRect,0.250000X-2.050000X-0.300000X2.050000X-0.300000X2.050000X0.300000X-2.050000X0.300000X0*%
%ADD35RoundRect,0.250002X-4.449998X-5.149998X4.449998X-5.149998X4.449998X5.149998X-4.449998X5.149998X0*%
%ADD36R,0.800000X1.000000*%
%ADD37C,0.900000*%
%ADD38R,1.500000X0.700000*%
%ADD39RoundRect,0.218750X0.256250X-0.218750X0.256250X0.218750X-0.256250X0.218750X-0.256250X-0.218750X0*%
%ADD40R,0.800000X2.700000*%
%ADD41RoundRect,0.075000X-0.662500X-0.075000X0.662500X-0.075000X0.662500X0.075000X-0.662500X0.075000X0*%
%ADD42RoundRect,0.075000X-0.075000X-0.662500X0.075000X-0.662500X0.075000X0.662500X-0.075000X0.662500X0*%
%ADD43RoundRect,0.112500X0.187500X0.112500X-0.187500X0.112500X-0.187500X-0.112500X0.187500X-0.112500X0*%
%ADD44R,0.240000X0.600000*%
%ADD45FreePoly0,270.000000*%
%ADD46R,1.200000X1.400000*%
%ADD47R,2.400000X0.740000*%
%ADD48RoundRect,0.150000X0.587500X0.150000X-0.587500X0.150000X-0.587500X-0.150000X0.587500X-0.150000X0*%
%ADD49RoundRect,0.140000X-0.140000X-0.170000X0.140000X-0.170000X0.140000X0.170000X-0.140000X0.170000X0*%
%ADD50R,2.600000X3.100000*%
%ADD51RoundRect,0.150000X-0.587500X-0.150000X0.587500X-0.150000X0.587500X0.150000X-0.587500X0.150000X0*%
G04 APERTURE END LIST*
D10*
%TO.C,U2*%
X146680000Y-90112500D03*
X145730000Y-90112500D03*
X144780000Y-90112500D03*
X144780000Y-92387500D03*
X146680000Y-92387500D03*
%TD*%
D11*
%TO.C,R3*%
X120250000Y-107250000D03*
X120250000Y-106230000D03*
%TD*%
D12*
%TO.C,R24*%
X143760000Y-73500000D03*
X142740000Y-73500000D03*
%TD*%
D13*
%TO.C,J4*%
X130575000Y-91225000D03*
D14*
X130575000Y-88685000D03*
%TD*%
D15*
%TO.C,C5*%
X146500000Y-99514252D03*
X146500000Y-98554252D03*
%TD*%
D16*
%TO.C,C22*%
X129470000Y-75250000D03*
X128510000Y-75250000D03*
%TD*%
D15*
%TO.C,C28*%
X167613764Y-120297396D03*
X167613764Y-119337396D03*
%TD*%
D17*
%TO.C,C6*%
X157500000Y-85270000D03*
X157500000Y-86230000D03*
%TD*%
D18*
%TO.C,R38*%
X171739850Y-80817284D03*
X171739850Y-81837284D03*
%TD*%
D19*
%TO.C,D1*%
X184712500Y-120200000D03*
X186287500Y-120200000D03*
%TD*%
D20*
%TO.C,J6*%
X124000000Y-128250000D03*
X124000000Y-120750000D03*
D21*
X123135000Y-127250000D03*
X123135000Y-125750000D03*
X123135000Y-125250000D03*
X123135000Y-124750000D03*
X123135000Y-124250000D03*
X123135000Y-123750000D03*
X123135000Y-123250000D03*
X123135000Y-121750000D03*
X124865000Y-121750000D03*
X124865000Y-123250000D03*
X124865000Y-123750000D03*
X124865000Y-124250000D03*
X124865000Y-124750000D03*
X124865000Y-125250000D03*
X124865000Y-125750000D03*
X124865000Y-127250000D03*
D22*
X121850000Y-126900000D03*
X126150000Y-126900000D03*
X121850000Y-122100000D03*
X126150000Y-122100000D03*
%TD*%
D11*
%TO.C,R30*%
X131250000Y-67510000D03*
X131250000Y-66490000D03*
%TD*%
D23*
%TO.C,C25*%
X121760000Y-71225000D03*
X121760000Y-72775000D03*
%TD*%
D24*
%TO.C,U9*%
X132175000Y-95000000D03*
X132175000Y-97000000D03*
X132175000Y-99000000D03*
X132175000Y-101000000D03*
X132175000Y-103000000D03*
X132175000Y-105000000D03*
%TD*%
D25*
%TO.C,SW1*%
X122000000Y-109620000D03*
X124000000Y-109620000D03*
X126000000Y-109620000D03*
X122000000Y-116380000D03*
X124000000Y-116380000D03*
X126000000Y-116380000D03*
%TD*%
D19*
%TO.C,D2*%
X184712500Y-115200000D03*
X186287500Y-115200000D03*
%TD*%
D26*
%TO.C,R35*%
X167740000Y-89500000D03*
X168760000Y-89500000D03*
%TD*%
D12*
%TO.C,R14*%
X144760000Y-133000000D03*
X143740000Y-133000000D03*
%TD*%
D27*
%TO.C,TP2*%
X128500000Y-116500000D03*
%TD*%
D15*
%TO.C,C1*%
X151250000Y-92647500D03*
X151250000Y-91687500D03*
%TD*%
D17*
%TO.C,C15*%
X148000000Y-102290000D03*
X148000000Y-103250000D03*
%TD*%
D12*
%TO.C,R25*%
X140760000Y-74750000D03*
X139740000Y-74750000D03*
%TD*%
D18*
%TO.C,R32*%
X168863764Y-119327396D03*
X168863764Y-120347396D03*
%TD*%
D15*
%TO.C,C2*%
X150000000Y-92647500D03*
X150000000Y-91687500D03*
%TD*%
D11*
%TO.C,R37*%
X127594366Y-123939407D03*
X127594366Y-122919407D03*
%TD*%
D28*
%TO.C,D5*%
X131250000Y-68962500D03*
X131250000Y-70537500D03*
%TD*%
D12*
%TO.C,R34*%
X168760000Y-91500000D03*
X167740000Y-91500000D03*
%TD*%
D29*
%TO.C,J3*%
X130630000Y-82450000D03*
X130630000Y-83450000D03*
X130630000Y-84450000D03*
D30*
X126750000Y-85750000D03*
X126750000Y-81150000D03*
%TD*%
D16*
%TO.C,C12*%
X146710000Y-95250000D03*
X145750000Y-95250000D03*
%TD*%
D31*
%TO.C,BUZZER1*%
X183500000Y-86750000D03*
X175500000Y-86750000D03*
%TD*%
D15*
%TO.C,C4*%
X147572489Y-99511579D03*
X147572489Y-98551579D03*
%TD*%
D17*
%TO.C,C26*%
X123485444Y-75619367D03*
X123485444Y-76579367D03*
%TD*%
D11*
%TO.C,R23*%
X135750000Y-74760000D03*
X135750000Y-73740000D03*
%TD*%
D32*
%TO.C,SW4*%
X171120000Y-122600000D03*
X171120000Y-120600000D03*
X171120000Y-118600000D03*
X177880000Y-122600000D03*
X177880000Y-120600000D03*
X177880000Y-118600000D03*
%TD*%
D18*
%TO.C,R2*%
X145000000Y-74740000D03*
X145000000Y-75760000D03*
%TD*%
D33*
%TO.C,U5*%
X164060000Y-106725000D03*
X165330000Y-106725000D03*
X166600000Y-106725000D03*
X167870000Y-106725000D03*
X169140000Y-106725000D03*
X170410000Y-106725000D03*
X171680000Y-106725000D03*
X171680000Y-101775000D03*
X170410000Y-101775000D03*
X169140000Y-101775000D03*
X167870000Y-101775000D03*
X166600000Y-101775000D03*
X165330000Y-101775000D03*
X164060000Y-101775000D03*
%TD*%
D34*
%TO.C,Q1*%
X132500000Y-111250000D03*
D35*
X141650000Y-113790000D03*
D34*
X132500000Y-116330000D03*
%TD*%
D36*
%TO.C,SW2*%
X152040000Y-115550000D03*
X154250000Y-115550000D03*
D37*
X153150000Y-113400000D03*
X153150000Y-110400000D03*
D36*
X152040000Y-108250000D03*
X154250000Y-108250000D03*
D38*
X151390000Y-114150000D03*
X151390000Y-111150000D03*
X151390000Y-109650000D03*
%TD*%
D15*
%TO.C,C29*%
X167629907Y-112562543D03*
X167629907Y-111602543D03*
%TD*%
D16*
%TO.C,C17*%
X143710000Y-74750000D03*
X142750000Y-74750000D03*
%TD*%
D39*
%TO.C,FB1*%
X148500000Y-93037500D03*
X148500000Y-91462500D03*
%TD*%
D11*
%TO.C,R26*%
X145250000Y-67260000D03*
X145250000Y-66240000D03*
%TD*%
D12*
%TO.C,R28*%
X129517361Y-74103111D03*
X128497361Y-74103111D03*
%TD*%
D24*
%TO.C,U6*%
X159000000Y-78175000D03*
X157000000Y-78175000D03*
X155000000Y-78175000D03*
X153000000Y-78175000D03*
X151000000Y-78175000D03*
X149000000Y-78175000D03*
%TD*%
D40*
%TO.C,L2*%
X123473288Y-68915675D03*
X125773288Y-68915675D03*
%TD*%
D12*
%TO.C,R13*%
X183260000Y-125200000D03*
X182240000Y-125200000D03*
%TD*%
D18*
%TO.C,R6*%
X161000000Y-96990000D03*
X161000000Y-98010000D03*
%TD*%
D41*
%TO.C,U1*%
X149837500Y-97250000D03*
X149837500Y-97750000D03*
X149837500Y-98250000D03*
X149837500Y-98750000D03*
X149837500Y-99250000D03*
X149837500Y-99750000D03*
X149837500Y-100250000D03*
X149837500Y-100750000D03*
X149837500Y-101250000D03*
X149837500Y-101750000D03*
X149837500Y-102250000D03*
X149837500Y-102750000D03*
D42*
X151250000Y-104162500D03*
X151750000Y-104162500D03*
X152250000Y-104162500D03*
X152750000Y-104162500D03*
X153250000Y-104162500D03*
X153750000Y-104162500D03*
X154250000Y-104162500D03*
X154750000Y-104162500D03*
X155250000Y-104162500D03*
X155750000Y-104162500D03*
X156250000Y-104162500D03*
X156750000Y-104162500D03*
D41*
X158162500Y-102750000D03*
X158162500Y-102250000D03*
X158162500Y-101750000D03*
X158162500Y-101250000D03*
X158162500Y-100750000D03*
X158162500Y-100250000D03*
X158162500Y-99750000D03*
X158162500Y-99250000D03*
X158162500Y-98750000D03*
X158162500Y-98250000D03*
X158162500Y-97750000D03*
X158162500Y-97250000D03*
D42*
X156750000Y-95837500D03*
X156250000Y-95837500D03*
X155750000Y-95837500D03*
X155250000Y-95837500D03*
X154750000Y-95837500D03*
X154250000Y-95837500D03*
X153750000Y-95837500D03*
X153250000Y-95837500D03*
X152750000Y-95837500D03*
X152250000Y-95837500D03*
X151750000Y-95837500D03*
X151250000Y-95837500D03*
%TD*%
D43*
%TO.C,D6*%
X172471141Y-93265218D03*
X170371141Y-93265218D03*
%TD*%
D44*
%TO.C,U3*%
X139970000Y-70850000D03*
X139470000Y-70850000D03*
X138970000Y-70850000D03*
X138470000Y-70850000D03*
X137970000Y-70850000D03*
X137970000Y-73650000D03*
X138470000Y-73650000D03*
X138970000Y-73650000D03*
X139470000Y-73650000D03*
X139970000Y-73650000D03*
D45*
X138970000Y-72250000D03*
%TD*%
D12*
%TO.C,R15*%
X142260000Y-125250000D03*
X141240000Y-125250000D03*
%TD*%
%TO.C,R12*%
X183260000Y-115200000D03*
X182240000Y-115200000D03*
%TD*%
D13*
%TO.C,J7*%
X138500000Y-82250000D03*
D14*
X138500000Y-84790000D03*
%TD*%
D19*
%TO.C,D3*%
X184712500Y-125200000D03*
X186287500Y-125200000D03*
%TD*%
D16*
%TO.C,C8*%
X141880000Y-103500000D03*
X140920000Y-103500000D03*
%TD*%
%TO.C,C9*%
X146730000Y-88500000D03*
X145770000Y-88500000D03*
%TD*%
D46*
%TO.C,Y1*%
X140550000Y-99650000D03*
X140550000Y-101850000D03*
X142250000Y-101850000D03*
X142250000Y-99650000D03*
%TD*%
D18*
%TO.C,R17*%
X146750000Y-102240000D03*
X146750000Y-103260000D03*
%TD*%
D24*
%TO.C,U8*%
X149000000Y-121825000D03*
X151000000Y-121825000D03*
X153000000Y-121825000D03*
X155000000Y-121825000D03*
X157000000Y-121825000D03*
X159000000Y-121825000D03*
%TD*%
D11*
%TO.C,R27*%
X120760000Y-75260000D03*
X120760000Y-74240000D03*
%TD*%
D26*
%TO.C,R4*%
X131389746Y-75299114D03*
X132409746Y-75299114D03*
%TD*%
%TO.C,R7*%
X182240000Y-120200000D03*
X183260000Y-120200000D03*
%TD*%
D11*
%TO.C,R36*%
X120364285Y-125285612D03*
X120364285Y-124265612D03*
%TD*%
D18*
%TO.C,R33*%
X168879907Y-111592543D03*
X168879907Y-112612543D03*
%TD*%
D12*
%TO.C,R29*%
X126520000Y-75250000D03*
X125500000Y-75250000D03*
%TD*%
D47*
%TO.C,J2*%
X164450000Y-91560000D03*
X160550000Y-91560000D03*
X164450000Y-90290000D03*
X160550000Y-90290000D03*
X164450000Y-89020000D03*
X160550000Y-89020000D03*
X164450000Y-87750000D03*
X160550000Y-87750000D03*
X164450000Y-86480000D03*
X160550000Y-86480000D03*
X164450000Y-85210000D03*
X160550000Y-85210000D03*
X164450000Y-83940000D03*
X160550000Y-83940000D03*
%TD*%
D11*
%TO.C,R20*%
X142250000Y-128010000D03*
X142250000Y-126990000D03*
%TD*%
D32*
%TO.C,SW3*%
X171120000Y-130200000D03*
X171120000Y-128200000D03*
X171120000Y-126200000D03*
X177880000Y-130200000D03*
X177880000Y-128200000D03*
X177880000Y-126200000D03*
%TD*%
D23*
%TO.C,C24*%
X127760000Y-71225000D03*
X127760000Y-72775000D03*
%TD*%
%TO.C,C19*%
X142000000Y-70450000D03*
X142000000Y-72000000D03*
%TD*%
D44*
%TO.C,U4*%
X125630000Y-71350000D03*
X125130000Y-71350000D03*
X124630000Y-71350000D03*
X124130000Y-71350000D03*
X123630000Y-71350000D03*
X123630000Y-74150000D03*
X124130000Y-74150000D03*
X124630000Y-74150000D03*
X125130000Y-74150000D03*
X125630000Y-74150000D03*
D45*
X124630000Y-72750000D03*
%TD*%
D11*
%TO.C,R11*%
X145500000Y-103260000D03*
X145500000Y-102240000D03*
%TD*%
D18*
%TO.C,R31*%
X168884243Y-126830794D03*
X168884243Y-127850794D03*
%TD*%
D16*
%TO.C,C10*%
X146710000Y-87250000D03*
X145750000Y-87250000D03*
%TD*%
D23*
%TO.C,C23*%
X129510000Y-71225000D03*
X129510000Y-72775000D03*
%TD*%
D48*
%TO.C,Q2*%
X145625000Y-128950000D03*
X145625000Y-127050000D03*
X143750000Y-128000000D03*
%TD*%
D49*
%TO.C,C3*%
X148836477Y-90177139D03*
X149796477Y-90177139D03*
%TD*%
D26*
%TO.C,R19*%
X143740000Y-131750000D03*
X144760000Y-131750000D03*
%TD*%
D13*
%TO.C,J1*%
X164904106Y-78500000D03*
D14*
X167444106Y-78500000D03*
X169984106Y-78500000D03*
X172524106Y-78500000D03*
X175064106Y-78500000D03*
X177604106Y-78500000D03*
%TD*%
D15*
%TO.C,C27*%
X167634243Y-127820794D03*
X167634243Y-126860794D03*
%TD*%
D16*
%TO.C,C16*%
X144730000Y-130500000D03*
X143770000Y-130500000D03*
%TD*%
D12*
%TO.C,R16*%
X142260000Y-123250000D03*
X141240000Y-123250000D03*
%TD*%
D49*
%TO.C,C7*%
X140920000Y-98000000D03*
X141880000Y-98000000D03*
%TD*%
D40*
%TO.C,L1*%
X137822719Y-68433302D03*
X140122719Y-68433302D03*
%TD*%
D28*
%TO.C,D4*%
X145250000Y-68712500D03*
X145250000Y-70287500D03*
%TD*%
D11*
%TO.C,R18*%
X128750000Y-123934212D03*
X128750000Y-122914212D03*
%TD*%
%TO.C,R8*%
X155650000Y-109650000D03*
X155650000Y-108630000D03*
%TD*%
D17*
%TO.C,C21*%
X138253035Y-75609138D03*
X138253035Y-76569138D03*
%TD*%
D16*
%TO.C,C11*%
X146710000Y-94000000D03*
X145750000Y-94000000D03*
%TD*%
D23*
%TO.C,C18*%
X143750000Y-70450000D03*
X143750000Y-72000000D03*
%TD*%
D12*
%TO.C,R21*%
X128760000Y-120750000D03*
X127740000Y-120750000D03*
%TD*%
D50*
%TO.C,IC1*%
X133250000Y-123414212D03*
D29*
X130550000Y-121509212D03*
X130550000Y-122779212D03*
X130550000Y-124049212D03*
X130550000Y-125319212D03*
X135950000Y-125319212D03*
X135950000Y-124049212D03*
X135950000Y-122779212D03*
X135950000Y-121509212D03*
%TD*%
D11*
%TO.C,R5*%
X161000000Y-100010000D03*
X161000000Y-98990000D03*
%TD*%
D32*
%TO.C,SW5*%
X171120000Y-115000000D03*
X171120000Y-113000000D03*
X171120000Y-111000000D03*
X177880000Y-115000000D03*
X177880000Y-113000000D03*
X177880000Y-111000000D03*
%TD*%
D51*
%TO.C,Q4*%
X172250000Y-90500000D03*
X170375000Y-91450000D03*
X170375000Y-89550000D03*
%TD*%
D11*
%TO.C,R1*%
X123750000Y-107250000D03*
X123750000Y-106230000D03*
%TD*%
D24*
%TO.C,U7*%
X175825000Y-105000000D03*
X175825000Y-103000000D03*
X175825000Y-101000000D03*
X175825000Y-99000000D03*
X175825000Y-97000000D03*
X175825000Y-95000000D03*
%TD*%
D18*
%TO.C,R9*%
X167500000Y-85240000D03*
X167500000Y-86260000D03*
%TD*%
D26*
%TO.C,R39*%
X164490000Y-82250000D03*
X165510000Y-82250000D03*
%TD*%
D23*
%TO.C,C20*%
X136000000Y-70450000D03*
X136000000Y-72000000D03*
%TD*%
D27*
%TO.C,TP5*%
X149250000Y-108250000D03*
%TD*%
D15*
%TO.C,C13*%
X128750000Y-126144212D03*
X128750000Y-125184212D03*
%TD*%
D18*
%TO.C,R22*%
X136031297Y-81250590D03*
X136031297Y-82270590D03*
%TD*%
D48*
%TO.C,Q3*%
X145625000Y-125200000D03*
X145625000Y-123300000D03*
X143750000Y-124250000D03*
%TD*%
D12*
%TO.C,R10*%
X138758799Y-121508799D03*
X137738799Y-121508799D03*
%TD*%
D16*
%TO.C,C14*%
X136000000Y-126914212D03*
X135040000Y-126914212D03*
%TD*%
M02*
