%TF.GenerationSoftware,KiCad,Pcbnew,7.0.7-7.0.7~ubuntu22.04.1*%
%TF.CreationDate,2023-10-06T14:41:20+02:00*%
%TF.ProjectId,ShotClockProject,53686f74-436c-46f6-936b-50726f6a6563,rev?*%
%TF.SameCoordinates,Original*%
%TF.FileFunction,Copper,L4,Bot*%
%TF.FilePolarity,Positive*%
%FSLAX46Y46*%
G04 Gerber Fmt 4.6, Leading zero omitted, Abs format (unit mm)*
G04 Created by KiCad (PCBNEW 7.0.7-7.0.7~ubuntu22.04.1) date 2023-10-06 14:41:20*
%MOMM*%
%LPD*%
G01*
G04 APERTURE LIST*
%TA.AperFunction,ComponentPad*%
%ADD10R,1.700000X1.700000*%
%TD*%
%TA.AperFunction,ComponentPad*%
%ADD11O,1.700000X1.700000*%
%TD*%
%TA.AperFunction,ComponentPad*%
%ADD12O,1.100000X2.200000*%
%TD*%
%TA.AperFunction,ComponentPad*%
%ADD13C,1.500000*%
%TD*%
%TA.AperFunction,ViaPad*%
%ADD14C,0.800000*%
%TD*%
%TA.AperFunction,Conductor*%
%ADD15C,0.500000*%
%TD*%
%TA.AperFunction,Conductor*%
%ADD16C,0.300000*%
%TD*%
G04 APERTURE END LIST*
D10*
%TO.P,J4,1,Pin_1*%
%TO.N,-BATT*%
X130575000Y-91225000D03*
D11*
%TO.P,J4,2,Pin_2*%
%TO.N,+BATT*%
X130575000Y-88685000D03*
%TD*%
D12*
%TO.P,J6,S1,SHIELD*%
%TO.N,GND*%
X121850000Y-126900000D03*
%TO.P,J6,S2,SHIELD__1*%
X126150000Y-126900000D03*
%TO.P,J6,S3,SHIELD__2*%
X121850000Y-122100000D03*
%TO.P,J6,S4,SHIELD__3*%
X126150000Y-122100000D03*
%TD*%
D13*
%TO.P,U9,1,1*%
%TO.N,TLC59116_RESETn*%
X132175000Y-95000000D03*
%TO.P,U9,2,2*%
%TO.N,+3.3V*%
X132175000Y-97000000D03*
%TO.P,U9,3,3*%
%TO.N,+5V*%
X132175000Y-99000000D03*
%TO.P,U9,4,4*%
%TO.N,I2C2_SCL*%
X132175000Y-101000000D03*
%TO.P,U9,5,5*%
%TO.N,I2C2_SDA*%
X132175000Y-103000000D03*
%TO.P,U9,6,6*%
%TO.N,GND*%
X132175000Y-105000000D03*
%TD*%
%TO.P,U6,1,1*%
%TO.N,TLC59116_RESETn*%
X159000000Y-78175000D03*
%TO.P,U6,2,2*%
%TO.N,+3.3V*%
X157000000Y-78175000D03*
%TO.P,U6,3,3*%
%TO.N,+5V*%
X155000000Y-78175000D03*
%TO.P,U6,4,4*%
%TO.N,I2C2_SCL*%
X153000000Y-78175000D03*
%TO.P,U6,5,5*%
%TO.N,I2C2_SDA*%
X151000000Y-78175000D03*
%TO.P,U6,6,6*%
%TO.N,GND*%
X149000000Y-78175000D03*
%TD*%
D10*
%TO.P,J7,1,Pin_1*%
%TO.N,/Li-Po Battery and charger/IC_TEMP*%
X138500000Y-82250000D03*
D11*
%TO.P,J7,2,Pin_2*%
%TO.N,GND*%
X138500000Y-84790000D03*
%TD*%
D13*
%TO.P,U8,1,1*%
%TO.N,TLC59116_RESETn*%
X149000000Y-121825000D03*
%TO.P,U8,2,2*%
%TO.N,+3.3V*%
X151000000Y-121825000D03*
%TO.P,U8,3,3*%
%TO.N,+5V*%
X153000000Y-121825000D03*
%TO.P,U8,4,4*%
%TO.N,I2C2_SCL*%
X155000000Y-121825000D03*
%TO.P,U8,5,5*%
%TO.N,I2C2_SDA*%
X157000000Y-121825000D03*
%TO.P,U8,6,6*%
%TO.N,GND*%
X159000000Y-121825000D03*
%TD*%
D10*
%TO.P,J1,1,Pin_1*%
%TO.N,GND*%
X164904106Y-78500000D03*
D11*
%TO.P,J1,2,Pin_2*%
%TO.N,unconnected-(J1-Pin_2-Pad2)*%
X167444106Y-78500000D03*
%TO.P,J1,3,Pin_3*%
%TO.N,unconnected-(J1-Pin_3-Pad3)*%
X169984106Y-78500000D03*
%TO.P,J1,4,Pin_4*%
%TO.N,/STM32G070CBT6/UART3_RX*%
X172524106Y-78500000D03*
%TO.P,J1,5,Pin_5*%
%TO.N,/STM32G070CBT6/UART3_TX*%
X175064106Y-78500000D03*
%TO.P,J1,6,Pin_6*%
%TO.N,unconnected-(J1-Pin_6-Pad6)*%
X177604106Y-78500000D03*
%TD*%
D13*
%TO.P,U7,1,1*%
%TO.N,TLC59116_RESETn*%
X175825000Y-105000000D03*
%TO.P,U7,2,2*%
%TO.N,+3.3V*%
X175825000Y-103000000D03*
%TO.P,U7,3,3*%
%TO.N,+5V*%
X175825000Y-101000000D03*
%TO.P,U7,4,4*%
%TO.N,I2C2_SCL*%
X175825000Y-99000000D03*
%TO.P,U7,5,5*%
%TO.N,I2C2_SDA*%
X175825000Y-97000000D03*
%TO.P,U7,6,6*%
%TO.N,GND*%
X175825000Y-95000000D03*
%TD*%
D14*
%TO.N,+3.3V*%
X150263268Y-109676113D03*
X166000000Y-97000000D03*
X151500000Y-83000000D03*
X145000000Y-99500000D03*
X150500000Y-85000000D03*
X150500000Y-82000000D03*
X164000000Y-97000000D03*
X148500000Y-83000000D03*
X167250000Y-100000000D03*
X165000000Y-95000000D03*
X171750000Y-82500000D03*
X151500000Y-82000000D03*
X144000000Y-99500000D03*
X164000000Y-96000000D03*
X151500000Y-84000000D03*
X168750000Y-100000000D03*
X148500000Y-84000000D03*
X149500000Y-85000000D03*
X165000000Y-97000000D03*
X166175984Y-82260329D03*
X166000000Y-96000000D03*
X164000000Y-95000000D03*
X169750000Y-95500000D03*
X165000000Y-96000000D03*
X149500000Y-82000000D03*
X171500000Y-95500000D03*
X149500000Y-84000000D03*
X150500000Y-84000000D03*
X166000000Y-100000000D03*
X150500000Y-83000000D03*
X166000000Y-95000000D03*
X149500000Y-83000000D03*
X151500000Y-85000000D03*
X148500000Y-82000000D03*
X148500000Y-85000000D03*
X169750000Y-100000000D03*
%TO.N,/Li-Po Battery and charger/IC_TEMP*%
X129099500Y-85250000D03*
X129000000Y-119500000D03*
%TO.N,/Li-Po Battery and charger/IC_STDBY_Green*%
X182250000Y-116750000D03*
X137500000Y-123643715D03*
%TO.N,/Li-Po Battery and charger/IC_CHRG_Red*%
X137500000Y-122644212D03*
X182250000Y-126500000D03*
%TO.N,TLC59116_RESETn*%
X163000000Y-102913000D03*
%TO.N,+5V*%
X133500000Y-74500000D03*
X133500000Y-73500000D03*
X132488287Y-76128690D03*
X132500000Y-73500000D03*
X133500000Y-77000000D03*
X132500000Y-77000000D03*
X133488287Y-76128690D03*
X132500000Y-74500000D03*
%TO.N,VBUS*%
X141250000Y-133000000D03*
X139000000Y-124750000D03*
%TO.N,/Buzzer_3v3_PWM/buzzer_pwm_in*%
X159970543Y-101779457D03*
X167750000Y-93000000D03*
%TO.N,GND*%
X151173830Y-89790508D03*
X139000000Y-72250000D03*
X126159137Y-120594551D03*
X145089520Y-88506309D03*
X144250000Y-95500000D03*
X145500000Y-96750000D03*
X123500000Y-77250000D03*
X144250000Y-96750000D03*
X125384630Y-72718557D03*
X171500000Y-86250000D03*
X151990305Y-89801390D03*
X139750000Y-72250000D03*
X149750000Y-114250000D03*
X151173830Y-88994056D03*
X138000000Y-102500000D03*
X145083577Y-87228421D03*
X181566678Y-121731089D03*
X123884630Y-72718557D03*
X144500000Y-66250000D03*
X143051353Y-131759947D03*
X169500000Y-86250000D03*
X157500000Y-87000000D03*
X166049271Y-87749999D03*
X167602102Y-118424239D03*
X126750000Y-84750000D03*
X171500000Y-87750000D03*
X169000000Y-126000000D03*
X146000000Y-66250000D03*
X138250000Y-72250000D03*
X135250000Y-81250000D03*
X167730547Y-125975351D03*
X171000000Y-109500000D03*
X148750000Y-104750000D03*
X170000000Y-109500000D03*
X168871555Y-118448888D03*
X181569601Y-120189867D03*
X142256474Y-128686306D03*
X130500000Y-66500000D03*
X119638955Y-124253879D03*
X147500000Y-104750000D03*
X169500000Y-87750000D03*
X133250000Y-127000000D03*
X121836903Y-120601683D03*
X147500000Y-124250000D03*
X126750000Y-82250000D03*
X150000000Y-104750000D03*
X132250000Y-127000000D03*
X139000000Y-102500000D03*
X166049271Y-89027888D03*
X138250000Y-77250000D03*
X152000000Y-89000000D03*
X143086111Y-130510681D03*
X134250000Y-127000000D03*
X124634630Y-72718557D03*
%TO.N,/Li-Po Battery and charger/VCC*%
X186250000Y-116250000D03*
X132250000Y-120000000D03*
X130250000Y-127000000D03*
X187250000Y-125200000D03*
%TO.N,I2C2_SCL*%
X162250000Y-99000000D03*
%TO.N,I2C2_SDA*%
X162250000Y-98000497D03*
%TD*%
D15*
%TO.N,/Li-Po Battery and charger/IC_TEMP*%
X129099500Y-85250000D02*
X129099500Y-119400500D01*
X129099500Y-119400500D02*
X129000000Y-119500000D01*
%TO.N,/Li-Po Battery and charger/IC_STDBY_Green*%
X181700000Y-130539949D02*
X181700000Y-128800000D01*
X179239949Y-133000000D02*
X181700000Y-130539949D01*
X181700000Y-128800000D02*
X186000000Y-124500000D01*
X186000000Y-120500000D02*
X182250000Y-116750000D01*
X137500000Y-123643715D02*
X139095797Y-123643715D01*
X139095797Y-123643715D02*
X148452082Y-133000000D01*
X186000000Y-124500000D02*
X186000000Y-120500000D01*
X148452082Y-133000000D02*
X179239949Y-133000000D01*
%TO.N,/Li-Po Battery and charger/IC_CHRG_Red*%
X179750000Y-131500000D02*
X181000000Y-130250000D01*
X140144212Y-122644212D02*
X149000000Y-131500000D01*
X181000000Y-127750000D02*
X182250000Y-126500000D01*
X181000000Y-130250000D02*
X181000000Y-127750000D01*
X137500000Y-122644212D02*
X140144212Y-122644212D01*
X149000000Y-131500000D02*
X179750000Y-131500000D01*
D16*
%TO.N,TLC59116_RESETn*%
X144117894Y-121825000D02*
X130000000Y-107707106D01*
X130000000Y-97175000D02*
X132175000Y-95000000D01*
X163000000Y-122250000D02*
X160500000Y-124750000D01*
X163000000Y-102913000D02*
X163000000Y-122250000D01*
X151925000Y-124750000D02*
X149000000Y-121825000D01*
X149000000Y-121825000D02*
X144117894Y-121825000D01*
X160500000Y-124750000D02*
X151925000Y-124750000D01*
X130000000Y-107707106D02*
X130000000Y-97175000D01*
D15*
%TO.N,VBUS*%
X139000000Y-130750000D02*
X141250000Y-133000000D01*
X139000000Y-124750000D02*
X139000000Y-130750000D01*
D16*
%TO.N,/Buzzer_3v3_PWM/buzzer_pwm_in*%
X162000000Y-93000000D02*
X159970543Y-95029457D01*
X167750000Y-93000000D02*
X162000000Y-93000000D01*
X159970543Y-95029457D02*
X159970543Y-101779457D01*
D15*
%TO.N,/Li-Po Battery and charger/VCC*%
X130250000Y-127000000D02*
X132250000Y-125000000D01*
X187250000Y-125200000D02*
X187250000Y-117250000D01*
X182400000Y-130829899D02*
X178979899Y-134250000D01*
X137500000Y-134250000D02*
X130250000Y-127000000D01*
X182400000Y-129350000D02*
X182400000Y-130829899D01*
X186550000Y-125200000D02*
X182400000Y-129350000D01*
X187250000Y-117250000D02*
X186250000Y-116250000D01*
X178979899Y-134250000D02*
X137500000Y-134250000D01*
X187250000Y-125200000D02*
X186550000Y-125200000D01*
X132250000Y-125000000D02*
X132250000Y-120000000D01*
D16*
%TO.N,I2C2_SCL*%
X130500000Y-107500000D02*
X130500000Y-102675000D01*
X130500000Y-102675000D02*
X132175000Y-101000000D01*
X143250000Y-120250000D02*
X130500000Y-107500000D01*
X160250000Y-124250000D02*
X157425000Y-124250000D01*
X162250000Y-122250000D02*
X160250000Y-124250000D01*
X155000000Y-121825000D02*
X153425000Y-120250000D01*
X162250000Y-99000000D02*
X162250000Y-122250000D01*
X153425000Y-120250000D02*
X143250000Y-120250000D01*
X157425000Y-124250000D02*
X155000000Y-121825000D01*
%TO.N,I2C2_SDA*%
X162250000Y-98000497D02*
X162188842Y-98000497D01*
X161750000Y-122000000D02*
X160000000Y-123750000D01*
X161750000Y-99560661D02*
X161750000Y-122000000D01*
X162188842Y-98000497D02*
X161500000Y-98689339D01*
X143457106Y-119750000D02*
X131000000Y-107292894D01*
X160000000Y-123750000D02*
X158925000Y-123750000D01*
X158925000Y-123750000D02*
X157000000Y-121825000D01*
X161500000Y-99310661D02*
X161750000Y-99560661D01*
X157000000Y-121825000D02*
X154925000Y-119750000D01*
X161500000Y-98689339D02*
X161500000Y-99310661D01*
X131000000Y-104175000D02*
X132175000Y-103000000D01*
X154925000Y-119750000D02*
X143457106Y-119750000D01*
X131000000Y-107292894D02*
X131000000Y-104175000D01*
%TD*%
%TA.AperFunction,Conductor*%
%TO.N,GND*%
G36*
X186042987Y-64620185D02*
G01*
X186088742Y-64672989D01*
X186098686Y-64742147D01*
X186069661Y-64805703D01*
X186010883Y-64843477D01*
X185998299Y-64846469D01*
X185852547Y-64873178D01*
X185540657Y-64970366D01*
X185540641Y-64970372D01*
X185540639Y-64970373D01*
X185413566Y-65027564D01*
X185242725Y-65104453D01*
X185242723Y-65104454D01*
X184963131Y-65273473D01*
X184705960Y-65474954D01*
X184474954Y-65705960D01*
X184273473Y-65963131D01*
X184234144Y-66028190D01*
X184104455Y-66242721D01*
X184003374Y-66467315D01*
X183970372Y-66540642D01*
X183970366Y-66540657D01*
X183873178Y-66852547D01*
X183814289Y-67173900D01*
X183794564Y-67499999D01*
X183814289Y-67826099D01*
X183873178Y-68147452D01*
X183970366Y-68459342D01*
X183970370Y-68459354D01*
X183970373Y-68459361D01*
X184100553Y-68748609D01*
X184110116Y-68817821D01*
X184080742Y-68881216D01*
X184021758Y-68918667D01*
X183987477Y-68923500D01*
X183900248Y-68923500D01*
X183704140Y-68960159D01*
X183704137Y-68960159D01*
X183704137Y-68960160D01*
X183518108Y-69032227D01*
X183518101Y-69032231D01*
X183348487Y-69137251D01*
X183201048Y-69271660D01*
X183080821Y-69430865D01*
X183080816Y-69430873D01*
X182991894Y-69609453D01*
X182937295Y-69801350D01*
X182918888Y-69999999D01*
X182918888Y-70000000D01*
X182937295Y-70198649D01*
X182937295Y-70198651D01*
X182937296Y-70198654D01*
X182939226Y-70205436D01*
X182991894Y-70390546D01*
X183080816Y-70569126D01*
X183080821Y-70569134D01*
X183201048Y-70728339D01*
X183201049Y-70728340D01*
X183348484Y-70862746D01*
X183518107Y-70967772D01*
X183704140Y-71039841D01*
X183900248Y-71076500D01*
X183900250Y-71076500D01*
X184099750Y-71076500D01*
X184099752Y-71076500D01*
X184295860Y-71039841D01*
X184481893Y-70967772D01*
X184651516Y-70862746D01*
X184798951Y-70728340D01*
X184919180Y-70569132D01*
X185008107Y-70390543D01*
X185062704Y-70198654D01*
X185080852Y-70002800D01*
X185106638Y-69937865D01*
X185163438Y-69897177D01*
X185233219Y-69893657D01*
X185255208Y-69901164D01*
X185540639Y-70029627D01*
X185540652Y-70029631D01*
X185540657Y-70029633D01*
X185852546Y-70126821D01*
X185852547Y-70126821D01*
X186173896Y-70185710D01*
X186500000Y-70205436D01*
X186826104Y-70185710D01*
X187147453Y-70126821D01*
X187459361Y-70029627D01*
X187757279Y-69895545D01*
X188036863Y-69726530D01*
X188294036Y-69525048D01*
X188525048Y-69294036D01*
X188726530Y-69036863D01*
X188895545Y-68757279D01*
X189029627Y-68459361D01*
X189126821Y-68147453D01*
X189153529Y-68001706D01*
X189184976Y-67939313D01*
X189245163Y-67903825D01*
X189314981Y-67906510D01*
X189372264Y-67946516D01*
X189398824Y-68011140D01*
X189399499Y-68024057D01*
X189399499Y-131975942D01*
X189379814Y-132042981D01*
X189327010Y-132088736D01*
X189257852Y-132098680D01*
X189194296Y-132069655D01*
X189156522Y-132010877D01*
X189153530Y-131998293D01*
X189126821Y-131852547D01*
X189029633Y-131540657D01*
X189029631Y-131540652D01*
X189029627Y-131540639D01*
X188895545Y-131242721D01*
X188726530Y-130963137D01*
X188726528Y-130963134D01*
X188726526Y-130963131D01*
X188525045Y-130705960D01*
X188294039Y-130474954D01*
X188036868Y-130273473D01*
X188029306Y-130268901D01*
X187757279Y-130104455D01*
X187459361Y-129970373D01*
X187459354Y-129970370D01*
X187459342Y-129970366D01*
X187147452Y-129873178D01*
X186826099Y-129814289D01*
X186500000Y-129794564D01*
X186173900Y-129814289D01*
X185852547Y-129873178D01*
X185540657Y-129970366D01*
X185540641Y-129970372D01*
X185540639Y-129970373D01*
X185399390Y-130033943D01*
X185255214Y-130098832D01*
X185186002Y-130108395D01*
X185122606Y-130079021D01*
X185085156Y-130020036D01*
X185080852Y-129997197D01*
X185078837Y-129975450D01*
X185062704Y-129801346D01*
X185008107Y-129609457D01*
X185006693Y-129606618D01*
X184919183Y-129430873D01*
X184919178Y-129430865D01*
X184798951Y-129271660D01*
X184798950Y-129271659D01*
X184651516Y-129137254D01*
X184651513Y-129137252D01*
X184651512Y-129137251D01*
X184481898Y-129032231D01*
X184481891Y-129032227D01*
X184388876Y-128996193D01*
X184295860Y-128960159D01*
X184152475Y-128933355D01*
X184090195Y-128901688D01*
X184054922Y-128841375D01*
X184057856Y-128771567D01*
X184087578Y-128723788D01*
X186757729Y-126053636D01*
X186819050Y-126020153D01*
X186888742Y-126025137D01*
X186895844Y-126028040D01*
X186970192Y-126061142D01*
X186970197Y-126061144D01*
X187155354Y-126100500D01*
X187155355Y-126100500D01*
X187344644Y-126100500D01*
X187344646Y-126100500D01*
X187529803Y-126061144D01*
X187702730Y-125984151D01*
X187855871Y-125872888D01*
X187982533Y-125732216D01*
X188077179Y-125568284D01*
X188135674Y-125388256D01*
X188155460Y-125200000D01*
X188135674Y-125011744D01*
X188077179Y-124831716D01*
X188017113Y-124727677D01*
X188000500Y-124665677D01*
X188000500Y-117313705D01*
X188001809Y-117295735D01*
X188003789Y-117282214D01*
X188005289Y-117271977D01*
X188000735Y-117219931D01*
X188000500Y-117214528D01*
X188000500Y-117206297D01*
X188000500Y-117206291D01*
X187996693Y-117173724D01*
X187991219Y-117111144D01*
X187989999Y-117097201D01*
X187988539Y-117090129D01*
X187988597Y-117090116D01*
X187986965Y-117082757D01*
X187986906Y-117082772D01*
X187985242Y-117075753D01*
X187985241Y-117075745D01*
X187958974Y-117003576D01*
X187934814Y-116930666D01*
X187934809Y-116930659D01*
X187931760Y-116924118D01*
X187931815Y-116924091D01*
X187928533Y-116917313D01*
X187928480Y-116917340D01*
X187925235Y-116910880D01*
X187883028Y-116846708D01*
X187842710Y-116781342D01*
X187838234Y-116775682D01*
X187838281Y-116775644D01*
X187833519Y-116769799D01*
X187833474Y-116769838D01*
X187828834Y-116764309D01*
X187828832Y-116764307D01*
X187828830Y-116764304D01*
X187798061Y-116735275D01*
X187772965Y-116711597D01*
X187162770Y-116101402D01*
X187132521Y-116052041D01*
X187097738Y-115944992D01*
X187077181Y-115881721D01*
X187077178Y-115881715D01*
X187058579Y-115849500D01*
X186982533Y-115717784D01*
X186855871Y-115577112D01*
X186855870Y-115577111D01*
X186702734Y-115465851D01*
X186702729Y-115465848D01*
X186529807Y-115388857D01*
X186529802Y-115388855D01*
X186384001Y-115357865D01*
X186344646Y-115349500D01*
X186155354Y-115349500D01*
X186122897Y-115356398D01*
X185970197Y-115388855D01*
X185970192Y-115388857D01*
X185797270Y-115465848D01*
X185797265Y-115465851D01*
X185644129Y-115577111D01*
X185517466Y-115717785D01*
X185422821Y-115881715D01*
X185422818Y-115881722D01*
X185367479Y-116052039D01*
X185364326Y-116061744D01*
X185344540Y-116250000D01*
X185364326Y-116438256D01*
X185364327Y-116438259D01*
X185422818Y-116618277D01*
X185422821Y-116618284D01*
X185517467Y-116782216D01*
X185575536Y-116846708D01*
X185644129Y-116922888D01*
X185797265Y-117034148D01*
X185797270Y-117034151D01*
X185970191Y-117111142D01*
X185970194Y-117111142D01*
X185970197Y-117111144D01*
X186003757Y-117118277D01*
X186035329Y-117124988D01*
X186096811Y-117158180D01*
X186097230Y-117158597D01*
X186463182Y-117524549D01*
X186496666Y-117585870D01*
X186499500Y-117612228D01*
X186499500Y-119638770D01*
X186479815Y-119705809D01*
X186427011Y-119751564D01*
X186357853Y-119761508D01*
X186294297Y-119732483D01*
X186287819Y-119726451D01*
X183162770Y-116601402D01*
X183132521Y-116552041D01*
X183077179Y-116381716D01*
X182982533Y-116217784D01*
X182855871Y-116077112D01*
X182834719Y-116061744D01*
X182702734Y-115965851D01*
X182702729Y-115965848D01*
X182529807Y-115888857D01*
X182529802Y-115888855D01*
X182384001Y-115857865D01*
X182344646Y-115849500D01*
X182155354Y-115849500D01*
X182122897Y-115856398D01*
X181970197Y-115888855D01*
X181970192Y-115888857D01*
X181797270Y-115965848D01*
X181797265Y-115965851D01*
X181644129Y-116077111D01*
X181517466Y-116217785D01*
X181422821Y-116381715D01*
X181422818Y-116381722D01*
X181367479Y-116552039D01*
X181364326Y-116561744D01*
X181344540Y-116750000D01*
X181364326Y-116938256D01*
X181364327Y-116938259D01*
X181422818Y-117118277D01*
X181422821Y-117118284D01*
X181517467Y-117282216D01*
X181644128Y-117422888D01*
X181644129Y-117422888D01*
X181797265Y-117534148D01*
X181797270Y-117534151D01*
X181970191Y-117611142D01*
X181970193Y-117611142D01*
X181970197Y-117611144D01*
X182035329Y-117624987D01*
X182096809Y-117658178D01*
X182097228Y-117658596D01*
X185213181Y-120774549D01*
X185246666Y-120835872D01*
X185249500Y-120862230D01*
X185249500Y-124137768D01*
X185229815Y-124204807D01*
X185213181Y-124225449D01*
X183275529Y-126163101D01*
X183214206Y-126196586D01*
X183144514Y-126191602D01*
X183088581Y-126149730D01*
X183081147Y-126136928D01*
X183080428Y-126137344D01*
X183059156Y-126100500D01*
X182982533Y-125967784D01*
X182855871Y-125827112D01*
X182855870Y-125827111D01*
X182702734Y-125715851D01*
X182702729Y-125715848D01*
X182529807Y-125638857D01*
X182529802Y-125638855D01*
X182384000Y-125607865D01*
X182344646Y-125599500D01*
X182155354Y-125599500D01*
X182122897Y-125606398D01*
X181970197Y-125638855D01*
X181970192Y-125638857D01*
X181797270Y-125715848D01*
X181797265Y-125715851D01*
X181644129Y-125827111D01*
X181517466Y-125967785D01*
X181422821Y-126131715D01*
X181422819Y-126131719D01*
X181367478Y-126302041D01*
X181337228Y-126351403D01*
X180514358Y-127174272D01*
X180500729Y-127186051D01*
X180481468Y-127200390D01*
X180447898Y-127240397D01*
X180444253Y-127244376D01*
X180438409Y-127250222D01*
X180418059Y-127275959D01*
X180368695Y-127334789D01*
X180364729Y-127340819D01*
X180364682Y-127340788D01*
X180360630Y-127347147D01*
X180360679Y-127347177D01*
X180356889Y-127353321D01*
X180324424Y-127422941D01*
X180289960Y-127491566D01*
X180287488Y-127498357D01*
X180287432Y-127498336D01*
X180284960Y-127505450D01*
X180285015Y-127505469D01*
X180282742Y-127512327D01*
X180278636Y-127532216D01*
X180267207Y-127587565D01*
X180254001Y-127643284D01*
X180249498Y-127662286D01*
X180248661Y-127669454D01*
X180248601Y-127669447D01*
X180247835Y-127676945D01*
X180247895Y-127676951D01*
X180247265Y-127684140D01*
X180249500Y-127760916D01*
X180249500Y-129887769D01*
X180229815Y-129954808D01*
X180213181Y-129975450D01*
X179475451Y-130713181D01*
X179414128Y-130746666D01*
X179387770Y-130749500D01*
X149362229Y-130749500D01*
X149295190Y-130729815D01*
X149274548Y-130713181D01*
X140719941Y-122158573D01*
X140708161Y-122144942D01*
X140700694Y-122134913D01*
X140693824Y-122125684D01*
X140693822Y-122125682D01*
X140653799Y-122092098D01*
X140649824Y-122088456D01*
X140646902Y-122085534D01*
X140643992Y-122082623D01*
X140618252Y-122062271D01*
X140605224Y-122051339D01*
X140559426Y-122012910D01*
X140559425Y-122012909D01*
X140559421Y-122012906D01*
X140553392Y-122008941D01*
X140553424Y-122008892D01*
X140547065Y-122004840D01*
X140547034Y-122004891D01*
X140540892Y-122001103D01*
X140540890Y-122001102D01*
X140540889Y-122001101D01*
X140501686Y-121982820D01*
X140471270Y-121968636D01*
X140437106Y-121951479D01*
X140402645Y-121934172D01*
X140402643Y-121934171D01*
X140402642Y-121934171D01*
X140395857Y-121931701D01*
X140395877Y-121931645D01*
X140388761Y-121929171D01*
X140388743Y-121929227D01*
X140381883Y-121926954D01*
X140354053Y-121921208D01*
X140306646Y-121911419D01*
X140257684Y-121899815D01*
X140231931Y-121893711D01*
X140224759Y-121892873D01*
X140224765Y-121892813D01*
X140217267Y-121892047D01*
X140217262Y-121892107D01*
X140210072Y-121891477D01*
X140133295Y-121893712D01*
X138039337Y-121893712D01*
X137972298Y-121874027D01*
X137966452Y-121870030D01*
X137952734Y-121860063D01*
X137952729Y-121860060D01*
X137779807Y-121783069D01*
X137779802Y-121783067D01*
X137606492Y-121746230D01*
X137594646Y-121743712D01*
X137405354Y-121743712D01*
X137393508Y-121746230D01*
X137220197Y-121783067D01*
X137220192Y-121783069D01*
X137047270Y-121860060D01*
X137047265Y-121860063D01*
X136894129Y-121971323D01*
X136767466Y-122111997D01*
X136672821Y-122275927D01*
X136672818Y-122275934D01*
X136614755Y-122454635D01*
X136614326Y-122455956D01*
X136594540Y-122644212D01*
X136614326Y-122832468D01*
X136614327Y-122832471D01*
X136672821Y-123012497D01*
X136712927Y-123081963D01*
X136729400Y-123149863D01*
X136712928Y-123205962D01*
X136672820Y-123275431D01*
X136614327Y-123455455D01*
X136614326Y-123455459D01*
X136594540Y-123643715D01*
X136614326Y-123831971D01*
X136614327Y-123831974D01*
X136672818Y-124011992D01*
X136672821Y-124011999D01*
X136767467Y-124175931D01*
X136894128Y-124316602D01*
X136894129Y-124316603D01*
X137047265Y-124427863D01*
X137047270Y-124427866D01*
X137220192Y-124504857D01*
X137220197Y-124504859D01*
X137405354Y-124544215D01*
X137405355Y-124544215D01*
X137594644Y-124544215D01*
X137594646Y-124544215D01*
X137779803Y-124504859D01*
X137940818Y-124433169D01*
X138010063Y-124423884D01*
X138073340Y-124453512D01*
X138110554Y-124512647D01*
X138114571Y-124559410D01*
X138103402Y-124665677D01*
X138094540Y-124750000D01*
X138114326Y-124938256D01*
X138114327Y-124938259D01*
X138172818Y-125118277D01*
X138172821Y-125118284D01*
X138229924Y-125217190D01*
X138232887Y-125222321D01*
X138249500Y-125284321D01*
X138249500Y-130686294D01*
X138248191Y-130704263D01*
X138244710Y-130728025D01*
X138249264Y-130780064D01*
X138249500Y-130785470D01*
X138249500Y-130793709D01*
X138253306Y-130826274D01*
X138260000Y-130902791D01*
X138261461Y-130909867D01*
X138261403Y-130909878D01*
X138263034Y-130917237D01*
X138263092Y-130917224D01*
X138264757Y-130924250D01*
X138291025Y-130996424D01*
X138315185Y-131069331D01*
X138318236Y-131075874D01*
X138318182Y-131075898D01*
X138321470Y-131082688D01*
X138321521Y-131082663D01*
X138324761Y-131089113D01*
X138324762Y-131089114D01*
X138324763Y-131089117D01*
X138329412Y-131096185D01*
X138366965Y-131153283D01*
X138407287Y-131218655D01*
X138411766Y-131224319D01*
X138411719Y-131224356D01*
X138416482Y-131230202D01*
X138416528Y-131230164D01*
X138421173Y-131235700D01*
X138477018Y-131288386D01*
X140337228Y-133148595D01*
X140367478Y-133197958D01*
X140412715Y-133337182D01*
X140414710Y-133407023D01*
X140378630Y-133466856D01*
X140315929Y-133497684D01*
X140294784Y-133499500D01*
X137862230Y-133499500D01*
X137795191Y-133479815D01*
X137774549Y-133463181D01*
X131399047Y-127087679D01*
X131365562Y-127026356D01*
X131370546Y-126956664D01*
X131399043Y-126912322D01*
X132735638Y-125575727D01*
X132749267Y-125563950D01*
X132768530Y-125549610D01*
X132768532Y-125549606D01*
X132768534Y-125549606D01*
X132786663Y-125527999D01*
X132802113Y-125509585D01*
X132805767Y-125505599D01*
X132811589Y-125499778D01*
X132831928Y-125474054D01*
X132837162Y-125467815D01*
X132881302Y-125415214D01*
X132881304Y-125415209D01*
X132885272Y-125409179D01*
X132885323Y-125409212D01*
X132889372Y-125402856D01*
X132889320Y-125402824D01*
X132893112Y-125396675D01*
X132925575Y-125327058D01*
X132960036Y-125258440D01*
X132960040Y-125258433D01*
X132960042Y-125258421D01*
X132962509Y-125251646D01*
X132962567Y-125251667D01*
X132965043Y-125244546D01*
X132964986Y-125244527D01*
X132967255Y-125237678D01*
X132967255Y-125237676D01*
X132967257Y-125237673D01*
X132982788Y-125162449D01*
X133000500Y-125087721D01*
X133000499Y-125087720D01*
X133001339Y-125080545D01*
X133001400Y-125080552D01*
X133002165Y-125073060D01*
X133002103Y-125073055D01*
X133002731Y-125065862D01*
X133002733Y-125065856D01*
X133000500Y-124989102D01*
X133000500Y-120534320D01*
X133017113Y-120472321D01*
X133077179Y-120368284D01*
X133135674Y-120188256D01*
X133155460Y-120000000D01*
X133135674Y-119811744D01*
X133077179Y-119631716D01*
X132982533Y-119467784D01*
X132855871Y-119327112D01*
X132834716Y-119311742D01*
X132702734Y-119215851D01*
X132702729Y-119215848D01*
X132529807Y-119138857D01*
X132529802Y-119138855D01*
X132384000Y-119107865D01*
X132344646Y-119099500D01*
X132155354Y-119099500D01*
X132122897Y-119106398D01*
X131970197Y-119138855D01*
X131970192Y-119138857D01*
X131797270Y-119215848D01*
X131797265Y-119215851D01*
X131644129Y-119327111D01*
X131517466Y-119467785D01*
X131422821Y-119631715D01*
X131422818Y-119631722D01*
X131364327Y-119811740D01*
X131364326Y-119811744D01*
X131344540Y-120000000D01*
X131364326Y-120188256D01*
X131364327Y-120188259D01*
X131422818Y-120368277D01*
X131422821Y-120368284D01*
X131482887Y-120472321D01*
X131499500Y-120534321D01*
X131499500Y-124637769D01*
X131479815Y-124704808D01*
X131463181Y-124725450D01*
X130097228Y-126091402D01*
X130035905Y-126124887D01*
X130035329Y-126125011D01*
X129970196Y-126138856D01*
X129970192Y-126138857D01*
X129797270Y-126215848D01*
X129797265Y-126215851D01*
X129644129Y-126327111D01*
X129517466Y-126467785D01*
X129422821Y-126631715D01*
X129422818Y-126631722D01*
X129364327Y-126811740D01*
X129364326Y-126811744D01*
X129344540Y-127000000D01*
X129364326Y-127188256D01*
X129364327Y-127188259D01*
X129422818Y-127368277D01*
X129422821Y-127368284D01*
X129517467Y-127532216D01*
X129567304Y-127587565D01*
X129644129Y-127672888D01*
X129797265Y-127784148D01*
X129797270Y-127784151D01*
X129970191Y-127861142D01*
X129970193Y-127861142D01*
X129970197Y-127861144D01*
X130035329Y-127874987D01*
X130096809Y-127908178D01*
X130097228Y-127908596D01*
X136924267Y-134735634D01*
X136936048Y-134749266D01*
X136950390Y-134768530D01*
X136990420Y-134802119D01*
X136994392Y-134805759D01*
X137000223Y-134811590D01*
X137000222Y-134811590D01*
X137022021Y-134828825D01*
X137025944Y-134831927D01*
X137084786Y-134881302D01*
X137084794Y-134881306D01*
X137090824Y-134885273D01*
X137090790Y-134885323D01*
X137097137Y-134889366D01*
X137097169Y-134889316D01*
X137103318Y-134893108D01*
X137103320Y-134893109D01*
X137103323Y-134893111D01*
X137172930Y-134925569D01*
X137241567Y-134960040D01*
X137241576Y-134960042D01*
X137248355Y-134962510D01*
X137248334Y-134962567D01*
X137255451Y-134965040D01*
X137255470Y-134964984D01*
X137262330Y-134967257D01*
X137308027Y-134976692D01*
X137337532Y-134982784D01*
X137412279Y-135000500D01*
X137412288Y-135000500D01*
X137419452Y-135001338D01*
X137419445Y-135001397D01*
X137426946Y-135002163D01*
X137426952Y-135002104D01*
X137434140Y-135002733D01*
X137434143Y-135002732D01*
X137434144Y-135002733D01*
X137510898Y-135000500D01*
X178916194Y-135000500D01*
X178934164Y-135001809D01*
X178957922Y-135005289D01*
X179009967Y-135000735D01*
X179015369Y-135000500D01*
X179023603Y-135000500D01*
X179023608Y-135000500D01*
X179035226Y-134999141D01*
X179056175Y-134996693D01*
X179068927Y-134995577D01*
X179132696Y-134989999D01*
X179132704Y-134989996D01*
X179139765Y-134988539D01*
X179139777Y-134988598D01*
X179147142Y-134986965D01*
X179147128Y-134986906D01*
X179154145Y-134985241D01*
X179154154Y-134985241D01*
X179226322Y-134958974D01*
X179299233Y-134934814D01*
X179299242Y-134934807D01*
X179305781Y-134931760D01*
X179305807Y-134931816D01*
X179312589Y-134928532D01*
X179312562Y-134928478D01*
X179319005Y-134925240D01*
X179319016Y-134925237D01*
X179383182Y-134883034D01*
X179448555Y-134842712D01*
X179448561Y-134842705D01*
X179454224Y-134838229D01*
X179454261Y-134838277D01*
X179460103Y-134833518D01*
X179460063Y-134833471D01*
X179465590Y-134828832D01*
X179465595Y-134828830D01*
X179517143Y-134774192D01*
X179518285Y-134772981D01*
X180319456Y-133971810D01*
X182885638Y-131405626D01*
X182899267Y-131393849D01*
X182918530Y-131379509D01*
X182918532Y-131379505D01*
X182918534Y-131379505D01*
X182948286Y-131344046D01*
X182952113Y-131339484D01*
X182955767Y-131335498D01*
X182961589Y-131329677D01*
X182981928Y-131303953D01*
X182987162Y-131297714D01*
X183031302Y-131245113D01*
X183031304Y-131245108D01*
X183035272Y-131239078D01*
X183035323Y-131239111D01*
X183039369Y-131232759D01*
X183039317Y-131232727D01*
X183043109Y-131226578D01*
X183043111Y-131226576D01*
X183075569Y-131156968D01*
X183110040Y-131088332D01*
X183110043Y-131088316D01*
X183112510Y-131081543D01*
X183112568Y-131081564D01*
X183115043Y-131074445D01*
X183114985Y-131074426D01*
X183117256Y-131067571D01*
X183132784Y-130992366D01*
X183138614Y-130967768D01*
X183147805Y-130928990D01*
X183182419Y-130868299D01*
X183244351Y-130835955D01*
X183313939Y-130842228D01*
X183343074Y-130860397D01*
X183343910Y-130859292D01*
X183348485Y-130862747D01*
X183424587Y-130909867D01*
X183518107Y-130967772D01*
X183704140Y-131039841D01*
X183900248Y-131076500D01*
X183900250Y-131076500D01*
X183987477Y-131076500D01*
X184054516Y-131096185D01*
X184100271Y-131148989D01*
X184110215Y-131218147D01*
X184100553Y-131251390D01*
X184062700Y-131335498D01*
X183970372Y-131540642D01*
X183970366Y-131540657D01*
X183873178Y-131852547D01*
X183814289Y-132173900D01*
X183794564Y-132500000D01*
X183814289Y-132826099D01*
X183873178Y-133147452D01*
X183970366Y-133459342D01*
X183970370Y-133459354D01*
X183970373Y-133459361D01*
X184104455Y-133757279D01*
X184163102Y-133854292D01*
X184273473Y-134036868D01*
X184474954Y-134294039D01*
X184705960Y-134525045D01*
X184963131Y-134726526D01*
X184963134Y-134726528D01*
X184963137Y-134726530D01*
X185242721Y-134895545D01*
X185540639Y-135029627D01*
X185540652Y-135029631D01*
X185540657Y-135029633D01*
X185805620Y-135112198D01*
X185852547Y-135126821D01*
X186007558Y-135155227D01*
X186069950Y-135186673D01*
X186105438Y-135246859D01*
X186102753Y-135316677D01*
X186062747Y-135373960D01*
X185998123Y-135400521D01*
X185985203Y-135401196D01*
X122023906Y-135399526D01*
X121956867Y-135379840D01*
X121911113Y-135327035D01*
X121901172Y-135257876D01*
X121930198Y-135194321D01*
X121988977Y-135156548D01*
X122001558Y-135153557D01*
X122147453Y-135126821D01*
X122459361Y-135029627D01*
X122757279Y-134895545D01*
X123036863Y-134726530D01*
X123294036Y-134525048D01*
X123525048Y-134294036D01*
X123726530Y-134036863D01*
X123895545Y-133757279D01*
X124029627Y-133459361D01*
X124126821Y-133147453D01*
X124185710Y-132826104D01*
X124205436Y-132500000D01*
X124185710Y-132173896D01*
X124126821Y-131852547D01*
X124029627Y-131540639D01*
X123899446Y-131251390D01*
X123889884Y-131182179D01*
X123919258Y-131118784D01*
X123978242Y-131081333D01*
X124012523Y-131076500D01*
X124099750Y-131076500D01*
X124099752Y-131076500D01*
X124295860Y-131039841D01*
X124481893Y-130967772D01*
X124651516Y-130862746D01*
X124798951Y-130728340D01*
X124919180Y-130569132D01*
X125008107Y-130390543D01*
X125062704Y-130198654D01*
X125081112Y-130000000D01*
X125062704Y-129801346D01*
X125008107Y-129609457D01*
X125006693Y-129606618D01*
X124919183Y-129430873D01*
X124919178Y-129430865D01*
X124798951Y-129271660D01*
X124798950Y-129271660D01*
X124651516Y-129137254D01*
X124651513Y-129137252D01*
X124651512Y-129137251D01*
X124481898Y-129032231D01*
X124481891Y-129032227D01*
X124295858Y-128960158D01*
X124239529Y-128949628D01*
X124177248Y-128917960D01*
X124141976Y-128857647D01*
X124144910Y-128787839D01*
X124185120Y-128730699D01*
X124210796Y-128714949D01*
X124278836Y-128683877D01*
X124389778Y-128587744D01*
X124469143Y-128464250D01*
X124510500Y-128323399D01*
X124510500Y-128176601D01*
X124469143Y-128035750D01*
X124389778Y-127912256D01*
X124278836Y-127816123D01*
X124278832Y-127816121D01*
X124145307Y-127755141D01*
X124145302Y-127755140D01*
X124036516Y-127739500D01*
X123963484Y-127739500D01*
X123963483Y-127739500D01*
X123854697Y-127755140D01*
X123854692Y-127755141D01*
X123721167Y-127816121D01*
X123721162Y-127816124D01*
X123610223Y-127912254D01*
X123610220Y-127912258D01*
X123530856Y-128035751D01*
X123530855Y-128035752D01*
X123489500Y-128176598D01*
X123489500Y-128323401D01*
X123530855Y-128464247D01*
X123530856Y-128464248D01*
X123530857Y-128464250D01*
X123610222Y-128587744D01*
X123721164Y-128683877D01*
X123789196Y-128714946D01*
X123841999Y-128760700D01*
X123861684Y-128827740D01*
X123842000Y-128894779D01*
X123789196Y-128940534D01*
X123760471Y-128949628D01*
X123704140Y-128960158D01*
X123518108Y-129032227D01*
X123518101Y-129032231D01*
X123348487Y-129137251D01*
X123201048Y-129271660D01*
X123080821Y-129430865D01*
X123080816Y-129430873D01*
X122991894Y-129609453D01*
X122937295Y-129801350D01*
X122919147Y-129997198D01*
X122893361Y-130062135D01*
X122836560Y-130102822D01*
X122766779Y-130106342D01*
X122744785Y-130098832D01*
X122700767Y-130079021D01*
X122459361Y-129970373D01*
X122459354Y-129970370D01*
X122459342Y-129970366D01*
X122147452Y-129873178D01*
X121826099Y-129814289D01*
X121500000Y-129794564D01*
X121173900Y-129814289D01*
X120852547Y-129873178D01*
X120540657Y-129970366D01*
X120540641Y-129970372D01*
X120540639Y-129970373D01*
X120376207Y-130044378D01*
X120255215Y-130098832D01*
X120242721Y-130104455D01*
X120172824Y-130146708D01*
X119963131Y-130273473D01*
X119705960Y-130474954D01*
X119474954Y-130705960D01*
X119273473Y-130963131D01*
X119197312Y-131089117D01*
X119106638Y-131239111D01*
X119104454Y-131242723D01*
X119104453Y-131242725D01*
X118970372Y-131540642D01*
X118970366Y-131540657D01*
X118873178Y-131852547D01*
X118846469Y-131998299D01*
X118815023Y-132060692D01*
X118754836Y-132096180D01*
X118685018Y-132093495D01*
X118627735Y-132053489D01*
X118601175Y-131988865D01*
X118600500Y-131975948D01*
X118600500Y-120750000D01*
X123234688Y-120750000D01*
X123239110Y-120789250D01*
X123239500Y-120796189D01*
X123239500Y-120894292D01*
X123249654Y-120981166D01*
X123254962Y-121026577D01*
X123254963Y-121026580D01*
X123315764Y-121193632D01*
X123315766Y-121193635D01*
X123413457Y-121342168D01*
X123480110Y-121405051D01*
X123542767Y-121464166D01*
X123542769Y-121464167D01*
X123696731Y-121553057D01*
X123867042Y-121604045D01*
X124044520Y-121614382D01*
X124219599Y-121583511D01*
X124382838Y-121513096D01*
X124525439Y-121406933D01*
X124639714Y-121270746D01*
X124719501Y-121111877D01*
X124760500Y-120938890D01*
X124760500Y-120796188D01*
X124760889Y-120789250D01*
X124765312Y-120750000D01*
X124760889Y-120710748D01*
X124760500Y-120703810D01*
X124760500Y-120605714D01*
X124760500Y-120605713D01*
X124760500Y-120605708D01*
X124745038Y-120473423D01*
X124684234Y-120306365D01*
X124586543Y-120157832D01*
X124517896Y-120093067D01*
X124457232Y-120035833D01*
X124303271Y-119946944D01*
X124303270Y-119946943D01*
X124303269Y-119946943D01*
X124132958Y-119895955D01*
X124132953Y-119895954D01*
X123955480Y-119885618D01*
X123955479Y-119885618D01*
X123780403Y-119916488D01*
X123617160Y-119986904D01*
X123474560Y-120093067D01*
X123360286Y-120229253D01*
X123360285Y-120229255D01*
X123280500Y-120388118D01*
X123268988Y-120436687D01*
X123240015Y-120558940D01*
X123239500Y-120561112D01*
X123239500Y-120703810D01*
X123239110Y-120710748D01*
X123234688Y-120750000D01*
X118600500Y-120750000D01*
X118600500Y-119500000D01*
X128094540Y-119500000D01*
X128114326Y-119688256D01*
X128114327Y-119688259D01*
X128172818Y-119868277D01*
X128172821Y-119868284D01*
X128267467Y-120032216D01*
X128394128Y-120172887D01*
X128394129Y-120172888D01*
X128547265Y-120284148D01*
X128547270Y-120284151D01*
X128720192Y-120361142D01*
X128720197Y-120361144D01*
X128905354Y-120400500D01*
X128905355Y-120400500D01*
X129094644Y-120400500D01*
X129094646Y-120400500D01*
X129279803Y-120361144D01*
X129452730Y-120284151D01*
X129605871Y-120172888D01*
X129732533Y-120032216D01*
X129827179Y-119868284D01*
X129885674Y-119688256D01*
X129905460Y-119500000D01*
X129885674Y-119311744D01*
X129856066Y-119220622D01*
X129850000Y-119182317D01*
X129850000Y-108776413D01*
X129869685Y-108709375D01*
X129922489Y-108663620D01*
X129991647Y-108653676D01*
X130055203Y-108682701D01*
X130061681Y-108688733D01*
X143597458Y-122224510D01*
X143607529Y-122237080D01*
X143607716Y-122236926D01*
X143612690Y-122242937D01*
X143612692Y-122242940D01*
X143641239Y-122269748D01*
X143665137Y-122292190D01*
X143686861Y-122313913D01*
X143692651Y-122318405D01*
X143697091Y-122322197D01*
X143726392Y-122349711D01*
X143732501Y-122355448D01*
X143732503Y-122355449D01*
X143751099Y-122365672D01*
X143767364Y-122376357D01*
X143784126Y-122389360D01*
X143784129Y-122389361D01*
X143784130Y-122389362D01*
X143828717Y-122408656D01*
X143833953Y-122411221D01*
X143876526Y-122434627D01*
X143892234Y-122438659D01*
X143897080Y-122439904D01*
X143915492Y-122446207D01*
X143934967Y-122454635D01*
X143982965Y-122462237D01*
X143988634Y-122463411D01*
X144035717Y-122475500D01*
X144056945Y-122475500D01*
X144076342Y-122477026D01*
X144097297Y-122480345D01*
X144097298Y-122480346D01*
X144097298Y-122480345D01*
X144097299Y-122480346D01*
X144145654Y-122475775D01*
X144151493Y-122475500D01*
X147864355Y-122475500D01*
X147931394Y-122495185D01*
X147965928Y-122528374D01*
X148038402Y-122631877D01*
X148193123Y-122786598D01*
X148372361Y-122912102D01*
X148570670Y-123004575D01*
X148570676Y-123004576D01*
X148570677Y-123004577D01*
X148600235Y-123012497D01*
X148782023Y-123061207D01*
X148964926Y-123077208D01*
X148999998Y-123080277D01*
X149000000Y-123080277D01*
X149000002Y-123080277D01*
X149054494Y-123075509D01*
X149217977Y-123061207D01*
X149226340Y-123058966D01*
X149296189Y-123060629D01*
X149346114Y-123091060D01*
X151404564Y-125149510D01*
X151414635Y-125162080D01*
X151414822Y-125161926D01*
X151419796Y-125167937D01*
X151419798Y-125167940D01*
X151439254Y-125186210D01*
X151472243Y-125217190D01*
X151493966Y-125238912D01*
X151499758Y-125243405D01*
X151504198Y-125247198D01*
X151520260Y-125262280D01*
X151539607Y-125280448D01*
X151558198Y-125290668D01*
X151574463Y-125301352D01*
X151591234Y-125314361D01*
X151591237Y-125314363D01*
X151635827Y-125333658D01*
X151641056Y-125336220D01*
X151683632Y-125359627D01*
X151704193Y-125364905D01*
X151722597Y-125371207D01*
X151742074Y-125379636D01*
X151776392Y-125385071D01*
X151790054Y-125387235D01*
X151795764Y-125388417D01*
X151842823Y-125400500D01*
X151864045Y-125400500D01*
X151883442Y-125402026D01*
X151904405Y-125405347D01*
X151952772Y-125400774D01*
X151958609Y-125400500D01*
X160414495Y-125400500D01*
X160430505Y-125402267D01*
X160430528Y-125402026D01*
X160438289Y-125402758D01*
X160438296Y-125402760D01*
X160510203Y-125400500D01*
X160540925Y-125400500D01*
X160548190Y-125399581D01*
X160554016Y-125399122D01*
X160602569Y-125397597D01*
X160622956Y-125391673D01*
X160641996Y-125387731D01*
X160663058Y-125385071D01*
X160708235Y-125367183D01*
X160713735Y-125365300D01*
X160760398Y-125351744D01*
X160778665Y-125340939D01*
X160796136Y-125332380D01*
X160815871Y-125324568D01*
X160855177Y-125296010D01*
X160860043Y-125292813D01*
X160901865Y-125268081D01*
X160916870Y-125253075D01*
X160931668Y-125240436D01*
X160933766Y-125238912D01*
X160948837Y-125227963D01*
X160979809Y-125190522D01*
X160983723Y-125186221D01*
X163399513Y-122770431D01*
X163412079Y-122760365D01*
X163411925Y-122760178D01*
X163417937Y-122755204D01*
X163417937Y-122755203D01*
X163417940Y-122755202D01*
X163467190Y-122702755D01*
X163488911Y-122681035D01*
X163493401Y-122675245D01*
X163497183Y-122670815D01*
X163530448Y-122635393D01*
X163540670Y-122616796D01*
X163551348Y-122600539D01*
X163564362Y-122583764D01*
X163583664Y-122539157D01*
X163586208Y-122533963D01*
X163609627Y-122491368D01*
X163614906Y-122470808D01*
X163621209Y-122452399D01*
X163629636Y-122432926D01*
X163637235Y-122384945D01*
X163638417Y-122379234D01*
X163650500Y-122332177D01*
X163650500Y-122310954D01*
X163652027Y-122291555D01*
X163654502Y-122275927D01*
X163655347Y-122270595D01*
X163650775Y-122222230D01*
X163650500Y-122216392D01*
X163650500Y-105000002D01*
X174569723Y-105000002D01*
X174588793Y-105217975D01*
X174588793Y-105217979D01*
X174645422Y-105429322D01*
X174645424Y-105429326D01*
X174645425Y-105429330D01*
X174691661Y-105528484D01*
X174737897Y-105627638D01*
X174737898Y-105627639D01*
X174863402Y-105806877D01*
X175018123Y-105961598D01*
X175197361Y-106087102D01*
X175395670Y-106179575D01*
X175607023Y-106236207D01*
X175789926Y-106252208D01*
X175824998Y-106255277D01*
X175825000Y-106255277D01*
X175825002Y-106255277D01*
X175853254Y-106252805D01*
X176042977Y-106236207D01*
X176254330Y-106179575D01*
X176452639Y-106087102D01*
X176631877Y-105961598D01*
X176786598Y-105806877D01*
X176912102Y-105627639D01*
X177004575Y-105429330D01*
X177061207Y-105217977D01*
X177080277Y-105000000D01*
X177061207Y-104782023D01*
X177004575Y-104570670D01*
X176912102Y-104372362D01*
X176912100Y-104372359D01*
X176912099Y-104372357D01*
X176786597Y-104193121D01*
X176681156Y-104087680D01*
X176647671Y-104026357D01*
X176652655Y-103956665D01*
X176681152Y-103912322D01*
X176786598Y-103806877D01*
X176912102Y-103627639D01*
X177004575Y-103429330D01*
X177061207Y-103217977D01*
X177080277Y-103000000D01*
X177061207Y-102782023D01*
X177004575Y-102570670D01*
X176912102Y-102372362D01*
X176912100Y-102372359D01*
X176912099Y-102372357D01*
X176786597Y-102193121D01*
X176681156Y-102087680D01*
X176647671Y-102026357D01*
X176652655Y-101956665D01*
X176681152Y-101912322D01*
X176786598Y-101806877D01*
X176912102Y-101627639D01*
X177004575Y-101429330D01*
X177061207Y-101217977D01*
X177080277Y-101000000D01*
X177061207Y-100782023D01*
X177004575Y-100570670D01*
X176912102Y-100372362D01*
X176912100Y-100372359D01*
X176912099Y-100372357D01*
X176786597Y-100193121D01*
X176681156Y-100087680D01*
X176647671Y-100026357D01*
X176652655Y-99956665D01*
X176681152Y-99912322D01*
X176786598Y-99806877D01*
X176912102Y-99627639D01*
X177004575Y-99429330D01*
X177061207Y-99217977D01*
X177080277Y-99000000D01*
X177061207Y-98782023D01*
X177012300Y-98599500D01*
X177004577Y-98570677D01*
X177004576Y-98570676D01*
X177004575Y-98570670D01*
X176912102Y-98372362D01*
X176912100Y-98372359D01*
X176912099Y-98372357D01*
X176786597Y-98193121D01*
X176681156Y-98087680D01*
X176647671Y-98026357D01*
X176652655Y-97956665D01*
X176681152Y-97912322D01*
X176786598Y-97806877D01*
X176912102Y-97627639D01*
X177004575Y-97429330D01*
X177061207Y-97217977D01*
X177080277Y-97000000D01*
X177061207Y-96782023D01*
X177004575Y-96570670D01*
X176912102Y-96372362D01*
X176912100Y-96372359D01*
X176912099Y-96372357D01*
X176786599Y-96193124D01*
X176766363Y-96172888D01*
X176631877Y-96038402D01*
X176452639Y-95912898D01*
X176452640Y-95912898D01*
X176452638Y-95912897D01*
X176353484Y-95866661D01*
X176254330Y-95820425D01*
X176254326Y-95820424D01*
X176254322Y-95820422D01*
X176042977Y-95763793D01*
X175825002Y-95744723D01*
X175824998Y-95744723D01*
X175679681Y-95757436D01*
X175607023Y-95763793D01*
X175607020Y-95763793D01*
X175395677Y-95820422D01*
X175395668Y-95820426D01*
X175197361Y-95912898D01*
X175197357Y-95912900D01*
X175018121Y-96038402D01*
X174863402Y-96193121D01*
X174737900Y-96372357D01*
X174737898Y-96372361D01*
X174645426Y-96570668D01*
X174645422Y-96570677D01*
X174588793Y-96782020D01*
X174588793Y-96782023D01*
X174569723Y-97000000D01*
X174588650Y-97216348D01*
X174588793Y-97217975D01*
X174588793Y-97217979D01*
X174645422Y-97429322D01*
X174645423Y-97429324D01*
X174645425Y-97429330D01*
X174656515Y-97453112D01*
X174737897Y-97627638D01*
X174741105Y-97632219D01*
X174863402Y-97806877D01*
X174863405Y-97806880D01*
X174863406Y-97806881D01*
X174968843Y-97912318D01*
X175002328Y-97973641D01*
X174997344Y-98043333D01*
X174968844Y-98087680D01*
X174863400Y-98193124D01*
X174737900Y-98372357D01*
X174737898Y-98372361D01*
X174645426Y-98570668D01*
X174645422Y-98570677D01*
X174588793Y-98782020D01*
X174588793Y-98782023D01*
X174569723Y-99000000D01*
X174588483Y-99214439D01*
X174588793Y-99217975D01*
X174588793Y-99217979D01*
X174645422Y-99429322D01*
X174645424Y-99429326D01*
X174645425Y-99429330D01*
X174678379Y-99500000D01*
X174737897Y-99627638D01*
X174740757Y-99631722D01*
X174863402Y-99806877D01*
X174863406Y-99806881D01*
X174968843Y-99912318D01*
X175002328Y-99973641D01*
X174997344Y-100043333D01*
X174968844Y-100087680D01*
X174863400Y-100193124D01*
X174737900Y-100372357D01*
X174737898Y-100372361D01*
X174645426Y-100570668D01*
X174645422Y-100570677D01*
X174588793Y-100782020D01*
X174588793Y-100782023D01*
X174569723Y-101000000D01*
X174588792Y-101217970D01*
X174588793Y-101217975D01*
X174588793Y-101217979D01*
X174645422Y-101429322D01*
X174645424Y-101429326D01*
X174645425Y-101429330D01*
X174691661Y-101528484D01*
X174737897Y-101627638D01*
X174737898Y-101627639D01*
X174863402Y-101806877D01*
X174863406Y-101806881D01*
X174968843Y-101912318D01*
X175002328Y-101973641D01*
X174997344Y-102043333D01*
X174968844Y-102087680D01*
X174863400Y-102193124D01*
X174737900Y-102372357D01*
X174737898Y-102372361D01*
X174733970Y-102380785D01*
X174648720Y-102563605D01*
X174645426Y-102570668D01*
X174645422Y-102570677D01*
X174588793Y-102782020D01*
X174588793Y-102782024D01*
X174569723Y-102999997D01*
X174569723Y-103000002D01*
X174588793Y-103217975D01*
X174588793Y-103217979D01*
X174645422Y-103429322D01*
X174645424Y-103429326D01*
X174645425Y-103429330D01*
X174652833Y-103445216D01*
X174737897Y-103627638D01*
X174737898Y-103627639D01*
X174863402Y-103806877D01*
X174863406Y-103806881D01*
X174968843Y-103912318D01*
X175002328Y-103973641D01*
X174997344Y-104043333D01*
X174968844Y-104087680D01*
X174863400Y-104193124D01*
X174737900Y-104372357D01*
X174737898Y-104372361D01*
X174645426Y-104570668D01*
X174645422Y-104570677D01*
X174588793Y-104782020D01*
X174588793Y-104782024D01*
X174569723Y-104999997D01*
X174569723Y-105000002D01*
X163650500Y-105000002D01*
X163650500Y-103583921D01*
X163670185Y-103516882D01*
X163682351Y-103500948D01*
X163732533Y-103445216D01*
X163827179Y-103281284D01*
X163885674Y-103101256D01*
X163905460Y-102913000D01*
X163885674Y-102724744D01*
X163827179Y-102544716D01*
X163732533Y-102380784D01*
X163605871Y-102240112D01*
X163605870Y-102240111D01*
X163452734Y-102128851D01*
X163452729Y-102128848D01*
X163279807Y-102051857D01*
X163279802Y-102051855D01*
X163134001Y-102020865D01*
X163094646Y-102012500D01*
X163024500Y-102012500D01*
X162957461Y-101992815D01*
X162911706Y-101940011D01*
X162900500Y-101888500D01*
X162900500Y-100000000D01*
X165094540Y-100000000D01*
X165114326Y-100188256D01*
X165114327Y-100188259D01*
X165172818Y-100368277D01*
X165172821Y-100368284D01*
X165267467Y-100532216D01*
X165375000Y-100651643D01*
X165394129Y-100672888D01*
X165547265Y-100784148D01*
X165547270Y-100784151D01*
X165720192Y-100861142D01*
X165720197Y-100861144D01*
X165905354Y-100900500D01*
X165905355Y-100900500D01*
X166094644Y-100900500D01*
X166094646Y-100900500D01*
X166279803Y-100861144D01*
X166452730Y-100784151D01*
X166552114Y-100711944D01*
X166617921Y-100688464D01*
X166685975Y-100704289D01*
X166697885Y-100711944D01*
X166797265Y-100784148D01*
X166797270Y-100784151D01*
X166970192Y-100861142D01*
X166970197Y-100861144D01*
X167155354Y-100900500D01*
X167155355Y-100900500D01*
X167344644Y-100900500D01*
X167344646Y-100900500D01*
X167529803Y-100861144D01*
X167702730Y-100784151D01*
X167855871Y-100672888D01*
X167907851Y-100615158D01*
X167967336Y-100578510D01*
X168037193Y-100579840D01*
X168092148Y-100615158D01*
X168125000Y-100651643D01*
X168144129Y-100672888D01*
X168297265Y-100784148D01*
X168297270Y-100784151D01*
X168470192Y-100861142D01*
X168470197Y-100861144D01*
X168655354Y-100900500D01*
X168655355Y-100900500D01*
X168844644Y-100900500D01*
X168844646Y-100900500D01*
X169029803Y-100861144D01*
X169199566Y-100785559D01*
X169268813Y-100776275D01*
X169300430Y-100785557D01*
X169470197Y-100861144D01*
X169655354Y-100900500D01*
X169655355Y-100900500D01*
X169844644Y-100900500D01*
X169844646Y-100900500D01*
X170029803Y-100861144D01*
X170202730Y-100784151D01*
X170355871Y-100672888D01*
X170482533Y-100532216D01*
X170577179Y-100368284D01*
X170635674Y-100188256D01*
X170655460Y-100000000D01*
X170635674Y-99811744D01*
X170577179Y-99631716D01*
X170482533Y-99467784D01*
X170355871Y-99327112D01*
X170355867Y-99327109D01*
X170202734Y-99215851D01*
X170202729Y-99215848D01*
X170029807Y-99138857D01*
X170029802Y-99138855D01*
X169884000Y-99107865D01*
X169844646Y-99099500D01*
X169655354Y-99099500D01*
X169622897Y-99106398D01*
X169470197Y-99138855D01*
X169470192Y-99138857D01*
X169300436Y-99214439D01*
X169231186Y-99223724D01*
X169199564Y-99214439D01*
X169029807Y-99138857D01*
X169029802Y-99138855D01*
X168884001Y-99107865D01*
X168844646Y-99099500D01*
X168655354Y-99099500D01*
X168622897Y-99106398D01*
X168470197Y-99138855D01*
X168470192Y-99138857D01*
X168297270Y-99215848D01*
X168297265Y-99215851D01*
X168144132Y-99327109D01*
X168144129Y-99327111D01*
X168144129Y-99327112D01*
X168092148Y-99384841D01*
X168032663Y-99421489D01*
X167962806Y-99420158D01*
X167907851Y-99384841D01*
X167855871Y-99327112D01*
X167855867Y-99327109D01*
X167702734Y-99215851D01*
X167702729Y-99215848D01*
X167529807Y-99138857D01*
X167529802Y-99138855D01*
X167384000Y-99107865D01*
X167344646Y-99099500D01*
X167155354Y-99099500D01*
X167122897Y-99106398D01*
X166970197Y-99138855D01*
X166970192Y-99138857D01*
X166797271Y-99215848D01*
X166697885Y-99288056D01*
X166632078Y-99311535D01*
X166564025Y-99295709D01*
X166552115Y-99288056D01*
X166498299Y-99248957D01*
X166452730Y-99215849D01*
X166452728Y-99215848D01*
X166452729Y-99215848D01*
X166279807Y-99138857D01*
X166279802Y-99138855D01*
X166134001Y-99107865D01*
X166094646Y-99099500D01*
X165905354Y-99099500D01*
X165872897Y-99106398D01*
X165720197Y-99138855D01*
X165720192Y-99138857D01*
X165547270Y-99215848D01*
X165547265Y-99215851D01*
X165394129Y-99327111D01*
X165267466Y-99467785D01*
X165172821Y-99631715D01*
X165172818Y-99631722D01*
X165120636Y-99792324D01*
X165114326Y-99811744D01*
X165094540Y-100000000D01*
X162900500Y-100000000D01*
X162900500Y-99670921D01*
X162920185Y-99603882D01*
X162932351Y-99587948D01*
X162947561Y-99571056D01*
X162982533Y-99532216D01*
X163077179Y-99368284D01*
X163135674Y-99188256D01*
X163155460Y-99000000D01*
X163135674Y-98811744D01*
X163077179Y-98631716D01*
X163037070Y-98562245D01*
X163020598Y-98494348D01*
X163037069Y-98438252D01*
X163077179Y-98368781D01*
X163135674Y-98188753D01*
X163155460Y-98000497D01*
X163135674Y-97812241D01*
X163099179Y-97699921D01*
X163097184Y-97630080D01*
X163133264Y-97570247D01*
X163195965Y-97539419D01*
X163265379Y-97547384D01*
X163309258Y-97578629D01*
X163394128Y-97672888D01*
X163394129Y-97672888D01*
X163547265Y-97784148D01*
X163547270Y-97784151D01*
X163720192Y-97861142D01*
X163720197Y-97861144D01*
X163905354Y-97900500D01*
X163905355Y-97900500D01*
X164094644Y-97900500D01*
X164094646Y-97900500D01*
X164279803Y-97861144D01*
X164449566Y-97785559D01*
X164518812Y-97776274D01*
X164550433Y-97785559D01*
X164720197Y-97861144D01*
X164905354Y-97900500D01*
X164905355Y-97900500D01*
X165094644Y-97900500D01*
X165094646Y-97900500D01*
X165279803Y-97861144D01*
X165449566Y-97785559D01*
X165518812Y-97776274D01*
X165550433Y-97785559D01*
X165720197Y-97861144D01*
X165905354Y-97900500D01*
X165905355Y-97900500D01*
X166094644Y-97900500D01*
X166094646Y-97900500D01*
X166279803Y-97861144D01*
X166452730Y-97784151D01*
X166605871Y-97672888D01*
X166732533Y-97532216D01*
X166827179Y-97368284D01*
X166885674Y-97188256D01*
X166905460Y-97000000D01*
X166885674Y-96811744D01*
X166827179Y-96631716D01*
X166786928Y-96561999D01*
X166770455Y-96494098D01*
X166786929Y-96437998D01*
X166827179Y-96368284D01*
X166829500Y-96361142D01*
X166885674Y-96188256D01*
X166905460Y-96000000D01*
X166885674Y-95811744D01*
X166827179Y-95631716D01*
X166786927Y-95561999D01*
X166771885Y-95500000D01*
X168844540Y-95500000D01*
X168864326Y-95688256D01*
X168864327Y-95688259D01*
X168922818Y-95868277D01*
X168922821Y-95868284D01*
X169017467Y-96032216D01*
X169144128Y-96172887D01*
X169144129Y-96172888D01*
X169297265Y-96284148D01*
X169297270Y-96284151D01*
X169470192Y-96361142D01*
X169470197Y-96361144D01*
X169655354Y-96400500D01*
X169655355Y-96400500D01*
X169844644Y-96400500D01*
X169844646Y-96400500D01*
X170029803Y-96361144D01*
X170202730Y-96284151D01*
X170355871Y-96172888D01*
X170482533Y-96032216D01*
X170517613Y-95971454D01*
X170568179Y-95923240D01*
X170636786Y-95910016D01*
X170701651Y-95935984D01*
X170732385Y-95971453D01*
X170764084Y-96026357D01*
X170767467Y-96032216D01*
X170894129Y-96172888D01*
X171047265Y-96284148D01*
X171047270Y-96284151D01*
X171220192Y-96361142D01*
X171220197Y-96361144D01*
X171405354Y-96400500D01*
X171405355Y-96400500D01*
X171594644Y-96400500D01*
X171594646Y-96400500D01*
X171779803Y-96361144D01*
X171952730Y-96284151D01*
X172105871Y-96172888D01*
X172232533Y-96032216D01*
X172327179Y-95868284D01*
X172385674Y-95688256D01*
X172405460Y-95500000D01*
X172385674Y-95311744D01*
X172327179Y-95131716D01*
X172232533Y-94967784D01*
X172105871Y-94827112D01*
X172105797Y-94827058D01*
X171952734Y-94715851D01*
X171952729Y-94715848D01*
X171779807Y-94638857D01*
X171779802Y-94638855D01*
X171616861Y-94604222D01*
X171594646Y-94599500D01*
X171405354Y-94599500D01*
X171383139Y-94604222D01*
X171220197Y-94638855D01*
X171220192Y-94638857D01*
X171047270Y-94715848D01*
X171047265Y-94715851D01*
X170894129Y-94827111D01*
X170767466Y-94967785D01*
X170732387Y-95028544D01*
X170681820Y-95076760D01*
X170613213Y-95089983D01*
X170548348Y-95064015D01*
X170517613Y-95028544D01*
X170501131Y-94999997D01*
X170482533Y-94967784D01*
X170355871Y-94827112D01*
X170355797Y-94827058D01*
X170202734Y-94715851D01*
X170202729Y-94715848D01*
X170029807Y-94638857D01*
X170029802Y-94638855D01*
X169866861Y-94604222D01*
X169844646Y-94599500D01*
X169655354Y-94599500D01*
X169633139Y-94604222D01*
X169470197Y-94638855D01*
X169470192Y-94638857D01*
X169297270Y-94715848D01*
X169297265Y-94715851D01*
X169144129Y-94827111D01*
X169017466Y-94967785D01*
X168922821Y-95131715D01*
X168922818Y-95131722D01*
X168880299Y-95262583D01*
X168864326Y-95311744D01*
X168844540Y-95500000D01*
X166771885Y-95500000D01*
X166770454Y-95494101D01*
X166786927Y-95438001D01*
X166827179Y-95368284D01*
X166885674Y-95188256D01*
X166905460Y-95000000D01*
X166885674Y-94811744D01*
X166827179Y-94631716D01*
X166732533Y-94467784D01*
X166605871Y-94327112D01*
X166605870Y-94327111D01*
X166452734Y-94215851D01*
X166452729Y-94215848D01*
X166279807Y-94138857D01*
X166279802Y-94138855D01*
X166134001Y-94107865D01*
X166094646Y-94099500D01*
X165905354Y-94099500D01*
X165872897Y-94106398D01*
X165720197Y-94138855D01*
X165720192Y-94138857D01*
X165550436Y-94214439D01*
X165481186Y-94223724D01*
X165449564Y-94214439D01*
X165279807Y-94138857D01*
X165279802Y-94138855D01*
X165134001Y-94107865D01*
X165094646Y-94099500D01*
X164905354Y-94099500D01*
X164872897Y-94106398D01*
X164720197Y-94138855D01*
X164720192Y-94138857D01*
X164550436Y-94214439D01*
X164481186Y-94223724D01*
X164449564Y-94214439D01*
X164279807Y-94138857D01*
X164279802Y-94138855D01*
X164134000Y-94107865D01*
X164094646Y-94099500D01*
X163905354Y-94099500D01*
X163872897Y-94106398D01*
X163720197Y-94138855D01*
X163720192Y-94138857D01*
X163547270Y-94215848D01*
X163547265Y-94215851D01*
X163394129Y-94327111D01*
X163267466Y-94467785D01*
X163172821Y-94631715D01*
X163172818Y-94631722D01*
X163122012Y-94788088D01*
X163114326Y-94811744D01*
X163094540Y-95000000D01*
X163114326Y-95188256D01*
X163114327Y-95188259D01*
X163172818Y-95368277D01*
X163172820Y-95368281D01*
X163172821Y-95368284D01*
X163172823Y-95368287D01*
X163213072Y-95438001D01*
X163229543Y-95505901D01*
X163213072Y-95561998D01*
X163175176Y-95627638D01*
X163172820Y-95631718D01*
X163172818Y-95631722D01*
X163129906Y-95763793D01*
X163114326Y-95811744D01*
X163094540Y-96000000D01*
X163114326Y-96188256D01*
X163114327Y-96188259D01*
X163172818Y-96368277D01*
X163172820Y-96368281D01*
X163172821Y-96368284D01*
X163191421Y-96400500D01*
X163213072Y-96438001D01*
X163229543Y-96505901D01*
X163213072Y-96561999D01*
X163172820Y-96631718D01*
X163172818Y-96631722D01*
X163114327Y-96811740D01*
X163114326Y-96811744D01*
X163094540Y-97000000D01*
X163114326Y-97188256D01*
X163114327Y-97188259D01*
X163150820Y-97300575D01*
X163152815Y-97370417D01*
X163116734Y-97430249D01*
X163054033Y-97461077D01*
X162984619Y-97453112D01*
X162940741Y-97421866D01*
X162855871Y-97327609D01*
X162855870Y-97327608D01*
X162702734Y-97216348D01*
X162702729Y-97216345D01*
X162529807Y-97139354D01*
X162529802Y-97139352D01*
X162384001Y-97108362D01*
X162344646Y-97099997D01*
X162155354Y-97099997D01*
X162122897Y-97106895D01*
X161970197Y-97139352D01*
X161970192Y-97139354D01*
X161797270Y-97216345D01*
X161797265Y-97216348D01*
X161644129Y-97327608D01*
X161517466Y-97468282D01*
X161422821Y-97632212D01*
X161422818Y-97632219D01*
X161364327Y-97812237D01*
X161364326Y-97812241D01*
X161359186Y-97861144D01*
X161358014Y-97872299D01*
X161331429Y-97936913D01*
X161322374Y-97947017D01*
X161100483Y-98168908D01*
X161087910Y-98178982D01*
X161088065Y-98179169D01*
X161082059Y-98184137D01*
X161077722Y-98188756D01*
X161032809Y-98236583D01*
X161021949Y-98247443D01*
X161011088Y-98258304D01*
X161011078Y-98258316D01*
X161006587Y-98264104D01*
X161002801Y-98268536D01*
X160969552Y-98303945D01*
X160959322Y-98322552D01*
X160948646Y-98338803D01*
X160935640Y-98355571D01*
X160935636Y-98355577D01*
X160916348Y-98400150D01*
X160913777Y-98405397D01*
X160890372Y-98447969D01*
X160890372Y-98447970D01*
X160885091Y-98468538D01*
X160878791Y-98486940D01*
X160870364Y-98506412D01*
X160870364Y-98506413D01*
X160867516Y-98524398D01*
X160837586Y-98587533D01*
X160778274Y-98624463D01*
X160708412Y-98623465D01*
X160650179Y-98584854D01*
X160622066Y-98520890D01*
X160621043Y-98504999D01*
X160621043Y-95350264D01*
X160640728Y-95283225D01*
X160657357Y-95262588D01*
X162233126Y-93686819D01*
X162294450Y-93653334D01*
X162320808Y-93650500D01*
X167073025Y-93650500D01*
X167140064Y-93670185D01*
X167145910Y-93674182D01*
X167297265Y-93784148D01*
X167297270Y-93784151D01*
X167470192Y-93861142D01*
X167470197Y-93861144D01*
X167655354Y-93900500D01*
X167655355Y-93900500D01*
X167844644Y-93900500D01*
X167844646Y-93900500D01*
X168029803Y-93861144D01*
X168202730Y-93784151D01*
X168355871Y-93672888D01*
X168482533Y-93532216D01*
X168577179Y-93368284D01*
X168635674Y-93188256D01*
X168655460Y-93000000D01*
X168635674Y-92811744D01*
X168577179Y-92631716D01*
X168482533Y-92467784D01*
X168355871Y-92327112D01*
X168354090Y-92325818D01*
X168202734Y-92215851D01*
X168202729Y-92215848D01*
X168029807Y-92138857D01*
X168029802Y-92138855D01*
X167884001Y-92107865D01*
X167844646Y-92099500D01*
X167655354Y-92099500D01*
X167622897Y-92106398D01*
X167470197Y-92138855D01*
X167470192Y-92138857D01*
X167297270Y-92215848D01*
X167297265Y-92215851D01*
X167145910Y-92325818D01*
X167080104Y-92349298D01*
X167073025Y-92349500D01*
X162085506Y-92349500D01*
X162069495Y-92347732D01*
X162069473Y-92347974D01*
X162061706Y-92347239D01*
X161989783Y-92349500D01*
X161959075Y-92349500D01*
X161959071Y-92349500D01*
X161959060Y-92349501D01*
X161951804Y-92350417D01*
X161945986Y-92350875D01*
X161897433Y-92352401D01*
X161882873Y-92356630D01*
X161877040Y-92358325D01*
X161857996Y-92362269D01*
X161836942Y-92364929D01*
X161836940Y-92364929D01*
X161791781Y-92382808D01*
X161786255Y-92384700D01*
X161739601Y-92398254D01*
X161721325Y-92409063D01*
X161703860Y-92417619D01*
X161684124Y-92425433D01*
X161644824Y-92453986D01*
X161639942Y-92457193D01*
X161598136Y-92481917D01*
X161583124Y-92496929D01*
X161568336Y-92509558D01*
X161551167Y-92522032D01*
X161551165Y-92522034D01*
X161520194Y-92559470D01*
X161516262Y-92563791D01*
X159571026Y-94509026D01*
X159558453Y-94519100D01*
X159558608Y-94519287D01*
X159552602Y-94524255D01*
X159527977Y-94550478D01*
X159503352Y-94576701D01*
X159492492Y-94587561D01*
X159481631Y-94598422D01*
X159481621Y-94598434D01*
X159477130Y-94604222D01*
X159473344Y-94608654D01*
X159440095Y-94644063D01*
X159429865Y-94662670D01*
X159419189Y-94678921D01*
X159406183Y-94695689D01*
X159406179Y-94695695D01*
X159386891Y-94740268D01*
X159384320Y-94745515D01*
X159360915Y-94788087D01*
X159360915Y-94788088D01*
X159355634Y-94808656D01*
X159349334Y-94827058D01*
X159340907Y-94846530D01*
X159333309Y-94894504D01*
X159332124Y-94900227D01*
X159320043Y-94947275D01*
X159320043Y-94968501D01*
X159318516Y-94987901D01*
X159315196Y-95008860D01*
X159319768Y-95057224D01*
X159320043Y-95063063D01*
X159320043Y-101108535D01*
X159300358Y-101175574D01*
X159288193Y-101191507D01*
X159238009Y-101247242D01*
X159143364Y-101411172D01*
X159143361Y-101411179D01*
X159095967Y-101557044D01*
X159084869Y-101591201D01*
X159065083Y-101779457D01*
X159084869Y-101967713D01*
X159084870Y-101967716D01*
X159143361Y-102147734D01*
X159143364Y-102147741D01*
X159238010Y-102311673D01*
X159292654Y-102372361D01*
X159364672Y-102452345D01*
X159517808Y-102563605D01*
X159517813Y-102563608D01*
X159690735Y-102640599D01*
X159690740Y-102640601D01*
X159875897Y-102679957D01*
X159875898Y-102679957D01*
X160065187Y-102679957D01*
X160065189Y-102679957D01*
X160250346Y-102640601D01*
X160423273Y-102563608D01*
X160576414Y-102452345D01*
X160703076Y-102311673D01*
X160797722Y-102147741D01*
X160856217Y-101967713D01*
X160856217Y-101967711D01*
X160857569Y-101963551D01*
X160897006Y-101905876D01*
X160961365Y-101878677D01*
X161030211Y-101890592D01*
X161081687Y-101937836D01*
X161099500Y-102001869D01*
X161099500Y-121679191D01*
X161079815Y-121746230D01*
X161063181Y-121766872D01*
X159766873Y-123063181D01*
X159705550Y-123096666D01*
X159679192Y-123099500D01*
X159245808Y-123099500D01*
X159178769Y-123079815D01*
X159158127Y-123063181D01*
X158266060Y-122171114D01*
X158232575Y-122109791D01*
X158233966Y-122051339D01*
X158236207Y-122042977D01*
X158250988Y-121874027D01*
X158255277Y-121825002D01*
X158255277Y-121824997D01*
X158251569Y-121782618D01*
X158236207Y-121607023D01*
X158197929Y-121464167D01*
X158179577Y-121395677D01*
X158179576Y-121395676D01*
X158179575Y-121395670D01*
X158087102Y-121197362D01*
X158087100Y-121197359D01*
X158087099Y-121197357D01*
X157961599Y-121018124D01*
X157916464Y-120972989D01*
X157806877Y-120863402D01*
X157668978Y-120766844D01*
X157627638Y-120737897D01*
X157528484Y-120691661D01*
X157429330Y-120645425D01*
X157429326Y-120645424D01*
X157429322Y-120645422D01*
X157217977Y-120588793D01*
X157000002Y-120569723D01*
X156999998Y-120569723D01*
X156782029Y-120588792D01*
X156782025Y-120588792D01*
X156782023Y-120588793D01*
X156782017Y-120588794D01*
X156782015Y-120588795D01*
X156773659Y-120591034D01*
X156703809Y-120589370D01*
X156653886Y-120558940D01*
X155445434Y-119350488D01*
X155435361Y-119337914D01*
X155435174Y-119338070D01*
X155430201Y-119332059D01*
X155377756Y-119282810D01*
X155356035Y-119261089D01*
X155350240Y-119256594D01*
X155345798Y-119252799D01*
X155310396Y-119219554D01*
X155310388Y-119219548D01*
X155291792Y-119209325D01*
X155275531Y-119198644D01*
X155258763Y-119185637D01*
X155235295Y-119175482D01*
X155214178Y-119166343D01*
X155208956Y-119163786D01*
X155166368Y-119140373D01*
X155166365Y-119140372D01*
X155145801Y-119135092D01*
X155127396Y-119128790D01*
X155107927Y-119120365D01*
X155107921Y-119120363D01*
X155059951Y-119112766D01*
X155054236Y-119111582D01*
X155037772Y-119107355D01*
X155007180Y-119099500D01*
X155007177Y-119099500D01*
X154985955Y-119099500D01*
X154966555Y-119097973D01*
X154945596Y-119094653D01*
X154945595Y-119094653D01*
X154921786Y-119096903D01*
X154897230Y-119099225D01*
X154891392Y-119099500D01*
X143777914Y-119099500D01*
X143710875Y-119079815D01*
X143690233Y-119063181D01*
X138112107Y-113485055D01*
X152449500Y-113485055D01*
X152490210Y-113650226D01*
X152569263Y-113800849D01*
X152569266Y-113800852D01*
X152682071Y-113928183D01*
X152772318Y-113990476D01*
X152822068Y-114024817D01*
X152822069Y-114024817D01*
X152822070Y-114024818D01*
X152981128Y-114085140D01*
X153057028Y-114094356D01*
X153107626Y-114100500D01*
X153107628Y-114100500D01*
X153192374Y-114100500D01*
X153234538Y-114095380D01*
X153318872Y-114085140D01*
X153477930Y-114024818D01*
X153617929Y-113928183D01*
X153730734Y-113800852D01*
X153809790Y-113650225D01*
X153850500Y-113485056D01*
X153850500Y-113314944D01*
X153809790Y-113149775D01*
X153809789Y-113149773D01*
X153730736Y-112999150D01*
X153711560Y-112977505D01*
X153617929Y-112871817D01*
X153568177Y-112837475D01*
X153477931Y-112775182D01*
X153318874Y-112714860D01*
X153318868Y-112714859D01*
X153192374Y-112699500D01*
X153192372Y-112699500D01*
X153107628Y-112699500D01*
X153107626Y-112699500D01*
X152981131Y-112714859D01*
X152981125Y-112714860D01*
X152822068Y-112775182D01*
X152682072Y-112871816D01*
X152569263Y-112999150D01*
X152490210Y-113149773D01*
X152449500Y-113314944D01*
X152449500Y-113485055D01*
X138112107Y-113485055D01*
X134303165Y-109676113D01*
X149357808Y-109676113D01*
X149377594Y-109864369D01*
X149377595Y-109864372D01*
X149436086Y-110044390D01*
X149436089Y-110044397D01*
X149530735Y-110208329D01*
X149626732Y-110314944D01*
X149657397Y-110349001D01*
X149810533Y-110460261D01*
X149810538Y-110460264D01*
X149983460Y-110537255D01*
X149983465Y-110537257D01*
X150168622Y-110576613D01*
X150168623Y-110576613D01*
X150357912Y-110576613D01*
X150357914Y-110576613D01*
X150543071Y-110537257D01*
X150660317Y-110485055D01*
X152449500Y-110485055D01*
X152490210Y-110650226D01*
X152569263Y-110800849D01*
X152569266Y-110800852D01*
X152682071Y-110928183D01*
X152772318Y-110990476D01*
X152822068Y-111024817D01*
X152822069Y-111024817D01*
X152822070Y-111024818D01*
X152981128Y-111085140D01*
X153057028Y-111094356D01*
X153107626Y-111100500D01*
X153107628Y-111100500D01*
X153192374Y-111100500D01*
X153234538Y-111095380D01*
X153318872Y-111085140D01*
X153477930Y-111024818D01*
X153617929Y-110928183D01*
X153730734Y-110800852D01*
X153809790Y-110650225D01*
X153850500Y-110485056D01*
X153850500Y-110314944D01*
X153809790Y-110149775D01*
X153754483Y-110044397D01*
X153730736Y-109999150D01*
X153711560Y-109977505D01*
X153617929Y-109871817D01*
X153568177Y-109837475D01*
X153477931Y-109775182D01*
X153318874Y-109714860D01*
X153318868Y-109714859D01*
X153192374Y-109699500D01*
X153192372Y-109699500D01*
X153107628Y-109699500D01*
X153107626Y-109699500D01*
X152981131Y-109714859D01*
X152981125Y-109714860D01*
X152822068Y-109775182D01*
X152682072Y-109871816D01*
X152569263Y-109999150D01*
X152490210Y-110149773D01*
X152449500Y-110314944D01*
X152449500Y-110485055D01*
X150660317Y-110485055D01*
X150715998Y-110460264D01*
X150869139Y-110349001D01*
X150995801Y-110208329D01*
X151090447Y-110044397D01*
X151148942Y-109864369D01*
X151168728Y-109676113D01*
X151148942Y-109487857D01*
X151090447Y-109307829D01*
X150995801Y-109143897D01*
X150869139Y-109003225D01*
X150869138Y-109003224D01*
X150716002Y-108891964D01*
X150715997Y-108891961D01*
X150543075Y-108814970D01*
X150543070Y-108814968D01*
X150361682Y-108776414D01*
X150357914Y-108775613D01*
X150168622Y-108775613D01*
X150164854Y-108776414D01*
X149983465Y-108814968D01*
X149983460Y-108814970D01*
X149810538Y-108891961D01*
X149810533Y-108891964D01*
X149657397Y-109003224D01*
X149530734Y-109143898D01*
X149436089Y-109307828D01*
X149436086Y-109307835D01*
X149377595Y-109487853D01*
X149377594Y-109487857D01*
X149357808Y-109676113D01*
X134303165Y-109676113D01*
X131686819Y-107059767D01*
X131653334Y-106998444D01*
X131650500Y-106972086D01*
X131650500Y-104495807D01*
X131670185Y-104428768D01*
X131686810Y-104408135D01*
X131828888Y-104266056D01*
X131890207Y-104232574D01*
X131948662Y-104233966D01*
X131957023Y-104236207D01*
X132142537Y-104252437D01*
X132174998Y-104255277D01*
X132175000Y-104255277D01*
X132175002Y-104255277D01*
X132203254Y-104252805D01*
X132392977Y-104236207D01*
X132604330Y-104179575D01*
X132802639Y-104087102D01*
X132981877Y-103961598D01*
X133136598Y-103806877D01*
X133262102Y-103627639D01*
X133354575Y-103429330D01*
X133411207Y-103217977D01*
X133430277Y-103000000D01*
X133411207Y-102782023D01*
X133354575Y-102570670D01*
X133262102Y-102372362D01*
X133262100Y-102372359D01*
X133262099Y-102372357D01*
X133136597Y-102193121D01*
X133031156Y-102087680D01*
X132997671Y-102026357D01*
X133002655Y-101956665D01*
X133031152Y-101912322D01*
X133136598Y-101806877D01*
X133262102Y-101627639D01*
X133354575Y-101429330D01*
X133411207Y-101217977D01*
X133430277Y-101000000D01*
X133411207Y-100782023D01*
X133354575Y-100570670D01*
X133262102Y-100372362D01*
X133262100Y-100372359D01*
X133262099Y-100372357D01*
X133136597Y-100193121D01*
X133031156Y-100087680D01*
X132997671Y-100026357D01*
X133002655Y-99956665D01*
X133031152Y-99912322D01*
X133136598Y-99806877D01*
X133262102Y-99627639D01*
X133321621Y-99500000D01*
X143094540Y-99500000D01*
X143114326Y-99688256D01*
X143114327Y-99688259D01*
X143172818Y-99868277D01*
X143172821Y-99868284D01*
X143267467Y-100032216D01*
X143394129Y-100172887D01*
X143394129Y-100172888D01*
X143547265Y-100284148D01*
X143547270Y-100284151D01*
X143720192Y-100361142D01*
X143720197Y-100361144D01*
X143905354Y-100400500D01*
X143905355Y-100400500D01*
X144094644Y-100400500D01*
X144094646Y-100400500D01*
X144279803Y-100361144D01*
X144449566Y-100285559D01*
X144518812Y-100276274D01*
X144550433Y-100285559D01*
X144720197Y-100361144D01*
X144905354Y-100400500D01*
X144905355Y-100400500D01*
X145094644Y-100400500D01*
X145094646Y-100400500D01*
X145279803Y-100361144D01*
X145452730Y-100284151D01*
X145605871Y-100172888D01*
X145732533Y-100032216D01*
X145827179Y-99868284D01*
X145885674Y-99688256D01*
X145905460Y-99500000D01*
X145885674Y-99311744D01*
X145827179Y-99131716D01*
X145732533Y-98967784D01*
X145605871Y-98827112D01*
X145584719Y-98811744D01*
X145452734Y-98715851D01*
X145452729Y-98715848D01*
X145279807Y-98638857D01*
X145279802Y-98638855D01*
X145130693Y-98607162D01*
X145094646Y-98599500D01*
X144905354Y-98599500D01*
X144872897Y-98606398D01*
X144720197Y-98638855D01*
X144720192Y-98638857D01*
X144550435Y-98714439D01*
X144481185Y-98723724D01*
X144449563Y-98714439D01*
X144279807Y-98638857D01*
X144279802Y-98638855D01*
X144130693Y-98607162D01*
X144094646Y-98599500D01*
X143905354Y-98599500D01*
X143872897Y-98606398D01*
X143720197Y-98638855D01*
X143720192Y-98638857D01*
X143547270Y-98715848D01*
X143547265Y-98715851D01*
X143394129Y-98827111D01*
X143267466Y-98967785D01*
X143172821Y-99131715D01*
X143172818Y-99131722D01*
X143119536Y-99295709D01*
X143114326Y-99311744D01*
X143094540Y-99500000D01*
X133321621Y-99500000D01*
X133354575Y-99429330D01*
X133411207Y-99217977D01*
X133430277Y-99000000D01*
X133411207Y-98782023D01*
X133362300Y-98599500D01*
X133354577Y-98570677D01*
X133354576Y-98570676D01*
X133354575Y-98570670D01*
X133262102Y-98372362D01*
X133262100Y-98372359D01*
X133262099Y-98372357D01*
X133136597Y-98193121D01*
X133031156Y-98087680D01*
X132997671Y-98026357D01*
X133002655Y-97956665D01*
X133031152Y-97912322D01*
X133136598Y-97806877D01*
X133262102Y-97627639D01*
X133354575Y-97429330D01*
X133411207Y-97217977D01*
X133430277Y-97000000D01*
X133411207Y-96782023D01*
X133354575Y-96570670D01*
X133262102Y-96372362D01*
X133262100Y-96372359D01*
X133262099Y-96372357D01*
X133136597Y-96193121D01*
X133031156Y-96087680D01*
X132997671Y-96026357D01*
X133002655Y-95956665D01*
X133031152Y-95912322D01*
X133136598Y-95806877D01*
X133262102Y-95627639D01*
X133354575Y-95429330D01*
X133411207Y-95217977D01*
X133430277Y-95000000D01*
X133411207Y-94782023D01*
X133354575Y-94570670D01*
X133262102Y-94372362D01*
X133262100Y-94372359D01*
X133262099Y-94372357D01*
X133136599Y-94193124D01*
X133082330Y-94138855D01*
X132981877Y-94038402D01*
X132802639Y-93912898D01*
X132802640Y-93912898D01*
X132802638Y-93912897D01*
X132691648Y-93861142D01*
X132604330Y-93820425D01*
X132604326Y-93820424D01*
X132604322Y-93820422D01*
X132392977Y-93763793D01*
X132175002Y-93744723D01*
X132174998Y-93744723D01*
X132029681Y-93757436D01*
X131957023Y-93763793D01*
X131957020Y-93763793D01*
X131745677Y-93820422D01*
X131745668Y-93820426D01*
X131547361Y-93912898D01*
X131547357Y-93912900D01*
X131368121Y-94038402D01*
X131213402Y-94193121D01*
X131087900Y-94372357D01*
X131087898Y-94372361D01*
X130995426Y-94570668D01*
X130995422Y-94570677D01*
X130938793Y-94782020D01*
X130938793Y-94782023D01*
X130934853Y-94827058D01*
X130919723Y-94999997D01*
X130919723Y-95000002D01*
X130938792Y-95217970D01*
X130938794Y-95217983D01*
X130941035Y-95226346D01*
X130939368Y-95296196D01*
X130908939Y-95346113D01*
X130061681Y-96193372D01*
X130000358Y-96226857D01*
X129930667Y-96221873D01*
X129874733Y-96180001D01*
X129850316Y-96114537D01*
X129850000Y-96105691D01*
X129850000Y-92699499D01*
X129869685Y-92632460D01*
X129922489Y-92586705D01*
X129974000Y-92575499D01*
X131472871Y-92575499D01*
X131472872Y-92575499D01*
X131532483Y-92569091D01*
X131667331Y-92518796D01*
X131782546Y-92432546D01*
X131868796Y-92317331D01*
X131919091Y-92182483D01*
X131925500Y-92122873D01*
X131925499Y-90327128D01*
X131919091Y-90267517D01*
X131868796Y-90132669D01*
X131868795Y-90132668D01*
X131868793Y-90132664D01*
X131782547Y-90017455D01*
X131782544Y-90017452D01*
X131667335Y-89931206D01*
X131667328Y-89931202D01*
X131535917Y-89882189D01*
X131479983Y-89840318D01*
X131455566Y-89774853D01*
X131470418Y-89706580D01*
X131491563Y-89678332D01*
X131613495Y-89556401D01*
X131749035Y-89362830D01*
X131848903Y-89148663D01*
X131910063Y-88920408D01*
X131930659Y-88685000D01*
X131910063Y-88449592D01*
X131848903Y-88221337D01*
X131749035Y-88007171D01*
X131613495Y-87813599D01*
X131613494Y-87813597D01*
X131446402Y-87646506D01*
X131446395Y-87646501D01*
X131252834Y-87510967D01*
X131252830Y-87510965D01*
X131252829Y-87510965D01*
X131038663Y-87411097D01*
X131038659Y-87411096D01*
X131038655Y-87411094D01*
X130810413Y-87349938D01*
X130810403Y-87349936D01*
X130575001Y-87329341D01*
X130574999Y-87329341D01*
X130339596Y-87349936D01*
X130339586Y-87349938D01*
X130111344Y-87411094D01*
X130111330Y-87411099D01*
X130026404Y-87450701D01*
X129957327Y-87461193D01*
X129893543Y-87432673D01*
X129855304Y-87374196D01*
X129850000Y-87338319D01*
X129850000Y-85784321D01*
X129866613Y-85722321D01*
X129895153Y-85672888D01*
X129926679Y-85618284D01*
X129985174Y-85438256D01*
X130004960Y-85250000D01*
X129985174Y-85061744D01*
X129965112Y-85000000D01*
X147594540Y-85000000D01*
X147614326Y-85188256D01*
X147614327Y-85188259D01*
X147672818Y-85368277D01*
X147672821Y-85368284D01*
X147767467Y-85532216D01*
X147894129Y-85672888D01*
X148047265Y-85784148D01*
X148047270Y-85784151D01*
X148220192Y-85861142D01*
X148220197Y-85861144D01*
X148405354Y-85900500D01*
X148405355Y-85900500D01*
X148594644Y-85900500D01*
X148594646Y-85900500D01*
X148779803Y-85861144D01*
X148949566Y-85785559D01*
X149018812Y-85776274D01*
X149050433Y-85785559D01*
X149220197Y-85861144D01*
X149405354Y-85900500D01*
X149405355Y-85900500D01*
X149594644Y-85900500D01*
X149594646Y-85900500D01*
X149779803Y-85861144D01*
X149949566Y-85785559D01*
X150018813Y-85776275D01*
X150050430Y-85785557D01*
X150220197Y-85861144D01*
X150405354Y-85900500D01*
X150405355Y-85900500D01*
X150594644Y-85900500D01*
X150594646Y-85900500D01*
X150779803Y-85861144D01*
X150949566Y-85785559D01*
X151018812Y-85776274D01*
X151050433Y-85785559D01*
X151220197Y-85861144D01*
X151405354Y-85900500D01*
X151405355Y-85900500D01*
X151594644Y-85900500D01*
X151594646Y-85900500D01*
X151779803Y-85861144D01*
X151952730Y-85784151D01*
X152105871Y-85672888D01*
X152232533Y-85532216D01*
X152327179Y-85368284D01*
X152385674Y-85188256D01*
X152405460Y-85000000D01*
X152385674Y-84811744D01*
X152327179Y-84631716D01*
X152286927Y-84561999D01*
X152270454Y-84494101D01*
X152286927Y-84438001D01*
X152327179Y-84368284D01*
X152385674Y-84188256D01*
X152405460Y-84000000D01*
X152385674Y-83811744D01*
X152327179Y-83631716D01*
X152286928Y-83561999D01*
X152270455Y-83494098D01*
X152286929Y-83437998D01*
X152327179Y-83368284D01*
X152335613Y-83342328D01*
X152385674Y-83188256D01*
X152405460Y-83000000D01*
X152385674Y-82811744D01*
X152327179Y-82631716D01*
X152325387Y-82628613D01*
X152314039Y-82608958D01*
X152286927Y-82561999D01*
X152270454Y-82494101D01*
X152286927Y-82438001D01*
X152327179Y-82368284D01*
X152362256Y-82260329D01*
X165270524Y-82260329D01*
X165290310Y-82448585D01*
X165290311Y-82448588D01*
X165348802Y-82628606D01*
X165348805Y-82628613D01*
X165443451Y-82792545D01*
X165511641Y-82868277D01*
X165570113Y-82933217D01*
X165723249Y-83044477D01*
X165723254Y-83044480D01*
X165896176Y-83121471D01*
X165896181Y-83121473D01*
X166081338Y-83160829D01*
X166081339Y-83160829D01*
X166270628Y-83160829D01*
X166270630Y-83160829D01*
X166455787Y-83121473D01*
X166628714Y-83044480D01*
X166781855Y-82933217D01*
X166908517Y-82792545D01*
X167003163Y-82628613D01*
X167044952Y-82500000D01*
X170844540Y-82500000D01*
X170864326Y-82688256D01*
X170864327Y-82688259D01*
X170922818Y-82868277D01*
X170922821Y-82868284D01*
X171017467Y-83032216D01*
X171121605Y-83147873D01*
X171144129Y-83172888D01*
X171297265Y-83284148D01*
X171297270Y-83284151D01*
X171470192Y-83361142D01*
X171470197Y-83361144D01*
X171655354Y-83400500D01*
X171655355Y-83400500D01*
X171844644Y-83400500D01*
X171844646Y-83400500D01*
X172029803Y-83361144D01*
X172202730Y-83284151D01*
X172355871Y-83172888D01*
X172482533Y-83032216D01*
X172577179Y-82868284D01*
X172635674Y-82688256D01*
X172655460Y-82500000D01*
X172635674Y-82311744D01*
X172577179Y-82131716D01*
X172482533Y-81967784D01*
X172355871Y-81827112D01*
X172334719Y-81811744D01*
X172202734Y-81715851D01*
X172202729Y-81715848D01*
X172029807Y-81638857D01*
X172029802Y-81638855D01*
X171884000Y-81607865D01*
X171844646Y-81599500D01*
X171655354Y-81599500D01*
X171622897Y-81606398D01*
X171470197Y-81638855D01*
X171470192Y-81638857D01*
X171297270Y-81715848D01*
X171297265Y-81715851D01*
X171144129Y-81827111D01*
X171017466Y-81967785D01*
X170922821Y-82131715D01*
X170922818Y-82131722D01*
X170864327Y-82311740D01*
X170864326Y-82311744D01*
X170844540Y-82500000D01*
X167044952Y-82500000D01*
X167061658Y-82448585D01*
X167081444Y-82260329D01*
X167061658Y-82072073D01*
X167003163Y-81892045D01*
X166908517Y-81728113D01*
X166781855Y-81587441D01*
X166781854Y-81587440D01*
X166628718Y-81476180D01*
X166628713Y-81476177D01*
X166455791Y-81399186D01*
X166455786Y-81399184D01*
X166309984Y-81368194D01*
X166270630Y-81359829D01*
X166081338Y-81359829D01*
X166048881Y-81366727D01*
X165896181Y-81399184D01*
X165896176Y-81399186D01*
X165723254Y-81476177D01*
X165723249Y-81476180D01*
X165570113Y-81587440D01*
X165443450Y-81728114D01*
X165348805Y-81892044D01*
X165348802Y-81892051D01*
X165290311Y-82072069D01*
X165290310Y-82072073D01*
X165270524Y-82260329D01*
X152362256Y-82260329D01*
X152385674Y-82188256D01*
X152405460Y-82000000D01*
X152385674Y-81811744D01*
X152327179Y-81631716D01*
X152232533Y-81467784D01*
X152105871Y-81327112D01*
X152105870Y-81327111D01*
X151952734Y-81215851D01*
X151952729Y-81215848D01*
X151779807Y-81138857D01*
X151779802Y-81138855D01*
X151634001Y-81107865D01*
X151594646Y-81099500D01*
X151405354Y-81099500D01*
X151372897Y-81106398D01*
X151220197Y-81138855D01*
X151220192Y-81138857D01*
X151050435Y-81214439D01*
X150981185Y-81223724D01*
X150949563Y-81214439D01*
X150779807Y-81138857D01*
X150779802Y-81138855D01*
X150634001Y-81107865D01*
X150594646Y-81099500D01*
X150405354Y-81099500D01*
X150372897Y-81106398D01*
X150220197Y-81138855D01*
X150220192Y-81138857D01*
X150050435Y-81214439D01*
X149981185Y-81223724D01*
X149949563Y-81214439D01*
X149779807Y-81138857D01*
X149779802Y-81138855D01*
X149634001Y-81107865D01*
X149594646Y-81099500D01*
X149405354Y-81099500D01*
X149372897Y-81106398D01*
X149220197Y-81138855D01*
X149220192Y-81138857D01*
X149050435Y-81214439D01*
X148981185Y-81223724D01*
X148949563Y-81214439D01*
X148779807Y-81138857D01*
X148779802Y-81138855D01*
X148634000Y-81107865D01*
X148594646Y-81099500D01*
X148405354Y-81099500D01*
X148372897Y-81106398D01*
X148220197Y-81138855D01*
X148220192Y-81138857D01*
X148047270Y-81215848D01*
X148047265Y-81215851D01*
X147894129Y-81327111D01*
X147767466Y-81467785D01*
X147672821Y-81631715D01*
X147672818Y-81631722D01*
X147641499Y-81728114D01*
X147614326Y-81811744D01*
X147594540Y-82000000D01*
X147614326Y-82188256D01*
X147614327Y-82188259D01*
X147672818Y-82368277D01*
X147672820Y-82368281D01*
X147672821Y-82368284D01*
X147672823Y-82368287D01*
X147713072Y-82438001D01*
X147729543Y-82505901D01*
X147713072Y-82561999D01*
X147672820Y-82631718D01*
X147672818Y-82631722D01*
X147620564Y-82792545D01*
X147614326Y-82811744D01*
X147594540Y-83000000D01*
X147614326Y-83188256D01*
X147614327Y-83188259D01*
X147672818Y-83368277D01*
X147672820Y-83368281D01*
X147672821Y-83368284D01*
X147691421Y-83400500D01*
X147713072Y-83438001D01*
X147729543Y-83505901D01*
X147713072Y-83561999D01*
X147672820Y-83631718D01*
X147672818Y-83631722D01*
X147614327Y-83811740D01*
X147614326Y-83811744D01*
X147594540Y-84000000D01*
X147614326Y-84188256D01*
X147614327Y-84188259D01*
X147672818Y-84368277D01*
X147672820Y-84368281D01*
X147672821Y-84368284D01*
X147684699Y-84388857D01*
X147713072Y-84438001D01*
X147729543Y-84505901D01*
X147713072Y-84561999D01*
X147672820Y-84631718D01*
X147672818Y-84631722D01*
X147644855Y-84717785D01*
X147614326Y-84811744D01*
X147594540Y-85000000D01*
X129965112Y-85000000D01*
X129926679Y-84881716D01*
X129832033Y-84717784D01*
X129705371Y-84577112D01*
X129705370Y-84577111D01*
X129552234Y-84465851D01*
X129552229Y-84465848D01*
X129379307Y-84388857D01*
X129379302Y-84388855D01*
X129233500Y-84357865D01*
X129194146Y-84349500D01*
X129004854Y-84349500D01*
X128972397Y-84356398D01*
X128819697Y-84388855D01*
X128819692Y-84388857D01*
X128646770Y-84465848D01*
X128646765Y-84465851D01*
X128493629Y-84577111D01*
X128366966Y-84717785D01*
X128272321Y-84881715D01*
X128272318Y-84881722D01*
X128213827Y-85061740D01*
X128213826Y-85061744D01*
X128194040Y-85250000D01*
X128213826Y-85438256D01*
X128213827Y-85438259D01*
X128272318Y-85618277D01*
X128272321Y-85618284D01*
X128332387Y-85722321D01*
X128349000Y-85784321D01*
X128349000Y-118829633D01*
X128329315Y-118896672D01*
X128317150Y-118912605D01*
X128267466Y-118967784D01*
X128172821Y-119131715D01*
X128172818Y-119131722D01*
X128123727Y-119282810D01*
X128114326Y-119311744D01*
X128094540Y-119500000D01*
X118600500Y-119500000D01*
X118600500Y-83147870D01*
X137149500Y-83147870D01*
X137149501Y-83147876D01*
X137155908Y-83207483D01*
X137206202Y-83342328D01*
X137206206Y-83342335D01*
X137292452Y-83457544D01*
X137292455Y-83457547D01*
X137407664Y-83543793D01*
X137407671Y-83543797D01*
X137542517Y-83594091D01*
X137542516Y-83594091D01*
X137549444Y-83594835D01*
X137602127Y-83600500D01*
X139397872Y-83600499D01*
X139457483Y-83594091D01*
X139592331Y-83543796D01*
X139707546Y-83457546D01*
X139793796Y-83342331D01*
X139844091Y-83207483D01*
X139850500Y-83147873D01*
X139850499Y-81352128D01*
X139844091Y-81292517D01*
X139815496Y-81215851D01*
X139793797Y-81157671D01*
X139793793Y-81157664D01*
X139707547Y-81042455D01*
X139707544Y-81042452D01*
X139592335Y-80956206D01*
X139592328Y-80956202D01*
X139457482Y-80905908D01*
X139457483Y-80905908D01*
X139397883Y-80899501D01*
X139397881Y-80899500D01*
X139397873Y-80899500D01*
X139397864Y-80899500D01*
X137602129Y-80899500D01*
X137602123Y-80899501D01*
X137542516Y-80905908D01*
X137407671Y-80956202D01*
X137407664Y-80956206D01*
X137292455Y-81042452D01*
X137292452Y-81042455D01*
X137206206Y-81157664D01*
X137206202Y-81157671D01*
X137155908Y-81292517D01*
X137149501Y-81352116D01*
X137149501Y-81352123D01*
X137149500Y-81352135D01*
X137149500Y-83147870D01*
X118600500Y-83147870D01*
X118600500Y-78175002D01*
X149744723Y-78175002D01*
X149763793Y-78392975D01*
X149763793Y-78392979D01*
X149820422Y-78604322D01*
X149820424Y-78604326D01*
X149820425Y-78604330D01*
X149866661Y-78703484D01*
X149912897Y-78802638D01*
X149912898Y-78802639D01*
X150038402Y-78981877D01*
X150193123Y-79136598D01*
X150372361Y-79262102D01*
X150570670Y-79354575D01*
X150782023Y-79411207D01*
X150964926Y-79427208D01*
X150999998Y-79430277D01*
X151000000Y-79430277D01*
X151000002Y-79430277D01*
X151028254Y-79427805D01*
X151217977Y-79411207D01*
X151429330Y-79354575D01*
X151627639Y-79262102D01*
X151806877Y-79136598D01*
X151912319Y-79031156D01*
X151973642Y-78997671D01*
X152043334Y-79002655D01*
X152087680Y-79031156D01*
X152193123Y-79136598D01*
X152372361Y-79262102D01*
X152570670Y-79354575D01*
X152782023Y-79411207D01*
X152964926Y-79427208D01*
X152999998Y-79430277D01*
X153000000Y-79430277D01*
X153000002Y-79430277D01*
X153028254Y-79427805D01*
X153217977Y-79411207D01*
X153429330Y-79354575D01*
X153627639Y-79262102D01*
X153806877Y-79136598D01*
X153912319Y-79031156D01*
X153973642Y-78997671D01*
X154043334Y-79002655D01*
X154087680Y-79031156D01*
X154193123Y-79136598D01*
X154372361Y-79262102D01*
X154570670Y-79354575D01*
X154782023Y-79411207D01*
X154964926Y-79427208D01*
X154999998Y-79430277D01*
X155000000Y-79430277D01*
X155000002Y-79430277D01*
X155028254Y-79427805D01*
X155217977Y-79411207D01*
X155429330Y-79354575D01*
X155627639Y-79262102D01*
X155806877Y-79136598D01*
X155912319Y-79031156D01*
X155973642Y-78997671D01*
X156043334Y-79002655D01*
X156087680Y-79031156D01*
X156193123Y-79136598D01*
X156372361Y-79262102D01*
X156570670Y-79354575D01*
X156782023Y-79411207D01*
X156964926Y-79427208D01*
X156999998Y-79430277D01*
X157000000Y-79430277D01*
X157000002Y-79430277D01*
X157028254Y-79427805D01*
X157217977Y-79411207D01*
X157429330Y-79354575D01*
X157627639Y-79262102D01*
X157806877Y-79136598D01*
X157912319Y-79031156D01*
X157973642Y-78997671D01*
X158043334Y-79002655D01*
X158087680Y-79031156D01*
X158193123Y-79136598D01*
X158372361Y-79262102D01*
X158570670Y-79354575D01*
X158782023Y-79411207D01*
X158964926Y-79427208D01*
X158999998Y-79430277D01*
X159000000Y-79430277D01*
X159000002Y-79430277D01*
X159028254Y-79427805D01*
X159217977Y-79411207D01*
X159429330Y-79354575D01*
X159627639Y-79262102D01*
X159806877Y-79136598D01*
X159961598Y-78981877D01*
X160087102Y-78802639D01*
X160179575Y-78604330D01*
X160207530Y-78500000D01*
X166088447Y-78500000D01*
X166109042Y-78735403D01*
X166109044Y-78735413D01*
X166170200Y-78963655D01*
X166170202Y-78963659D01*
X166170203Y-78963663D01*
X166201676Y-79031156D01*
X166270071Y-79177830D01*
X166270073Y-79177834D01*
X166329079Y-79262102D01*
X166405611Y-79371401D01*
X166572705Y-79538495D01*
X166669490Y-79606264D01*
X166766271Y-79674032D01*
X166766273Y-79674033D01*
X166766276Y-79674035D01*
X166980443Y-79773903D01*
X167208698Y-79835063D01*
X167397024Y-79851539D01*
X167444105Y-79855659D01*
X167444106Y-79855659D01*
X167444107Y-79855659D01*
X167483340Y-79852226D01*
X167679514Y-79835063D01*
X167907769Y-79773903D01*
X168121936Y-79674035D01*
X168315507Y-79538495D01*
X168482601Y-79371401D01*
X168612530Y-79185842D01*
X168667108Y-79142217D01*
X168736606Y-79135023D01*
X168798961Y-79166546D01*
X168815681Y-79185842D01*
X168945606Y-79371395D01*
X168945611Y-79371401D01*
X169112705Y-79538495D01*
X169209490Y-79606264D01*
X169306271Y-79674032D01*
X169306273Y-79674033D01*
X169306276Y-79674035D01*
X169520443Y-79773903D01*
X169748698Y-79835063D01*
X169937024Y-79851539D01*
X169984105Y-79855659D01*
X169984106Y-79855659D01*
X169984107Y-79855659D01*
X170023340Y-79852226D01*
X170219514Y-79835063D01*
X170447769Y-79773903D01*
X170661936Y-79674035D01*
X170855507Y-79538495D01*
X171022601Y-79371401D01*
X171152530Y-79185842D01*
X171207108Y-79142217D01*
X171276606Y-79135023D01*
X171338961Y-79166546D01*
X171355681Y-79185842D01*
X171485606Y-79371395D01*
X171485611Y-79371401D01*
X171652705Y-79538495D01*
X171749490Y-79606264D01*
X171846271Y-79674032D01*
X171846273Y-79674033D01*
X171846276Y-79674035D01*
X172060443Y-79773903D01*
X172288698Y-79835063D01*
X172477024Y-79851539D01*
X172524105Y-79855659D01*
X172524106Y-79855659D01*
X172524107Y-79855659D01*
X172563340Y-79852226D01*
X172759514Y-79835063D01*
X172987769Y-79773903D01*
X173201936Y-79674035D01*
X173395507Y-79538495D01*
X173562601Y-79371401D01*
X173692530Y-79185842D01*
X173747108Y-79142217D01*
X173816606Y-79135023D01*
X173878961Y-79166546D01*
X173895681Y-79185842D01*
X174025606Y-79371395D01*
X174025611Y-79371401D01*
X174192705Y-79538495D01*
X174289490Y-79606264D01*
X174386271Y-79674032D01*
X174386273Y-79674033D01*
X174386276Y-79674035D01*
X174600443Y-79773903D01*
X174828698Y-79835063D01*
X175017024Y-79851539D01*
X175064105Y-79855659D01*
X175064106Y-79855659D01*
X175064107Y-79855659D01*
X175103340Y-79852226D01*
X175299514Y-79835063D01*
X175527769Y-79773903D01*
X175741936Y-79674035D01*
X175935507Y-79538495D01*
X176102601Y-79371401D01*
X176232530Y-79185842D01*
X176287108Y-79142217D01*
X176356606Y-79135023D01*
X176418961Y-79166546D01*
X176435681Y-79185842D01*
X176565606Y-79371395D01*
X176565611Y-79371401D01*
X176732705Y-79538495D01*
X176829490Y-79606264D01*
X176926271Y-79674032D01*
X176926273Y-79674033D01*
X176926276Y-79674035D01*
X177140443Y-79773903D01*
X177368698Y-79835063D01*
X177557024Y-79851539D01*
X177604105Y-79855659D01*
X177604106Y-79855659D01*
X177604107Y-79855659D01*
X177643340Y-79852226D01*
X177839514Y-79835063D01*
X178067769Y-79773903D01*
X178281936Y-79674035D01*
X178475507Y-79538495D01*
X178642601Y-79371401D01*
X178778141Y-79177830D01*
X178878009Y-78963663D01*
X178939169Y-78735408D01*
X178959765Y-78500000D01*
X178939169Y-78264592D01*
X178878009Y-78036337D01*
X178778141Y-77822171D01*
X178772531Y-77814158D01*
X178642600Y-77628597D01*
X178475508Y-77461506D01*
X178475501Y-77461501D01*
X178281940Y-77325967D01*
X178281936Y-77325965D01*
X178266663Y-77318843D01*
X178067769Y-77226097D01*
X178067765Y-77226096D01*
X178067761Y-77226094D01*
X177839519Y-77164938D01*
X177839509Y-77164936D01*
X177604107Y-77144341D01*
X177604105Y-77144341D01*
X177368702Y-77164936D01*
X177368692Y-77164938D01*
X177140450Y-77226094D01*
X177140441Y-77226098D01*
X176926277Y-77325964D01*
X176926275Y-77325965D01*
X176732703Y-77461505D01*
X176565611Y-77628597D01*
X176435681Y-77814158D01*
X176381104Y-77857783D01*
X176311606Y-77864977D01*
X176249251Y-77833454D01*
X176232531Y-77814158D01*
X176102600Y-77628597D01*
X175935508Y-77461506D01*
X175935501Y-77461501D01*
X175741940Y-77325967D01*
X175741936Y-77325965D01*
X175726663Y-77318843D01*
X175527769Y-77226097D01*
X175527765Y-77226096D01*
X175527761Y-77226094D01*
X175299519Y-77164938D01*
X175299509Y-77164936D01*
X175064107Y-77144341D01*
X175064105Y-77144341D01*
X174828702Y-77164936D01*
X174828692Y-77164938D01*
X174600450Y-77226094D01*
X174600441Y-77226098D01*
X174386277Y-77325964D01*
X174386275Y-77325965D01*
X174192703Y-77461505D01*
X174025611Y-77628597D01*
X173895681Y-77814158D01*
X173841104Y-77857783D01*
X173771606Y-77864977D01*
X173709251Y-77833454D01*
X173692531Y-77814158D01*
X173562600Y-77628597D01*
X173395508Y-77461506D01*
X173395501Y-77461501D01*
X173201940Y-77325967D01*
X173201936Y-77325965D01*
X173186663Y-77318843D01*
X172987769Y-77226097D01*
X172987765Y-77226096D01*
X172987761Y-77226094D01*
X172759519Y-77164938D01*
X172759509Y-77164936D01*
X172524107Y-77144341D01*
X172524105Y-77144341D01*
X172288702Y-77164936D01*
X172288692Y-77164938D01*
X172060450Y-77226094D01*
X172060441Y-77226098D01*
X171846277Y-77325964D01*
X171846275Y-77325965D01*
X171652703Y-77461505D01*
X171485611Y-77628597D01*
X171355681Y-77814158D01*
X171301104Y-77857783D01*
X171231606Y-77864977D01*
X171169251Y-77833454D01*
X171152531Y-77814158D01*
X171022600Y-77628597D01*
X170855508Y-77461506D01*
X170855501Y-77461501D01*
X170661940Y-77325967D01*
X170661936Y-77325965D01*
X170646663Y-77318843D01*
X170447769Y-77226097D01*
X170447765Y-77226096D01*
X170447761Y-77226094D01*
X170219519Y-77164938D01*
X170219509Y-77164936D01*
X169984107Y-77144341D01*
X169984105Y-77144341D01*
X169748702Y-77164936D01*
X169748692Y-77164938D01*
X169520450Y-77226094D01*
X169520441Y-77226098D01*
X169306277Y-77325964D01*
X169306275Y-77325965D01*
X169112703Y-77461505D01*
X168945611Y-77628597D01*
X168815681Y-77814158D01*
X168761104Y-77857783D01*
X168691606Y-77864977D01*
X168629251Y-77833454D01*
X168612531Y-77814158D01*
X168482600Y-77628597D01*
X168315508Y-77461506D01*
X168315501Y-77461501D01*
X168121940Y-77325967D01*
X168121936Y-77325965D01*
X168106663Y-77318843D01*
X167907769Y-77226097D01*
X167907765Y-77226096D01*
X167907761Y-77226094D01*
X167679519Y-77164938D01*
X167679509Y-77164936D01*
X167444107Y-77144341D01*
X167444105Y-77144341D01*
X167208702Y-77164936D01*
X167208692Y-77164938D01*
X166980450Y-77226094D01*
X166980441Y-77226098D01*
X166766277Y-77325964D01*
X166766275Y-77325965D01*
X166572703Y-77461505D01*
X166405611Y-77628597D01*
X166270071Y-77822169D01*
X166270070Y-77822171D01*
X166170204Y-78036335D01*
X166170200Y-78036344D01*
X166109044Y-78264586D01*
X166109042Y-78264596D01*
X166088447Y-78499999D01*
X166088447Y-78500000D01*
X160207530Y-78500000D01*
X160236207Y-78392977D01*
X160255277Y-78175000D01*
X160236207Y-77957023D01*
X160179575Y-77745670D01*
X160087102Y-77547362D01*
X160087100Y-77547359D01*
X160087099Y-77547357D01*
X159961599Y-77368124D01*
X159912318Y-77318843D01*
X159806877Y-77213402D01*
X159627639Y-77087898D01*
X159627640Y-77087898D01*
X159627638Y-77087897D01*
X159528484Y-77041661D01*
X159429330Y-76995425D01*
X159429326Y-76995424D01*
X159429322Y-76995422D01*
X159217977Y-76938793D01*
X159000002Y-76919723D01*
X158999998Y-76919723D01*
X158854681Y-76932436D01*
X158782023Y-76938793D01*
X158782020Y-76938793D01*
X158570677Y-76995422D01*
X158570668Y-76995426D01*
X158372361Y-77087898D01*
X158372357Y-77087900D01*
X158193124Y-77213400D01*
X158087680Y-77318844D01*
X158026357Y-77352328D01*
X157956665Y-77347344D01*
X157912318Y-77318843D01*
X157806881Y-77213406D01*
X157806877Y-77213402D01*
X157627639Y-77087898D01*
X157627640Y-77087898D01*
X157627638Y-77087897D01*
X157528484Y-77041661D01*
X157429330Y-76995425D01*
X157429326Y-76995424D01*
X157429322Y-76995422D01*
X157217977Y-76938793D01*
X157000002Y-76919723D01*
X156999998Y-76919723D01*
X156854681Y-76932436D01*
X156782023Y-76938793D01*
X156782020Y-76938793D01*
X156570677Y-76995422D01*
X156570668Y-76995426D01*
X156372361Y-77087898D01*
X156372357Y-77087900D01*
X156193124Y-77213400D01*
X156087680Y-77318844D01*
X156026357Y-77352328D01*
X155956665Y-77347344D01*
X155912318Y-77318843D01*
X155806881Y-77213406D01*
X155806877Y-77213402D01*
X155627639Y-77087898D01*
X155627640Y-77087898D01*
X155627638Y-77087897D01*
X155528484Y-77041661D01*
X155429330Y-76995425D01*
X155429326Y-76995424D01*
X155429322Y-76995422D01*
X155217977Y-76938793D01*
X155000002Y-76919723D01*
X154999998Y-76919723D01*
X154854681Y-76932436D01*
X154782023Y-76938793D01*
X154782020Y-76938793D01*
X154570677Y-76995422D01*
X154570668Y-76995426D01*
X154372361Y-77087898D01*
X154372357Y-77087900D01*
X154193124Y-77213400D01*
X154087680Y-77318844D01*
X154026357Y-77352328D01*
X153956665Y-77347344D01*
X153912318Y-77318843D01*
X153806881Y-77213406D01*
X153806877Y-77213402D01*
X153627639Y-77087898D01*
X153627640Y-77087898D01*
X153627638Y-77087897D01*
X153528484Y-77041661D01*
X153429330Y-76995425D01*
X153429326Y-76995424D01*
X153429322Y-76995422D01*
X153217977Y-76938793D01*
X153000002Y-76919723D01*
X152999998Y-76919723D01*
X152854681Y-76932436D01*
X152782023Y-76938793D01*
X152782020Y-76938793D01*
X152570677Y-76995422D01*
X152570668Y-76995426D01*
X152372361Y-77087898D01*
X152372357Y-77087900D01*
X152193124Y-77213400D01*
X152087680Y-77318844D01*
X152026357Y-77352328D01*
X151956665Y-77347344D01*
X151912318Y-77318843D01*
X151806881Y-77213406D01*
X151806877Y-77213402D01*
X151627639Y-77087898D01*
X151627640Y-77087898D01*
X151627638Y-77087897D01*
X151528484Y-77041661D01*
X151429330Y-76995425D01*
X151429326Y-76995424D01*
X151429322Y-76995422D01*
X151217977Y-76938793D01*
X151000002Y-76919723D01*
X150999998Y-76919723D01*
X150854681Y-76932436D01*
X150782023Y-76938793D01*
X150782020Y-76938793D01*
X150570677Y-76995422D01*
X150570668Y-76995426D01*
X150372361Y-77087898D01*
X150372357Y-77087900D01*
X150193121Y-77213402D01*
X150038402Y-77368121D01*
X149912900Y-77547357D01*
X149912898Y-77547361D01*
X149820426Y-77745668D01*
X149820422Y-77745677D01*
X149763793Y-77957020D01*
X149763793Y-77957024D01*
X149744723Y-78174997D01*
X149744723Y-78175002D01*
X118600500Y-78175002D01*
X118600500Y-76128690D01*
X131582827Y-76128690D01*
X131602613Y-76316946D01*
X131602614Y-76316949D01*
X131661105Y-76496967D01*
X131661107Y-76496971D01*
X131661108Y-76496974D01*
X131664535Y-76502909D01*
X131670066Y-76512489D01*
X131686537Y-76580390D01*
X131673484Y-76624900D01*
X131675463Y-76625782D01*
X131672820Y-76631717D01*
X131614327Y-76811740D01*
X131614326Y-76811744D01*
X131594540Y-77000000D01*
X131614326Y-77188256D01*
X131614327Y-77188259D01*
X131672818Y-77368277D01*
X131672821Y-77368284D01*
X131767467Y-77532216D01*
X131781104Y-77547361D01*
X131894129Y-77672888D01*
X132047265Y-77784148D01*
X132047270Y-77784151D01*
X132220192Y-77861142D01*
X132220197Y-77861144D01*
X132405354Y-77900500D01*
X132405355Y-77900500D01*
X132594644Y-77900500D01*
X132594646Y-77900500D01*
X132779803Y-77861144D01*
X132949566Y-77785559D01*
X133018813Y-77776275D01*
X133050430Y-77785557D01*
X133220197Y-77861144D01*
X133405354Y-77900500D01*
X133405355Y-77900500D01*
X133594644Y-77900500D01*
X133594646Y-77900500D01*
X133779803Y-77861144D01*
X133952730Y-77784151D01*
X134105871Y-77672888D01*
X134232533Y-77532216D01*
X134327179Y-77368284D01*
X134385674Y-77188256D01*
X134405460Y-77000000D01*
X134385674Y-76811744D01*
X134327179Y-76631716D01*
X134318221Y-76616201D01*
X134301748Y-76548304D01*
X134314833Y-76503803D01*
X134312824Y-76502909D01*
X134315465Y-76496976D01*
X134315468Y-76496967D01*
X134373961Y-76316946D01*
X134393747Y-76128690D01*
X134373961Y-75940434D01*
X134315466Y-75760406D01*
X134220820Y-75596474D01*
X134094158Y-75455802D01*
X134043390Y-75418917D01*
X134000725Y-75363587D01*
X133994746Y-75293973D01*
X134027352Y-75232178D01*
X134043381Y-75218289D01*
X134105871Y-75172888D01*
X134232533Y-75032216D01*
X134327179Y-74868284D01*
X134385674Y-74688256D01*
X134405460Y-74500000D01*
X134385674Y-74311744D01*
X134327179Y-74131716D01*
X134286927Y-74061999D01*
X134270454Y-73994101D01*
X134286927Y-73938001D01*
X134327179Y-73868284D01*
X134385674Y-73688256D01*
X134405460Y-73500000D01*
X134385674Y-73311744D01*
X134327179Y-73131716D01*
X134232533Y-72967784D01*
X134105871Y-72827112D01*
X134105870Y-72827111D01*
X133952734Y-72715851D01*
X133952729Y-72715848D01*
X133779807Y-72638857D01*
X133779802Y-72638855D01*
X133634000Y-72607865D01*
X133594646Y-72599500D01*
X133405354Y-72599500D01*
X133372897Y-72606398D01*
X133220197Y-72638855D01*
X133220192Y-72638857D01*
X133050436Y-72714439D01*
X132981186Y-72723724D01*
X132949564Y-72714439D01*
X132779807Y-72638857D01*
X132779802Y-72638855D01*
X132634000Y-72607865D01*
X132594646Y-72599500D01*
X132405354Y-72599500D01*
X132372897Y-72606398D01*
X132220197Y-72638855D01*
X132220192Y-72638857D01*
X132047270Y-72715848D01*
X132047265Y-72715851D01*
X131894129Y-72827111D01*
X131767466Y-72967785D01*
X131672821Y-73131715D01*
X131672818Y-73131722D01*
X131614327Y-73311740D01*
X131614326Y-73311744D01*
X131594540Y-73500000D01*
X131614326Y-73688256D01*
X131614327Y-73688259D01*
X131672818Y-73868277D01*
X131672821Y-73868284D01*
X131713071Y-73937999D01*
X131729544Y-74005900D01*
X131713071Y-74061999D01*
X131672821Y-74131714D01*
X131614327Y-74311740D01*
X131614326Y-74311744D01*
X131594540Y-74500000D01*
X131614326Y-74688256D01*
X131614327Y-74688259D01*
X131672818Y-74868277D01*
X131672821Y-74868284D01*
X131767467Y-75032216D01*
X131894129Y-75172888D01*
X131944896Y-75209772D01*
X131987561Y-75265102D01*
X131993540Y-75334715D01*
X131960934Y-75396510D01*
X131944896Y-75410408D01*
X131882414Y-75455803D01*
X131755753Y-75596475D01*
X131661108Y-75760405D01*
X131661105Y-75760412D01*
X131602614Y-75940430D01*
X131602613Y-75940434D01*
X131582827Y-76128690D01*
X118600500Y-76128690D01*
X118600500Y-67001876D01*
X118600613Y-66998132D01*
X118617768Y-66714518D01*
X118618672Y-66707079D01*
X118669549Y-66429451D01*
X118671339Y-66422186D01*
X118755316Y-66152694D01*
X118757968Y-66145707D01*
X118806034Y-66038906D01*
X118873810Y-65888313D01*
X118877291Y-65881683D01*
X118923495Y-65805252D01*
X119023317Y-65640126D01*
X119027550Y-65633993D01*
X119201644Y-65411777D01*
X119206588Y-65406196D01*
X119406196Y-65206588D01*
X119411777Y-65201644D01*
X119633993Y-65027550D01*
X119640126Y-65023317D01*
X119881682Y-64877291D01*
X119888313Y-64873810D01*
X120064393Y-64794564D01*
X120145707Y-64757968D01*
X120152694Y-64755316D01*
X120422186Y-64671339D01*
X120429451Y-64669549D01*
X120707079Y-64618672D01*
X120714511Y-64617768D01*
X120930513Y-64604703D01*
X120998134Y-64600613D01*
X121001878Y-64600500D01*
X121065892Y-64600500D01*
X185975948Y-64600500D01*
X186042987Y-64620185D01*
G37*
%TD.AperFunction*%
%TA.AperFunction,Conductor*%
G36*
X139955703Y-125565434D02*
G01*
X139962181Y-125571466D01*
X147678534Y-133287819D01*
X147712019Y-133349142D01*
X147707035Y-133418834D01*
X147665163Y-133474767D01*
X147599699Y-133499184D01*
X147590853Y-133499500D01*
X142205216Y-133499500D01*
X142138177Y-133479815D01*
X142092422Y-133427011D01*
X142082478Y-133357853D01*
X142087285Y-133337182D01*
X142104083Y-133285481D01*
X142135674Y-133188256D01*
X142155460Y-133000000D01*
X142135674Y-132811744D01*
X142077179Y-132631716D01*
X141982533Y-132467784D01*
X141855871Y-132327112D01*
X141855870Y-132327111D01*
X141702734Y-132215851D01*
X141702729Y-132215848D01*
X141529807Y-132138857D01*
X141529802Y-132138855D01*
X141464669Y-132125011D01*
X141403187Y-132091818D01*
X141402769Y-132091402D01*
X139786819Y-130475451D01*
X139753334Y-130414128D01*
X139750500Y-130387770D01*
X139750500Y-125659147D01*
X139770185Y-125592108D01*
X139822989Y-125546353D01*
X139892147Y-125536409D01*
X139955703Y-125565434D01*
G37*
%TD.AperFunction*%
%TD*%
M02*
