M48
; DRILL file {KiCad 7.0.7-7.0.7~ubuntu22.04.1} date za 07 okt 2023 11:06:41 CEST
; FORMAT={-:-/ absolute / metric / decimal}
; #@! TF.CreationDate,2023-10-07T11:06:41+02:00
; #@! TF.GenerationSoftware,Kicad,Pcbnew,7.0.7-7.0.7~ubuntu22.04.1
; #@! TF.FileFunction,Plated,1,4,PTH
FMAT,2
METRIC
; #@! TA.AperFunction,Plated,PTH,ViaDrill
T1C0.400
; #@! TA.AperFunction,Plated,PTH,ComponentDrill
T2C0.600
; #@! TA.AperFunction,Plated,PTH,ComponentDrill
T3C0.800
; #@! TA.AperFunction,Plated,PTH,ComponentDrill
T4C1.000
%
G90
G05
T1
X119.639Y-124.254
X121.837Y-120.602
X123.5Y-77.25
X123.885Y-72.719
X124.635Y-72.719
X125.385Y-72.719
X126.159Y-120.595
X126.75Y-82.25
X126.75Y-84.75
X129.0Y-119.5
X129.1Y-85.25
X130.25Y-127.0
X130.5Y-66.5
X132.25Y-120.0
X132.25Y-127.0
X132.488Y-76.129
X132.5Y-73.5
X132.5Y-74.5
X132.5Y-77.0
X133.25Y-127.0
X133.488Y-76.129
X133.5Y-73.5
X133.5Y-74.5
X133.5Y-77.0
X134.25Y-127.0
X135.25Y-81.25
X137.5Y-122.644
X137.5Y-123.644
X138.0Y-102.5
X138.25Y-72.25
X138.25Y-77.25
X139.0Y-72.25
X139.0Y-102.5
X139.0Y-124.75
X139.75Y-72.25
X141.25Y-133.0
X142.256Y-128.686
X143.051Y-131.76
X143.086Y-130.511
X144.0Y-99.5
X144.25Y-95.5
X144.25Y-96.75
X144.5Y-66.25
X145.0Y-99.5
X145.084Y-87.228
X145.09Y-88.506
X145.5Y-96.75
X146.0Y-66.25
X147.5Y-104.75
X147.5Y-124.25
X148.5Y-82.0
X148.5Y-83.0
X148.5Y-84.0
X148.5Y-85.0
X148.75Y-104.75
X149.5Y-82.0
X149.5Y-83.0
X149.5Y-84.0
X149.5Y-85.0
X149.75Y-114.25
X150.0Y-104.75
X150.263Y-109.676
X150.5Y-82.0
X150.5Y-83.0
X150.5Y-84.0
X150.5Y-85.0
X151.174Y-88.994
X151.174Y-89.791
X151.5Y-82.0
X151.5Y-83.0
X151.5Y-84.0
X151.5Y-85.0
X151.99Y-89.801
X152.0Y-89.0
X157.5Y-87.0
X159.971Y-101.779
X162.25Y-98.0
X162.25Y-99.0
X163.0Y-102.913
X164.0Y-95.0
X164.0Y-96.0
X164.0Y-97.0
X165.0Y-95.0
X165.0Y-96.0
X165.0Y-97.0
X166.0Y-95.0
X166.0Y-96.0
X166.0Y-97.0
X166.0Y-100.0
X166.049Y-87.75
X166.049Y-89.028
X166.176Y-82.26
X167.25Y-100.0
X167.602Y-118.424
X167.731Y-125.975
X167.75Y-93.0
X168.75Y-100.0
X168.872Y-118.449
X169.0Y-126.0
X169.5Y-86.25
X169.5Y-87.75
X169.75Y-95.5
X169.75Y-100.0
X170.0Y-109.5
X171.0Y-109.5
X171.5Y-86.25
X171.5Y-87.75
X171.5Y-95.5
X171.75Y-82.5
X181.567Y-121.731
X181.57Y-120.19
X182.25Y-116.75
X182.25Y-126.5
X186.25Y-116.25
X187.25Y-125.2
T3
X132.175Y-95.0
X132.175Y-97.0
X132.175Y-99.0
X132.175Y-101.0
X132.175Y-103.0
X132.175Y-105.0
X149.0Y-78.175
X149.0Y-121.825
X151.0Y-78.175
X151.0Y-121.825
X153.0Y-78.175
X153.0Y-121.825
X155.0Y-78.175
X155.0Y-121.825
X157.0Y-78.175
X157.0Y-121.825
X159.0Y-78.175
X159.0Y-121.825
X175.825Y-95.0
X175.825Y-97.0
X175.825Y-99.0
X175.825Y-101.0
X175.825Y-103.0
X175.825Y-105.0
T4
X130.575Y-88.685
X130.575Y-91.225
X138.5Y-82.25
X138.5Y-84.79
X164.904Y-78.5
X167.444Y-78.5
X169.984Y-78.5
X172.524Y-78.5
X175.064Y-78.5
X177.604Y-78.5
T2
G00X121.85Y-122.225
M15
G01X121.85Y-121.975
M16
G05
G00X121.85Y-127.025
M15
G01X121.85Y-126.775
M16
G05
G00X126.15Y-122.225
M15
G01X126.15Y-121.975
M16
G05
G00X126.15Y-127.025
M15
G01X126.15Y-126.775
M16
G05
T0
M30
