%TF.GenerationSoftware,KiCad,Pcbnew,7.0.7-7.0.7~ubuntu22.04.1*%
%TF.CreationDate,2023-10-06T14:41:20+02:00*%
%TF.ProjectId,ShotClockProject,53686f74-436c-46f6-936b-50726f6a6563,rev?*%
%TF.SameCoordinates,Original*%
%TF.FileFunction,Copper,L3,Inr*%
%TF.FilePolarity,Positive*%
%FSLAX46Y46*%
G04 Gerber Fmt 4.6, Leading zero omitted, Abs format (unit mm)*
G04 Created by KiCad (PCBNEW 7.0.7-7.0.7~ubuntu22.04.1) date 2023-10-06 14:41:20*
%MOMM*%
%LPD*%
G01*
G04 APERTURE LIST*
%TA.AperFunction,ComponentPad*%
%ADD10R,1.700000X1.700000*%
%TD*%
%TA.AperFunction,ComponentPad*%
%ADD11O,1.700000X1.700000*%
%TD*%
%TA.AperFunction,ComponentPad*%
%ADD12O,1.100000X2.200000*%
%TD*%
%TA.AperFunction,ComponentPad*%
%ADD13C,1.500000*%
%TD*%
%TA.AperFunction,ViaPad*%
%ADD14C,0.800000*%
%TD*%
G04 APERTURE END LIST*
D10*
%TO.N,-BATT*%
%TO.C,J4*%
X130575000Y-91225000D03*
D11*
%TO.N,+BATT*%
X130575000Y-88685000D03*
%TD*%
D12*
%TO.N,GND*%
%TO.C,J6*%
X121850000Y-126900000D03*
X126150000Y-126900000D03*
X121850000Y-122100000D03*
X126150000Y-122100000D03*
%TD*%
D13*
%TO.N,TLC59116_RESETn*%
%TO.C,U9*%
X132175000Y-95000000D03*
%TO.N,+3.3V*%
X132175000Y-97000000D03*
%TO.N,+5V*%
X132175000Y-99000000D03*
%TO.N,I2C2_SCL*%
X132175000Y-101000000D03*
%TO.N,I2C2_SDA*%
X132175000Y-103000000D03*
%TO.N,GND*%
X132175000Y-105000000D03*
%TD*%
%TO.N,TLC59116_RESETn*%
%TO.C,U6*%
X159000000Y-78175000D03*
%TO.N,+3.3V*%
X157000000Y-78175000D03*
%TO.N,+5V*%
X155000000Y-78175000D03*
%TO.N,I2C2_SCL*%
X153000000Y-78175000D03*
%TO.N,I2C2_SDA*%
X151000000Y-78175000D03*
%TO.N,GND*%
X149000000Y-78175000D03*
%TD*%
D10*
%TO.N,/Li-Po Battery and charger/IC_TEMP*%
%TO.C,J7*%
X138500000Y-82250000D03*
D11*
%TO.N,GND*%
X138500000Y-84790000D03*
%TD*%
D13*
%TO.N,TLC59116_RESETn*%
%TO.C,U8*%
X149000000Y-121825000D03*
%TO.N,+3.3V*%
X151000000Y-121825000D03*
%TO.N,+5V*%
X153000000Y-121825000D03*
%TO.N,I2C2_SCL*%
X155000000Y-121825000D03*
%TO.N,I2C2_SDA*%
X157000000Y-121825000D03*
%TO.N,GND*%
X159000000Y-121825000D03*
%TD*%
D10*
%TO.N,GND*%
%TO.C,J1*%
X164904106Y-78500000D03*
D11*
%TO.N,unconnected-(J1-Pin_2-Pad2)*%
X167444106Y-78500000D03*
%TO.N,unconnected-(J1-Pin_3-Pad3)*%
X169984106Y-78500000D03*
%TO.N,/STM32G070CBT6/UART3_RX*%
X172524106Y-78500000D03*
%TO.N,/STM32G070CBT6/UART3_TX*%
X175064106Y-78500000D03*
%TO.N,unconnected-(J1-Pin_6-Pad6)*%
X177604106Y-78500000D03*
%TD*%
D13*
%TO.N,TLC59116_RESETn*%
%TO.C,U7*%
X175825000Y-105000000D03*
%TO.N,+3.3V*%
X175825000Y-103000000D03*
%TO.N,+5V*%
X175825000Y-101000000D03*
%TO.N,I2C2_SCL*%
X175825000Y-99000000D03*
%TO.N,I2C2_SDA*%
X175825000Y-97000000D03*
%TO.N,GND*%
X175825000Y-95000000D03*
%TD*%
D14*
%TO.N,+3.3V*%
X150263268Y-109676113D03*
X166000000Y-97000000D03*
X151500000Y-83000000D03*
X145000000Y-99500000D03*
X150500000Y-85000000D03*
X150500000Y-82000000D03*
X164000000Y-97000000D03*
X148500000Y-83000000D03*
X167250000Y-100000000D03*
X165000000Y-95000000D03*
X171750000Y-82500000D03*
X151500000Y-82000000D03*
X144000000Y-99500000D03*
X164000000Y-96000000D03*
X151500000Y-84000000D03*
X168750000Y-100000000D03*
X148500000Y-84000000D03*
X149500000Y-85000000D03*
X165000000Y-97000000D03*
X166175984Y-82260329D03*
X166000000Y-96000000D03*
X164000000Y-95000000D03*
X169750000Y-95500000D03*
X165000000Y-96000000D03*
X149500000Y-82000000D03*
X171500000Y-95500000D03*
X149500000Y-84000000D03*
X150500000Y-84000000D03*
X166000000Y-100000000D03*
X150500000Y-83000000D03*
X166000000Y-95000000D03*
X149500000Y-83000000D03*
X151500000Y-85000000D03*
X148500000Y-82000000D03*
X148500000Y-85000000D03*
X169750000Y-100000000D03*
%TO.N,/Li-Po Battery and charger/IC_TEMP*%
X129099500Y-85250000D03*
X129000000Y-119500000D03*
%TO.N,/Li-Po Battery and charger/IC_STDBY_Green*%
X182250000Y-116750000D03*
X137500000Y-123643715D03*
%TO.N,/Li-Po Battery and charger/IC_CHRG_Red*%
X137500000Y-122644212D03*
X182250000Y-126500000D03*
%TO.N,TLC59116_RESETn*%
X163000000Y-102913000D03*
%TO.N,+5V*%
X133500000Y-74500000D03*
X133500000Y-73500000D03*
X132488287Y-76128690D03*
X132500000Y-73500000D03*
X133500000Y-77000000D03*
X132500000Y-77000000D03*
X133488287Y-76128690D03*
X132500000Y-74500000D03*
%TO.N,VBUS*%
X141250000Y-133000000D03*
X139000000Y-124750000D03*
%TO.N,/Buzzer_3v3_PWM/buzzer_pwm_in*%
X159970543Y-101779457D03*
X167750000Y-93000000D03*
%TO.N,GND*%
X151173830Y-89790508D03*
X139000000Y-72250000D03*
X126159137Y-120594551D03*
X145089520Y-88506309D03*
X144250000Y-95500000D03*
X145500000Y-96750000D03*
X123500000Y-77250000D03*
X144250000Y-96750000D03*
X125384630Y-72718557D03*
X171500000Y-86250000D03*
X151990305Y-89801390D03*
X139750000Y-72250000D03*
X149750000Y-114250000D03*
X151173830Y-88994056D03*
X138000000Y-102500000D03*
X145083577Y-87228421D03*
X181566678Y-121731089D03*
X123884630Y-72718557D03*
X144500000Y-66250000D03*
X143051353Y-131759947D03*
X169500000Y-86250000D03*
X157500000Y-87000000D03*
X166049271Y-87749999D03*
X167602102Y-118424239D03*
X126750000Y-84750000D03*
X171500000Y-87750000D03*
X169000000Y-126000000D03*
X146000000Y-66250000D03*
X138250000Y-72250000D03*
X135250000Y-81250000D03*
X167730547Y-125975351D03*
X171000000Y-109500000D03*
X148750000Y-104750000D03*
X170000000Y-109500000D03*
X168871555Y-118448888D03*
X181569601Y-120189867D03*
X142256474Y-128686306D03*
X130500000Y-66500000D03*
X119638955Y-124253879D03*
X147500000Y-104750000D03*
X169500000Y-87750000D03*
X133250000Y-127000000D03*
X121836903Y-120601683D03*
X147500000Y-124250000D03*
X126750000Y-82250000D03*
X150000000Y-104750000D03*
X132250000Y-127000000D03*
X139000000Y-102500000D03*
X166049271Y-89027888D03*
X138250000Y-77250000D03*
X152000000Y-89000000D03*
X143086111Y-130510681D03*
X134250000Y-127000000D03*
X124634630Y-72718557D03*
%TO.N,/Li-Po Battery and charger/VCC*%
X186250000Y-116250000D03*
X132250000Y-120000000D03*
X130250000Y-127000000D03*
X187250000Y-125200000D03*
%TO.N,I2C2_SCL*%
X162250000Y-99000000D03*
%TO.N,I2C2_SDA*%
X162250000Y-98000497D03*
%TD*%
%TA.AperFunction,Conductor*%
%TO.N,+5V*%
G36*
X186042987Y-64620185D02*
G01*
X186088742Y-64672989D01*
X186098686Y-64742147D01*
X186069661Y-64805703D01*
X186010883Y-64843477D01*
X185998299Y-64846469D01*
X185852547Y-64873178D01*
X185540657Y-64970366D01*
X185540641Y-64970372D01*
X185540639Y-64970373D01*
X185413566Y-65027564D01*
X185242725Y-65104453D01*
X185242723Y-65104454D01*
X184963131Y-65273473D01*
X184705960Y-65474954D01*
X184474954Y-65705960D01*
X184273473Y-65963131D01*
X184179442Y-66118678D01*
X184104455Y-66242721D01*
X184003374Y-66467315D01*
X183970372Y-66540642D01*
X183970366Y-66540657D01*
X183873178Y-66852547D01*
X183814289Y-67173900D01*
X183794564Y-67499999D01*
X183814289Y-67826099D01*
X183873178Y-68147452D01*
X183970366Y-68459342D01*
X183970370Y-68459354D01*
X183970373Y-68459361D01*
X184100553Y-68748609D01*
X184110116Y-68817821D01*
X184080742Y-68881216D01*
X184021758Y-68918667D01*
X183987477Y-68923500D01*
X183900248Y-68923500D01*
X183704140Y-68960159D01*
X183704137Y-68960159D01*
X183704137Y-68960160D01*
X183518108Y-69032227D01*
X183518101Y-69032231D01*
X183348487Y-69137251D01*
X183201048Y-69271660D01*
X183080821Y-69430865D01*
X183080816Y-69430873D01*
X182991894Y-69609453D01*
X182937295Y-69801350D01*
X182918888Y-69999999D01*
X182918888Y-70000000D01*
X182937295Y-70198649D01*
X182937295Y-70198651D01*
X182937296Y-70198654D01*
X182939226Y-70205436D01*
X182991894Y-70390546D01*
X183080816Y-70569126D01*
X183080821Y-70569134D01*
X183201048Y-70728339D01*
X183201049Y-70728340D01*
X183348484Y-70862746D01*
X183518107Y-70967772D01*
X183704140Y-71039841D01*
X183900248Y-71076500D01*
X183900250Y-71076500D01*
X184099750Y-71076500D01*
X184099752Y-71076500D01*
X184295860Y-71039841D01*
X184481893Y-70967772D01*
X184651516Y-70862746D01*
X184798951Y-70728340D01*
X184919180Y-70569132D01*
X185008107Y-70390543D01*
X185062704Y-70198654D01*
X185080852Y-70002800D01*
X185106638Y-69937865D01*
X185163438Y-69897177D01*
X185233219Y-69893657D01*
X185255208Y-69901164D01*
X185540639Y-70029627D01*
X185540652Y-70029631D01*
X185540657Y-70029633D01*
X185852546Y-70126821D01*
X185852547Y-70126821D01*
X186173896Y-70185710D01*
X186500000Y-70205436D01*
X186826104Y-70185710D01*
X187147453Y-70126821D01*
X187459361Y-70029627D01*
X187757279Y-69895545D01*
X188036863Y-69726530D01*
X188294036Y-69525048D01*
X188525048Y-69294036D01*
X188726530Y-69036863D01*
X188895545Y-68757279D01*
X189029627Y-68459361D01*
X189126821Y-68147453D01*
X189153529Y-68001706D01*
X189184976Y-67939313D01*
X189245163Y-67903825D01*
X189314981Y-67906510D01*
X189372264Y-67946516D01*
X189398824Y-68011140D01*
X189399499Y-68024057D01*
X189399499Y-131975942D01*
X189379814Y-132042981D01*
X189327010Y-132088736D01*
X189257852Y-132098680D01*
X189194296Y-132069655D01*
X189156522Y-132010877D01*
X189153530Y-131998293D01*
X189126821Y-131852547D01*
X189029633Y-131540657D01*
X189029631Y-131540652D01*
X189029627Y-131540639D01*
X188895545Y-131242721D01*
X188726530Y-130963137D01*
X188726528Y-130963134D01*
X188726526Y-130963131D01*
X188525045Y-130705960D01*
X188294039Y-130474954D01*
X188036868Y-130273473D01*
X188029306Y-130268901D01*
X187757279Y-130104455D01*
X187459361Y-129970373D01*
X187459354Y-129970370D01*
X187459342Y-129970366D01*
X187147452Y-129873178D01*
X186826099Y-129814289D01*
X186500000Y-129794564D01*
X186173900Y-129814289D01*
X185852547Y-129873178D01*
X185540657Y-129970366D01*
X185540641Y-129970372D01*
X185540639Y-129970373D01*
X185399390Y-130033943D01*
X185255214Y-130098832D01*
X185186002Y-130108395D01*
X185122606Y-130079021D01*
X185085156Y-130020036D01*
X185080852Y-129997197D01*
X185062704Y-129801346D01*
X185008107Y-129609457D01*
X184928829Y-129450245D01*
X184919183Y-129430873D01*
X184919178Y-129430865D01*
X184798951Y-129271660D01*
X184740662Y-129218522D01*
X184651516Y-129137254D01*
X184651513Y-129137252D01*
X184651512Y-129137251D01*
X184481898Y-129032231D01*
X184481891Y-129032227D01*
X184388876Y-128996193D01*
X184295860Y-128960159D01*
X184099752Y-128923500D01*
X183900248Y-128923500D01*
X183704140Y-128960159D01*
X183704137Y-128960159D01*
X183704137Y-128960160D01*
X183518108Y-129032227D01*
X183518101Y-129032231D01*
X183348487Y-129137251D01*
X183201048Y-129271660D01*
X183080821Y-129430865D01*
X183080816Y-129430873D01*
X182991894Y-129609453D01*
X182937295Y-129801350D01*
X182918888Y-129999999D01*
X182918888Y-130000000D01*
X182937295Y-130198649D01*
X182991894Y-130390546D01*
X183080816Y-130569126D01*
X183080821Y-130569134D01*
X183178847Y-130698940D01*
X183201049Y-130728340D01*
X183348484Y-130862746D01*
X183348486Y-130862747D01*
X183348487Y-130862748D01*
X183405025Y-130897754D01*
X183518107Y-130967772D01*
X183704140Y-131039841D01*
X183900248Y-131076500D01*
X183900250Y-131076500D01*
X183987477Y-131076500D01*
X184054516Y-131096185D01*
X184100271Y-131148989D01*
X184110215Y-131218147D01*
X184100553Y-131251391D01*
X183970372Y-131540642D01*
X183970366Y-131540657D01*
X183873178Y-131852547D01*
X183814289Y-132173900D01*
X183794564Y-132500000D01*
X183814289Y-132826099D01*
X183873178Y-133147452D01*
X183970366Y-133459342D01*
X183970370Y-133459354D01*
X183970373Y-133459361D01*
X184104455Y-133757279D01*
X184234144Y-133971810D01*
X184273473Y-134036868D01*
X184474954Y-134294039D01*
X184705960Y-134525045D01*
X184963131Y-134726526D01*
X184963134Y-134726528D01*
X184963137Y-134726530D01*
X185242721Y-134895545D01*
X185540639Y-135029627D01*
X185540652Y-135029631D01*
X185540657Y-135029633D01*
X185805620Y-135112198D01*
X185852547Y-135126821D01*
X186007558Y-135155227D01*
X186069950Y-135186673D01*
X186105438Y-135246859D01*
X186102753Y-135316677D01*
X186062747Y-135373960D01*
X185998123Y-135400521D01*
X185985203Y-135401196D01*
X122023906Y-135399526D01*
X121956867Y-135379840D01*
X121911113Y-135327035D01*
X121901172Y-135257876D01*
X121930198Y-135194321D01*
X121988977Y-135156548D01*
X122001558Y-135153557D01*
X122147453Y-135126821D01*
X122459361Y-135029627D01*
X122757279Y-134895545D01*
X123036863Y-134726530D01*
X123294036Y-134525048D01*
X123525048Y-134294036D01*
X123726530Y-134036863D01*
X123895545Y-133757279D01*
X124029627Y-133459361D01*
X124126821Y-133147453D01*
X124153843Y-133000000D01*
X140344540Y-133000000D01*
X140364326Y-133188256D01*
X140364327Y-133188259D01*
X140422818Y-133368277D01*
X140422821Y-133368284D01*
X140517467Y-133532216D01*
X140555304Y-133574238D01*
X140644129Y-133672888D01*
X140797265Y-133784148D01*
X140797270Y-133784151D01*
X140970192Y-133861142D01*
X140970197Y-133861144D01*
X141155354Y-133900500D01*
X141155355Y-133900500D01*
X141344644Y-133900500D01*
X141344646Y-133900500D01*
X141529803Y-133861144D01*
X141702730Y-133784151D01*
X141855871Y-133672888D01*
X141982533Y-133532216D01*
X142077179Y-133368284D01*
X142135674Y-133188256D01*
X142155460Y-133000000D01*
X142135674Y-132811744D01*
X142077179Y-132631716D01*
X141982533Y-132467784D01*
X141855871Y-132327112D01*
X141807768Y-132292163D01*
X141702734Y-132215851D01*
X141702729Y-132215848D01*
X141529807Y-132138857D01*
X141529802Y-132138855D01*
X141384001Y-132107865D01*
X141344646Y-132099500D01*
X141155354Y-132099500D01*
X141122897Y-132106398D01*
X140970197Y-132138855D01*
X140970192Y-132138857D01*
X140797270Y-132215848D01*
X140797265Y-132215851D01*
X140644129Y-132327111D01*
X140517466Y-132467785D01*
X140422821Y-132631715D01*
X140422818Y-132631722D01*
X140364327Y-132811740D01*
X140364326Y-132811744D01*
X140344540Y-133000000D01*
X124153843Y-133000000D01*
X124185710Y-132826104D01*
X124205436Y-132500000D01*
X124185710Y-132173896D01*
X124126821Y-131852547D01*
X124097966Y-131759947D01*
X124029633Y-131540657D01*
X124029631Y-131540652D01*
X124029627Y-131540639D01*
X123899446Y-131251390D01*
X123889884Y-131182179D01*
X123919258Y-131118784D01*
X123978242Y-131081333D01*
X124012523Y-131076500D01*
X124099750Y-131076500D01*
X124099752Y-131076500D01*
X124295860Y-131039841D01*
X124481893Y-130967772D01*
X124651516Y-130862746D01*
X124798951Y-130728340D01*
X124919180Y-130569132D01*
X125008107Y-130390543D01*
X125062704Y-130198654D01*
X125081112Y-130000000D01*
X125079116Y-129978465D01*
X125062704Y-129801350D01*
X125062704Y-129801346D01*
X125008107Y-129609457D01*
X124928829Y-129450245D01*
X124919183Y-129430873D01*
X124919178Y-129430865D01*
X124798951Y-129271660D01*
X124740662Y-129218522D01*
X124651516Y-129137254D01*
X124651513Y-129137252D01*
X124651512Y-129137251D01*
X124481898Y-129032231D01*
X124481891Y-129032227D01*
X124295858Y-128960158D01*
X124239529Y-128949628D01*
X124177248Y-128917960D01*
X124141976Y-128857647D01*
X124144910Y-128787839D01*
X124185120Y-128730699D01*
X124210796Y-128714949D01*
X124273517Y-128686306D01*
X141351014Y-128686306D01*
X141370800Y-128874562D01*
X141370801Y-128874565D01*
X141429292Y-129054583D01*
X141429295Y-129054590D01*
X141523941Y-129218522D01*
X141571787Y-129271660D01*
X141650603Y-129359194D01*
X141803739Y-129470454D01*
X141803744Y-129470457D01*
X141976666Y-129547448D01*
X141976671Y-129547450D01*
X142161828Y-129586806D01*
X142161829Y-129586806D01*
X142351118Y-129586806D01*
X142351120Y-129586806D01*
X142451328Y-129565506D01*
X142520993Y-129570822D01*
X142576726Y-129612959D01*
X142600832Y-129678538D01*
X142585655Y-129746740D01*
X142549993Y-129787113D01*
X142480242Y-129837790D01*
X142480240Y-129837792D01*
X142353577Y-129978466D01*
X142258932Y-130142396D01*
X142258929Y-130142403D01*
X142200438Y-130322421D01*
X142200437Y-130322425D01*
X142180651Y-130510681D01*
X142200437Y-130698937D01*
X142200438Y-130698940D01*
X142258929Y-130878958D01*
X142258932Y-130878965D01*
X142356827Y-131048525D01*
X142355704Y-131049172D01*
X142376834Y-131108402D01*
X142361005Y-131176455D01*
X142345188Y-131198445D01*
X142318821Y-131227729D01*
X142318817Y-131227734D01*
X142224174Y-131391662D01*
X142224171Y-131391669D01*
X142175119Y-131542638D01*
X142165679Y-131571691D01*
X142145893Y-131759947D01*
X142165679Y-131948203D01*
X142165680Y-131948206D01*
X142224171Y-132128224D01*
X142224174Y-132128231D01*
X142318820Y-132292163D01*
X142445482Y-132432835D01*
X142598618Y-132544095D01*
X142598623Y-132544098D01*
X142771545Y-132621089D01*
X142771550Y-132621091D01*
X142956707Y-132660447D01*
X142956708Y-132660447D01*
X143145997Y-132660447D01*
X143145999Y-132660447D01*
X143331156Y-132621091D01*
X143504083Y-132544098D01*
X143657224Y-132432835D01*
X143783886Y-132292163D01*
X143878532Y-132128231D01*
X143937027Y-131948203D01*
X143956813Y-131759947D01*
X143937027Y-131571691D01*
X143878532Y-131391663D01*
X143792542Y-131242723D01*
X143780637Y-131222103D01*
X143781761Y-131221453D01*
X143760629Y-131162246D01*
X143776446Y-131094190D01*
X143792273Y-131072184D01*
X143818644Y-131042897D01*
X143913290Y-130878965D01*
X143971785Y-130698937D01*
X143991571Y-130510681D01*
X143971785Y-130322425D01*
X143913290Y-130142397D01*
X143818644Y-129978465D01*
X143691982Y-129837793D01*
X143659633Y-129814290D01*
X143538845Y-129726532D01*
X143538840Y-129726529D01*
X143365918Y-129649538D01*
X143365913Y-129649536D01*
X143220112Y-129618546D01*
X143180757Y-129610181D01*
X142991465Y-129610181D01*
X142891255Y-129631480D01*
X142821590Y-129626164D01*
X142765857Y-129584026D01*
X142741752Y-129518446D01*
X142756929Y-129450245D01*
X142792588Y-129409874D01*
X142862345Y-129359194D01*
X142989007Y-129218522D01*
X143083653Y-129054590D01*
X143142148Y-128874562D01*
X143161934Y-128686306D01*
X143142148Y-128498050D01*
X143083653Y-128318022D01*
X142989007Y-128154090D01*
X142862345Y-128013418D01*
X142862344Y-128013417D01*
X142709208Y-127902157D01*
X142709203Y-127902154D01*
X142536281Y-127825163D01*
X142536276Y-127825161D01*
X142390475Y-127794171D01*
X142351120Y-127785806D01*
X142161828Y-127785806D01*
X142129371Y-127792704D01*
X141976671Y-127825161D01*
X141976666Y-127825163D01*
X141803744Y-127902154D01*
X141803739Y-127902157D01*
X141650603Y-128013417D01*
X141523940Y-128154091D01*
X141429295Y-128318021D01*
X141429292Y-128318028D01*
X141370801Y-128498046D01*
X141370800Y-128498050D01*
X141361373Y-128587744D01*
X141351270Y-128683875D01*
X141351014Y-128686306D01*
X124273517Y-128686306D01*
X124278836Y-128683877D01*
X124389778Y-128587744D01*
X124469143Y-128464250D01*
X124510500Y-128323399D01*
X124510500Y-128176601D01*
X124501236Y-128145051D01*
X124469144Y-128035752D01*
X124469143Y-128035751D01*
X124469143Y-128035750D01*
X124389778Y-127912256D01*
X124378123Y-127902157D01*
X124315816Y-127848167D01*
X124278836Y-127816123D01*
X124278832Y-127816121D01*
X124145307Y-127755141D01*
X124145302Y-127755140D01*
X124036516Y-127739500D01*
X123963484Y-127739500D01*
X123963483Y-127739500D01*
X123854697Y-127755140D01*
X123854692Y-127755141D01*
X123721167Y-127816121D01*
X123721162Y-127816124D01*
X123610223Y-127912254D01*
X123610220Y-127912258D01*
X123530856Y-128035751D01*
X123530855Y-128035752D01*
X123489500Y-128176598D01*
X123489500Y-128323401D01*
X123530855Y-128464247D01*
X123530856Y-128464248D01*
X123530857Y-128464250D01*
X123610222Y-128587744D01*
X123721164Y-128683877D01*
X123789196Y-128714946D01*
X123841999Y-128760700D01*
X123861684Y-128827740D01*
X123842000Y-128894779D01*
X123789196Y-128940534D01*
X123760471Y-128949628D01*
X123704140Y-128960158D01*
X123518108Y-129032227D01*
X123518101Y-129032231D01*
X123348487Y-129137251D01*
X123201048Y-129271660D01*
X123080821Y-129430865D01*
X123080816Y-129430873D01*
X122991894Y-129609453D01*
X122937295Y-129801350D01*
X122919147Y-129997198D01*
X122893361Y-130062135D01*
X122836560Y-130102822D01*
X122766779Y-130106342D01*
X122744785Y-130098832D01*
X122700767Y-130079021D01*
X122459361Y-129970373D01*
X122459354Y-129970370D01*
X122459342Y-129970366D01*
X122147452Y-129873178D01*
X121826099Y-129814289D01*
X121500000Y-129794564D01*
X121173900Y-129814289D01*
X120852547Y-129873178D01*
X120540657Y-129970366D01*
X120540641Y-129970372D01*
X120540639Y-129970373D01*
X120376207Y-130044378D01*
X120255215Y-130098832D01*
X120242721Y-130104455D01*
X120179948Y-130142403D01*
X119963131Y-130273473D01*
X119705960Y-130474954D01*
X119474954Y-130705960D01*
X119273473Y-130963131D01*
X119104454Y-131242723D01*
X119104453Y-131242725D01*
X118970372Y-131540642D01*
X118970366Y-131540657D01*
X118873178Y-131852547D01*
X118846469Y-131998299D01*
X118815023Y-132060692D01*
X118754836Y-132096180D01*
X118685018Y-132093495D01*
X118627735Y-132053489D01*
X118601175Y-131988865D01*
X118600500Y-131975948D01*
X118600500Y-127501608D01*
X120799500Y-127501608D01*
X120802515Y-127532216D01*
X120814699Y-127655932D01*
X120814700Y-127655934D01*
X120874768Y-127853954D01*
X120972315Y-128036450D01*
X120972317Y-128036452D01*
X121103589Y-128196410D01*
X121200209Y-128275702D01*
X121263550Y-128327685D01*
X121446046Y-128425232D01*
X121644066Y-128485300D01*
X121644065Y-128485300D01*
X121662529Y-128487118D01*
X121850000Y-128505583D01*
X122055934Y-128485300D01*
X122253954Y-128425232D01*
X122436450Y-128327685D01*
X122596410Y-128196410D01*
X122727685Y-128036450D01*
X122825232Y-127853954D01*
X122885300Y-127655934D01*
X122900500Y-127501608D01*
X122900500Y-127501604D01*
X125099499Y-127501604D01*
X125114699Y-127655932D01*
X125114700Y-127655934D01*
X125174768Y-127853954D01*
X125272315Y-128036450D01*
X125272317Y-128036452D01*
X125403589Y-128196410D01*
X125500209Y-128275702D01*
X125563550Y-128327685D01*
X125746046Y-128425232D01*
X125944066Y-128485300D01*
X125944065Y-128485300D01*
X125962529Y-128487118D01*
X126150000Y-128505583D01*
X126355934Y-128485300D01*
X126553954Y-128425232D01*
X126736450Y-128327685D01*
X126896410Y-128196410D01*
X127027685Y-128036450D01*
X127125232Y-127853954D01*
X127185300Y-127655934D01*
X127200500Y-127501608D01*
X127200500Y-127000000D01*
X129344540Y-127000000D01*
X129364326Y-127188256D01*
X129364327Y-127188259D01*
X129422818Y-127368277D01*
X129422821Y-127368284D01*
X129517467Y-127532216D01*
X129628862Y-127655932D01*
X129644129Y-127672888D01*
X129797265Y-127784148D01*
X129797270Y-127784151D01*
X129970192Y-127861142D01*
X129970197Y-127861144D01*
X130155354Y-127900500D01*
X130155355Y-127900500D01*
X130344644Y-127900500D01*
X130344646Y-127900500D01*
X130529803Y-127861144D01*
X130702730Y-127784151D01*
X130855871Y-127672888D01*
X130982533Y-127532216D01*
X131077179Y-127368284D01*
X131132069Y-127199348D01*
X131171505Y-127141676D01*
X131235863Y-127114477D01*
X131304710Y-127126391D01*
X131356186Y-127173635D01*
X131367930Y-127199350D01*
X131422819Y-127368280D01*
X131422821Y-127368284D01*
X131517467Y-127532216D01*
X131628862Y-127655932D01*
X131644129Y-127672888D01*
X131797265Y-127784148D01*
X131797270Y-127784151D01*
X131970192Y-127861142D01*
X131970197Y-127861144D01*
X132155354Y-127900500D01*
X132155355Y-127900500D01*
X132344644Y-127900500D01*
X132344646Y-127900500D01*
X132529803Y-127861144D01*
X132699566Y-127785559D01*
X132768812Y-127776274D01*
X132800433Y-127785559D01*
X132970197Y-127861144D01*
X133155354Y-127900500D01*
X133155355Y-127900500D01*
X133344644Y-127900500D01*
X133344646Y-127900500D01*
X133529803Y-127861144D01*
X133699566Y-127785559D01*
X133768813Y-127776275D01*
X133800430Y-127785557D01*
X133970197Y-127861144D01*
X134155354Y-127900500D01*
X134155355Y-127900500D01*
X134344644Y-127900500D01*
X134344646Y-127900500D01*
X134529803Y-127861144D01*
X134702730Y-127784151D01*
X134855871Y-127672888D01*
X134982533Y-127532216D01*
X135077179Y-127368284D01*
X135135674Y-127188256D01*
X135155460Y-127000000D01*
X135135674Y-126811744D01*
X135077179Y-126631716D01*
X134982533Y-126467784D01*
X134855871Y-126327112D01*
X134834719Y-126311744D01*
X134702734Y-126215851D01*
X134702729Y-126215848D01*
X134529807Y-126138857D01*
X134529802Y-126138855D01*
X134384000Y-126107865D01*
X134344646Y-126099500D01*
X134155354Y-126099500D01*
X134122897Y-126106398D01*
X133970197Y-126138855D01*
X133970192Y-126138857D01*
X133800435Y-126214439D01*
X133731185Y-126223724D01*
X133699563Y-126214439D01*
X133529807Y-126138857D01*
X133529802Y-126138855D01*
X133384001Y-126107865D01*
X133344646Y-126099500D01*
X133155354Y-126099500D01*
X133122897Y-126106398D01*
X132970197Y-126138855D01*
X132970192Y-126138857D01*
X132800435Y-126214439D01*
X132731185Y-126223724D01*
X132699563Y-126214439D01*
X132529807Y-126138857D01*
X132529802Y-126138855D01*
X132384000Y-126107865D01*
X132344646Y-126099500D01*
X132155354Y-126099500D01*
X132122897Y-126106398D01*
X131970197Y-126138855D01*
X131970192Y-126138857D01*
X131797270Y-126215848D01*
X131797265Y-126215851D01*
X131644129Y-126327111D01*
X131517466Y-126467785D01*
X131422821Y-126631715D01*
X131422819Y-126631719D01*
X131367930Y-126800649D01*
X131328492Y-126858324D01*
X131264133Y-126885522D01*
X131195287Y-126873607D01*
X131143811Y-126826363D01*
X131132070Y-126800653D01*
X131077179Y-126631716D01*
X130982533Y-126467784D01*
X130855871Y-126327112D01*
X130834719Y-126311744D01*
X130702734Y-126215851D01*
X130702729Y-126215848D01*
X130529807Y-126138857D01*
X130529802Y-126138855D01*
X130384001Y-126107865D01*
X130344646Y-126099500D01*
X130155354Y-126099500D01*
X130122897Y-126106398D01*
X129970197Y-126138855D01*
X129970192Y-126138857D01*
X129797270Y-126215848D01*
X129797265Y-126215851D01*
X129644129Y-126327111D01*
X129517466Y-126467785D01*
X129422821Y-126631715D01*
X129422818Y-126631722D01*
X129367931Y-126800648D01*
X129364326Y-126811744D01*
X129344540Y-127000000D01*
X127200500Y-127000000D01*
X127200500Y-126298392D01*
X127185300Y-126144066D01*
X127134121Y-125975351D01*
X166825087Y-125975351D01*
X166844873Y-126163607D01*
X166844874Y-126163610D01*
X166903365Y-126343628D01*
X166903368Y-126343635D01*
X166998014Y-126507567D01*
X167106917Y-126628516D01*
X167124676Y-126648239D01*
X167277812Y-126759499D01*
X167277817Y-126759502D01*
X167450739Y-126836493D01*
X167450744Y-126836495D01*
X167635901Y-126875851D01*
X167635902Y-126875851D01*
X167825191Y-126875851D01*
X167825193Y-126875851D01*
X168010350Y-126836495D01*
X168183277Y-126759502D01*
X168275426Y-126692551D01*
X168341229Y-126669073D01*
X168409283Y-126684898D01*
X168421194Y-126692553D01*
X168547265Y-126784148D01*
X168547270Y-126784151D01*
X168720192Y-126861142D01*
X168720197Y-126861144D01*
X168905354Y-126900500D01*
X168905355Y-126900500D01*
X169094644Y-126900500D01*
X169094646Y-126900500D01*
X169279803Y-126861144D01*
X169452730Y-126784151D01*
X169605871Y-126672888D01*
X169732533Y-126532216D01*
X169751133Y-126500000D01*
X181344540Y-126500000D01*
X181364326Y-126688256D01*
X181364327Y-126688259D01*
X181422818Y-126868277D01*
X181422821Y-126868284D01*
X181517467Y-127032216D01*
X181602263Y-127126391D01*
X181644129Y-127172888D01*
X181797265Y-127284148D01*
X181797270Y-127284151D01*
X181970192Y-127361142D01*
X181970197Y-127361144D01*
X182155354Y-127400500D01*
X182155355Y-127400500D01*
X182344644Y-127400500D01*
X182344646Y-127400500D01*
X182529803Y-127361144D01*
X182702730Y-127284151D01*
X182855871Y-127172888D01*
X182982533Y-127032216D01*
X183077179Y-126868284D01*
X183135674Y-126688256D01*
X183155460Y-126500000D01*
X183135674Y-126311744D01*
X183077179Y-126131716D01*
X182982533Y-125967784D01*
X182855871Y-125827112D01*
X182834719Y-125811744D01*
X182702734Y-125715851D01*
X182702729Y-125715848D01*
X182529807Y-125638857D01*
X182529802Y-125638855D01*
X182380246Y-125607067D01*
X182344646Y-125599500D01*
X182155354Y-125599500D01*
X182136117Y-125603589D01*
X181970197Y-125638855D01*
X181970192Y-125638857D01*
X181797270Y-125715848D01*
X181797265Y-125715851D01*
X181644129Y-125827111D01*
X181517466Y-125967785D01*
X181422821Y-126131715D01*
X181422818Y-126131722D01*
X181368664Y-126298392D01*
X181364326Y-126311744D01*
X181344540Y-126500000D01*
X169751133Y-126500000D01*
X169827179Y-126368284D01*
X169885674Y-126188256D01*
X169905460Y-126000000D01*
X169885674Y-125811744D01*
X169827179Y-125631716D01*
X169732533Y-125467784D01*
X169605871Y-125327112D01*
X169605870Y-125327111D01*
X169452734Y-125215851D01*
X169452729Y-125215848D01*
X169417134Y-125200000D01*
X186344540Y-125200000D01*
X186364326Y-125388256D01*
X186364327Y-125388259D01*
X186422818Y-125568277D01*
X186422821Y-125568284D01*
X186517467Y-125732216D01*
X186589071Y-125811740D01*
X186644129Y-125872888D01*
X186797265Y-125984148D01*
X186797270Y-125984151D01*
X186970192Y-126061142D01*
X186970197Y-126061144D01*
X187155354Y-126100500D01*
X187155355Y-126100500D01*
X187344644Y-126100500D01*
X187344646Y-126100500D01*
X187529803Y-126061144D01*
X187702730Y-125984151D01*
X187855871Y-125872888D01*
X187982533Y-125732216D01*
X188077179Y-125568284D01*
X188135674Y-125388256D01*
X188155460Y-125200000D01*
X188135674Y-125011744D01*
X188077179Y-124831716D01*
X187982533Y-124667784D01*
X187855871Y-124527112D01*
X187835962Y-124512647D01*
X187702734Y-124415851D01*
X187702729Y-124415848D01*
X187529807Y-124338857D01*
X187529802Y-124338855D01*
X187384000Y-124307865D01*
X187344646Y-124299500D01*
X187155354Y-124299500D01*
X187122897Y-124306398D01*
X186970197Y-124338855D01*
X186970192Y-124338857D01*
X186797270Y-124415848D01*
X186797265Y-124415851D01*
X186644129Y-124527111D01*
X186517466Y-124667785D01*
X186422821Y-124831715D01*
X186422818Y-124831722D01*
X186364327Y-125011740D01*
X186364326Y-125011744D01*
X186344540Y-125200000D01*
X169417134Y-125200000D01*
X169279807Y-125138857D01*
X169279802Y-125138855D01*
X169134001Y-125107865D01*
X169094646Y-125099500D01*
X168905354Y-125099500D01*
X168872897Y-125106398D01*
X168720197Y-125138855D01*
X168720192Y-125138857D01*
X168547271Y-125215848D01*
X168455122Y-125282798D01*
X168389315Y-125306277D01*
X168321261Y-125290451D01*
X168309352Y-125282798D01*
X168217206Y-125215851D01*
X168183277Y-125191200D01*
X168183275Y-125191199D01*
X168183276Y-125191199D01*
X168010354Y-125114208D01*
X168010349Y-125114206D01*
X167864548Y-125083216D01*
X167825193Y-125074851D01*
X167635901Y-125074851D01*
X167603444Y-125081749D01*
X167450744Y-125114206D01*
X167450739Y-125114208D01*
X167277817Y-125191199D01*
X167277812Y-125191202D01*
X167124676Y-125302462D01*
X166998013Y-125443136D01*
X166903368Y-125607066D01*
X166903365Y-125607073D01*
X166862704Y-125732216D01*
X166844873Y-125787095D01*
X166825087Y-125975351D01*
X127134121Y-125975351D01*
X127125232Y-125946046D01*
X127027685Y-125763550D01*
X126925352Y-125638856D01*
X126896410Y-125603589D01*
X126736452Y-125472317D01*
X126736453Y-125472317D01*
X126736450Y-125472315D01*
X126553954Y-125374768D01*
X126355934Y-125314700D01*
X126355932Y-125314699D01*
X126355934Y-125314699D01*
X126150000Y-125294417D01*
X125944067Y-125314699D01*
X125746043Y-125374769D01*
X125635898Y-125433643D01*
X125563550Y-125472315D01*
X125563548Y-125472316D01*
X125563547Y-125472317D01*
X125403589Y-125603589D01*
X125272317Y-125763547D01*
X125174769Y-125946043D01*
X125114699Y-126144067D01*
X125099499Y-126298395D01*
X125099499Y-127501604D01*
X122900500Y-127501604D01*
X122900500Y-126298392D01*
X122885300Y-126144066D01*
X122825232Y-125946046D01*
X122727685Y-125763550D01*
X122625352Y-125638856D01*
X122596410Y-125603589D01*
X122436452Y-125472317D01*
X122436453Y-125472317D01*
X122436450Y-125472315D01*
X122253954Y-125374768D01*
X122055934Y-125314700D01*
X122055932Y-125314699D01*
X122055934Y-125314699D01*
X121850000Y-125294417D01*
X121644067Y-125314699D01*
X121446043Y-125374769D01*
X121335898Y-125433643D01*
X121263550Y-125472315D01*
X121263548Y-125472316D01*
X121263547Y-125472317D01*
X121103589Y-125603589D01*
X120972317Y-125763547D01*
X120874769Y-125946043D01*
X120814699Y-126144067D01*
X120806854Y-126223724D01*
X120799500Y-126298392D01*
X120799500Y-127501608D01*
X118600500Y-127501608D01*
X118600500Y-124718996D01*
X118620185Y-124651957D01*
X118672989Y-124606202D01*
X118742147Y-124596258D01*
X118805703Y-124625283D01*
X118831886Y-124656995D01*
X118906422Y-124786095D01*
X118947505Y-124831722D01*
X119033084Y-124926767D01*
X119186220Y-125038027D01*
X119186225Y-125038030D01*
X119359147Y-125115021D01*
X119359152Y-125115023D01*
X119544309Y-125154379D01*
X119544310Y-125154379D01*
X119733599Y-125154379D01*
X119733601Y-125154379D01*
X119918758Y-125115023D01*
X120091685Y-125038030D01*
X120244826Y-124926767D01*
X120371488Y-124786095D01*
X120466134Y-124622163D01*
X120524629Y-124442135D01*
X120544415Y-124253879D01*
X120524629Y-124065623D01*
X120466134Y-123885595D01*
X120371488Y-123721663D01*
X120244826Y-123580991D01*
X120239486Y-123577111D01*
X120091689Y-123469730D01*
X120091684Y-123469727D01*
X119918762Y-123392736D01*
X119918757Y-123392734D01*
X119772955Y-123361744D01*
X119733601Y-123353379D01*
X119544309Y-123353379D01*
X119511852Y-123360277D01*
X119359152Y-123392734D01*
X119359147Y-123392736D01*
X119186225Y-123469727D01*
X119186220Y-123469730D01*
X119033084Y-123580990D01*
X118906420Y-123721664D01*
X118831887Y-123850761D01*
X118781320Y-123898977D01*
X118712713Y-123912200D01*
X118647848Y-123886232D01*
X118607320Y-123829317D01*
X118600500Y-123788761D01*
X118600500Y-122701608D01*
X120799500Y-122701608D01*
X120801499Y-122721899D01*
X120814699Y-122855932D01*
X120814700Y-122855934D01*
X120874768Y-123053954D01*
X120972315Y-123236450D01*
X120972317Y-123236452D01*
X121103589Y-123396410D01*
X121192929Y-123469728D01*
X121263550Y-123527685D01*
X121446046Y-123625232D01*
X121644066Y-123685300D01*
X121644065Y-123685300D01*
X121664348Y-123687297D01*
X121850000Y-123705583D01*
X122055934Y-123685300D01*
X122253954Y-123625232D01*
X122436450Y-123527685D01*
X122596410Y-123396410D01*
X122727685Y-123236450D01*
X122825232Y-123053954D01*
X122885300Y-122855934D01*
X122900500Y-122701608D01*
X122900500Y-122701604D01*
X125099499Y-122701604D01*
X125114699Y-122855932D01*
X125114700Y-122855934D01*
X125174768Y-123053954D01*
X125272315Y-123236450D01*
X125272317Y-123236452D01*
X125403589Y-123396410D01*
X125492929Y-123469728D01*
X125563550Y-123527685D01*
X125746046Y-123625232D01*
X125944066Y-123685300D01*
X125944065Y-123685300D01*
X125964347Y-123687297D01*
X126150000Y-123705583D01*
X126355934Y-123685300D01*
X126493023Y-123643715D01*
X136594540Y-123643715D01*
X136614326Y-123831971D01*
X136614327Y-123831974D01*
X136672818Y-124011992D01*
X136672821Y-124011999D01*
X136767467Y-124175931D01*
X136837652Y-124253879D01*
X136894129Y-124316603D01*
X137047265Y-124427863D01*
X137047270Y-124427866D01*
X137220192Y-124504857D01*
X137220197Y-124504859D01*
X137405354Y-124544215D01*
X137405355Y-124544215D01*
X137594644Y-124544215D01*
X137594646Y-124544215D01*
X137779803Y-124504859D01*
X137940818Y-124433169D01*
X138010063Y-124423884D01*
X138073340Y-124453512D01*
X138110554Y-124512647D01*
X138114571Y-124559410D01*
X138094540Y-124749999D01*
X138094540Y-124750000D01*
X138114326Y-124938256D01*
X138114327Y-124938259D01*
X138172818Y-125118277D01*
X138172821Y-125118284D01*
X138267467Y-125282216D01*
X138362946Y-125388256D01*
X138394129Y-125422888D01*
X138547265Y-125534148D01*
X138547270Y-125534151D01*
X138720192Y-125611142D01*
X138720197Y-125611144D01*
X138905354Y-125650500D01*
X138905355Y-125650500D01*
X139094644Y-125650500D01*
X139094646Y-125650500D01*
X139279803Y-125611144D01*
X139452730Y-125534151D01*
X139605871Y-125422888D01*
X139732533Y-125282216D01*
X139827179Y-125118284D01*
X139885674Y-124938256D01*
X139905460Y-124750000D01*
X139885674Y-124561744D01*
X139827179Y-124381716D01*
X139751133Y-124250000D01*
X146594540Y-124250000D01*
X146614326Y-124438256D01*
X146614327Y-124438259D01*
X146672818Y-124618277D01*
X146672821Y-124618284D01*
X146767467Y-124782216D01*
X146812043Y-124831722D01*
X146894129Y-124922888D01*
X147047265Y-125034148D01*
X147047270Y-125034151D01*
X147220192Y-125111142D01*
X147220197Y-125111144D01*
X147405354Y-125150500D01*
X147405355Y-125150500D01*
X147594644Y-125150500D01*
X147594646Y-125150500D01*
X147779803Y-125111144D01*
X147952730Y-125034151D01*
X148105871Y-124922888D01*
X148232533Y-124782216D01*
X148327179Y-124618284D01*
X148385674Y-124438256D01*
X148405460Y-124250000D01*
X148385674Y-124061744D01*
X148327179Y-123881716D01*
X148232533Y-123717784D01*
X148105871Y-123577112D01*
X148105870Y-123577111D01*
X147952734Y-123465851D01*
X147952729Y-123465848D01*
X147779807Y-123388857D01*
X147779802Y-123388855D01*
X147612895Y-123353379D01*
X147594646Y-123349500D01*
X147405354Y-123349500D01*
X147387105Y-123353379D01*
X147220197Y-123388855D01*
X147220192Y-123388857D01*
X147047270Y-123465848D01*
X147047265Y-123465851D01*
X146894129Y-123577111D01*
X146767466Y-123717785D01*
X146672821Y-123881715D01*
X146672818Y-123881722D01*
X146630489Y-124011999D01*
X146614326Y-124061744D01*
X146594540Y-124250000D01*
X139751133Y-124250000D01*
X139732533Y-124217784D01*
X139605871Y-124077112D01*
X139590058Y-124065623D01*
X139452734Y-123965851D01*
X139452729Y-123965848D01*
X139279807Y-123888857D01*
X139279802Y-123888855D01*
X139134000Y-123857865D01*
X139094646Y-123849500D01*
X138905354Y-123849500D01*
X138872897Y-123856398D01*
X138720197Y-123888855D01*
X138720192Y-123888857D01*
X138559185Y-123960544D01*
X138489935Y-123969829D01*
X138426659Y-123940201D01*
X138389445Y-123881067D01*
X138385428Y-123834303D01*
X138385673Y-123831974D01*
X138385674Y-123831971D01*
X138405460Y-123643715D01*
X138385674Y-123455459D01*
X138327179Y-123275431D01*
X138287070Y-123205960D01*
X138270598Y-123138063D01*
X138287069Y-123081967D01*
X138327179Y-123012496D01*
X138385674Y-122832468D01*
X138405460Y-122644212D01*
X138385674Y-122455956D01*
X138327179Y-122275928D01*
X138232533Y-122111996D01*
X138105871Y-121971324D01*
X138105870Y-121971323D01*
X137952734Y-121860063D01*
X137952729Y-121860060D01*
X137779807Y-121783069D01*
X137779802Y-121783067D01*
X137634000Y-121752077D01*
X137594646Y-121743712D01*
X137405354Y-121743712D01*
X137372897Y-121750610D01*
X137220197Y-121783067D01*
X137220192Y-121783069D01*
X137047270Y-121860060D01*
X137047265Y-121860063D01*
X136894129Y-121971323D01*
X136767466Y-122111997D01*
X136672821Y-122275927D01*
X136672818Y-122275934D01*
X136614327Y-122455952D01*
X136614326Y-122455956D01*
X136594540Y-122644212D01*
X136614326Y-122832468D01*
X136614327Y-122832471D01*
X136672821Y-123012497D01*
X136712927Y-123081963D01*
X136729400Y-123149863D01*
X136712928Y-123205962D01*
X136672820Y-123275431D01*
X136634706Y-123392735D01*
X136614326Y-123455459D01*
X136594540Y-123643715D01*
X126493023Y-123643715D01*
X126553954Y-123625232D01*
X126736450Y-123527685D01*
X126896410Y-123396410D01*
X127027685Y-123236450D01*
X127125232Y-123053954D01*
X127185300Y-122855934D01*
X127200500Y-122701608D01*
X127200500Y-121498392D01*
X127185300Y-121344066D01*
X127125232Y-121146046D01*
X127027685Y-120963550D01*
X127027682Y-120963547D01*
X127026698Y-120961705D01*
X127012456Y-120893302D01*
X127018126Y-120864931D01*
X127019358Y-120861142D01*
X127044811Y-120782807D01*
X127064597Y-120594551D01*
X127044811Y-120406295D01*
X126986316Y-120226267D01*
X126891670Y-120062335D01*
X126765008Y-119921663D01*
X126765007Y-119921662D01*
X126611871Y-119810402D01*
X126611866Y-119810399D01*
X126438944Y-119733408D01*
X126438939Y-119733406D01*
X126287337Y-119701183D01*
X126253783Y-119694051D01*
X126064491Y-119694051D01*
X126032034Y-119700949D01*
X125879334Y-119733406D01*
X125879329Y-119733408D01*
X125706407Y-119810399D01*
X125706402Y-119810402D01*
X125553266Y-119921662D01*
X125426603Y-120062336D01*
X125331958Y-120226266D01*
X125331955Y-120226273D01*
X125275346Y-120400500D01*
X125273463Y-120406295D01*
X125253677Y-120594551D01*
X125273463Y-120782807D01*
X125273464Y-120782810D01*
X125294240Y-120846753D01*
X125296235Y-120916595D01*
X125275058Y-120958068D01*
X125275694Y-120958493D01*
X125272312Y-120963553D01*
X125174769Y-121146041D01*
X125114699Y-121344067D01*
X125099499Y-121498395D01*
X125099499Y-122701604D01*
X122900500Y-122701604D01*
X122900500Y-121498392D01*
X122885300Y-121344066D01*
X122825232Y-121146046D01*
X122825230Y-121146043D01*
X122825230Y-121146041D01*
X122727689Y-120963555D01*
X122727686Y-120963552D01*
X122727685Y-120963550D01*
X122726662Y-120962304D01*
X122726331Y-120961523D01*
X122724302Y-120958487D01*
X122724877Y-120958102D01*
X122699347Y-120897996D01*
X122700488Y-120886516D01*
X123489500Y-120886516D01*
X123505140Y-120995302D01*
X123505141Y-120995307D01*
X123566121Y-121128832D01*
X123566124Y-121128837D01*
X123613546Y-121183565D01*
X123662256Y-121239778D01*
X123785750Y-121319143D01*
X123785751Y-121319143D01*
X123785752Y-121319144D01*
X123926598Y-121360499D01*
X123926600Y-121360500D01*
X123926601Y-121360500D01*
X124073400Y-121360500D01*
X124073400Y-121360499D01*
X124214250Y-121319143D01*
X124337744Y-121239778D01*
X124433877Y-121128836D01*
X124476002Y-121036593D01*
X124494858Y-120995307D01*
X124494859Y-120995302D01*
X124496465Y-120984132D01*
X124510500Y-120886516D01*
X124510500Y-120613484D01*
X124494859Y-120504696D01*
X124494858Y-120504695D01*
X124494858Y-120504692D01*
X124433878Y-120371167D01*
X124433877Y-120371164D01*
X124337744Y-120260222D01*
X124214250Y-120180857D01*
X124214249Y-120180856D01*
X124214248Y-120180856D01*
X124214247Y-120180855D01*
X124073401Y-120139500D01*
X124073399Y-120139500D01*
X123926601Y-120139500D01*
X123926598Y-120139500D01*
X123785752Y-120180855D01*
X123785751Y-120180856D01*
X123662258Y-120260220D01*
X123662254Y-120260223D01*
X123566124Y-120371162D01*
X123566121Y-120371167D01*
X123505141Y-120504692D01*
X123505140Y-120504697D01*
X123489500Y-120613483D01*
X123489500Y-120886516D01*
X122700488Y-120886516D01*
X122704582Y-120845318D01*
X122722577Y-120789939D01*
X122742363Y-120601683D01*
X122722577Y-120413427D01*
X122664082Y-120233399D01*
X122569436Y-120069467D01*
X122442774Y-119928795D01*
X122432958Y-119921663D01*
X122289637Y-119817534D01*
X122289632Y-119817531D01*
X122116710Y-119740540D01*
X122116705Y-119740538D01*
X121970903Y-119709548D01*
X121931549Y-119701183D01*
X121742257Y-119701183D01*
X121709800Y-119708081D01*
X121557100Y-119740538D01*
X121557095Y-119740540D01*
X121384173Y-119817531D01*
X121384168Y-119817534D01*
X121231032Y-119928794D01*
X121104369Y-120069468D01*
X121009724Y-120233398D01*
X121009721Y-120233405D01*
X120953546Y-120406295D01*
X120951229Y-120413427D01*
X120931443Y-120601683D01*
X120951229Y-120789939D01*
X120951230Y-120789942D01*
X120977969Y-120872237D01*
X120979964Y-120942078D01*
X120969396Y-120969008D01*
X120874769Y-121146041D01*
X120814699Y-121344067D01*
X120806965Y-121422596D01*
X120799500Y-121498392D01*
X120799500Y-122701608D01*
X118600500Y-122701608D01*
X118600500Y-119500000D01*
X128094540Y-119500000D01*
X128114326Y-119688256D01*
X128114327Y-119688259D01*
X128172818Y-119868277D01*
X128172821Y-119868284D01*
X128267467Y-120032216D01*
X128364066Y-120139500D01*
X128394129Y-120172888D01*
X128547265Y-120284148D01*
X128547270Y-120284151D01*
X128720192Y-120361142D01*
X128720197Y-120361144D01*
X128905354Y-120400500D01*
X128905355Y-120400500D01*
X129094644Y-120400500D01*
X129094646Y-120400500D01*
X129279803Y-120361144D01*
X129452730Y-120284151D01*
X129605871Y-120172888D01*
X129732533Y-120032216D01*
X129751133Y-120000000D01*
X131344540Y-120000000D01*
X131364326Y-120188256D01*
X131364327Y-120188259D01*
X131422818Y-120368277D01*
X131422821Y-120368284D01*
X131517467Y-120532216D01*
X131590643Y-120613486D01*
X131644129Y-120672888D01*
X131797265Y-120784148D01*
X131797270Y-120784151D01*
X131970192Y-120861142D01*
X131970197Y-120861144D01*
X132155354Y-120900500D01*
X132155355Y-120900500D01*
X132344644Y-120900500D01*
X132344646Y-120900500D01*
X132529803Y-120861144D01*
X132702730Y-120784151D01*
X132855871Y-120672888D01*
X132982533Y-120532216D01*
X133077179Y-120368284D01*
X133135674Y-120188256D01*
X133155460Y-120000000D01*
X133135674Y-119811744D01*
X133077179Y-119631716D01*
X132982533Y-119467784D01*
X132855871Y-119327112D01*
X132834719Y-119311744D01*
X132702734Y-119215851D01*
X132702729Y-119215848D01*
X132529807Y-119138857D01*
X132529802Y-119138855D01*
X132384000Y-119107865D01*
X132344646Y-119099500D01*
X132155354Y-119099500D01*
X132122897Y-119106398D01*
X131970197Y-119138855D01*
X131970192Y-119138857D01*
X131797270Y-119215848D01*
X131797265Y-119215851D01*
X131644129Y-119327111D01*
X131517466Y-119467785D01*
X131422821Y-119631715D01*
X131422818Y-119631722D01*
X131364762Y-119810402D01*
X131364326Y-119811744D01*
X131344540Y-120000000D01*
X129751133Y-120000000D01*
X129827179Y-119868284D01*
X129885674Y-119688256D01*
X129905460Y-119500000D01*
X129885674Y-119311744D01*
X129827179Y-119131716D01*
X129732533Y-118967784D01*
X129605871Y-118827112D01*
X129592190Y-118817172D01*
X129452734Y-118715851D01*
X129452729Y-118715848D01*
X129279807Y-118638857D01*
X129279802Y-118638855D01*
X129134000Y-118607865D01*
X129094646Y-118599500D01*
X128905354Y-118599500D01*
X128872897Y-118606398D01*
X128720197Y-118638855D01*
X128720192Y-118638857D01*
X128547270Y-118715848D01*
X128547265Y-118715851D01*
X128394129Y-118827111D01*
X128267466Y-118967785D01*
X128172821Y-119131715D01*
X128172818Y-119131722D01*
X128114883Y-119310030D01*
X128114326Y-119311744D01*
X128094540Y-119500000D01*
X118600500Y-119500000D01*
X118600500Y-105000002D01*
X130919723Y-105000002D01*
X130938793Y-105217975D01*
X130938793Y-105217979D01*
X130995422Y-105429322D01*
X130995424Y-105429326D01*
X130995425Y-105429330D01*
X131041661Y-105528484D01*
X131087897Y-105627638D01*
X131087898Y-105627639D01*
X131213402Y-105806877D01*
X131368123Y-105961598D01*
X131547361Y-106087102D01*
X131745670Y-106179575D01*
X131957023Y-106236207D01*
X132139926Y-106252208D01*
X132174998Y-106255277D01*
X132175000Y-106255277D01*
X132175002Y-106255277D01*
X132203254Y-106252805D01*
X132392977Y-106236207D01*
X132593368Y-106182512D01*
X132663217Y-106184175D01*
X132721080Y-106223337D01*
X132729775Y-106235246D01*
X132744744Y-106258538D01*
X132744753Y-106258549D01*
X132790496Y-106311340D01*
X132790499Y-106311343D01*
X132790503Y-106311347D01*
X132899237Y-106405567D01*
X133030114Y-106465338D01*
X133074930Y-106478497D01*
X133097148Y-106485022D01*
X133097153Y-106485023D01*
X133097157Y-106485024D01*
X133239573Y-106505500D01*
X146130110Y-106505500D01*
X146197149Y-106525185D01*
X146242904Y-106577989D01*
X146254095Y-106627593D01*
X146312497Y-110423677D01*
X146313561Y-110492831D01*
X146358650Y-113423677D01*
X146371363Y-114249998D01*
X146371483Y-114257776D01*
X146492681Y-122135673D01*
X146505016Y-122239163D01*
X146516205Y-122288755D01*
X146516207Y-122288762D01*
X146549494Y-122387504D01*
X146627278Y-122508537D01*
X146627286Y-122508548D01*
X146673030Y-122561340D01*
X146673033Y-122561343D01*
X146673037Y-122561347D01*
X146781771Y-122655567D01*
X146781774Y-122655568D01*
X146781775Y-122655569D01*
X146909297Y-122713808D01*
X146912648Y-122715338D01*
X146957464Y-122728497D01*
X146979682Y-122735022D01*
X146979687Y-122735023D01*
X146979691Y-122735024D01*
X147122107Y-122755500D01*
X147122110Y-122755500D01*
X147665184Y-122755500D01*
X147665185Y-122755500D01*
X147680218Y-122755053D01*
X147702449Y-122753728D01*
X147711004Y-122752962D01*
X147732399Y-122751048D01*
X147871377Y-122713809D01*
X147935605Y-122686305D01*
X147935610Y-122686303D01*
X147950019Y-122677519D01*
X148017506Y-122659433D01*
X148084059Y-122680704D01*
X148102242Y-122695717D01*
X148193123Y-122786598D01*
X148372361Y-122912102D01*
X148570670Y-123004575D01*
X148570676Y-123004576D01*
X148570677Y-123004577D01*
X148600235Y-123012497D01*
X148782023Y-123061207D01*
X148964926Y-123077208D01*
X148999998Y-123080277D01*
X149000000Y-123080277D01*
X149000002Y-123080277D01*
X149028254Y-123077805D01*
X149217977Y-123061207D01*
X149429330Y-123004575D01*
X149627639Y-122912102D01*
X149806877Y-122786598D01*
X149897125Y-122696349D01*
X149958444Y-122662867D01*
X150028136Y-122667851D01*
X150036315Y-122671239D01*
X150092256Y-122696786D01*
X150128424Y-122721899D01*
X150193123Y-122786598D01*
X150372361Y-122912102D01*
X150570670Y-123004575D01*
X150570676Y-123004576D01*
X150570677Y-123004577D01*
X150600235Y-123012497D01*
X150782023Y-123061207D01*
X150964926Y-123077208D01*
X150999998Y-123080277D01*
X151000000Y-123080277D01*
X151000002Y-123080277D01*
X151028254Y-123077805D01*
X151217977Y-123061207D01*
X151429330Y-123004575D01*
X151627639Y-122912102D01*
X151806877Y-122786598D01*
X151868975Y-122724498D01*
X151907843Y-122698192D01*
X151918123Y-122693790D01*
X151935592Y-122686311D01*
X151935595Y-122686309D01*
X151935605Y-122686305D01*
X151935610Y-122686303D01*
X152058466Y-122611417D01*
X152155247Y-122504952D01*
X152194409Y-122447089D01*
X152194409Y-122447088D01*
X152194410Y-122447085D01*
X152196313Y-122444274D01*
X152198603Y-122438454D01*
X152257276Y-122317669D01*
X152281134Y-122175781D01*
X152282796Y-122105932D01*
X152265716Y-121963080D01*
X152265714Y-121963074D01*
X152264878Y-121958733D01*
X152265148Y-121958680D01*
X152262570Y-121944062D01*
X152254661Y-121853654D01*
X152254661Y-121832037D01*
X152255277Y-121825000D01*
X152254660Y-121817960D01*
X152254660Y-121796350D01*
X152262571Y-121705929D01*
X152266321Y-121684660D01*
X152294444Y-121579698D01*
X152301829Y-121559407D01*
X152347767Y-121460894D01*
X152358561Y-121442198D01*
X152420903Y-121353164D01*
X152434785Y-121336620D01*
X152511620Y-121259785D01*
X152528160Y-121245905D01*
X152617197Y-121183562D01*
X152635888Y-121172771D01*
X152734394Y-121126836D01*
X152754692Y-121119448D01*
X152859661Y-121091321D01*
X152880940Y-121087569D01*
X152989196Y-121078099D01*
X153010800Y-121078099D01*
X153119056Y-121087569D01*
X153140342Y-121091322D01*
X153245295Y-121119444D01*
X153265605Y-121126836D01*
X153306794Y-121146043D01*
X153364085Y-121172758D01*
X153382805Y-121183565D01*
X153471827Y-121245899D01*
X153488384Y-121259793D01*
X153554872Y-121326281D01*
X153554890Y-121326298D01*
X153639008Y-121394085D01*
X153639018Y-121394093D01*
X153683365Y-121422594D01*
X153707404Y-121434627D01*
X153758541Y-121482237D01*
X153775821Y-121549936D01*
X153771676Y-121577602D01*
X153763793Y-121607024D01*
X153744723Y-121824997D01*
X153744723Y-121825002D01*
X153763793Y-122042975D01*
X153763793Y-122042979D01*
X153820422Y-122254322D01*
X153820424Y-122254326D01*
X153820425Y-122254330D01*
X153866661Y-122353484D01*
X153912897Y-122452638D01*
X153937998Y-122488486D01*
X154038402Y-122631877D01*
X154193123Y-122786598D01*
X154372361Y-122912102D01*
X154570670Y-123004575D01*
X154570676Y-123004576D01*
X154570677Y-123004577D01*
X154600235Y-123012497D01*
X154782023Y-123061207D01*
X154964926Y-123077208D01*
X154999998Y-123080277D01*
X155000000Y-123080277D01*
X155000002Y-123080277D01*
X155028254Y-123077805D01*
X155217977Y-123061207D01*
X155429330Y-123004575D01*
X155627639Y-122912102D01*
X155806877Y-122786598D01*
X155912321Y-122681153D01*
X155973640Y-122647671D01*
X156043332Y-122652655D01*
X156087680Y-122681155D01*
X156193123Y-122786598D01*
X156372361Y-122912102D01*
X156570670Y-123004575D01*
X156570676Y-123004576D01*
X156570677Y-123004577D01*
X156600235Y-123012497D01*
X156782023Y-123061207D01*
X156964926Y-123077208D01*
X156999998Y-123080277D01*
X157000000Y-123080277D01*
X157000002Y-123080277D01*
X157028254Y-123077805D01*
X157217977Y-123061207D01*
X157429330Y-123004575D01*
X157627639Y-122912102D01*
X157806877Y-122786598D01*
X157912319Y-122681156D01*
X157973642Y-122647671D01*
X158043334Y-122652655D01*
X158087680Y-122681155D01*
X158193123Y-122786598D01*
X158372361Y-122912102D01*
X158570670Y-123004575D01*
X158570676Y-123004576D01*
X158570677Y-123004577D01*
X158600235Y-123012497D01*
X158782023Y-123061207D01*
X158964926Y-123077208D01*
X158999998Y-123080277D01*
X159000000Y-123080277D01*
X159000002Y-123080277D01*
X159028254Y-123077805D01*
X159217977Y-123061207D01*
X159429330Y-123004575D01*
X159627639Y-122912102D01*
X159806877Y-122786598D01*
X159961598Y-122631877D01*
X160087102Y-122452639D01*
X160179575Y-122254330D01*
X160236207Y-122042977D01*
X160255277Y-121825000D01*
X160253715Y-121807151D01*
X160247061Y-121731089D01*
X180661218Y-121731089D01*
X180681004Y-121919345D01*
X180681005Y-121919348D01*
X180739496Y-122099366D01*
X180739499Y-122099373D01*
X180834145Y-122263305D01*
X180857067Y-122288762D01*
X180960807Y-122403977D01*
X181113943Y-122515237D01*
X181113948Y-122515240D01*
X181286870Y-122592231D01*
X181286875Y-122592233D01*
X181472032Y-122631589D01*
X181472033Y-122631589D01*
X181661322Y-122631589D01*
X181661324Y-122631589D01*
X181846481Y-122592233D01*
X182019408Y-122515240D01*
X182172549Y-122403977D01*
X182299211Y-122263305D01*
X182393857Y-122099373D01*
X182452352Y-121919345D01*
X182472138Y-121731089D01*
X182452352Y-121542833D01*
X182393857Y-121362805D01*
X182299211Y-121198873D01*
X182172549Y-121058201D01*
X182172548Y-121058200D01*
X182167720Y-121053853D01*
X182169684Y-121051671D01*
X182134847Y-121006350D01*
X182128975Y-120936727D01*
X182161675Y-120874982D01*
X182170703Y-120867172D01*
X182170642Y-120867104D01*
X182175466Y-120862758D01*
X182175472Y-120862755D01*
X182302134Y-120722083D01*
X182396780Y-120558151D01*
X182455275Y-120378123D01*
X182475061Y-120189867D01*
X182455275Y-120001611D01*
X182396780Y-119821583D01*
X182302134Y-119657651D01*
X182175472Y-119516979D01*
X182175471Y-119516978D01*
X182022335Y-119405718D01*
X182022330Y-119405715D01*
X181849408Y-119328724D01*
X181849403Y-119328722D01*
X181703602Y-119297732D01*
X181664247Y-119289367D01*
X181474955Y-119289367D01*
X181442498Y-119296265D01*
X181289798Y-119328722D01*
X181289793Y-119328724D01*
X181116871Y-119405715D01*
X181116866Y-119405718D01*
X180963730Y-119516978D01*
X180837067Y-119657652D01*
X180742422Y-119821582D01*
X180742419Y-119821589D01*
X180707586Y-119928795D01*
X180683927Y-120001611D01*
X180664141Y-120189867D01*
X180683927Y-120378123D01*
X180683928Y-120378126D01*
X180742419Y-120558144D01*
X180742422Y-120558151D01*
X180837068Y-120722083D01*
X180898166Y-120789939D01*
X180963730Y-120862755D01*
X180968559Y-120867103D01*
X180966582Y-120869297D01*
X181001396Y-120914514D01*
X181007323Y-120984132D01*
X180974671Y-121045902D01*
X180965571Y-121053781D01*
X180965636Y-121053853D01*
X180960807Y-121058200D01*
X180834144Y-121198874D01*
X180739499Y-121362804D01*
X180739496Y-121362811D01*
X180681005Y-121542829D01*
X180681004Y-121542833D01*
X180661218Y-121731089D01*
X160247061Y-121731089D01*
X160236207Y-121607023D01*
X160182512Y-121406631D01*
X160184175Y-121336782D01*
X160223337Y-121278919D01*
X160235237Y-121270229D01*
X160258543Y-121255252D01*
X160311347Y-121209497D01*
X160405567Y-121100763D01*
X160465338Y-120969886D01*
X160485023Y-120902847D01*
X160485024Y-120902843D01*
X160505500Y-120760427D01*
X160505500Y-118424239D01*
X166696642Y-118424239D01*
X166716428Y-118612495D01*
X166716429Y-118612498D01*
X166774920Y-118792516D01*
X166774923Y-118792523D01*
X166869569Y-118956455D01*
X166978472Y-119077404D01*
X166996231Y-119097127D01*
X167149367Y-119208387D01*
X167149372Y-119208390D01*
X167322294Y-119285381D01*
X167322299Y-119285383D01*
X167507456Y-119324739D01*
X167507457Y-119324739D01*
X167696746Y-119324739D01*
X167696748Y-119324739D01*
X167881905Y-119285383D01*
X168054832Y-119208390D01*
X168146981Y-119141439D01*
X168212784Y-119117961D01*
X168280838Y-119133786D01*
X168292749Y-119141441D01*
X168418820Y-119233036D01*
X168418825Y-119233039D01*
X168591747Y-119310030D01*
X168591752Y-119310032D01*
X168776909Y-119349388D01*
X168776910Y-119349388D01*
X168966199Y-119349388D01*
X168966201Y-119349388D01*
X169151358Y-119310032D01*
X169324285Y-119233039D01*
X169477426Y-119121776D01*
X169604088Y-118981104D01*
X169698734Y-118817172D01*
X169757229Y-118637144D01*
X169777015Y-118448888D01*
X169757229Y-118260632D01*
X169698734Y-118080604D01*
X169604088Y-117916672D01*
X169477426Y-117776000D01*
X169477425Y-117775999D01*
X169324289Y-117664739D01*
X169324284Y-117664736D01*
X169151362Y-117587745D01*
X169151357Y-117587743D01*
X169005555Y-117556753D01*
X168966201Y-117548388D01*
X168776909Y-117548388D01*
X168744452Y-117555286D01*
X168591752Y-117587743D01*
X168591747Y-117587745D01*
X168418826Y-117664736D01*
X168326677Y-117731686D01*
X168260870Y-117755165D01*
X168192816Y-117739339D01*
X168180907Y-117731686D01*
X168088761Y-117664739D01*
X168054832Y-117640088D01*
X168054830Y-117640087D01*
X168054831Y-117640087D01*
X167881909Y-117563096D01*
X167881904Y-117563094D01*
X167736103Y-117532104D01*
X167696748Y-117523739D01*
X167507456Y-117523739D01*
X167474999Y-117530637D01*
X167322299Y-117563094D01*
X167322294Y-117563096D01*
X167149372Y-117640087D01*
X167149367Y-117640090D01*
X166996231Y-117751350D01*
X166869568Y-117892024D01*
X166774923Y-118055954D01*
X166774920Y-118055961D01*
X166716429Y-118235979D01*
X166716428Y-118235983D01*
X166696642Y-118424239D01*
X160505500Y-118424239D01*
X160505500Y-116750000D01*
X181344540Y-116750000D01*
X181364326Y-116938256D01*
X181364327Y-116938259D01*
X181422818Y-117118277D01*
X181422821Y-117118284D01*
X181517467Y-117282216D01*
X181644128Y-117422888D01*
X181644129Y-117422888D01*
X181797265Y-117534148D01*
X181797270Y-117534151D01*
X181970192Y-117611142D01*
X181970197Y-117611144D01*
X182155354Y-117650500D01*
X182155355Y-117650500D01*
X182344644Y-117650500D01*
X182344646Y-117650500D01*
X182529803Y-117611144D01*
X182702730Y-117534151D01*
X182855871Y-117422888D01*
X182982533Y-117282216D01*
X183077179Y-117118284D01*
X183135674Y-116938256D01*
X183155460Y-116750000D01*
X183135674Y-116561744D01*
X183077179Y-116381716D01*
X183001133Y-116250000D01*
X185344540Y-116250000D01*
X185364326Y-116438256D01*
X185364327Y-116438259D01*
X185422818Y-116618277D01*
X185422821Y-116618284D01*
X185517467Y-116782216D01*
X185644129Y-116922887D01*
X185644129Y-116922888D01*
X185797265Y-117034148D01*
X185797270Y-117034151D01*
X185970192Y-117111142D01*
X185970197Y-117111144D01*
X186155354Y-117150500D01*
X186155355Y-117150500D01*
X186344644Y-117150500D01*
X186344646Y-117150500D01*
X186529803Y-117111144D01*
X186702730Y-117034151D01*
X186855871Y-116922888D01*
X186982533Y-116782216D01*
X187077179Y-116618284D01*
X187135674Y-116438256D01*
X187155460Y-116250000D01*
X187135674Y-116061744D01*
X187077179Y-115881716D01*
X186982533Y-115717784D01*
X186855871Y-115577112D01*
X186855870Y-115577111D01*
X186702734Y-115465851D01*
X186702729Y-115465848D01*
X186529807Y-115388857D01*
X186529802Y-115388855D01*
X186384001Y-115357865D01*
X186344646Y-115349500D01*
X186155354Y-115349500D01*
X186122897Y-115356398D01*
X185970197Y-115388855D01*
X185970192Y-115388857D01*
X185797270Y-115465848D01*
X185797265Y-115465851D01*
X185644129Y-115577111D01*
X185517466Y-115717785D01*
X185422821Y-115881715D01*
X185422818Y-115881722D01*
X185364327Y-116061740D01*
X185364326Y-116061744D01*
X185344540Y-116250000D01*
X183001133Y-116250000D01*
X182982533Y-116217784D01*
X182855871Y-116077112D01*
X182834719Y-116061744D01*
X182702734Y-115965851D01*
X182702729Y-115965848D01*
X182529807Y-115888857D01*
X182529802Y-115888855D01*
X182384001Y-115857865D01*
X182344646Y-115849500D01*
X182155354Y-115849500D01*
X182122897Y-115856398D01*
X181970197Y-115888855D01*
X181970192Y-115888857D01*
X181797270Y-115965848D01*
X181797265Y-115965851D01*
X181644129Y-116077111D01*
X181517466Y-116217785D01*
X181422821Y-116381715D01*
X181422818Y-116381722D01*
X181364327Y-116561740D01*
X181364326Y-116561744D01*
X181344540Y-116750000D01*
X160505500Y-116750000D01*
X160505500Y-109500000D01*
X169094540Y-109500000D01*
X169114326Y-109688256D01*
X169114327Y-109688259D01*
X169172818Y-109868277D01*
X169172821Y-109868284D01*
X169267467Y-110032216D01*
X169394129Y-110172887D01*
X169394129Y-110172888D01*
X169547265Y-110284148D01*
X169547270Y-110284151D01*
X169720192Y-110361142D01*
X169720197Y-110361144D01*
X169905354Y-110400500D01*
X169905355Y-110400500D01*
X170094644Y-110400500D01*
X170094646Y-110400500D01*
X170279803Y-110361144D01*
X170449566Y-110285559D01*
X170518812Y-110276274D01*
X170550433Y-110285559D01*
X170720197Y-110361144D01*
X170905354Y-110400500D01*
X170905355Y-110400500D01*
X171094644Y-110400500D01*
X171094646Y-110400500D01*
X171279803Y-110361144D01*
X171452730Y-110284151D01*
X171605871Y-110172888D01*
X171732533Y-110032216D01*
X171827179Y-109868284D01*
X171885674Y-109688256D01*
X171905460Y-109500000D01*
X171885674Y-109311744D01*
X171827179Y-109131716D01*
X171732533Y-108967784D01*
X171605871Y-108827112D01*
X171605870Y-108827111D01*
X171452734Y-108715851D01*
X171452729Y-108715848D01*
X171279807Y-108638857D01*
X171279802Y-108638855D01*
X171134000Y-108607865D01*
X171094646Y-108599500D01*
X170905354Y-108599500D01*
X170872897Y-108606398D01*
X170720197Y-108638855D01*
X170720192Y-108638857D01*
X170550436Y-108714439D01*
X170481186Y-108723724D01*
X170449564Y-108714439D01*
X170279807Y-108638857D01*
X170279802Y-108638855D01*
X170134000Y-108607865D01*
X170094646Y-108599500D01*
X169905354Y-108599500D01*
X169872897Y-108606398D01*
X169720197Y-108638855D01*
X169720192Y-108638857D01*
X169547270Y-108715848D01*
X169547265Y-108715851D01*
X169394129Y-108827111D01*
X169267466Y-108967785D01*
X169172821Y-109131715D01*
X169172818Y-109131722D01*
X169114327Y-109311740D01*
X169114326Y-109311744D01*
X169094540Y-109500000D01*
X160505500Y-109500000D01*
X160505500Y-108119887D01*
X160525185Y-108052848D01*
X160577989Y-108007093D01*
X160627589Y-107995902D01*
X176135683Y-107757318D01*
X176239155Y-107744985D01*
X176288759Y-107733794D01*
X176387504Y-107700506D01*
X176508543Y-107622718D01*
X176561347Y-107576963D01*
X176655567Y-107468229D01*
X176715338Y-107337352D01*
X176735023Y-107270313D01*
X176735024Y-107270309D01*
X176755500Y-107127893D01*
X176755500Y-106334815D01*
X176755053Y-106319782D01*
X176753728Y-106297553D01*
X176751048Y-106267601D01*
X176713809Y-106128623D01*
X176686305Y-106064395D01*
X176686303Y-106064390D01*
X176677517Y-106049976D01*
X176659433Y-105982490D01*
X176680706Y-105915938D01*
X176695707Y-105897767D01*
X176786598Y-105806877D01*
X176912102Y-105627639D01*
X177004575Y-105429330D01*
X177061207Y-105217977D01*
X177080277Y-105000000D01*
X177061207Y-104782023D01*
X177004575Y-104570670D01*
X176912102Y-104372362D01*
X176912100Y-104372359D01*
X176912099Y-104372357D01*
X176786599Y-104193124D01*
X176786598Y-104193123D01*
X176696349Y-104102874D01*
X176662866Y-104041554D01*
X176667850Y-103971862D01*
X176671226Y-103963710D01*
X176696786Y-103907742D01*
X176721894Y-103871579D01*
X176786598Y-103806877D01*
X176912102Y-103627639D01*
X177004575Y-103429330D01*
X177061207Y-103217977D01*
X177080277Y-103000000D01*
X177061207Y-102782023D01*
X177004575Y-102570670D01*
X176912102Y-102372362D01*
X176912100Y-102372359D01*
X176912099Y-102372357D01*
X176786597Y-102193121D01*
X176724500Y-102131024D01*
X176698193Y-102092157D01*
X176686305Y-102064396D01*
X176686302Y-102064388D01*
X176611418Y-101941535D01*
X176611417Y-101941534D01*
X176504954Y-101844754D01*
X176504953Y-101844753D01*
X176447090Y-101805591D01*
X176447080Y-101805586D01*
X176317685Y-101742729D01*
X176317674Y-101742725D01*
X176175789Y-101718866D01*
X176105939Y-101717203D01*
X176105934Y-101717203D01*
X176092026Y-101718866D01*
X175963068Y-101734285D01*
X175958724Y-101735123D01*
X175958672Y-101734854D01*
X175944049Y-101737431D01*
X175853657Y-101745338D01*
X175832058Y-101745339D01*
X175825008Y-101744723D01*
X175825002Y-101744723D01*
X175825000Y-101744723D01*
X175820347Y-101745130D01*
X175817957Y-101745339D01*
X175796347Y-101745338D01*
X175705938Y-101737428D01*
X175684653Y-101733675D01*
X175579706Y-101705555D01*
X175559394Y-101698162D01*
X175460906Y-101652236D01*
X175442188Y-101641429D01*
X175353174Y-101579101D01*
X175336616Y-101565207D01*
X175259793Y-101488384D01*
X175245899Y-101471827D01*
X175183567Y-101382808D01*
X175172760Y-101364089D01*
X175126837Y-101265607D01*
X175119447Y-101245304D01*
X175091321Y-101140342D01*
X175087569Y-101119057D01*
X175078099Y-101010807D01*
X175078099Y-100989193D01*
X175087571Y-100880930D01*
X175091321Y-100859659D01*
X175119444Y-100754698D01*
X175126829Y-100734407D01*
X175172767Y-100635894D01*
X175183558Y-100617203D01*
X175245902Y-100528165D01*
X175259782Y-100511624D01*
X175326286Y-100445122D01*
X175394098Y-100360973D01*
X175422598Y-100316626D01*
X175434625Y-100292597D01*
X175482235Y-100241459D01*
X175549934Y-100224178D01*
X175577602Y-100228323D01*
X175607023Y-100236207D01*
X175762720Y-100249828D01*
X175824998Y-100255277D01*
X175825000Y-100255277D01*
X175825002Y-100255277D01*
X175853254Y-100252805D01*
X176042977Y-100236207D01*
X176254330Y-100179575D01*
X176452639Y-100087102D01*
X176631877Y-99961598D01*
X176786598Y-99806877D01*
X176912102Y-99627639D01*
X177004575Y-99429330D01*
X177061207Y-99217977D01*
X177080277Y-99000000D01*
X177061207Y-98782023D01*
X177004575Y-98570670D01*
X176912102Y-98372362D01*
X176912100Y-98372359D01*
X176912099Y-98372357D01*
X176786597Y-98193121D01*
X176681156Y-98087680D01*
X176647671Y-98026357D01*
X176652655Y-97956665D01*
X176681152Y-97912322D01*
X176786598Y-97806877D01*
X176912102Y-97627639D01*
X177004575Y-97429330D01*
X177061207Y-97217977D01*
X177080277Y-97000000D01*
X177061207Y-96782023D01*
X177004575Y-96570670D01*
X176912102Y-96372362D01*
X176912100Y-96372359D01*
X176912099Y-96372357D01*
X176786597Y-96193121D01*
X176681156Y-96087680D01*
X176647671Y-96026357D01*
X176652655Y-95956665D01*
X176681152Y-95912322D01*
X176786598Y-95806877D01*
X176912102Y-95627639D01*
X177004575Y-95429330D01*
X177061207Y-95217977D01*
X177080277Y-95000000D01*
X177061207Y-94782023D01*
X177004575Y-94570670D01*
X176912102Y-94372362D01*
X176912100Y-94372359D01*
X176912099Y-94372357D01*
X176786599Y-94193124D01*
X176786596Y-94193121D01*
X176696350Y-94102875D01*
X176662867Y-94041555D01*
X176667851Y-93971863D01*
X176671239Y-93963683D01*
X176715338Y-93867123D01*
X176735023Y-93800084D01*
X176735024Y-93800080D01*
X176755500Y-93657664D01*
X176755500Y-81375983D01*
X176752839Y-81352127D01*
X176746191Y-81292516D01*
X176743080Y-81264618D01*
X176731043Y-81211323D01*
X176694389Y-81105420D01*
X176652496Y-81042455D01*
X176614694Y-80985638D01*
X176614691Y-80985635D01*
X176614689Y-80985631D01*
X176568101Y-80933560D01*
X176544460Y-80913723D01*
X176457888Y-80841081D01*
X176409338Y-80819833D01*
X176326077Y-80783395D01*
X176326073Y-80783394D01*
X176326074Y-80783394D01*
X176294588Y-80774689D01*
X176258747Y-80764780D01*
X176258736Y-80764777D01*
X176258734Y-80764776D01*
X176258733Y-80764776D01*
X176116010Y-80746563D01*
X176116006Y-80746563D01*
X176115995Y-80746562D01*
X161131468Y-80984412D01*
X161064125Y-80965794D01*
X161017537Y-80913723D01*
X161005500Y-80860428D01*
X161005500Y-79397870D01*
X163553606Y-79397870D01*
X163553607Y-79397876D01*
X163560014Y-79457483D01*
X163610308Y-79592328D01*
X163610312Y-79592335D01*
X163696558Y-79707544D01*
X163696561Y-79707547D01*
X163811770Y-79793793D01*
X163811777Y-79793797D01*
X163946623Y-79844091D01*
X163946622Y-79844091D01*
X163953550Y-79844835D01*
X164006233Y-79850500D01*
X165801978Y-79850499D01*
X165861589Y-79844091D01*
X165996437Y-79793796D01*
X166111652Y-79707546D01*
X166197902Y-79592331D01*
X166246916Y-79460916D01*
X166288787Y-79404984D01*
X166354251Y-79380566D01*
X166422524Y-79395417D01*
X166450779Y-79416569D01*
X166572705Y-79538495D01*
X166669490Y-79606264D01*
X166766271Y-79674032D01*
X166766273Y-79674033D01*
X166766276Y-79674035D01*
X166980443Y-79773903D01*
X167208698Y-79835063D01*
X167385140Y-79850500D01*
X167444105Y-79855659D01*
X167444106Y-79855659D01*
X167444107Y-79855659D01*
X167503072Y-79850500D01*
X167679514Y-79835063D01*
X167907769Y-79773903D01*
X168121936Y-79674035D01*
X168315507Y-79538495D01*
X168482601Y-79371401D01*
X168612530Y-79185842D01*
X168667108Y-79142217D01*
X168736606Y-79135023D01*
X168798961Y-79166546D01*
X168815681Y-79185842D01*
X168945606Y-79371395D01*
X168945611Y-79371401D01*
X169112705Y-79538495D01*
X169209490Y-79606264D01*
X169306271Y-79674032D01*
X169306273Y-79674033D01*
X169306276Y-79674035D01*
X169520443Y-79773903D01*
X169748698Y-79835063D01*
X169925140Y-79850500D01*
X169984105Y-79855659D01*
X169984106Y-79855659D01*
X169984107Y-79855659D01*
X170043072Y-79850500D01*
X170219514Y-79835063D01*
X170447769Y-79773903D01*
X170661936Y-79674035D01*
X170855507Y-79538495D01*
X171022601Y-79371401D01*
X171152530Y-79185842D01*
X171207108Y-79142217D01*
X171276606Y-79135023D01*
X171338961Y-79166546D01*
X171355681Y-79185842D01*
X171485606Y-79371395D01*
X171485611Y-79371401D01*
X171652705Y-79538495D01*
X171749490Y-79606264D01*
X171846271Y-79674032D01*
X171846273Y-79674033D01*
X171846276Y-79674035D01*
X172060443Y-79773903D01*
X172288698Y-79835063D01*
X172465140Y-79850500D01*
X172524105Y-79855659D01*
X172524106Y-79855659D01*
X172524107Y-79855659D01*
X172583072Y-79850500D01*
X172759514Y-79835063D01*
X172987769Y-79773903D01*
X173201936Y-79674035D01*
X173395507Y-79538495D01*
X173562601Y-79371401D01*
X173692530Y-79185842D01*
X173747108Y-79142217D01*
X173816606Y-79135023D01*
X173878961Y-79166546D01*
X173895681Y-79185842D01*
X174025606Y-79371395D01*
X174025611Y-79371401D01*
X174192705Y-79538495D01*
X174289490Y-79606264D01*
X174386271Y-79674032D01*
X174386273Y-79674033D01*
X174386276Y-79674035D01*
X174600443Y-79773903D01*
X174828698Y-79835063D01*
X175005140Y-79850500D01*
X175064105Y-79855659D01*
X175064106Y-79855659D01*
X175064107Y-79855659D01*
X175123072Y-79850500D01*
X175299514Y-79835063D01*
X175527769Y-79773903D01*
X175741936Y-79674035D01*
X175935507Y-79538495D01*
X176102601Y-79371401D01*
X176232530Y-79185842D01*
X176287108Y-79142217D01*
X176356606Y-79135023D01*
X176418961Y-79166546D01*
X176435681Y-79185842D01*
X176565606Y-79371395D01*
X176565611Y-79371401D01*
X176732705Y-79538495D01*
X176829490Y-79606264D01*
X176926271Y-79674032D01*
X176926273Y-79674033D01*
X176926276Y-79674035D01*
X177140443Y-79773903D01*
X177368698Y-79835063D01*
X177545140Y-79850500D01*
X177604105Y-79855659D01*
X177604106Y-79855659D01*
X177604107Y-79855659D01*
X177663072Y-79850500D01*
X177839514Y-79835063D01*
X178067769Y-79773903D01*
X178281936Y-79674035D01*
X178475507Y-79538495D01*
X178642601Y-79371401D01*
X178778141Y-79177830D01*
X178878009Y-78963663D01*
X178939169Y-78735408D01*
X178959765Y-78500000D01*
X178939169Y-78264592D01*
X178878009Y-78036337D01*
X178778141Y-77822171D01*
X178772531Y-77814158D01*
X178642600Y-77628597D01*
X178475508Y-77461506D01*
X178475501Y-77461501D01*
X178281940Y-77325967D01*
X178281936Y-77325965D01*
X178266663Y-77318843D01*
X178067769Y-77226097D01*
X178067765Y-77226096D01*
X178067761Y-77226094D01*
X177839519Y-77164938D01*
X177839509Y-77164936D01*
X177604107Y-77144341D01*
X177604105Y-77144341D01*
X177368702Y-77164936D01*
X177368692Y-77164938D01*
X177140450Y-77226094D01*
X177140441Y-77226098D01*
X176926277Y-77325964D01*
X176926275Y-77325965D01*
X176732703Y-77461505D01*
X176565611Y-77628597D01*
X176435681Y-77814158D01*
X176381104Y-77857783D01*
X176311606Y-77864977D01*
X176249251Y-77833454D01*
X176232531Y-77814158D01*
X176102600Y-77628597D01*
X175935508Y-77461506D01*
X175935501Y-77461501D01*
X175741940Y-77325967D01*
X175741936Y-77325965D01*
X175726663Y-77318843D01*
X175527769Y-77226097D01*
X175527765Y-77226096D01*
X175527761Y-77226094D01*
X175299519Y-77164938D01*
X175299509Y-77164936D01*
X175064107Y-77144341D01*
X175064105Y-77144341D01*
X174828702Y-77164936D01*
X174828692Y-77164938D01*
X174600450Y-77226094D01*
X174600441Y-77226098D01*
X174386277Y-77325964D01*
X174386275Y-77325965D01*
X174192703Y-77461505D01*
X174025611Y-77628597D01*
X173895681Y-77814158D01*
X173841104Y-77857783D01*
X173771606Y-77864977D01*
X173709251Y-77833454D01*
X173692531Y-77814158D01*
X173562600Y-77628597D01*
X173395508Y-77461506D01*
X173395501Y-77461501D01*
X173201940Y-77325967D01*
X173201936Y-77325965D01*
X173186663Y-77318843D01*
X172987769Y-77226097D01*
X172987765Y-77226096D01*
X172987761Y-77226094D01*
X172759519Y-77164938D01*
X172759509Y-77164936D01*
X172524107Y-77144341D01*
X172524105Y-77144341D01*
X172288702Y-77164936D01*
X172288692Y-77164938D01*
X172060450Y-77226094D01*
X172060441Y-77226098D01*
X171846277Y-77325964D01*
X171846275Y-77325965D01*
X171652703Y-77461505D01*
X171485611Y-77628597D01*
X171355681Y-77814158D01*
X171301104Y-77857783D01*
X171231606Y-77864977D01*
X171169251Y-77833454D01*
X171152531Y-77814158D01*
X171022600Y-77628597D01*
X170855508Y-77461506D01*
X170855501Y-77461501D01*
X170661940Y-77325967D01*
X170661936Y-77325965D01*
X170646663Y-77318843D01*
X170447769Y-77226097D01*
X170447765Y-77226096D01*
X170447761Y-77226094D01*
X170219519Y-77164938D01*
X170219509Y-77164936D01*
X169984107Y-77144341D01*
X169984105Y-77144341D01*
X169748702Y-77164936D01*
X169748692Y-77164938D01*
X169520450Y-77226094D01*
X169520441Y-77226098D01*
X169306277Y-77325964D01*
X169306275Y-77325965D01*
X169112703Y-77461505D01*
X168945611Y-77628597D01*
X168815681Y-77814158D01*
X168761104Y-77857783D01*
X168691606Y-77864977D01*
X168629251Y-77833454D01*
X168612531Y-77814158D01*
X168482600Y-77628597D01*
X168315508Y-77461506D01*
X168315501Y-77461501D01*
X168121940Y-77325967D01*
X168121936Y-77325965D01*
X168106663Y-77318843D01*
X167907769Y-77226097D01*
X167907765Y-77226096D01*
X167907761Y-77226094D01*
X167679519Y-77164938D01*
X167679509Y-77164936D01*
X167444107Y-77144341D01*
X167444105Y-77144341D01*
X167208702Y-77164936D01*
X167208692Y-77164938D01*
X166980450Y-77226094D01*
X166980441Y-77226098D01*
X166766277Y-77325964D01*
X166766275Y-77325965D01*
X166572706Y-77461503D01*
X166450779Y-77583430D01*
X166389456Y-77616914D01*
X166319764Y-77611930D01*
X166263831Y-77570058D01*
X166246916Y-77539081D01*
X166197903Y-77407671D01*
X166197899Y-77407664D01*
X166111653Y-77292455D01*
X166111650Y-77292452D01*
X165996441Y-77206206D01*
X165996434Y-77206202D01*
X165861588Y-77155908D01*
X165861589Y-77155908D01*
X165801989Y-77149501D01*
X165801987Y-77149500D01*
X165801979Y-77149500D01*
X165801970Y-77149500D01*
X164006235Y-77149500D01*
X164006229Y-77149501D01*
X163946622Y-77155908D01*
X163811777Y-77206202D01*
X163811770Y-77206206D01*
X163696561Y-77292452D01*
X163696558Y-77292455D01*
X163610312Y-77407664D01*
X163610308Y-77407671D01*
X163560014Y-77542517D01*
X163553607Y-77602116D01*
X163553606Y-77602135D01*
X163553606Y-79397870D01*
X161005500Y-79397870D01*
X161005500Y-78205330D01*
X161004880Y-78192843D01*
X161004257Y-78180294D01*
X161000585Y-78143388D01*
X160993159Y-78093837D01*
X160945023Y-77958247D01*
X160944378Y-77957020D01*
X160912520Y-77896409D01*
X160912514Y-77896399D01*
X160889761Y-77864977D01*
X160828131Y-77779866D01*
X160828129Y-77779865D01*
X160828129Y-77779864D01*
X160776613Y-77740008D01*
X160714332Y-77691825D01*
X160655263Y-77658343D01*
X160653884Y-77657502D01*
X160653547Y-77657370D01*
X160519553Y-77604956D01*
X160519550Y-77604955D01*
X160519548Y-77604955D01*
X160376217Y-77592415D01*
X160308176Y-77596198D01*
X160307120Y-77596227D01*
X160306453Y-77596293D01*
X160222362Y-77613194D01*
X160152758Y-77607105D01*
X160097496Y-77564351D01*
X160090149Y-77551856D01*
X160089810Y-77552053D01*
X160087101Y-77547361D01*
X160083709Y-77542517D01*
X160010708Y-77438259D01*
X159961599Y-77368124D01*
X159885927Y-77292452D01*
X159806877Y-77213402D01*
X159627639Y-77087898D01*
X159627640Y-77087898D01*
X159627638Y-77087897D01*
X159528484Y-77041661D01*
X159429330Y-76995425D01*
X159429326Y-76995424D01*
X159429322Y-76995422D01*
X159217977Y-76938793D01*
X159000002Y-76919723D01*
X158999998Y-76919723D01*
X158854681Y-76932436D01*
X158782023Y-76938793D01*
X158782020Y-76938793D01*
X158570677Y-76995422D01*
X158570668Y-76995426D01*
X158372361Y-77087898D01*
X158372357Y-77087900D01*
X158193124Y-77213400D01*
X158087680Y-77318844D01*
X158026357Y-77352328D01*
X157956665Y-77347344D01*
X157912318Y-77318843D01*
X157806881Y-77213406D01*
X157806877Y-77213402D01*
X157627639Y-77087898D01*
X157627640Y-77087898D01*
X157627638Y-77087897D01*
X157528484Y-77041661D01*
X157429330Y-76995425D01*
X157429326Y-76995424D01*
X157429322Y-76995422D01*
X157217977Y-76938793D01*
X157000002Y-76919723D01*
X156999998Y-76919723D01*
X156854681Y-76932436D01*
X156782023Y-76938793D01*
X156782020Y-76938793D01*
X156570677Y-76995422D01*
X156570668Y-76995426D01*
X156372361Y-77087898D01*
X156372357Y-77087900D01*
X156193121Y-77213402D01*
X156038402Y-77368121D01*
X155912900Y-77547357D01*
X155912898Y-77547361D01*
X155820426Y-77745668D01*
X155820422Y-77745677D01*
X155763794Y-77957017D01*
X155763792Y-77957027D01*
X155757856Y-78024871D01*
X155756879Y-78031675D01*
X155756172Y-78035191D01*
X155756171Y-78035203D01*
X155756171Y-78035204D01*
X155754806Y-78059738D01*
X155747487Y-78143404D01*
X155744723Y-78174998D01*
X155744723Y-78175007D01*
X155745338Y-78182040D01*
X155745338Y-78203651D01*
X155737428Y-78294060D01*
X155733675Y-78315345D01*
X155705555Y-78420292D01*
X155698162Y-78440604D01*
X155652236Y-78539092D01*
X155641429Y-78557810D01*
X155579101Y-78646824D01*
X155565207Y-78663382D01*
X155488382Y-78740207D01*
X155471824Y-78754101D01*
X155382810Y-78816429D01*
X155364092Y-78827236D01*
X155265604Y-78873162D01*
X155245292Y-78880555D01*
X155140339Y-78908677D01*
X155119054Y-78912430D01*
X155010815Y-78921900D01*
X154989199Y-78921900D01*
X154880938Y-78912428D01*
X154859653Y-78908675D01*
X154754706Y-78880555D01*
X154734394Y-78873162D01*
X154635906Y-78827236D01*
X154617188Y-78816429D01*
X154528179Y-78754105D01*
X154511621Y-78740211D01*
X154445130Y-78673720D01*
X154445124Y-78673715D01*
X154445121Y-78673712D01*
X154360984Y-78605909D01*
X154360982Y-78605907D01*
X154316641Y-78577410D01*
X154316638Y-78577408D01*
X154292592Y-78565371D01*
X154241456Y-78517759D01*
X154224178Y-78450059D01*
X154228325Y-78422393D01*
X154236205Y-78392983D01*
X154236207Y-78392977D01*
X154254814Y-78180294D01*
X154255277Y-78175002D01*
X154255277Y-78174997D01*
X154245193Y-78059737D01*
X154236207Y-77957023D01*
X154192056Y-77792249D01*
X154179577Y-77745677D01*
X154179576Y-77745676D01*
X154179575Y-77745670D01*
X154087102Y-77547362D01*
X154087100Y-77547359D01*
X154087099Y-77547357D01*
X153961599Y-77368124D01*
X153885927Y-77292452D01*
X153806877Y-77213402D01*
X153627639Y-77087898D01*
X153627640Y-77087898D01*
X153627638Y-77087897D01*
X153528484Y-77041661D01*
X153429330Y-76995425D01*
X153429326Y-76995424D01*
X153429322Y-76995422D01*
X153217977Y-76938793D01*
X153000002Y-76919723D01*
X152999998Y-76919723D01*
X152854681Y-76932436D01*
X152782023Y-76938793D01*
X152782020Y-76938793D01*
X152570677Y-76995422D01*
X152570668Y-76995426D01*
X152372361Y-77087898D01*
X152372357Y-77087900D01*
X152193124Y-77213400D01*
X152087680Y-77318844D01*
X152026357Y-77352328D01*
X151956665Y-77347344D01*
X151912318Y-77318843D01*
X151806881Y-77213406D01*
X151806877Y-77213402D01*
X151627639Y-77087898D01*
X151627640Y-77087898D01*
X151627638Y-77087897D01*
X151528484Y-77041661D01*
X151429330Y-76995425D01*
X151429326Y-76995424D01*
X151429322Y-76995422D01*
X151217977Y-76938793D01*
X151000002Y-76919723D01*
X150999998Y-76919723D01*
X150854681Y-76932436D01*
X150782023Y-76938793D01*
X150782020Y-76938793D01*
X150570677Y-76995422D01*
X150570668Y-76995426D01*
X150372361Y-77087898D01*
X150372357Y-77087900D01*
X150193124Y-77213400D01*
X150087680Y-77318844D01*
X150026357Y-77352328D01*
X149956665Y-77347344D01*
X149912318Y-77318843D01*
X149806881Y-77213406D01*
X149806877Y-77213402D01*
X149627639Y-77087898D01*
X149627640Y-77087898D01*
X149627638Y-77087897D01*
X149528484Y-77041661D01*
X149429330Y-76995425D01*
X149429326Y-76995424D01*
X149429322Y-76995422D01*
X149217977Y-76938793D01*
X149000002Y-76919723D01*
X148999998Y-76919723D01*
X148854681Y-76932436D01*
X148782023Y-76938793D01*
X148782020Y-76938793D01*
X148570677Y-76995422D01*
X148570668Y-76995426D01*
X148372361Y-77087898D01*
X148372357Y-77087900D01*
X148193121Y-77213402D01*
X148038405Y-77368118D01*
X147957921Y-77483062D01*
X147903344Y-77526686D01*
X147833845Y-77533879D01*
X147821410Y-77530915D01*
X147767136Y-77514978D01*
X147767130Y-77514976D01*
X147681677Y-77502690D01*
X147624711Y-77494500D01*
X146876016Y-77494500D01*
X146847889Y-77497638D01*
X146764597Y-77506933D01*
X146764585Y-77506935D01*
X146711263Y-77518985D01*
X146711245Y-77518991D01*
X146605316Y-77555676D01*
X146605307Y-77555680D01*
X146485546Y-77635404D01*
X146485530Y-77635417D01*
X146433486Y-77682004D01*
X146433477Y-77682013D01*
X146341027Y-77792251D01*
X146283378Y-77924068D01*
X146265210Y-77989847D01*
X146264908Y-77990837D01*
X146264774Y-77991426D01*
X146246598Y-78134139D01*
X146246598Y-78134149D01*
X146246598Y-78134151D01*
X146348723Y-84465851D01*
X146389596Y-86999998D01*
X146389728Y-87008152D01*
X146434604Y-89790506D01*
X146434736Y-89798660D01*
X146484248Y-92868499D01*
X146465647Y-92935848D01*
X146413588Y-92982448D01*
X146360264Y-92994499D01*
X132205330Y-92994500D01*
X132205331Y-92994500D01*
X132199488Y-92994790D01*
X132180295Y-92995743D01*
X132172764Y-92996492D01*
X132143405Y-92999413D01*
X132143389Y-92999415D01*
X132139499Y-92999998D01*
X132093838Y-93006841D01*
X131958246Y-93054977D01*
X131958240Y-93054980D01*
X131896410Y-93087479D01*
X131896400Y-93087485D01*
X131779865Y-93171870D01*
X131691825Y-93285669D01*
X131691822Y-93285673D01*
X131658345Y-93344735D01*
X131657504Y-93346113D01*
X131604957Y-93480448D01*
X131604956Y-93480451D01*
X131592416Y-93623780D01*
X131596199Y-93691824D01*
X131596228Y-93692879D01*
X131596294Y-93693544D01*
X131613195Y-93777635D01*
X131607106Y-93847239D01*
X131564352Y-93902501D01*
X131551857Y-93909852D01*
X131552052Y-93910190D01*
X131547360Y-93912898D01*
X131368121Y-94038402D01*
X131213402Y-94193121D01*
X131087900Y-94372357D01*
X131087898Y-94372361D01*
X130995426Y-94570668D01*
X130995422Y-94570677D01*
X130938793Y-94782020D01*
X130938793Y-94782024D01*
X130919723Y-94999997D01*
X130919723Y-95000002D01*
X130938793Y-95217975D01*
X130938793Y-95217979D01*
X130995422Y-95429322D01*
X130995424Y-95429326D01*
X130995425Y-95429330D01*
X131041661Y-95528484D01*
X131087897Y-95627638D01*
X131087898Y-95627639D01*
X131213402Y-95806877D01*
X131213405Y-95806880D01*
X131213406Y-95806881D01*
X131318843Y-95912318D01*
X131352328Y-95973641D01*
X131347344Y-96043333D01*
X131318844Y-96087680D01*
X131213400Y-96193124D01*
X131087900Y-96372357D01*
X131087898Y-96372361D01*
X130995426Y-96570668D01*
X130995422Y-96570677D01*
X130938793Y-96782020D01*
X130938793Y-96782024D01*
X130919723Y-96999997D01*
X130919723Y-97000002D01*
X130938793Y-97217975D01*
X130938793Y-97217979D01*
X130995422Y-97429322D01*
X130995424Y-97429326D01*
X130995425Y-97429330D01*
X131041661Y-97528484D01*
X131087897Y-97627638D01*
X131087898Y-97627639D01*
X131213402Y-97806877D01*
X131368123Y-97961598D01*
X131547361Y-98087102D01*
X131745670Y-98179575D01*
X131957023Y-98236207D01*
X132024877Y-98242142D01*
X132031692Y-98243122D01*
X132035204Y-98243829D01*
X132059728Y-98245192D01*
X132098151Y-98248553D01*
X132174998Y-98255277D01*
X132175000Y-98255277D01*
X132175001Y-98255277D01*
X132176457Y-98255149D01*
X132182039Y-98254660D01*
X132203652Y-98254660D01*
X132294059Y-98262569D01*
X132315342Y-98266322D01*
X132420295Y-98294444D01*
X132440606Y-98301837D01*
X132539085Y-98347758D01*
X132557805Y-98358565D01*
X132646827Y-98420899D01*
X132663384Y-98434793D01*
X132740209Y-98511618D01*
X132754103Y-98528176D01*
X132816426Y-98617183D01*
X132827233Y-98635901D01*
X132873162Y-98734395D01*
X132880555Y-98754707D01*
X132908675Y-98859653D01*
X132912428Y-98880937D01*
X132921900Y-98989196D01*
X132921900Y-99010806D01*
X132912428Y-99119060D01*
X132908675Y-99140345D01*
X132880555Y-99245292D01*
X132873162Y-99265604D01*
X132827235Y-99364095D01*
X132816428Y-99382813D01*
X132754107Y-99471817D01*
X132740213Y-99488375D01*
X132673717Y-99554870D01*
X132673713Y-99554874D01*
X132605893Y-99639034D01*
X132577401Y-99683370D01*
X132577396Y-99683380D01*
X132565371Y-99707404D01*
X132517761Y-99758541D01*
X132450062Y-99775821D01*
X132422395Y-99771675D01*
X132392984Y-99763795D01*
X132392986Y-99763795D01*
X132392977Y-99763793D01*
X132392973Y-99763792D01*
X132392970Y-99763792D01*
X132175002Y-99744723D01*
X132174998Y-99744723D01*
X132029682Y-99757436D01*
X131957023Y-99763793D01*
X131957020Y-99763793D01*
X131745677Y-99820422D01*
X131745668Y-99820426D01*
X131547361Y-99912898D01*
X131547357Y-99912900D01*
X131368121Y-100038402D01*
X131213402Y-100193121D01*
X131087900Y-100372357D01*
X131087898Y-100372361D01*
X130995426Y-100570668D01*
X130995422Y-100570677D01*
X130938793Y-100782020D01*
X130938793Y-100782024D01*
X130919723Y-100999997D01*
X130919723Y-101000002D01*
X130938793Y-101217975D01*
X130938793Y-101217979D01*
X130995422Y-101429322D01*
X130995424Y-101429326D01*
X130995425Y-101429330D01*
X131041661Y-101528484D01*
X131087897Y-101627638D01*
X131105121Y-101652236D01*
X131213402Y-101806877D01*
X131213406Y-101806881D01*
X131318843Y-101912318D01*
X131352328Y-101973641D01*
X131347344Y-102043333D01*
X131318844Y-102087680D01*
X131213400Y-102193124D01*
X131087900Y-102372357D01*
X131087898Y-102372361D01*
X130995426Y-102570668D01*
X130995422Y-102570677D01*
X130938793Y-102782020D01*
X130938793Y-102782024D01*
X130919723Y-102999997D01*
X130919723Y-103000002D01*
X130938793Y-103217975D01*
X130938793Y-103217979D01*
X130995422Y-103429322D01*
X130995424Y-103429326D01*
X130995425Y-103429330D01*
X131041661Y-103528484D01*
X131087897Y-103627638D01*
X131087898Y-103627639D01*
X131213402Y-103806877D01*
X131213406Y-103806880D01*
X131213406Y-103806881D01*
X131318843Y-103912318D01*
X131352328Y-103973641D01*
X131347344Y-104043333D01*
X131318844Y-104087680D01*
X131213400Y-104193124D01*
X131087900Y-104372357D01*
X131087898Y-104372361D01*
X130995426Y-104570668D01*
X130995422Y-104570677D01*
X130938793Y-104782020D01*
X130938793Y-104782024D01*
X130919723Y-104999997D01*
X130919723Y-105000002D01*
X118600500Y-105000002D01*
X118600500Y-88685000D01*
X129219341Y-88685000D01*
X129239936Y-88920403D01*
X129239938Y-88920413D01*
X129301094Y-89148655D01*
X129301096Y-89148659D01*
X129301097Y-89148663D01*
X129367217Y-89290457D01*
X129400965Y-89362830D01*
X129400967Y-89362834D01*
X129431759Y-89406809D01*
X129536501Y-89556396D01*
X129536506Y-89556402D01*
X129658430Y-89678326D01*
X129691915Y-89739649D01*
X129686931Y-89809341D01*
X129645059Y-89865274D01*
X129614083Y-89882189D01*
X129482669Y-89931203D01*
X129482664Y-89931206D01*
X129367455Y-90017452D01*
X129367452Y-90017455D01*
X129281206Y-90132664D01*
X129281202Y-90132671D01*
X129230908Y-90267517D01*
X129224501Y-90327116D01*
X129224501Y-90327123D01*
X129224500Y-90327135D01*
X129224500Y-92122870D01*
X129224501Y-92122876D01*
X129230908Y-92182483D01*
X129281202Y-92317328D01*
X129281206Y-92317335D01*
X129367452Y-92432544D01*
X129367455Y-92432547D01*
X129482664Y-92518793D01*
X129482671Y-92518797D01*
X129617517Y-92569091D01*
X129617516Y-92569091D01*
X129624444Y-92569835D01*
X129677127Y-92575500D01*
X131472872Y-92575499D01*
X131532483Y-92569091D01*
X131667331Y-92518796D01*
X131782546Y-92432546D01*
X131868796Y-92317331D01*
X131919091Y-92182483D01*
X131925500Y-92122873D01*
X131925499Y-90327128D01*
X131919091Y-90267517D01*
X131868796Y-90132669D01*
X131868795Y-90132668D01*
X131868793Y-90132664D01*
X131782547Y-90017455D01*
X131782544Y-90017452D01*
X131667335Y-89931206D01*
X131667328Y-89931202D01*
X131535917Y-89882189D01*
X131479983Y-89840318D01*
X131455566Y-89774853D01*
X131470418Y-89706580D01*
X131491563Y-89678332D01*
X131613495Y-89556401D01*
X131749035Y-89362830D01*
X131848903Y-89148663D01*
X131910063Y-88920408D01*
X131930659Y-88685000D01*
X131910063Y-88449592D01*
X131848903Y-88221337D01*
X131749035Y-88007171D01*
X131725875Y-87974094D01*
X131613494Y-87813597D01*
X131446402Y-87646506D01*
X131446395Y-87646501D01*
X131252834Y-87510967D01*
X131252830Y-87510965D01*
X131252828Y-87510964D01*
X131038663Y-87411097D01*
X131038659Y-87411096D01*
X131038655Y-87411094D01*
X130810413Y-87349938D01*
X130810403Y-87349936D01*
X130575001Y-87329341D01*
X130574999Y-87329341D01*
X130339596Y-87349936D01*
X130339586Y-87349938D01*
X130111344Y-87411094D01*
X130111335Y-87411098D01*
X129897171Y-87510964D01*
X129897169Y-87510965D01*
X129703597Y-87646505D01*
X129536505Y-87813597D01*
X129400965Y-88007169D01*
X129400964Y-88007171D01*
X129301098Y-88221335D01*
X129301094Y-88221344D01*
X129239938Y-88449586D01*
X129239936Y-88449596D01*
X129219341Y-88684999D01*
X129219341Y-88685000D01*
X118600500Y-88685000D01*
X118600500Y-87228421D01*
X144178117Y-87228421D01*
X144197903Y-87416677D01*
X144197904Y-87416680D01*
X144256395Y-87596698D01*
X144256398Y-87596705D01*
X144351044Y-87760637D01*
X144375406Y-87787694D01*
X144405635Y-87850685D01*
X144397009Y-87920020D01*
X144375406Y-87953636D01*
X144356986Y-87974093D01*
X144262341Y-88138024D01*
X144262338Y-88138031D01*
X144203847Y-88318049D01*
X144203846Y-88318053D01*
X144184060Y-88506309D01*
X144203846Y-88694565D01*
X144203847Y-88694568D01*
X144262338Y-88874586D01*
X144262341Y-88874593D01*
X144356987Y-89038525D01*
X144456149Y-89148655D01*
X144483649Y-89179197D01*
X144636785Y-89290457D01*
X144636790Y-89290460D01*
X144809712Y-89367451D01*
X144809717Y-89367453D01*
X144994874Y-89406809D01*
X144994875Y-89406809D01*
X145184164Y-89406809D01*
X145184166Y-89406809D01*
X145369323Y-89367453D01*
X145542250Y-89290460D01*
X145695391Y-89179197D01*
X145822053Y-89038525D01*
X145916699Y-88874593D01*
X145975194Y-88694565D01*
X145994980Y-88506309D01*
X145975194Y-88318053D01*
X145916699Y-88138025D01*
X145822053Y-87974093D01*
X145797691Y-87947036D01*
X145767462Y-87884047D01*
X145776086Y-87814712D01*
X145797691Y-87781092D01*
X145816110Y-87760637D01*
X145910756Y-87596705D01*
X145969251Y-87416677D01*
X145989037Y-87228421D01*
X145969251Y-87040165D01*
X145910756Y-86860137D01*
X145816110Y-86696205D01*
X145689448Y-86555533D01*
X145689447Y-86555532D01*
X145536311Y-86444272D01*
X145536306Y-86444269D01*
X145363384Y-86367278D01*
X145363379Y-86367276D01*
X145217577Y-86336286D01*
X145178223Y-86327921D01*
X144988931Y-86327921D01*
X144956474Y-86334819D01*
X144803774Y-86367276D01*
X144803769Y-86367278D01*
X144630847Y-86444269D01*
X144630842Y-86444272D01*
X144477706Y-86555532D01*
X144351043Y-86696206D01*
X144256398Y-86860136D01*
X144256395Y-86860143D01*
X144197904Y-87040161D01*
X144197903Y-87040165D01*
X144178117Y-87228421D01*
X118600500Y-87228421D01*
X118600500Y-84750000D01*
X125844540Y-84750000D01*
X125864326Y-84938256D01*
X125864327Y-84938259D01*
X125922818Y-85118277D01*
X125922821Y-85118284D01*
X126017467Y-85282216D01*
X126144128Y-85422888D01*
X126144129Y-85422888D01*
X126297265Y-85534148D01*
X126297270Y-85534151D01*
X126470192Y-85611142D01*
X126470197Y-85611144D01*
X126655354Y-85650500D01*
X126655355Y-85650500D01*
X126844644Y-85650500D01*
X126844646Y-85650500D01*
X127029803Y-85611144D01*
X127202730Y-85534151D01*
X127355871Y-85422888D01*
X127482533Y-85282216D01*
X127501133Y-85250000D01*
X128194040Y-85250000D01*
X128213826Y-85438256D01*
X128213827Y-85438259D01*
X128272318Y-85618277D01*
X128272321Y-85618284D01*
X128366967Y-85782216D01*
X128408637Y-85828495D01*
X128493629Y-85922888D01*
X128646765Y-86034148D01*
X128646770Y-86034151D01*
X128819692Y-86111142D01*
X128819697Y-86111144D01*
X129004854Y-86150500D01*
X129004855Y-86150500D01*
X129194144Y-86150500D01*
X129194146Y-86150500D01*
X129379303Y-86111144D01*
X129552230Y-86034151D01*
X129705371Y-85922888D01*
X129832033Y-85782216D01*
X129926679Y-85618284D01*
X129985174Y-85438256D01*
X130004960Y-85250000D01*
X129985174Y-85061744D01*
X129926679Y-84881716D01*
X129873727Y-84790000D01*
X137144341Y-84790000D01*
X137164936Y-85025403D01*
X137164938Y-85025413D01*
X137226094Y-85253655D01*
X137226096Y-85253659D01*
X137226097Y-85253663D01*
X137239411Y-85282214D01*
X137325965Y-85467830D01*
X137325967Y-85467834D01*
X137426313Y-85611142D01*
X137461505Y-85661401D01*
X137628599Y-85828495D01*
X137725384Y-85896264D01*
X137822165Y-85964032D01*
X137822167Y-85964033D01*
X137822170Y-85964035D01*
X138036337Y-86063903D01*
X138264592Y-86125063D01*
X138452918Y-86141539D01*
X138499999Y-86145659D01*
X138500000Y-86145659D01*
X138500001Y-86145659D01*
X138539234Y-86142226D01*
X138735408Y-86125063D01*
X138963663Y-86063903D01*
X139177830Y-85964035D01*
X139371401Y-85828495D01*
X139538495Y-85661401D01*
X139674035Y-85467830D01*
X139773903Y-85253663D01*
X139835063Y-85025408D01*
X139855659Y-84790000D01*
X139835063Y-84554592D01*
X139788626Y-84381285D01*
X139773905Y-84326344D01*
X139773904Y-84326343D01*
X139773903Y-84326337D01*
X139674035Y-84112171D01*
X139538495Y-83918599D01*
X139416567Y-83796671D01*
X139383084Y-83735351D01*
X139388068Y-83665659D01*
X139429939Y-83609725D01*
X139460915Y-83592810D01*
X139592331Y-83543796D01*
X139707546Y-83457546D01*
X139793796Y-83342331D01*
X139844091Y-83207483D01*
X139850500Y-83147873D01*
X139850499Y-81352128D01*
X139844091Y-81292517D01*
X139833685Y-81264618D01*
X139793797Y-81157671D01*
X139793793Y-81157664D01*
X139707547Y-81042455D01*
X139707544Y-81042452D01*
X139592335Y-80956206D01*
X139592328Y-80956202D01*
X139457482Y-80905908D01*
X139457483Y-80905908D01*
X139397883Y-80899501D01*
X139397881Y-80899500D01*
X139397873Y-80899500D01*
X139397864Y-80899500D01*
X137602129Y-80899500D01*
X137602123Y-80899501D01*
X137542516Y-80905908D01*
X137407671Y-80956202D01*
X137407664Y-80956206D01*
X137292455Y-81042452D01*
X137292452Y-81042455D01*
X137206206Y-81157664D01*
X137206202Y-81157671D01*
X137155908Y-81292517D01*
X137149782Y-81349500D01*
X137149501Y-81352123D01*
X137149500Y-81352135D01*
X137149500Y-83147870D01*
X137149501Y-83147876D01*
X137155908Y-83207483D01*
X137206202Y-83342328D01*
X137206206Y-83342335D01*
X137292452Y-83457544D01*
X137292455Y-83457547D01*
X137407664Y-83543793D01*
X137407671Y-83543797D01*
X137539081Y-83592810D01*
X137595015Y-83634681D01*
X137619432Y-83700145D01*
X137604580Y-83768418D01*
X137583430Y-83796673D01*
X137461503Y-83918600D01*
X137325965Y-84112169D01*
X137325964Y-84112171D01*
X137226098Y-84326335D01*
X137226094Y-84326344D01*
X137164938Y-84554586D01*
X137164936Y-84554596D01*
X137144341Y-84789999D01*
X137144341Y-84790000D01*
X129873727Y-84790000D01*
X129832033Y-84717784D01*
X129705371Y-84577112D01*
X129684219Y-84561744D01*
X129552234Y-84465851D01*
X129552229Y-84465848D01*
X129379307Y-84388857D01*
X129379302Y-84388855D01*
X129233500Y-84357865D01*
X129194146Y-84349500D01*
X129004854Y-84349500D01*
X128972397Y-84356398D01*
X128819697Y-84388855D01*
X128819692Y-84388857D01*
X128646770Y-84465848D01*
X128646765Y-84465851D01*
X128493629Y-84577111D01*
X128366966Y-84717785D01*
X128272321Y-84881715D01*
X128272318Y-84881722D01*
X128213827Y-85061740D01*
X128213826Y-85061744D01*
X128194040Y-85250000D01*
X127501133Y-85250000D01*
X127577179Y-85118284D01*
X127635674Y-84938256D01*
X127655460Y-84750000D01*
X127635674Y-84561744D01*
X127577179Y-84381716D01*
X127482533Y-84217784D01*
X127355871Y-84077112D01*
X127355870Y-84077111D01*
X127202734Y-83965851D01*
X127202729Y-83965848D01*
X127029807Y-83888857D01*
X127029802Y-83888855D01*
X126884001Y-83857865D01*
X126844646Y-83849500D01*
X126655354Y-83849500D01*
X126622897Y-83856398D01*
X126470197Y-83888855D01*
X126470192Y-83888857D01*
X126297270Y-83965848D01*
X126297265Y-83965851D01*
X126144129Y-84077111D01*
X126017466Y-84217785D01*
X125922821Y-84381715D01*
X125922818Y-84381722D01*
X125864327Y-84561740D01*
X125864326Y-84561744D01*
X125844540Y-84750000D01*
X118600500Y-84750000D01*
X118600500Y-82250000D01*
X125844540Y-82250000D01*
X125864326Y-82438256D01*
X125864327Y-82438259D01*
X125922818Y-82618277D01*
X125922821Y-82618284D01*
X126017467Y-82782216D01*
X126144128Y-82922888D01*
X126144129Y-82922888D01*
X126297265Y-83034148D01*
X126297270Y-83034151D01*
X126470192Y-83111142D01*
X126470197Y-83111144D01*
X126655354Y-83150500D01*
X126655355Y-83150500D01*
X126844644Y-83150500D01*
X126844646Y-83150500D01*
X127029803Y-83111144D01*
X127202730Y-83034151D01*
X127355871Y-82922888D01*
X127482533Y-82782216D01*
X127577179Y-82618284D01*
X127635674Y-82438256D01*
X127655460Y-82250000D01*
X127635674Y-82061744D01*
X127577179Y-81881716D01*
X127482533Y-81717784D01*
X127355871Y-81577112D01*
X127355870Y-81577111D01*
X127202734Y-81465851D01*
X127202729Y-81465848D01*
X127029807Y-81388857D01*
X127029802Y-81388855D01*
X126884000Y-81357865D01*
X126844646Y-81349500D01*
X126655354Y-81349500D01*
X126622897Y-81356398D01*
X126470197Y-81388855D01*
X126470192Y-81388857D01*
X126297270Y-81465848D01*
X126297265Y-81465851D01*
X126144129Y-81577111D01*
X126017466Y-81717785D01*
X125922821Y-81881715D01*
X125922818Y-81881722D01*
X125864327Y-82061740D01*
X125864326Y-82061744D01*
X125844540Y-82250000D01*
X118600500Y-82250000D01*
X118600500Y-81250000D01*
X134344540Y-81250000D01*
X134364326Y-81438256D01*
X134364327Y-81438259D01*
X134422818Y-81618277D01*
X134422821Y-81618284D01*
X134517467Y-81782216D01*
X134607063Y-81881722D01*
X134644129Y-81922888D01*
X134797265Y-82034148D01*
X134797270Y-82034151D01*
X134970192Y-82111142D01*
X134970197Y-82111144D01*
X135155354Y-82150500D01*
X135155355Y-82150500D01*
X135344644Y-82150500D01*
X135344646Y-82150500D01*
X135529803Y-82111144D01*
X135702730Y-82034151D01*
X135855871Y-81922888D01*
X135982533Y-81782216D01*
X136077179Y-81618284D01*
X136135674Y-81438256D01*
X136155460Y-81250000D01*
X136135674Y-81061744D01*
X136077179Y-80881716D01*
X135982533Y-80717784D01*
X135855871Y-80577112D01*
X135855870Y-80577111D01*
X135702734Y-80465851D01*
X135702729Y-80465848D01*
X135529807Y-80388857D01*
X135529802Y-80388855D01*
X135384000Y-80357865D01*
X135344646Y-80349500D01*
X135155354Y-80349500D01*
X135122897Y-80356398D01*
X134970197Y-80388855D01*
X134970192Y-80388857D01*
X134797270Y-80465848D01*
X134797265Y-80465851D01*
X134644129Y-80577111D01*
X134517466Y-80717785D01*
X134422821Y-80881715D01*
X134422818Y-80881722D01*
X134370593Y-81042455D01*
X134364326Y-81061744D01*
X134344540Y-81250000D01*
X118600500Y-81250000D01*
X118600500Y-77250000D01*
X122594540Y-77250000D01*
X122614326Y-77438256D01*
X122614327Y-77438259D01*
X122672818Y-77618277D01*
X122672821Y-77618284D01*
X122767467Y-77782216D01*
X122833306Y-77855337D01*
X122894129Y-77922888D01*
X123047265Y-78034148D01*
X123047270Y-78034151D01*
X123220192Y-78111142D01*
X123220197Y-78111144D01*
X123405354Y-78150500D01*
X123405355Y-78150500D01*
X123594644Y-78150500D01*
X123594646Y-78150500D01*
X123779803Y-78111144D01*
X123952730Y-78034151D01*
X124105871Y-77922888D01*
X124232533Y-77782216D01*
X124327179Y-77618284D01*
X124385674Y-77438256D01*
X124405460Y-77250000D01*
X137344540Y-77250000D01*
X137364326Y-77438256D01*
X137364327Y-77438259D01*
X137422818Y-77618277D01*
X137422821Y-77618284D01*
X137517467Y-77782216D01*
X137583306Y-77855337D01*
X137644129Y-77922888D01*
X137797265Y-78034148D01*
X137797270Y-78034151D01*
X137970192Y-78111142D01*
X137970197Y-78111144D01*
X138155354Y-78150500D01*
X138155355Y-78150500D01*
X138344644Y-78150500D01*
X138344646Y-78150500D01*
X138529803Y-78111144D01*
X138702730Y-78034151D01*
X138855871Y-77922888D01*
X138982533Y-77782216D01*
X139077179Y-77618284D01*
X139135674Y-77438256D01*
X139155460Y-77250000D01*
X139135674Y-77061744D01*
X139077179Y-76881716D01*
X138982533Y-76717784D01*
X138855871Y-76577112D01*
X138855870Y-76577111D01*
X138702734Y-76465851D01*
X138702729Y-76465848D01*
X138529807Y-76388857D01*
X138529802Y-76388855D01*
X138384001Y-76357865D01*
X138344646Y-76349500D01*
X138155354Y-76349500D01*
X138122897Y-76356398D01*
X137970197Y-76388855D01*
X137970192Y-76388857D01*
X137797270Y-76465848D01*
X137797265Y-76465851D01*
X137644129Y-76577111D01*
X137517466Y-76717785D01*
X137422821Y-76881715D01*
X137422818Y-76881722D01*
X137404275Y-76938793D01*
X137364326Y-77061744D01*
X137344540Y-77250000D01*
X124405460Y-77250000D01*
X124385674Y-77061744D01*
X124327179Y-76881716D01*
X124232533Y-76717784D01*
X124105871Y-76577112D01*
X124105870Y-76577111D01*
X123952734Y-76465851D01*
X123952729Y-76465848D01*
X123779807Y-76388857D01*
X123779802Y-76388855D01*
X123634001Y-76357865D01*
X123594646Y-76349500D01*
X123405354Y-76349500D01*
X123372897Y-76356398D01*
X123220197Y-76388855D01*
X123220192Y-76388857D01*
X123047270Y-76465848D01*
X123047265Y-76465851D01*
X122894129Y-76577111D01*
X122767466Y-76717785D01*
X122672821Y-76881715D01*
X122672818Y-76881722D01*
X122654275Y-76938793D01*
X122614326Y-77061744D01*
X122594540Y-77250000D01*
X118600500Y-77250000D01*
X118600500Y-72718557D01*
X122979170Y-72718557D01*
X122998956Y-72906813D01*
X122998957Y-72906816D01*
X123057448Y-73086834D01*
X123057451Y-73086841D01*
X123152097Y-73250773D01*
X123278758Y-73391445D01*
X123278759Y-73391445D01*
X123431895Y-73502705D01*
X123431900Y-73502708D01*
X123604822Y-73579699D01*
X123604827Y-73579701D01*
X123789984Y-73619057D01*
X123789985Y-73619057D01*
X123979274Y-73619057D01*
X123979276Y-73619057D01*
X124164433Y-73579701D01*
X124209193Y-73559771D01*
X124278443Y-73550486D01*
X124310065Y-73559771D01*
X124354827Y-73579701D01*
X124539984Y-73619057D01*
X124539985Y-73619057D01*
X124729274Y-73619057D01*
X124729276Y-73619057D01*
X124914433Y-73579701D01*
X124959194Y-73559771D01*
X125028441Y-73550486D01*
X125060065Y-73559772D01*
X125104822Y-73579699D01*
X125104827Y-73579701D01*
X125289984Y-73619057D01*
X125289985Y-73619057D01*
X125479274Y-73619057D01*
X125479276Y-73619057D01*
X125664433Y-73579701D01*
X125837360Y-73502708D01*
X125990501Y-73391445D01*
X126117163Y-73250773D01*
X126211809Y-73086841D01*
X126270304Y-72906813D01*
X126290090Y-72718557D01*
X126270304Y-72530301D01*
X126211809Y-72350273D01*
X126153916Y-72250000D01*
X137344540Y-72250000D01*
X137364326Y-72438256D01*
X137364327Y-72438259D01*
X137422818Y-72618277D01*
X137422821Y-72618284D01*
X137517467Y-72782216D01*
X137629655Y-72906813D01*
X137644129Y-72922888D01*
X137797265Y-73034148D01*
X137797270Y-73034151D01*
X137970192Y-73111142D01*
X137970197Y-73111144D01*
X138155354Y-73150500D01*
X138155355Y-73150500D01*
X138344644Y-73150500D01*
X138344646Y-73150500D01*
X138529803Y-73111144D01*
X138574564Y-73091214D01*
X138643811Y-73081929D01*
X138675435Y-73091215D01*
X138720192Y-73111142D01*
X138720197Y-73111144D01*
X138905354Y-73150500D01*
X138905355Y-73150500D01*
X139094644Y-73150500D01*
X139094646Y-73150500D01*
X139279803Y-73111144D01*
X139324563Y-73091214D01*
X139393813Y-73081929D01*
X139425435Y-73091214D01*
X139470197Y-73111144D01*
X139655354Y-73150500D01*
X139655355Y-73150500D01*
X139844644Y-73150500D01*
X139844646Y-73150500D01*
X140029803Y-73111144D01*
X140202730Y-73034151D01*
X140355871Y-72922888D01*
X140482533Y-72782216D01*
X140577179Y-72618284D01*
X140635674Y-72438256D01*
X140655460Y-72250000D01*
X140635674Y-72061744D01*
X140577179Y-71881716D01*
X140482533Y-71717784D01*
X140355871Y-71577112D01*
X140355870Y-71577111D01*
X140202734Y-71465851D01*
X140202729Y-71465848D01*
X140029807Y-71388857D01*
X140029802Y-71388855D01*
X139884001Y-71357865D01*
X139844646Y-71349500D01*
X139655354Y-71349500D01*
X139615999Y-71357865D01*
X139470198Y-71388855D01*
X139470193Y-71388857D01*
X139425434Y-71408785D01*
X139356184Y-71418069D01*
X139324566Y-71408785D01*
X139279806Y-71388857D01*
X139279801Y-71388855D01*
X139144624Y-71360123D01*
X139094646Y-71349500D01*
X138905354Y-71349500D01*
X138865999Y-71357865D01*
X138720198Y-71388855D01*
X138720193Y-71388857D01*
X138675434Y-71408785D01*
X138606184Y-71418069D01*
X138574566Y-71408785D01*
X138529806Y-71388857D01*
X138529801Y-71388855D01*
X138394624Y-71360123D01*
X138344646Y-71349500D01*
X138155354Y-71349500D01*
X138122897Y-71356398D01*
X137970197Y-71388855D01*
X137970192Y-71388857D01*
X137797270Y-71465848D01*
X137797265Y-71465851D01*
X137644129Y-71577111D01*
X137517466Y-71717785D01*
X137422821Y-71881715D01*
X137422818Y-71881722D01*
X137369549Y-72045668D01*
X137364326Y-72061744D01*
X137344540Y-72250000D01*
X126153916Y-72250000D01*
X126117163Y-72186341D01*
X125990501Y-72045669D01*
X125990500Y-72045668D01*
X125837364Y-71934408D01*
X125837359Y-71934405D01*
X125664437Y-71857414D01*
X125664432Y-71857412D01*
X125518631Y-71826422D01*
X125479276Y-71818057D01*
X125289984Y-71818057D01*
X125250628Y-71826422D01*
X125104828Y-71857412D01*
X125104823Y-71857414D01*
X125060064Y-71877342D01*
X124990814Y-71886626D01*
X124959196Y-71877342D01*
X124914436Y-71857414D01*
X124914431Y-71857412D01*
X124779254Y-71828680D01*
X124729276Y-71818057D01*
X124539984Y-71818057D01*
X124500628Y-71826422D01*
X124354828Y-71857412D01*
X124354823Y-71857414D01*
X124310064Y-71877342D01*
X124240814Y-71886626D01*
X124209196Y-71877342D01*
X124164436Y-71857414D01*
X124164431Y-71857412D01*
X124029254Y-71828680D01*
X123979276Y-71818057D01*
X123789984Y-71818057D01*
X123757527Y-71824955D01*
X123604827Y-71857412D01*
X123604822Y-71857414D01*
X123431900Y-71934405D01*
X123431895Y-71934408D01*
X123278759Y-72045668D01*
X123152096Y-72186342D01*
X123057451Y-72350272D01*
X123057448Y-72350279D01*
X123028863Y-72438256D01*
X122998956Y-72530301D01*
X122979170Y-72718557D01*
X118600500Y-72718557D01*
X118600500Y-67001876D01*
X118600613Y-66998132D01*
X118613673Y-66782216D01*
X118617768Y-66714511D01*
X118618672Y-66707079D01*
X118656620Y-66500000D01*
X129594540Y-66500000D01*
X129614326Y-66688256D01*
X129614327Y-66688259D01*
X129672818Y-66868277D01*
X129672821Y-66868284D01*
X129767467Y-67032216D01*
X129873971Y-67150500D01*
X129894129Y-67172888D01*
X130047265Y-67284148D01*
X130047270Y-67284151D01*
X130220192Y-67361142D01*
X130220197Y-67361144D01*
X130405354Y-67400500D01*
X130405355Y-67400500D01*
X130594644Y-67400500D01*
X130594646Y-67400500D01*
X130779803Y-67361144D01*
X130952730Y-67284151D01*
X131105871Y-67172888D01*
X131232533Y-67032216D01*
X131327179Y-66868284D01*
X131385674Y-66688256D01*
X131405460Y-66500000D01*
X131385674Y-66311744D01*
X131365612Y-66250000D01*
X143594540Y-66250000D01*
X143614326Y-66438256D01*
X143614327Y-66438259D01*
X143672818Y-66618277D01*
X143672821Y-66618284D01*
X143767467Y-66782216D01*
X143894128Y-66922887D01*
X143894129Y-66922888D01*
X144047265Y-67034148D01*
X144047270Y-67034151D01*
X144220192Y-67111142D01*
X144220197Y-67111144D01*
X144405354Y-67150500D01*
X144405355Y-67150500D01*
X144594644Y-67150500D01*
X144594646Y-67150500D01*
X144779803Y-67111144D01*
X144952730Y-67034151D01*
X145105871Y-66922888D01*
X145157851Y-66865158D01*
X145217336Y-66828510D01*
X145287193Y-66829840D01*
X145342148Y-66865158D01*
X145394128Y-66922887D01*
X145394129Y-66922888D01*
X145547265Y-67034148D01*
X145547270Y-67034151D01*
X145720192Y-67111142D01*
X145720197Y-67111144D01*
X145905354Y-67150500D01*
X145905355Y-67150500D01*
X146094644Y-67150500D01*
X146094646Y-67150500D01*
X146279803Y-67111144D01*
X146452730Y-67034151D01*
X146605871Y-66922888D01*
X146732533Y-66782216D01*
X146827179Y-66618284D01*
X146885674Y-66438256D01*
X146905460Y-66250000D01*
X146885674Y-66061744D01*
X146827179Y-65881716D01*
X146732533Y-65717784D01*
X146605871Y-65577112D01*
X146605867Y-65577109D01*
X146452734Y-65465851D01*
X146452729Y-65465848D01*
X146279807Y-65388857D01*
X146279802Y-65388855D01*
X146134001Y-65357865D01*
X146094646Y-65349500D01*
X145905354Y-65349500D01*
X145872897Y-65356398D01*
X145720197Y-65388855D01*
X145720192Y-65388857D01*
X145547270Y-65465848D01*
X145547265Y-65465851D01*
X145394132Y-65577109D01*
X145394129Y-65577111D01*
X145394129Y-65577112D01*
X145342148Y-65634841D01*
X145282663Y-65671489D01*
X145212806Y-65670158D01*
X145157851Y-65634841D01*
X145105871Y-65577112D01*
X145105867Y-65577109D01*
X144952734Y-65465851D01*
X144952729Y-65465848D01*
X144779807Y-65388857D01*
X144779802Y-65388855D01*
X144634000Y-65357865D01*
X144594646Y-65349500D01*
X144405354Y-65349500D01*
X144372897Y-65356398D01*
X144220197Y-65388855D01*
X144220192Y-65388857D01*
X144047270Y-65465848D01*
X144047265Y-65465851D01*
X143894129Y-65577111D01*
X143767466Y-65717785D01*
X143672821Y-65881715D01*
X143672818Y-65881722D01*
X143644855Y-65967785D01*
X143614326Y-66061744D01*
X143594540Y-66250000D01*
X131365612Y-66250000D01*
X131327179Y-66131716D01*
X131232533Y-65967784D01*
X131105871Y-65827112D01*
X131105870Y-65827111D01*
X130952734Y-65715851D01*
X130952729Y-65715848D01*
X130779807Y-65638857D01*
X130779802Y-65638855D01*
X130634001Y-65607865D01*
X130594646Y-65599500D01*
X130405354Y-65599500D01*
X130372897Y-65606398D01*
X130220197Y-65638855D01*
X130220192Y-65638857D01*
X130047270Y-65715848D01*
X130047265Y-65715851D01*
X129894129Y-65827111D01*
X129767466Y-65967785D01*
X129672821Y-66131715D01*
X129672818Y-66131722D01*
X129614327Y-66311740D01*
X129614326Y-66311744D01*
X129594540Y-66500000D01*
X118656620Y-66500000D01*
X118669549Y-66429451D01*
X118671339Y-66422186D01*
X118755316Y-66152694D01*
X118757968Y-66145707D01*
X118806034Y-66038906D01*
X118873810Y-65888313D01*
X118877291Y-65881683D01*
X118923495Y-65805252D01*
X119023317Y-65640126D01*
X119027550Y-65633993D01*
X119201644Y-65411777D01*
X119206588Y-65406196D01*
X119406196Y-65206588D01*
X119411777Y-65201644D01*
X119633993Y-65027550D01*
X119640126Y-65023317D01*
X119881682Y-64877291D01*
X119888313Y-64873810D01*
X120064393Y-64794564D01*
X120145707Y-64757968D01*
X120152694Y-64755316D01*
X120422186Y-64671339D01*
X120429451Y-64669549D01*
X120707079Y-64618672D01*
X120714511Y-64617768D01*
X120930513Y-64604703D01*
X120998134Y-64600613D01*
X121001878Y-64600500D01*
X121065892Y-64600500D01*
X185975948Y-64600500D01*
X186042987Y-64620185D01*
G37*
%TD.AperFunction*%
%TD*%
%TA.AperFunction,Conductor*%
%TO.N,+3.3V*%
G36*
X147691750Y-78019685D02*
G01*
X147737505Y-78072489D01*
X147748239Y-78134807D01*
X147744723Y-78174997D01*
X147744723Y-78175002D01*
X147763793Y-78392975D01*
X147763793Y-78392979D01*
X147820422Y-78604322D01*
X147820424Y-78604326D01*
X147820425Y-78604330D01*
X147866661Y-78703484D01*
X147912897Y-78802638D01*
X147912898Y-78802639D01*
X148038402Y-78981877D01*
X148193123Y-79136598D01*
X148372361Y-79262102D01*
X148570670Y-79354575D01*
X148782023Y-79411207D01*
X148964926Y-79427208D01*
X148999998Y-79430277D01*
X149000000Y-79430277D01*
X149000002Y-79430277D01*
X149028254Y-79427805D01*
X149217977Y-79411207D01*
X149429330Y-79354575D01*
X149627639Y-79262102D01*
X149806877Y-79136598D01*
X149912319Y-79031156D01*
X149973642Y-78997671D01*
X150043334Y-79002655D01*
X150087680Y-79031156D01*
X150193123Y-79136598D01*
X150372361Y-79262102D01*
X150570670Y-79354575D01*
X150782023Y-79411207D01*
X150964926Y-79427208D01*
X150999998Y-79430277D01*
X151000000Y-79430277D01*
X151000002Y-79430277D01*
X151028254Y-79427805D01*
X151217977Y-79411207D01*
X151429330Y-79354575D01*
X151627639Y-79262102D01*
X151806877Y-79136598D01*
X151912319Y-79031156D01*
X151973642Y-78997671D01*
X152043334Y-79002655D01*
X152087680Y-79031156D01*
X152193123Y-79136598D01*
X152372361Y-79262102D01*
X152570670Y-79354575D01*
X152782023Y-79411207D01*
X152964926Y-79427208D01*
X152999998Y-79430277D01*
X153000000Y-79430277D01*
X153000002Y-79430277D01*
X153028254Y-79427805D01*
X153217977Y-79411207D01*
X153429330Y-79354575D01*
X153627639Y-79262102D01*
X153806877Y-79136598D01*
X153912319Y-79031156D01*
X153973642Y-78997671D01*
X154043334Y-79002655D01*
X154087680Y-79031156D01*
X154193123Y-79136598D01*
X154372361Y-79262102D01*
X154570670Y-79354575D01*
X154782023Y-79411207D01*
X154964926Y-79427208D01*
X154999998Y-79430277D01*
X155000000Y-79430277D01*
X155000002Y-79430277D01*
X155028254Y-79427805D01*
X155217977Y-79411207D01*
X155429330Y-79354575D01*
X155627639Y-79262102D01*
X155806877Y-79136598D01*
X155961598Y-78981877D01*
X156087102Y-78802639D01*
X156179575Y-78604330D01*
X156236207Y-78392977D01*
X156255277Y-78175000D01*
X156253134Y-78150500D01*
X156251761Y-78134807D01*
X156265528Y-78066307D01*
X156314143Y-78016124D01*
X156375289Y-78000000D01*
X157624711Y-78000000D01*
X157691750Y-78019685D01*
X157737505Y-78072489D01*
X157748239Y-78134807D01*
X157744723Y-78174997D01*
X157744723Y-78175002D01*
X157763793Y-78392975D01*
X157763793Y-78392979D01*
X157820422Y-78604322D01*
X157820424Y-78604326D01*
X157820425Y-78604330D01*
X157866661Y-78703484D01*
X157912897Y-78802638D01*
X157912898Y-78802639D01*
X158038402Y-78981877D01*
X158193123Y-79136598D01*
X158372361Y-79262102D01*
X158570670Y-79354575D01*
X158782023Y-79411207D01*
X158964926Y-79427208D01*
X158999998Y-79430277D01*
X159000000Y-79430277D01*
X159000002Y-79430277D01*
X159028254Y-79427805D01*
X159217977Y-79411207D01*
X159429330Y-79354575D01*
X159627639Y-79262102D01*
X159806877Y-79136598D01*
X159961598Y-78981877D01*
X160087102Y-78802639D01*
X160179575Y-78604330D01*
X160236207Y-78392977D01*
X160252471Y-78207063D01*
X160277924Y-78141994D01*
X160334515Y-78101015D01*
X160404277Y-78097137D01*
X160465061Y-78131591D01*
X160497569Y-78193438D01*
X160500000Y-78217870D01*
X160500000Y-81500000D01*
X176124033Y-81251999D01*
X176191375Y-81270617D01*
X176237963Y-81322688D01*
X176250000Y-81375983D01*
X176250000Y-93657664D01*
X176230315Y-93724703D01*
X176177511Y-93770458D01*
X176108353Y-93780402D01*
X176093908Y-93777439D01*
X176042982Y-93763794D01*
X176042979Y-93763793D01*
X176042977Y-93763793D01*
X175933988Y-93754258D01*
X175825002Y-93744723D01*
X175824998Y-93744723D01*
X175679682Y-93757436D01*
X175607023Y-93763793D01*
X175607020Y-93763793D01*
X175395677Y-93820422D01*
X175395668Y-93820426D01*
X175197361Y-93912898D01*
X175197357Y-93912900D01*
X175018121Y-94038402D01*
X174863402Y-94193121D01*
X174737900Y-94372357D01*
X174737898Y-94372361D01*
X174645426Y-94570668D01*
X174645422Y-94570677D01*
X174588793Y-94782020D01*
X174588793Y-94782024D01*
X174569723Y-94999997D01*
X174569723Y-95000002D01*
X174588793Y-95217975D01*
X174588793Y-95217979D01*
X174645422Y-95429322D01*
X174645424Y-95429326D01*
X174645425Y-95429330D01*
X174678379Y-95500000D01*
X174737897Y-95627638D01*
X174737898Y-95627639D01*
X174863402Y-95806877D01*
X174863406Y-95806881D01*
X174968843Y-95912318D01*
X175002328Y-95973641D01*
X174997344Y-96043333D01*
X174968844Y-96087680D01*
X174863400Y-96193124D01*
X174737900Y-96372357D01*
X174737898Y-96372361D01*
X174645426Y-96570668D01*
X174645422Y-96570677D01*
X174588793Y-96782020D01*
X174588793Y-96782023D01*
X174569723Y-97000000D01*
X174588650Y-97216348D01*
X174588793Y-97217975D01*
X174588793Y-97217979D01*
X174645422Y-97429322D01*
X174645424Y-97429326D01*
X174645425Y-97429330D01*
X174663588Y-97468281D01*
X174737897Y-97627638D01*
X174741105Y-97632219D01*
X174863402Y-97806877D01*
X174863405Y-97806880D01*
X174863406Y-97806881D01*
X174968843Y-97912318D01*
X175002328Y-97973641D01*
X174997344Y-98043333D01*
X174968844Y-98087680D01*
X174863400Y-98193124D01*
X174737900Y-98372357D01*
X174737898Y-98372361D01*
X174645426Y-98570668D01*
X174645422Y-98570677D01*
X174588793Y-98782020D01*
X174588793Y-98782024D01*
X174569723Y-98999997D01*
X174569723Y-99000002D01*
X174588793Y-99217975D01*
X174588793Y-99217979D01*
X174645422Y-99429322D01*
X174645424Y-99429326D01*
X174645425Y-99429330D01*
X174691661Y-99528484D01*
X174737897Y-99627638D01*
X174737898Y-99627639D01*
X174863402Y-99806877D01*
X174863406Y-99806881D01*
X174968843Y-99912318D01*
X175002328Y-99973641D01*
X174997344Y-100043333D01*
X174968844Y-100087680D01*
X174863400Y-100193124D01*
X174737900Y-100372357D01*
X174737898Y-100372361D01*
X174645426Y-100570668D01*
X174645422Y-100570677D01*
X174588793Y-100782020D01*
X174588793Y-100782024D01*
X174569723Y-100999997D01*
X174569723Y-101000002D01*
X174588793Y-101217975D01*
X174588793Y-101217979D01*
X174645422Y-101429322D01*
X174645424Y-101429326D01*
X174645425Y-101429330D01*
X174691661Y-101528484D01*
X174737897Y-101627638D01*
X174745752Y-101638856D01*
X174863402Y-101806877D01*
X175018123Y-101961598D01*
X175197361Y-102087102D01*
X175395670Y-102179575D01*
X175607023Y-102236207D01*
X175789926Y-102252208D01*
X175824998Y-102255277D01*
X175825000Y-102255277D01*
X175825002Y-102255277D01*
X175879494Y-102250509D01*
X176042977Y-102236207D01*
X176093907Y-102222560D01*
X176163756Y-102224223D01*
X176221619Y-102263385D01*
X176249123Y-102327613D01*
X176250000Y-102342335D01*
X176250000Y-103657664D01*
X176230315Y-103724703D01*
X176177511Y-103770458D01*
X176108353Y-103780402D01*
X176093908Y-103777439D01*
X176042982Y-103763794D01*
X176042979Y-103763793D01*
X176042977Y-103763793D01*
X175933988Y-103754258D01*
X175825002Y-103744723D01*
X175824998Y-103744723D01*
X175679681Y-103757436D01*
X175607023Y-103763793D01*
X175607020Y-103763793D01*
X175395677Y-103820422D01*
X175395668Y-103820426D01*
X175197361Y-103912898D01*
X175197357Y-103912900D01*
X175018121Y-104038402D01*
X174863402Y-104193121D01*
X174737900Y-104372357D01*
X174737898Y-104372361D01*
X174645426Y-104570668D01*
X174645422Y-104570677D01*
X174588793Y-104782020D01*
X174588793Y-104782024D01*
X174569723Y-104999997D01*
X174569723Y-105000002D01*
X174588793Y-105217975D01*
X174588793Y-105217979D01*
X174645422Y-105429322D01*
X174645424Y-105429326D01*
X174645425Y-105429330D01*
X174691661Y-105528484D01*
X174737897Y-105627638D01*
X174737898Y-105627639D01*
X174863402Y-105806877D01*
X175018123Y-105961598D01*
X175197361Y-106087102D01*
X175395670Y-106179575D01*
X175607023Y-106236207D01*
X175789926Y-106252208D01*
X175824998Y-106255277D01*
X175825000Y-106255277D01*
X175825002Y-106255277D01*
X175879494Y-106250509D01*
X176042977Y-106236207D01*
X176093907Y-106222560D01*
X176163756Y-106224223D01*
X176221619Y-106263385D01*
X176249123Y-106327613D01*
X176250000Y-106342335D01*
X176250000Y-107127893D01*
X176230315Y-107194932D01*
X176177511Y-107240687D01*
X176127907Y-107251878D01*
X160000000Y-107499999D01*
X160000000Y-120760427D01*
X159980315Y-120827466D01*
X159927511Y-120873221D01*
X159858353Y-120883165D01*
X159804879Y-120862003D01*
X159627639Y-120737898D01*
X159627640Y-120737898D01*
X159627638Y-120737897D01*
X159528484Y-120691661D01*
X159429330Y-120645425D01*
X159429326Y-120645424D01*
X159429322Y-120645422D01*
X159217977Y-120588793D01*
X159000002Y-120569723D01*
X158999998Y-120569723D01*
X158854682Y-120582436D01*
X158782023Y-120588793D01*
X158782020Y-120588793D01*
X158570677Y-120645422D01*
X158570668Y-120645426D01*
X158372361Y-120737898D01*
X158372357Y-120737900D01*
X158193124Y-120863400D01*
X158087680Y-120968844D01*
X158026357Y-121002328D01*
X157956665Y-120997344D01*
X157912318Y-120968843D01*
X157806881Y-120863406D01*
X157806877Y-120863402D01*
X157627639Y-120737898D01*
X157627640Y-120737898D01*
X157627638Y-120737897D01*
X157528484Y-120691661D01*
X157429330Y-120645425D01*
X157429326Y-120645424D01*
X157429322Y-120645422D01*
X157217977Y-120588793D01*
X157000002Y-120569723D01*
X156999998Y-120569723D01*
X156854681Y-120582436D01*
X156782023Y-120588793D01*
X156782020Y-120588793D01*
X156570677Y-120645422D01*
X156570668Y-120645426D01*
X156372361Y-120737898D01*
X156372357Y-120737900D01*
X156193124Y-120863400D01*
X156087680Y-120968844D01*
X156026357Y-121002328D01*
X155956665Y-120997344D01*
X155912318Y-120968843D01*
X155806881Y-120863406D01*
X155806877Y-120863402D01*
X155627639Y-120737898D01*
X155627640Y-120737898D01*
X155627638Y-120737897D01*
X155528484Y-120691661D01*
X155429330Y-120645425D01*
X155429326Y-120645424D01*
X155429322Y-120645422D01*
X155217977Y-120588793D01*
X155000002Y-120569723D01*
X154999998Y-120569723D01*
X154854681Y-120582436D01*
X154782023Y-120588793D01*
X154782020Y-120588793D01*
X154570677Y-120645422D01*
X154570668Y-120645426D01*
X154372361Y-120737898D01*
X154372357Y-120737900D01*
X154193124Y-120863400D01*
X154087680Y-120968844D01*
X154026357Y-121002328D01*
X153956665Y-120997344D01*
X153912318Y-120968843D01*
X153806881Y-120863406D01*
X153806877Y-120863402D01*
X153627639Y-120737898D01*
X153627640Y-120737898D01*
X153627638Y-120737897D01*
X153528484Y-120691661D01*
X153429330Y-120645425D01*
X153429326Y-120645424D01*
X153429322Y-120645422D01*
X153217977Y-120588793D01*
X153000002Y-120569723D01*
X152999998Y-120569723D01*
X152854681Y-120582436D01*
X152782023Y-120588793D01*
X152782020Y-120588793D01*
X152570677Y-120645422D01*
X152570668Y-120645426D01*
X152372361Y-120737898D01*
X152372357Y-120737900D01*
X152193121Y-120863402D01*
X152038402Y-121018121D01*
X151912900Y-121197357D01*
X151912898Y-121197361D01*
X151820426Y-121395668D01*
X151820422Y-121395677D01*
X151763793Y-121607020D01*
X151763793Y-121607024D01*
X151751835Y-121743712D01*
X151744723Y-121825000D01*
X151763793Y-122042977D01*
X151777439Y-122093907D01*
X151775777Y-122163756D01*
X151736615Y-122221619D01*
X151672387Y-122249123D01*
X151657665Y-122250000D01*
X150342335Y-122250000D01*
X150275296Y-122230315D01*
X150229541Y-122177511D01*
X150219597Y-122108353D01*
X150222558Y-122093915D01*
X150236207Y-122042977D01*
X150255277Y-121825000D01*
X150236207Y-121607023D01*
X150179575Y-121395670D01*
X150087102Y-121197362D01*
X150087100Y-121197359D01*
X150087099Y-121197357D01*
X149961599Y-121018124D01*
X149912318Y-120968843D01*
X149806877Y-120863402D01*
X149627639Y-120737898D01*
X149627640Y-120737898D01*
X149627638Y-120737897D01*
X149528484Y-120691661D01*
X149429330Y-120645425D01*
X149429326Y-120645424D01*
X149429322Y-120645422D01*
X149217977Y-120588793D01*
X149000002Y-120569723D01*
X148999998Y-120569723D01*
X148854681Y-120582436D01*
X148782023Y-120588793D01*
X148782020Y-120588793D01*
X148570677Y-120645422D01*
X148570668Y-120645426D01*
X148372361Y-120737898D01*
X148372357Y-120737900D01*
X148193121Y-120863402D01*
X148038402Y-121018121D01*
X147912900Y-121197357D01*
X147912898Y-121197361D01*
X147820426Y-121395668D01*
X147820422Y-121395677D01*
X147763793Y-121607020D01*
X147763793Y-121607024D01*
X147751835Y-121743712D01*
X147744723Y-121825000D01*
X147763793Y-122042977D01*
X147777439Y-122093907D01*
X147775777Y-122163756D01*
X147736615Y-122221619D01*
X147672387Y-122249123D01*
X147657665Y-122250000D01*
X147122107Y-122250000D01*
X147055068Y-122230315D01*
X147009313Y-122177511D01*
X146998122Y-122127907D01*
X146876923Y-114250000D01*
X148844540Y-114250000D01*
X148864326Y-114438256D01*
X148864327Y-114438259D01*
X148922818Y-114618277D01*
X148922821Y-114618284D01*
X149017467Y-114782216D01*
X149144128Y-114922888D01*
X149144129Y-114922888D01*
X149297265Y-115034148D01*
X149297270Y-115034151D01*
X149470192Y-115111142D01*
X149470197Y-115111144D01*
X149655354Y-115150500D01*
X149655355Y-115150500D01*
X149844644Y-115150500D01*
X149844646Y-115150500D01*
X150029803Y-115111144D01*
X150202730Y-115034151D01*
X150355871Y-114922888D01*
X150482533Y-114782216D01*
X150577179Y-114618284D01*
X150635674Y-114438256D01*
X150655460Y-114250000D01*
X150635674Y-114061744D01*
X150577179Y-113881716D01*
X150482533Y-113717784D01*
X150355871Y-113577112D01*
X150355870Y-113577111D01*
X150229166Y-113485055D01*
X152449500Y-113485055D01*
X152490210Y-113650226D01*
X152569263Y-113800849D01*
X152569266Y-113800852D01*
X152682071Y-113928183D01*
X152772318Y-113990476D01*
X152822068Y-114024817D01*
X152822069Y-114024817D01*
X152822070Y-114024818D01*
X152981128Y-114085140D01*
X153057028Y-114094356D01*
X153107626Y-114100500D01*
X153107628Y-114100500D01*
X153192374Y-114100500D01*
X153234538Y-114095380D01*
X153318872Y-114085140D01*
X153477930Y-114024818D01*
X153617929Y-113928183D01*
X153730734Y-113800852D01*
X153809790Y-113650225D01*
X153850500Y-113485056D01*
X153850500Y-113314944D01*
X153809790Y-113149775D01*
X153809789Y-113149773D01*
X153730736Y-112999150D01*
X153711560Y-112977505D01*
X153617929Y-112871817D01*
X153568177Y-112837475D01*
X153477931Y-112775182D01*
X153318874Y-112714860D01*
X153318868Y-112714859D01*
X153192374Y-112699500D01*
X153192372Y-112699500D01*
X153107628Y-112699500D01*
X153107626Y-112699500D01*
X152981131Y-112714859D01*
X152981125Y-112714860D01*
X152822068Y-112775182D01*
X152682072Y-112871816D01*
X152569263Y-112999150D01*
X152490210Y-113149773D01*
X152449500Y-113314944D01*
X152449500Y-113485055D01*
X150229166Y-113485055D01*
X150202734Y-113465851D01*
X150202729Y-113465848D01*
X150029807Y-113388857D01*
X150029802Y-113388855D01*
X149884000Y-113357865D01*
X149844646Y-113349500D01*
X149655354Y-113349500D01*
X149622897Y-113356398D01*
X149470197Y-113388855D01*
X149470192Y-113388857D01*
X149297270Y-113465848D01*
X149297265Y-113465851D01*
X149144129Y-113577111D01*
X149017466Y-113717785D01*
X148922821Y-113881715D01*
X148922818Y-113881722D01*
X148876324Y-114024817D01*
X148864326Y-114061744D01*
X148844540Y-114250000D01*
X146876923Y-114250000D01*
X146819001Y-110485055D01*
X152449500Y-110485055D01*
X152490210Y-110650226D01*
X152569263Y-110800849D01*
X152569266Y-110800852D01*
X152682071Y-110928183D01*
X152772318Y-110990476D01*
X152822068Y-111024817D01*
X152822069Y-111024817D01*
X152822070Y-111024818D01*
X152981128Y-111085140D01*
X153057028Y-111094356D01*
X153107626Y-111100500D01*
X153107628Y-111100500D01*
X153192374Y-111100500D01*
X153234538Y-111095380D01*
X153318872Y-111085140D01*
X153477930Y-111024818D01*
X153617929Y-110928183D01*
X153730734Y-110800852D01*
X153809790Y-110650225D01*
X153850500Y-110485056D01*
X153850500Y-110314944D01*
X153809790Y-110149775D01*
X153748090Y-110032216D01*
X153730736Y-109999150D01*
X153711560Y-109977505D01*
X153617929Y-109871817D01*
X153568177Y-109837475D01*
X153477931Y-109775182D01*
X153318874Y-109714860D01*
X153318868Y-109714859D01*
X153192374Y-109699500D01*
X153192372Y-109699500D01*
X153107628Y-109699500D01*
X153107626Y-109699500D01*
X152981131Y-109714859D01*
X152981125Y-109714860D01*
X152822068Y-109775182D01*
X152682072Y-109871816D01*
X152569263Y-109999150D01*
X152490210Y-110149773D01*
X152449500Y-110314944D01*
X152449500Y-110485055D01*
X146819001Y-110485055D01*
X146750000Y-106000000D01*
X133239573Y-106000000D01*
X133172534Y-105980315D01*
X133126779Y-105927511D01*
X133116835Y-105858353D01*
X133137996Y-105804879D01*
X133262102Y-105627639D01*
X133354575Y-105429330D01*
X133411207Y-105217977D01*
X133430277Y-105000000D01*
X133411207Y-104782023D01*
X133402626Y-104750000D01*
X146594540Y-104750000D01*
X146614326Y-104938256D01*
X146614327Y-104938259D01*
X146672818Y-105118277D01*
X146672821Y-105118284D01*
X146767467Y-105282216D01*
X146875000Y-105401643D01*
X146894129Y-105422888D01*
X147047265Y-105534148D01*
X147047270Y-105534151D01*
X147220192Y-105611142D01*
X147220197Y-105611144D01*
X147405354Y-105650500D01*
X147405355Y-105650500D01*
X147594644Y-105650500D01*
X147594646Y-105650500D01*
X147779803Y-105611144D01*
X147952730Y-105534151D01*
X148052114Y-105461944D01*
X148117921Y-105438464D01*
X148185975Y-105454289D01*
X148197885Y-105461944D01*
X148297265Y-105534148D01*
X148297270Y-105534151D01*
X148470192Y-105611142D01*
X148470197Y-105611144D01*
X148655354Y-105650500D01*
X148655355Y-105650500D01*
X148844644Y-105650500D01*
X148844646Y-105650500D01*
X149029803Y-105611144D01*
X149202730Y-105534151D01*
X149302116Y-105461942D01*
X149367919Y-105438464D01*
X149435973Y-105454289D01*
X149447884Y-105461944D01*
X149547265Y-105534148D01*
X149547270Y-105534151D01*
X149720192Y-105611142D01*
X149720197Y-105611144D01*
X149905354Y-105650500D01*
X149905355Y-105650500D01*
X150094644Y-105650500D01*
X150094646Y-105650500D01*
X150279803Y-105611144D01*
X150452730Y-105534151D01*
X150605871Y-105422888D01*
X150732533Y-105282216D01*
X150827179Y-105118284D01*
X150885674Y-104938256D01*
X150905460Y-104750000D01*
X150885674Y-104561744D01*
X150827179Y-104381716D01*
X150732533Y-104217784D01*
X150605871Y-104077112D01*
X150605870Y-104077111D01*
X150452734Y-103965851D01*
X150452729Y-103965848D01*
X150279807Y-103888857D01*
X150279802Y-103888855D01*
X150134001Y-103857865D01*
X150094646Y-103849500D01*
X149905354Y-103849500D01*
X149872897Y-103856398D01*
X149720197Y-103888855D01*
X149720192Y-103888857D01*
X149547270Y-103965848D01*
X149547266Y-103965850D01*
X149447883Y-104038056D01*
X149382077Y-104061535D01*
X149314023Y-104045709D01*
X149302114Y-104038055D01*
X149202734Y-103965851D01*
X149202729Y-103965848D01*
X149029807Y-103888857D01*
X149029802Y-103888855D01*
X148884001Y-103857865D01*
X148844646Y-103849500D01*
X148655354Y-103849500D01*
X148622897Y-103856398D01*
X148470197Y-103888855D01*
X148470192Y-103888857D01*
X148297271Y-103965848D01*
X148197885Y-104038056D01*
X148132078Y-104061535D01*
X148064025Y-104045709D01*
X148052115Y-104038056D01*
X147999735Y-104000000D01*
X147952730Y-103965849D01*
X147952728Y-103965848D01*
X147952729Y-103965848D01*
X147779807Y-103888857D01*
X147779802Y-103888855D01*
X147634001Y-103857865D01*
X147594646Y-103849500D01*
X147405354Y-103849500D01*
X147372897Y-103856398D01*
X147220197Y-103888855D01*
X147220192Y-103888857D01*
X147047270Y-103965848D01*
X147047265Y-103965851D01*
X146894129Y-104077111D01*
X146767466Y-104217785D01*
X146672821Y-104381715D01*
X146672818Y-104381722D01*
X146614327Y-104561740D01*
X146614326Y-104561744D01*
X146594540Y-104750000D01*
X133402626Y-104750000D01*
X133354575Y-104570670D01*
X133262102Y-104372362D01*
X133262100Y-104372359D01*
X133262099Y-104372357D01*
X133136597Y-104193121D01*
X133031156Y-104087680D01*
X132997671Y-104026357D01*
X133002655Y-103956665D01*
X133031152Y-103912322D01*
X133136598Y-103806877D01*
X133262102Y-103627639D01*
X133354575Y-103429330D01*
X133411207Y-103217977D01*
X133430277Y-103000000D01*
X133411207Y-102782023D01*
X133354575Y-102570670D01*
X133321621Y-102500000D01*
X137094540Y-102500000D01*
X137114326Y-102688256D01*
X137114327Y-102688259D01*
X137172818Y-102868277D01*
X137172821Y-102868284D01*
X137267467Y-103032216D01*
X137329631Y-103101256D01*
X137394129Y-103172888D01*
X137547265Y-103284148D01*
X137547270Y-103284151D01*
X137720192Y-103361142D01*
X137720197Y-103361144D01*
X137905354Y-103400500D01*
X137905355Y-103400500D01*
X138094644Y-103400500D01*
X138094646Y-103400500D01*
X138279803Y-103361144D01*
X138449566Y-103285559D01*
X138518813Y-103276275D01*
X138550430Y-103285557D01*
X138720197Y-103361144D01*
X138905354Y-103400500D01*
X138905355Y-103400500D01*
X139094644Y-103400500D01*
X139094646Y-103400500D01*
X139279803Y-103361144D01*
X139452730Y-103284151D01*
X139605871Y-103172888D01*
X139732533Y-103032216D01*
X139801362Y-102913000D01*
X162094540Y-102913000D01*
X162114326Y-103101256D01*
X162114327Y-103101259D01*
X162172818Y-103281277D01*
X162172821Y-103281284D01*
X162267467Y-103445216D01*
X162394129Y-103585888D01*
X162547265Y-103697148D01*
X162547270Y-103697151D01*
X162720192Y-103774142D01*
X162720197Y-103774144D01*
X162905354Y-103813500D01*
X162905355Y-103813500D01*
X163094644Y-103813500D01*
X163094646Y-103813500D01*
X163279803Y-103774144D01*
X163452730Y-103697151D01*
X163605871Y-103585888D01*
X163732533Y-103445216D01*
X163827179Y-103281284D01*
X163885674Y-103101256D01*
X163905460Y-102913000D01*
X163885674Y-102724744D01*
X163827179Y-102544716D01*
X163732533Y-102380784D01*
X163605871Y-102240112D01*
X163605870Y-102240111D01*
X163452734Y-102128851D01*
X163452729Y-102128848D01*
X163279807Y-102051857D01*
X163279802Y-102051855D01*
X163134001Y-102020865D01*
X163094646Y-102012500D01*
X162905354Y-102012500D01*
X162872897Y-102019398D01*
X162720197Y-102051855D01*
X162720192Y-102051857D01*
X162547270Y-102128848D01*
X162547265Y-102128851D01*
X162394129Y-102240111D01*
X162267466Y-102380785D01*
X162172821Y-102544715D01*
X162172818Y-102544722D01*
X162114327Y-102724740D01*
X162114326Y-102724744D01*
X162094540Y-102913000D01*
X139801362Y-102913000D01*
X139827179Y-102868284D01*
X139885674Y-102688256D01*
X139905460Y-102500000D01*
X139885674Y-102311744D01*
X139827179Y-102131716D01*
X139732533Y-101967784D01*
X139605871Y-101827112D01*
X139605870Y-101827111D01*
X139540280Y-101779457D01*
X159065083Y-101779457D01*
X159084869Y-101967713D01*
X159084870Y-101967716D01*
X159143361Y-102147734D01*
X159143364Y-102147741D01*
X159238010Y-102311673D01*
X159292654Y-102372361D01*
X159364672Y-102452345D01*
X159517808Y-102563605D01*
X159517813Y-102563608D01*
X159690735Y-102640599D01*
X159690740Y-102640601D01*
X159875897Y-102679957D01*
X159875898Y-102679957D01*
X160065187Y-102679957D01*
X160065189Y-102679957D01*
X160250346Y-102640601D01*
X160423273Y-102563608D01*
X160576414Y-102452345D01*
X160703076Y-102311673D01*
X160797722Y-102147741D01*
X160856217Y-101967713D01*
X160876003Y-101779457D01*
X160856217Y-101591201D01*
X160797722Y-101411173D01*
X160703076Y-101247241D01*
X160576414Y-101106569D01*
X160576413Y-101106568D01*
X160423277Y-100995308D01*
X160423272Y-100995305D01*
X160250350Y-100918314D01*
X160250345Y-100918312D01*
X160104544Y-100887322D01*
X160065189Y-100878957D01*
X159875897Y-100878957D01*
X159843440Y-100885855D01*
X159690740Y-100918312D01*
X159690735Y-100918314D01*
X159517813Y-100995305D01*
X159517808Y-100995308D01*
X159364672Y-101106568D01*
X159238009Y-101247242D01*
X159143364Y-101411172D01*
X159143361Y-101411179D01*
X159084870Y-101591197D01*
X159084869Y-101591201D01*
X159065083Y-101779457D01*
X139540280Y-101779457D01*
X139452734Y-101715851D01*
X139452729Y-101715848D01*
X139279807Y-101638857D01*
X139279802Y-101638855D01*
X139134001Y-101607865D01*
X139094646Y-101599500D01*
X138905354Y-101599500D01*
X138872897Y-101606398D01*
X138720197Y-101638855D01*
X138720192Y-101638857D01*
X138550435Y-101714439D01*
X138481185Y-101723724D01*
X138449563Y-101714439D01*
X138279807Y-101638857D01*
X138279802Y-101638855D01*
X138134000Y-101607865D01*
X138094646Y-101599500D01*
X137905354Y-101599500D01*
X137872897Y-101606398D01*
X137720197Y-101638855D01*
X137720192Y-101638857D01*
X137547270Y-101715848D01*
X137547265Y-101715851D01*
X137394129Y-101827111D01*
X137267466Y-101967785D01*
X137172821Y-102131715D01*
X137172818Y-102131722D01*
X137114349Y-102311673D01*
X137114326Y-102311744D01*
X137094540Y-102500000D01*
X133321621Y-102500000D01*
X133262102Y-102372362D01*
X133262100Y-102372359D01*
X133262099Y-102372357D01*
X133136597Y-102193121D01*
X133031156Y-102087680D01*
X132997671Y-102026357D01*
X133002655Y-101956665D01*
X133031152Y-101912322D01*
X133136598Y-101806877D01*
X133262102Y-101627639D01*
X133354575Y-101429330D01*
X133411207Y-101217977D01*
X133430277Y-101000000D01*
X133429866Y-100995306D01*
X133426569Y-100957618D01*
X133411207Y-100782023D01*
X133354575Y-100570670D01*
X133262102Y-100372362D01*
X133262100Y-100372359D01*
X133262099Y-100372357D01*
X133136597Y-100193121D01*
X133031156Y-100087680D01*
X132997671Y-100026357D01*
X133002655Y-99956665D01*
X133031152Y-99912322D01*
X133136598Y-99806877D01*
X133262102Y-99627639D01*
X133354575Y-99429330D01*
X133411207Y-99217977D01*
X133430277Y-99000000D01*
X161344540Y-99000000D01*
X161364326Y-99188256D01*
X161364327Y-99188259D01*
X161422818Y-99368277D01*
X161422821Y-99368284D01*
X161517467Y-99532216D01*
X161603386Y-99627638D01*
X161644129Y-99672888D01*
X161797265Y-99784148D01*
X161797270Y-99784151D01*
X161970192Y-99861142D01*
X161970197Y-99861144D01*
X162155354Y-99900500D01*
X162155355Y-99900500D01*
X162344644Y-99900500D01*
X162344646Y-99900500D01*
X162529803Y-99861144D01*
X162702730Y-99784151D01*
X162855871Y-99672888D01*
X162982533Y-99532216D01*
X163077179Y-99368284D01*
X163135674Y-99188256D01*
X163155460Y-99000000D01*
X163135674Y-98811744D01*
X163077179Y-98631716D01*
X163037070Y-98562245D01*
X163020598Y-98494348D01*
X163037069Y-98438252D01*
X163077179Y-98368781D01*
X163135674Y-98188753D01*
X163155460Y-98000497D01*
X163135674Y-97812241D01*
X163077179Y-97632213D01*
X162982533Y-97468281D01*
X162855871Y-97327609D01*
X162793393Y-97282216D01*
X162702734Y-97216348D01*
X162702729Y-97216345D01*
X162529807Y-97139354D01*
X162529802Y-97139352D01*
X162384001Y-97108362D01*
X162344646Y-97099997D01*
X162155354Y-97099997D01*
X162122897Y-97106895D01*
X161970197Y-97139352D01*
X161970192Y-97139354D01*
X161797270Y-97216345D01*
X161797265Y-97216348D01*
X161644129Y-97327608D01*
X161517466Y-97468282D01*
X161422821Y-97632212D01*
X161422818Y-97632219D01*
X161364327Y-97812237D01*
X161364326Y-97812241D01*
X161344540Y-98000497D01*
X161364326Y-98188753D01*
X161364327Y-98188756D01*
X161422821Y-98368782D01*
X161462927Y-98438248D01*
X161479400Y-98506148D01*
X161462928Y-98562247D01*
X161422820Y-98631716D01*
X161364327Y-98811740D01*
X161364326Y-98811744D01*
X161344540Y-99000000D01*
X133430277Y-99000000D01*
X133411207Y-98782023D01*
X133354575Y-98570670D01*
X133262102Y-98372362D01*
X133262100Y-98372359D01*
X133262099Y-98372357D01*
X133136599Y-98193124D01*
X133132228Y-98188753D01*
X132981877Y-98038402D01*
X132802639Y-97912898D01*
X132802640Y-97912898D01*
X132802638Y-97912897D01*
X132703484Y-97866661D01*
X132604330Y-97820425D01*
X132604326Y-97820424D01*
X132604322Y-97820422D01*
X132392977Y-97763793D01*
X132175002Y-97744723D01*
X132174998Y-97744723D01*
X132134807Y-97748239D01*
X132066307Y-97734472D01*
X132016124Y-97685857D01*
X132000000Y-97624711D01*
X132000000Y-96750000D01*
X143344540Y-96750000D01*
X143364326Y-96938256D01*
X143364327Y-96938259D01*
X143422818Y-97118277D01*
X143422821Y-97118284D01*
X143517467Y-97282216D01*
X143625000Y-97401643D01*
X143644129Y-97422888D01*
X143797265Y-97534148D01*
X143797270Y-97534151D01*
X143970192Y-97611142D01*
X143970197Y-97611144D01*
X144155354Y-97650500D01*
X144155355Y-97650500D01*
X144344644Y-97650500D01*
X144344646Y-97650500D01*
X144529803Y-97611144D01*
X144702730Y-97534151D01*
X144802114Y-97461944D01*
X144867921Y-97438464D01*
X144935975Y-97454289D01*
X144947885Y-97461944D01*
X145047265Y-97534148D01*
X145047270Y-97534151D01*
X145220192Y-97611142D01*
X145220197Y-97611144D01*
X145405354Y-97650500D01*
X145405355Y-97650500D01*
X145594644Y-97650500D01*
X145594646Y-97650500D01*
X145779803Y-97611144D01*
X145952730Y-97534151D01*
X146105871Y-97422888D01*
X146232533Y-97282216D01*
X146327179Y-97118284D01*
X146385674Y-96938256D01*
X146405460Y-96750000D01*
X146385674Y-96561744D01*
X146327179Y-96381716D01*
X146232533Y-96217784D01*
X146105871Y-96077112D01*
X146105870Y-96077111D01*
X145952734Y-95965851D01*
X145952729Y-95965848D01*
X145779807Y-95888857D01*
X145779802Y-95888855D01*
X145634000Y-95857865D01*
X145594646Y-95849500D01*
X145405354Y-95849500D01*
X145296882Y-95872556D01*
X145269468Y-95878383D01*
X145199801Y-95873066D01*
X145144068Y-95830928D01*
X145119963Y-95765348D01*
X145125757Y-95718776D01*
X145135674Y-95688256D01*
X145155460Y-95500000D01*
X145135674Y-95311744D01*
X145077179Y-95131716D01*
X144982533Y-94967784D01*
X144855871Y-94827112D01*
X144855870Y-94827111D01*
X144702734Y-94715851D01*
X144702729Y-94715848D01*
X144529807Y-94638857D01*
X144529802Y-94638855D01*
X144384001Y-94607865D01*
X144344646Y-94599500D01*
X144155354Y-94599500D01*
X144122897Y-94606398D01*
X143970197Y-94638855D01*
X143970192Y-94638857D01*
X143797270Y-94715848D01*
X143797265Y-94715851D01*
X143644129Y-94827111D01*
X143517466Y-94967785D01*
X143422821Y-95131715D01*
X143422818Y-95131722D01*
X143394792Y-95217979D01*
X143364326Y-95311744D01*
X143344540Y-95500000D01*
X143364326Y-95688256D01*
X143364327Y-95688258D01*
X143364327Y-95688259D01*
X143422818Y-95868277D01*
X143422821Y-95868284D01*
X143517467Y-96032216D01*
X143523037Y-96038402D01*
X143526301Y-96042027D01*
X143556531Y-96105018D01*
X143547906Y-96174353D01*
X143526306Y-96207965D01*
X143517469Y-96217779D01*
X143517466Y-96217784D01*
X143422821Y-96381715D01*
X143422818Y-96381722D01*
X143364327Y-96561740D01*
X143364326Y-96561744D01*
X143344540Y-96750000D01*
X132000000Y-96750000D01*
X132000000Y-96375288D01*
X132019685Y-96308249D01*
X132072489Y-96262494D01*
X132134805Y-96251760D01*
X132175000Y-96255277D01*
X132175000Y-96255276D01*
X132175001Y-96255277D01*
X132175002Y-96255277D01*
X132203254Y-96252805D01*
X132392977Y-96236207D01*
X132604330Y-96179575D01*
X132802639Y-96087102D01*
X132981877Y-95961598D01*
X133136598Y-95806877D01*
X133262102Y-95627639D01*
X133354575Y-95429330D01*
X133411207Y-95217977D01*
X133430277Y-95000000D01*
X133411207Y-94782023D01*
X133354575Y-94570670D01*
X133262102Y-94372362D01*
X133262100Y-94372359D01*
X133262099Y-94372357D01*
X133136599Y-94193124D01*
X133136596Y-94193121D01*
X132981877Y-94038402D01*
X132802639Y-93912898D01*
X132802640Y-93912898D01*
X132802638Y-93912897D01*
X132691648Y-93861142D01*
X132604330Y-93820425D01*
X132604326Y-93820424D01*
X132604322Y-93820422D01*
X132392977Y-93763793D01*
X132207064Y-93747528D01*
X132141995Y-93722076D01*
X132101016Y-93665485D01*
X132097138Y-93595723D01*
X132131592Y-93534939D01*
X132193439Y-93502431D01*
X132217871Y-93500000D01*
X147000000Y-93500000D01*
X147000000Y-93499999D01*
X146991936Y-93000000D01*
X166844540Y-93000000D01*
X166864326Y-93188256D01*
X166864327Y-93188259D01*
X166922818Y-93368277D01*
X166922821Y-93368284D01*
X167017467Y-93532216D01*
X167130421Y-93657664D01*
X167144129Y-93672888D01*
X167297265Y-93784148D01*
X167297270Y-93784151D01*
X167470192Y-93861142D01*
X167470197Y-93861144D01*
X167655354Y-93900500D01*
X167655355Y-93900500D01*
X167844644Y-93900500D01*
X167844646Y-93900500D01*
X168029803Y-93861144D01*
X168202730Y-93784151D01*
X168355871Y-93672888D01*
X168482533Y-93532216D01*
X168577179Y-93368284D01*
X168635674Y-93188256D01*
X168655460Y-93000000D01*
X168635674Y-92811744D01*
X168577179Y-92631716D01*
X168482533Y-92467784D01*
X168355871Y-92327112D01*
X168355870Y-92327111D01*
X168202734Y-92215851D01*
X168202729Y-92215848D01*
X168029807Y-92138857D01*
X168029802Y-92138855D01*
X167884001Y-92107865D01*
X167844646Y-92099500D01*
X167655354Y-92099500D01*
X167622897Y-92106398D01*
X167470197Y-92138855D01*
X167470192Y-92138857D01*
X167297270Y-92215848D01*
X167297265Y-92215851D01*
X167144129Y-92327111D01*
X167017466Y-92467785D01*
X166922821Y-92631715D01*
X166922818Y-92631722D01*
X166864327Y-92811740D01*
X166864326Y-92811744D01*
X166844540Y-93000000D01*
X146991936Y-93000000D01*
X146954059Y-90651650D01*
X146940170Y-89790508D01*
X150268370Y-89790508D01*
X150288156Y-89978764D01*
X150288157Y-89978767D01*
X150346648Y-90158785D01*
X150346651Y-90158792D01*
X150441297Y-90322724D01*
X150567958Y-90463396D01*
X150567959Y-90463396D01*
X150721095Y-90574656D01*
X150721100Y-90574659D01*
X150894022Y-90651650D01*
X150894027Y-90651652D01*
X151079184Y-90691008D01*
X151079185Y-90691008D01*
X151268474Y-90691008D01*
X151268476Y-90691008D01*
X151453633Y-90651652D01*
X151519411Y-90622364D01*
X151588659Y-90613079D01*
X151620282Y-90622365D01*
X151710502Y-90662534D01*
X151895659Y-90701890D01*
X151895660Y-90701890D01*
X152084949Y-90701890D01*
X152084951Y-90701890D01*
X152270108Y-90662534D01*
X152443035Y-90585541D01*
X152596176Y-90474278D01*
X152722838Y-90333606D01*
X152817484Y-90169674D01*
X152875979Y-89989646D01*
X152895765Y-89801390D01*
X152875979Y-89613134D01*
X152824107Y-89453489D01*
X152822112Y-89383648D01*
X152825323Y-89374514D01*
X152825171Y-89374465D01*
X152840268Y-89328000D01*
X152885674Y-89188256D01*
X152902529Y-89027888D01*
X165143811Y-89027888D01*
X165163597Y-89216144D01*
X165163598Y-89216147D01*
X165222089Y-89396165D01*
X165222092Y-89396172D01*
X165316738Y-89560104D01*
X165364483Y-89613130D01*
X165443400Y-89700776D01*
X165596536Y-89812036D01*
X165596541Y-89812039D01*
X165769463Y-89889030D01*
X165769468Y-89889032D01*
X165954625Y-89928388D01*
X165954626Y-89928388D01*
X166143915Y-89928388D01*
X166143917Y-89928388D01*
X166329074Y-89889032D01*
X166502001Y-89812039D01*
X166655142Y-89700776D01*
X166781804Y-89560104D01*
X166876450Y-89396172D01*
X166934945Y-89216144D01*
X166954731Y-89027888D01*
X166934945Y-88839632D01*
X166876450Y-88659604D01*
X166781804Y-88495672D01*
X166760413Y-88471915D01*
X166730183Y-88408924D01*
X166738808Y-88339588D01*
X166760415Y-88305969D01*
X166781804Y-88282215D01*
X166876450Y-88118283D01*
X166934945Y-87938255D01*
X166954731Y-87750000D01*
X168594540Y-87750000D01*
X168614326Y-87938256D01*
X168614327Y-87938258D01*
X168614327Y-87938259D01*
X168672818Y-88118277D01*
X168672821Y-88118283D01*
X168672821Y-88118284D01*
X168767467Y-88282216D01*
X168845574Y-88368962D01*
X168894129Y-88422888D01*
X169047265Y-88534148D01*
X169047270Y-88534151D01*
X169220192Y-88611142D01*
X169220197Y-88611144D01*
X169405354Y-88650500D01*
X169405355Y-88650500D01*
X169594644Y-88650500D01*
X169594646Y-88650500D01*
X169779803Y-88611144D01*
X169952730Y-88534151D01*
X170105871Y-88422888D01*
X170232533Y-88282216D01*
X170327179Y-88118284D01*
X170382068Y-87949351D01*
X170421506Y-87891675D01*
X170485865Y-87864477D01*
X170554711Y-87876392D01*
X170606187Y-87923636D01*
X170617931Y-87949351D01*
X170672818Y-88118277D01*
X170672821Y-88118283D01*
X170672821Y-88118284D01*
X170767467Y-88282216D01*
X170845574Y-88368962D01*
X170894129Y-88422888D01*
X171047265Y-88534148D01*
X171047270Y-88534151D01*
X171220192Y-88611142D01*
X171220197Y-88611144D01*
X171405354Y-88650500D01*
X171405355Y-88650500D01*
X171594644Y-88650500D01*
X171594646Y-88650500D01*
X171779803Y-88611144D01*
X171952730Y-88534151D01*
X172105871Y-88422888D01*
X172232533Y-88282216D01*
X172327179Y-88118284D01*
X172385674Y-87938256D01*
X172405460Y-87750000D01*
X172385674Y-87561744D01*
X172327179Y-87381716D01*
X172232533Y-87217784D01*
X172155456Y-87132181D01*
X172111147Y-87082971D01*
X172080917Y-87019980D01*
X172089542Y-86950644D01*
X172111147Y-86917028D01*
X172232533Y-86782216D01*
X172327179Y-86618284D01*
X172385674Y-86438256D01*
X172405460Y-86250000D01*
X172385674Y-86061744D01*
X172327179Y-85881716D01*
X172232533Y-85717784D01*
X172105871Y-85577112D01*
X172105870Y-85577111D01*
X171952734Y-85465851D01*
X171952729Y-85465848D01*
X171779807Y-85388857D01*
X171779802Y-85388855D01*
X171634001Y-85357865D01*
X171594646Y-85349500D01*
X171405354Y-85349500D01*
X171372897Y-85356398D01*
X171220197Y-85388855D01*
X171220192Y-85388857D01*
X171047270Y-85465848D01*
X171047265Y-85465851D01*
X170894129Y-85577111D01*
X170767466Y-85717785D01*
X170672821Y-85881715D01*
X170672818Y-85881722D01*
X170617931Y-86050648D01*
X170578493Y-86108324D01*
X170514135Y-86135522D01*
X170445288Y-86123607D01*
X170393813Y-86076363D01*
X170382069Y-86050648D01*
X170327181Y-85881722D01*
X170327180Y-85881721D01*
X170327179Y-85881716D01*
X170232533Y-85717784D01*
X170105871Y-85577112D01*
X170105870Y-85577111D01*
X169952734Y-85465851D01*
X169952729Y-85465848D01*
X169779807Y-85388857D01*
X169779802Y-85388855D01*
X169634001Y-85357865D01*
X169594646Y-85349500D01*
X169405354Y-85349500D01*
X169372897Y-85356398D01*
X169220197Y-85388855D01*
X169220192Y-85388857D01*
X169047270Y-85465848D01*
X169047265Y-85465851D01*
X168894129Y-85577111D01*
X168767466Y-85717785D01*
X168672821Y-85881715D01*
X168672818Y-85881722D01*
X168617931Y-86050648D01*
X168614326Y-86061744D01*
X168594540Y-86250000D01*
X168614326Y-86438256D01*
X168614327Y-86438259D01*
X168672818Y-86618277D01*
X168672821Y-86618284D01*
X168767467Y-86782216D01*
X168828049Y-86849499D01*
X168888851Y-86917027D01*
X168919081Y-86980019D01*
X168910456Y-87049354D01*
X168888852Y-87082970D01*
X168767466Y-87217785D01*
X168672821Y-87381715D01*
X168672818Y-87381722D01*
X168614327Y-87561740D01*
X168614326Y-87561744D01*
X168594540Y-87750000D01*
X166954731Y-87750000D01*
X166954731Y-87749999D01*
X166934945Y-87561743D01*
X166876450Y-87381715D01*
X166781804Y-87217783D01*
X166655142Y-87077111D01*
X166655141Y-87077110D01*
X166502005Y-86965850D01*
X166502000Y-86965847D01*
X166329078Y-86888856D01*
X166329073Y-86888854D01*
X166183271Y-86857864D01*
X166143917Y-86849499D01*
X165954625Y-86849499D01*
X165922168Y-86856397D01*
X165769468Y-86888854D01*
X165769463Y-86888856D01*
X165596541Y-86965847D01*
X165596536Y-86965850D01*
X165443400Y-87077110D01*
X165316737Y-87217784D01*
X165222092Y-87381714D01*
X165222089Y-87381721D01*
X165173191Y-87532216D01*
X165163597Y-87561743D01*
X165143811Y-87749999D01*
X165163597Y-87938255D01*
X165163598Y-87938258D01*
X165222089Y-88118276D01*
X165222092Y-88118283D01*
X165316738Y-88282215D01*
X165334768Y-88302239D01*
X165338128Y-88305971D01*
X165368358Y-88368962D01*
X165359733Y-88438298D01*
X165338129Y-88471914D01*
X165316737Y-88495672D01*
X165222092Y-88659603D01*
X165222089Y-88659610D01*
X165172658Y-88811744D01*
X165163597Y-88839632D01*
X165143811Y-89027888D01*
X152902529Y-89027888D01*
X152905460Y-89000000D01*
X152885674Y-88811744D01*
X152827179Y-88631716D01*
X152732533Y-88467784D01*
X152605871Y-88327112D01*
X152597690Y-88321168D01*
X152452734Y-88215851D01*
X152452729Y-88215848D01*
X152279807Y-88138857D01*
X152279802Y-88138855D01*
X152134000Y-88107865D01*
X152094646Y-88099500D01*
X151905354Y-88099500D01*
X151872897Y-88106398D01*
X151720197Y-88138855D01*
X151720191Y-88138857D01*
X151644024Y-88172769D01*
X151574774Y-88182053D01*
X151543155Y-88172769D01*
X151453634Y-88132912D01*
X151453632Y-88132911D01*
X151307831Y-88101921D01*
X151268476Y-88093556D01*
X151079184Y-88093556D01*
X151046727Y-88100454D01*
X150894027Y-88132911D01*
X150894022Y-88132913D01*
X150721100Y-88209904D01*
X150721095Y-88209907D01*
X150567959Y-88321167D01*
X150441296Y-88461841D01*
X150346651Y-88625771D01*
X150346648Y-88625778D01*
X150288157Y-88805796D01*
X150288156Y-88805800D01*
X150268370Y-88994056D01*
X150288156Y-89182312D01*
X150288157Y-89182315D01*
X150343929Y-89353964D01*
X150345924Y-89423805D01*
X150343929Y-89430600D01*
X150288157Y-89602248D01*
X150288156Y-89602252D01*
X150268370Y-89790508D01*
X146940170Y-89790508D01*
X146895162Y-87000000D01*
X156594540Y-87000000D01*
X156614326Y-87188256D01*
X156614327Y-87188259D01*
X156672818Y-87368277D01*
X156672821Y-87368284D01*
X156767467Y-87532216D01*
X156894129Y-87672888D01*
X157047265Y-87784148D01*
X157047270Y-87784151D01*
X157220192Y-87861142D01*
X157220197Y-87861144D01*
X157405354Y-87900500D01*
X157405355Y-87900500D01*
X157594644Y-87900500D01*
X157594646Y-87900500D01*
X157779803Y-87861144D01*
X157952730Y-87784151D01*
X158105871Y-87672888D01*
X158232533Y-87532216D01*
X158327179Y-87368284D01*
X158385674Y-87188256D01*
X158405460Y-87000000D01*
X158385674Y-86811744D01*
X158327179Y-86631716D01*
X158232533Y-86467784D01*
X158105871Y-86327112D01*
X158105870Y-86327111D01*
X157952734Y-86215851D01*
X157952729Y-86215848D01*
X157779807Y-86138857D01*
X157779802Y-86138855D01*
X157634000Y-86107865D01*
X157594646Y-86099500D01*
X157405354Y-86099500D01*
X157372897Y-86106398D01*
X157220197Y-86138855D01*
X157220192Y-86138857D01*
X157047270Y-86215848D01*
X157047265Y-86215851D01*
X156894129Y-86327111D01*
X156767466Y-86467785D01*
X156672821Y-86631715D01*
X156672818Y-86631722D01*
X156623920Y-86782216D01*
X156614326Y-86811744D01*
X156594540Y-87000000D01*
X146895162Y-87000000D01*
X146752032Y-78125999D01*
X146770633Y-78058652D01*
X146822692Y-78012051D01*
X146876016Y-78000000D01*
X147624711Y-78000000D01*
X147691750Y-78019685D01*
G37*
%TD.AperFunction*%
%TD*%
M02*
